<svg id="Layer_1" data-name="Layer 1" xmlns="http://www.w3.org/2000/svg" viewBox="0 0 4.02 5.12"><defs><style>.cls-1{fill:#302929;}</style></defs><title>curl3</title><path class="cls-1" d="M4,0A3.56,3.56,0,0,1,1.71,2a4.49,4.49,0,0,1-.9.23,1.31,1.31,0,0,1-.44,0c-.19,0-.15-.19-.09-.3.32-.6,1.44-.51,1.9-.09.29.27.12.64-.18.86a4,4,0,0,1-1.35.54l-.27.07,0,.07c1.12-.55,2.8.9,1.88,1.73,0,0,0,.06,0,0,.54-.4.28-1-.12-1.41A1.76,1.76,0,0,0,.37,3.29s0,.08,0,.07c.71-.15,1.77-.4,2-1s-.56-.85-1.09-.9a1.39,1.39,0,0,0-.88.18C.26,1.71,0,2,.15,2.16s.39.14.56.13a4.18,4.18,0,0,0,.9-.21A3.62,3.62,0,0,0,4,0S4,0,4,0Z"/><path class="cls-1" d="M1.21,3.63a1.19,1.19,0,0,1,.87.65s0,0,0,0a1.1,1.1,0,0,0-.91-.64Z"/><path class="cls-1" d="M1.67,1.28A1.58,1.58,0,0,0,0,1.65s0,0,.05,0A1.27,1.27,0,0,1,.8,1.26a2.65,2.65,0,0,1,.87,0Z"/></svg>