<svg id="Layer_1" data-name="Layer 1" xmlns="http://www.w3.org/2000/svg" viewBox="0 0 38.43 42.59"><defs><style>.cls-1,.cls-2{fill:#4d4d4d;}.cls-1{fill-rule:evenodd;}.cls-3{fill:#2d2d2d;}</style></defs><title>french_fries_big</title><path class="cls-1" d="M6.39,14.62c.16,0,.15-.15.11-.29C6.35,14.36,6.27,14.54,6.39,14.62Z"/><path class="cls-1" d="M8.57,21.38c.38.27,1,.11,1.54.1-.23-.21-.66,0-1-.09-.17,0-.28-.08-.43-.12S8.64,21.36,8.57,21.38Z"/><path class="cls-1" d="M9.86,23.9a1.78,1.78,0,0,0,1.37.16c-.37-.16-.91,0-1.24-.23C9.92,23.84,9.91,23.88,9.86,23.9Z"/><path class="cls-1" d="M10.1,24.41a1.64,1.64,0,0,0,1.43.1c0-.16-.19,0-.28,0a2,2,0,0,1-1-.15C10.15,24.34,10.14,24.39,10.1,24.41Z"/><path class="cls-1" d="M10.34,25a2.16,2.16,0,0,0,1.55.24C11.38,25.11,10.88,25,10.34,25Z"/><path class="cls-1" d="M11.3,27l0,.07a2.48,2.48,0,0,0,1.35.12A9.94,9.94,0,0,1,11.44,27Z"/><path class="cls-1" d="M11.88,28.63a2.1,2.1,0,0,0,1.44.14C12.81,28.8,12.33,28.51,11.88,28.63Z"/><path class="cls-1" d="M12.78,30.41a1.94,1.94,0,0,0,1.28.14c-.35-.13-.82-.06-1.15-.22C12.83,30.34,12.82,30.38,12.78,30.41Z"/><path class="cls-1" d="M13.1,30.93l0,.1a10.59,10.59,0,0,0,1.29.17c-.27-.33-.88-.1-1.19-.35A.29.29,0,0,1,13.1,30.93Z"/><path class="cls-1" d="M13.45,31.68c.38,0,.78.19,1.14,0a9.54,9.54,0,0,0-1.15-.22A.21.21,0,0,0,13.45,31.68Z"/><path class="cls-1" d="M13.6,32.06a1.67,1.67,0,0,0,1.33.17,4.88,4.88,0,0,1-1.2-.24C13.66,32,13.65,32,13.6,32.06Z"/><path class="cls-1" d="M14.54,34.45a2.17,2.17,0,0,0,1.27.11C15.41,34.54,14.89,34.22,14.54,34.45Z"/><path class="cls-1" d="M14.83,35a1.3,1.3,0,0,0,1.23.2C15.6,35.24,15.22,34.92,14.83,35Z"/><path class="cls-1" d="M15.38,36.39a1.79,1.79,0,0,0,1.31.24A5,5,0,0,0,15.38,36.39Z"/><path class="cls-1" d="M12.6,23.12s0,.06.06.06a7.17,7.17,0,0,1,1.49-.32c0-.07.18-.09.09-.21C13.87,22.76,12.9,23,12.6,23.12Z"/><path class="cls-1" d="M13.69,23.76a.7.7,0,0,0,.54-.13C14.08,23.56,13.81,23.7,13.69,23.76Z"/><path class="cls-1" d="M13.91,24.31s0,0,0,0a15.76,15.76,0,0,0,1.75-.51c.13,0,.25,0,.32-.1-.23-.13-.67.1-1.06.22A5.54,5.54,0,0,0,13.91,24.31Z"/><path class="cls-1" d="M15.08,27.85a.3.3,0,0,0,.43-.13C15.35,27.76,15.2,27.74,15.08,27.85Z"/><path class="cls-1" d="M14.3,25.2l0,.1a1.19,1.19,0,0,0,.67-.21c.51-.23,1.07-.12,1.33-.34s.38,0,.33-.18c-.28.1-.55,0-.77.17s-.05-.14-.12-.14-.1.1-.06.2C15.24,24.84,14.72,25.15,14.3,25.2Z"/><path class="cls-1" d="M15.93,30.08l0,.1c.93-.28,1.79-.44,2.6-.63a1.8,1.8,0,0,0-.83.08c-.54.12-1.19.32-1.69.42Z"/><path class="cls-1" d="M17.66,35.65l0,.1c.31-.14.9-.29,1.15-.43C18.47,35.12,18.11,35.56,17.66,35.65Z"/><path class="cls-1" d="M15.48,28.49c.42-.06.74-.23,1-.29C16.28,28,15.74,28.34,15.48,28.49Z"/><path class="cls-1" d="M20.69,33.15c-.16-.16-.35,0-.52.09-.74.22-2,.6-2.88.83,0,.06,0,.09.07.09,1-.23,1.94-.57,2.91-.87.14-.11.09.11.2,0S20.69,33.25,20.69,33.15Z"/><path class="cls-1" d="M19.7,41.45c.15.15.56.09.79-.07A5.3,5.3,0,0,0,19.7,41.45Z"/><path class="cls-1" d="M17.17,33c.19.1.59-.13.79-.21C17.8,32.68,17.39,33,17.17,33Z"/><path class="cls-1" d="M17.86,35a7.93,7.93,0,0,0,1.27-.29C19,34.57,18.25,34.88,17.86,35Z"/><path class="cls-1" d="M15.41,25.65c0,.05.05,0,.07.09a8.89,8.89,0,0,1,1.42-.44A3.52,3.52,0,0,0,15.41,25.65Z"/><path class="cls-1" d="M20.26,41.13a9.64,9.64,0,0,0,2.66-.43c.49-.11,1-.09,1.52-.22,1.71-.44,3.45-1,5.16-1.36-.77-.15-2,.47-3,.72l-2.23.55c-.39.09-.79.08-1.19.15s-1,.25-1.45.34S20.76,41,20.26,41.13Z"/><path class="cls-1" d="M12.87,17.26a.15.15,0,0,1,.07.09c.17-.1.18-.29.11-.5C12.86,16.92,13,17.17,12.87,17.26Z"/><path class="cls-1" d="M13.12,17.94a.5.5,0,0,0,.24-.62A2.44,2.44,0,0,0,13.12,17.94Z"/><path class="cls-1" d="M17.26,30.86c.21.08.58-.13.73-.16C17.84,30.51,17.47,30.77,17.26,30.86Z"/><path class="cls-1" d="M17.56,31.7a14.64,14.64,0,0,0,1.67-.48A3.71,3.71,0,0,0,17.56,31.7Z"/><path class="cls-1" d="M13.76,19.37c.12-.19.35-.46.22-.68A1.1,1.1,0,0,0,13.76,19.37Z"/><path class="cls-1" d="M12.42,14.95a1,1,0,0,0,.26.46C12.76,15.32,12.57,14.94,12.42,14.95Z"/><path class="cls-1" d="M16.81,29a.59.59,0,0,0,.48-.08C17.21,28.85,17,29,16.81,29Z"/><path class="cls-1" d="M14,19.54c.05-.08,0,0,.14,0s0-.09,0-.18A.2.2,0,0,0,14,19.54Z"/><path class="cls-1" d="M18.24,32.75a2.13,2.13,0,0,0,1-.21c.13,0,.39,0,.33-.17A13.56,13.56,0,0,0,18.24,32.75Z"/><path class="cls-1" d="M20.84,39.5c.06.14.48-.07.57-.17C21.25,39.29,21.07,39.48,20.84,39.5Z"/><path class="cls-1" d="M21.13,39.2a2.76,2.76,0,0,0,1.14-.32c0-.13,0-.21-.11-.25s0,.17,0,.23C21.6,39.05,21.52,39,21.13,39.2Z"/><path class="cls-1" d="M11.93,8.38c-.25-.38-.25-.95-.61-1.08C11.45,7.6,11.61,8.25,11.93,8.38Z"/><path class="cls-1" d="M21,37.87a.1.1,0,0,0,.12,0c.62-.31,1.66-.54,2.56-1A17.29,17.29,0,0,0,21,37.87Z"/><path class="cls-1" d="M17.12,25.19c.1.05.3-.08.44-.1C17.47,24.93,17.21,25.12,17.12,25.19Z"/><path class="cls-1" d="M21.34,38.51a3.52,3.52,0,0,0,1.28-.37A3.39,3.39,0,0,0,21.34,38.51Z"/><path class="cls-1" d="M19,29.87c.26.08.71-.19.95-.3C19.82,29.43,19.33,29.79,19,29.87Z"/><path class="cls-1" d="M20,32.28a9.83,9.83,0,0,0,2.49-.7c-.26-.07-.7.15-1.15.29Z"/><path class="cls-1" d="M21.53,36.87a.05.05,0,0,0,.06.05A19.22,19.22,0,0,0,24,36.16c-.39-.07-.78.2-1.18.33a4.77,4.77,0,0,0-1.21.34Z"/><path class="cls-1" d="M18.73,25.37a7,7,0,0,0,1.1-.2A2,2,0,0,0,18.73,25.37Z"/><path class="cls-1" d="M18.94,25.93a9.22,9.22,0,0,0,2-.57c-.13-.17-.3.06-.47.11A5.77,5.77,0,0,0,18.94,25.93Z"/><path class="cls-1" d="M22,35.73a.25.25,0,0,0,.17-.09C22.16,35.55,22,35.62,22,35.73Z"/><path class="cls-1" d="M20.63,30.75a7.83,7.83,0,0,0,2-.58A8.45,8.45,0,0,0,20.63,30.75Z"/><path class="cls-1" d="M18.93,24.52s.11,0,.13,0c.49-.2.9-.22,1.28-.36.09,0,.32-.08.31-.24C20.22,24.19,19.38,24.27,18.93,24.52Z"/><path class="cls-1" d="M23.78,40.1c0,.06,0,0,.07.09,1.31-.44,2.83-.47,4-1.21A36.11,36.11,0,0,1,23.78,40.1Z"/><path class="cls-1" d="M16.06,14.79c.13,0,.06-.44-.11-.36A.8.8,0,0,0,16.06,14.79Z"/><path class="cls-1" d="M22.55,35.42c.31.14.72-.2,1-.34C23.28,35,22.84,35.37,22.55,35.42Z"/><path class="cls-1" d="M19.88,26.07l0,.09a16,16,0,0,1,1.59-.38,1.87,1.87,0,0,0-1,.14A1.82,1.82,0,0,0,20,26C19.94,26,19.92,26.05,19.88,26.07Z"/><path class="cls-1" d="M23,35.68a6.45,6.45,0,0,0,2.16-.53A18.91,18.91,0,0,0,23,35.68Z"/><path class="cls-1" d="M20.42,25.68a1.91,1.91,0,0,0,.89-.13C21.11,25.44,20.62,25.59,20.42,25.68Z"/><path class="cls-1" d="M24.65,39.18a8.26,8.26,0,0,0,2.83-.63c.23-.08.58-.08.68-.32A18.69,18.69,0,0,1,24.65,39.18Z"/><path class="cls-1" d="M23.21,34.28a9.33,9.33,0,0,0,2.73-.81c.33-.11.85-.06.94-.44A29.1,29.1,0,0,1,23.21,34.28Z"/><path class="cls-1" d="M17.9,16.85c.14.11.25-.21.23-.36C18,16.59,18,16.75,17.9,16.85Z"/><path class="cls-1" d="M21.18,26.78c0,.08.11,0,.14.07.38-.26.91-.1,1.1-.45A11.68,11.68,0,0,0,21.18,26.78Z"/><path class="cls-1" d="M23.74,34.62a10.23,10.23,0,0,0,1.85-.4c-.3-.13-.83.15-1.28.25C24.11,34.53,23.89,34.49,23.74,34.62Z"/><path class="cls-1" d="M17.2,11.11s0,0,.08,0a2.44,2.44,0,0,0,.48-1.06C17.51,10.27,17.45,10.81,17.2,11.11Z"/><path class="cls-1" d="M21.41,24.4c.19,0,.79,0,.75-.2A2,2,0,0,0,21.41,24.4Z"/><path class="cls-1" d="M24.2,33.25c0,.14.23,0,.34,0S24.26,33.17,24.2,33.25Z"/><path class="cls-1" d="M17.25,10.55a1.07,1.07,0,0,0,.32-.82A4,4,0,0,0,17.25,10.55Z"/><path class="cls-1" d="M24.25,32.66c.35.06.64-.25,1.07-.3C25.11,32.27,24.55,32.53,24.25,32.66Z"/><path class="cls-1" d="M22.5,26.91l0,.1c.34-.06.71-.24,1.13-.35a4.19,4.19,0,0,0,1.72-.57C24.29,26.45,23.5,26.57,22.5,26.91Z"/><path class="cls-1" d="M22.8,27.61a1.06,1.06,0,0,0,.8-.17A1.77,1.77,0,0,0,22.8,27.61Z"/><path class="cls-1" d="M24.24,31.86l0,.07a7.84,7.84,0,0,0,1.44-.34,3.72,3.72,0,0,0,1.23-.53C26,31.34,25.12,31.68,24.24,31.86Z"/><path class="cls-1" d="M22.64,26.37c.23,0,.78,0,.81-.26Z"/><path class="cls-1" d="M24.08,30.87c0,.06.05,0,.07.09.62-.26,1.58-.45,2.27-.67.23-.07.51-.17.59-.36C26.11,30.32,24.94,30.53,24.08,30.87Z"/><path class="cls-1" d="M24.84,33a1.08,1.08,0,0,0,.7-.11C25.38,32.85,25.09,33,24.84,33Z"/><path class="cls-1" d="M24.26,30.19s0,.06.06.06a10.63,10.63,0,0,0,2.51-.89C26.06,29.69,25.09,29.85,24.26,30.19Z"/><path class="cls-1" d="M18.2,7.62a4.12,4.12,0,0,0-.5,1C17.9,8.29,18.23,8,18.2,7.62Z"/><path class="cls-1" d="M17.52,8a.11.11,0,0,0,.13,0c.07-.32.33-.54.35-.87C17.74,7.44,17.78,7.81,17.52,8Z"/><path class="cls-1" d="M23.9,28.18l0,.06a1.85,1.85,0,0,0,1-.32C24.68,27.83,24.24,28.2,23.9,28.18Z"/><path class="cls-1" d="M23,25a.64.64,0,0,1,0,.1c.64-.19,1.57-.46,2.29-.75A12,12,0,0,0,23,25Z"/><path class="cls-1" d="M22.69,23.78s0,.06.06.06a29.4,29.4,0,0,0,6.28-2c-1.1.28-2,.71-2.83,1-.41.13-.81.2-1.25.35a18,18,0,0,1-2.15.56Z"/><path class="cls-1" d="M24.32,29c.2,0,.88,0,.89-.24A7.84,7.84,0,0,0,24.32,29Z"/><path class="cls-1" d="M23,24.6s0,.05.06.05a28.87,28.87,0,0,0,4.63-1.54c-.16-.13-.35.06-.5.12a27.75,27.75,0,0,1-2.63.89A16,16,0,0,0,23,24.6Z"/><path class="cls-1" d="M17.63,7.14c.06-.09.19-.15.14-.3A.25.25,0,0,0,17.63,7.14Z"/><path class="cls-1" d="M26.76,36.5c.33-.06.83-.12,1.29-.22a1.55,1.55,0,0,0,.89-.38A16.73,16.73,0,0,0,26.76,36.5Z"/><path class="cls-1" d="M25.65,32.19c.07.1.41,0,.38-.16C25.91,32.08,25.71,32.1,25.65,32.19Z"/><path class="cls-1" d="M24.17,27.19c.12.14.68,0,.72-.19C24.64,27.07,24.44,27.08,24.17,27.19Z"/><path class="cls-1" d="M28,39a8,8,0,0,0,2-.55A10.63,10.63,0,0,0,28,39Z"/><path class="cls-1" d="M27.73,37.5a10.91,10.91,0,0,0,1.66-.41,3.38,3.38,0,0,0,1.39-.51C29.72,36.92,28.52,37.22,27.73,37.5Z"/><path class="cls-1" d="M25,27.87c.23.09.94-.23,1.28-.37A3.69,3.69,0,0,0,25,27.87Z"/><path class="cls-1" d="M26.9,32.59a1.19,1.19,0,0,0,.85-.12C27.59,32.34,27.24,32.53,26.9,32.59Z"/><path class="cls-1" d="M25.82,28.48a.05.05,0,0,0,.06.06,9.41,9.41,0,0,0,1.27-.29,1.53,1.53,0,0,0-.79.07C26.18,28.35,26,28.44,25.82,28.48Z"/><path class="cls-1" d="M25.67,26.76a5.16,5.16,0,0,0,1.9-.48A14.42,14.42,0,0,0,25.67,26.76Z"/><path class="cls-1" d="M29.64,39a6.31,6.31,0,0,0,1.73-.54A8,8,0,0,0,29.64,39Z"/><path class="cls-1" d="M22.46,15.33c.12-.06.2-.14.19-.28S22.46,15.21,22.46,15.33Z"/><path class="cls-1" d="M27.35,30.9s.28,0,.2-.1S27.37,30.85,27.35,30.9Z"/><path class="cls-1" d="M23.83,19.23a.82.82,0,0,0,.24-.61A1.56,1.56,0,0,0,23.83,19.23Z"/><path class="cls-1" d="M23.66,18.56c.11-.05.16-.22.07-.28A.43.43,0,0,0,23.66,18.56Z"/><path class="cls-1" d="M27.34,30.39a1.2,1.2,0,0,0,.72-.18C27.82,30.13,27.63,30.31,27.34,30.39Z"/><path class="cls-1" d="M27.7,30.79c.34.11.75-.21,1.17-.33s.79-.09.93-.36C29.11,30.27,28.48,30.54,27.7,30.79Z"/><path class="cls-1" d="M28,31.46c.22.09.47,0,.74-.13C28.63,31.18,28.16,31.42,28,31.46Z"/><path class="cls-1" d="M26.74,27.33c0,.06.05.06,0,0a9.88,9.88,0,0,0,1.59-.5c.32-.1.74-.08.93-.36C28.57,26.7,27.59,27,26.74,27.33Z"/><path class="cls-1" d="M29,34.18c1.55-.46,3.09-.95,4.74-1.58-1.08.19-2.29.81-3.27,1.09A4.8,4.8,0,0,0,29,34.18Z"/><path class="cls-1" d="M25.94,24.14c.06.13.12,0,.23,0C26.12,24,26.05,24.11,25.94,24.14Z"/><path class="cls-1" d="M27.67,29.71a0,0,0,0,0,.05,0A6,6,0,0,0,30.06,29,20.15,20.15,0,0,1,27.67,29.71Z"/><path class="cls-1" d="M25.56,22.17s0,.05.06.06a25.64,25.64,0,0,0,2.7-1.16A20.44,20.44,0,0,0,25.56,22.17Z"/><path class="cls-1" d="M29.26,33.55a40.15,40.15,0,0,0,4.64-1.62C32.36,32.36,31,32.93,29.26,33.55Z"/><path class="cls-1" d="M27.78,28c.13.06.53-.08.55-.24C28.13,27.89,27.83,27.91,27.78,28Z"/><path class="cls-1" d="M30.13,35.49a3.63,3.63,0,0,0,1.36-.35c.3-.11.71-.19.85-.41C31.55,35,30.89,35.18,30.13,35.49Z"/><path class="cls-1" d="M31,37.93c.41.1.88-.26,1.22-.45C31.93,37.5,31.4,37.83,31,37.93Z"/><path class="cls-1" d="M28.26,28.88s0,.06.06.06a17.09,17.09,0,0,0,1.81-.53c.19,0,.46,0,.55-.24C29.85,28.34,29,28.7,28.26,28.88Z"/><path class="cls-1" d="M31.68,38.48c.07.14.28-.08.35-.11C31.92,38.23,31.82,38.45,31.68,38.48Z"/><path class="cls-1" d="M30.18,32.55a3.47,3.47,0,0,0,1.68-.45C31.35,32.26,30.79,32.36,30.18,32.55Z"/><path class="cls-1" d="M28.89,27.41a3.84,3.84,0,0,0,1.6-.46A7.06,7.06,0,0,0,28.89,27.41Z"/><path class="cls-1" d="M31.88,36.38a6,6,0,0,0,1.63-.5C32.87,35.89,32.52,36.26,31.88,36.38Z"/><path class="cls-1" d="M27.93,23.56c0,.05.05,0,.07.09,1.26-.28,2.35-.84,3.58-1.19.35-.1.83-.06,1-.38C31.17,22.43,29.61,23.1,27.93,23.56Z"/><path class="cls-1" d="M24.84,13.39a.79.79,0,0,0,.23-.5A.94.94,0,0,0,24.84,13.39Z"/><path class="cls-1" d="M25.16,13.54c.13.06.33-.32.34-.5C25.3,13.16,25.32,13.4,25.16,13.54Z"/><path class="cls-1" d="M30.68,31.27l0,.1a15.82,15.82,0,0,1,2.72-.85l.39-.12c.29-.08.74-.07.77-.39-.73.29-1.44.49-2.22.72C31.84,30.91,31.09,30.92,30.68,31.27Z"/><path class="cls-1" d="M31,31.63s0,.06.06.06c.83-.55,2.06-.5,3-.83.19-.07.52-.18.57-.4C33.49,31.12,32.19,31,31,31.63Z"/><path class="cls-1" d="M32.37,35.84c.3-.17,1-.23,1.29-.47A2.76,2.76,0,0,0,32.37,35.84Z"/><path class="cls-1" d="M30.95,30.65a21.27,21.27,0,0,0,3.46-1.08c-.25-.07-.43.13-.67.21A28.15,28.15,0,0,0,30.95,30.65Z"/><path class="cls-1" d="M32,33.81c0,.06.05,0,.07.09.83-.27,1.85-.57,2.7-.91.12-.05.37-.1.38-.26C34.08,33.08,33.13,33.5,32,33.81Z"/><path class="cls-1" d="M32.55,34.67c.08.08.64-.06.59-.22A2.8,2.8,0,0,0,32.55,34.67Z"/><path class="cls-1" d="M33.44,37.31c0,.06.05.05.07.09a12.21,12.21,0,0,0,1.7-.75c.29-.14.66-.28.77-.53s-.2,0-.22-.07A13.94,13.94,0,0,1,33.44,37.31Z"/><path class="cls-1" d="M29.67,24.93a1.21,1.21,0,0,0,1-.1C30.48,24.58,30,24.95,29.67,24.93Z"/><path class="cls-1" d="M28.6,21c1.06-.17,2.19-.76,3.16-.92.19,0,.37.06.53-.06-.21-.31-.53,0-.79.06-.52.17-1.16.25-1.75.48a7.81,7.81,0,0,1-1.05.36S28.64,21,28.6,21Z"/><path class="cls-1" d="M29.28,21.7a0,0,0,0,0,0,.06c.59-.31,1.53-.4,2.26-.7.13-.06.38-.12.37-.3C31.08,21.16,30,21.37,29.28,21.7Z"/><path class="cls-1" d="M28.6,19.38c.26.1.57-.19.9-.24C29.31,19.05,28.8,19.28,28.6,19.38Z"/><path class="cls-1" d="M32.6,31.86s0,.06.06.06c.7-.33,1.49-.52,2.17-.89-.15-.14-.4.11-.6.18C33.69,31.43,33,31.66,32.6,31.86Z"/><path class="cls-1" d="M28.54,18.67a.12.12,0,0,0,.09,0,18.78,18.78,0,0,0,3.11-1.08C30.73,17.87,29.66,18.34,28.54,18.67Z"/><path class="cls-1" d="M33.86,35.52s.05.05.09,0a6.07,6.07,0,0,0,1.25-.46c.23-.06.49-.12.4-.34A8.29,8.29,0,0,1,33.86,35.52Z"/><path class="cls-1" d="M30.79,25.42s0,.06.06.05c.46-.07,1.32-.39,1.92-.56.23-.07.47-.06.54-.24C32.74,24.76,31.56,25.2,30.79,25.42Z"/><path class="cls-1" d="M31.15,24.08a10.43,10.43,0,0,0,1.82-.5A5.62,5.62,0,0,0,31.15,24.08Z"/><path class="cls-1" d="M29.29,17s0,.06.06.06a10.05,10.05,0,0,0,2-.65,2.46,2.46,0,0,0-1.07.3c-.25.09-.54.15-.85.26C29.36,16.91,29.33,17,29.29,17Z"/><path class="cls-1" d="M32.53,27.4a2.07,2.07,0,0,0,1.29-.33c-.19-.12-.42.1-.65.16A4.75,4.75,0,0,0,32.53,27.4Z"/><path class="cls-1" d="M29.52,17.47c0,.06,0,0,.07.09.59-.24,1.4-.2,1.76-.55C30.8,17.09,30.05,17.35,29.52,17.47Z"/><path class="cls-1" d="M29.89,18.54c.48.23,1.4-.37,2-.46-.12-.19-.48,0-.71.08a4.37,4.37,0,0,1-1.13.35Z"/><path class="cls-1" d="M32.55,26.82s0,.06.06.06a3,3,0,0,0,.53-.16c.17,0,.55,0,.57-.29C33.29,26.5,33,26.71,32.55,26.82Z"/><path class="cls-1" d="M32.38,26.15a1.79,1.79,0,0,0,1.25-.35A11.21,11.21,0,0,0,32.38,26.15Z"/><path class="cls-1" d="M34.82,34c.13.16.61-.08.67-.21C35.35,33.63,35,33.92,34.82,34Z"/><path class="cls-1" d="M31.9,24.5a3.21,3.21,0,0,0,1.22-.31C32.76,24.09,32.33,24.36,31.9,24.5Z"/><path class="cls-1" d="M34.15,30.87l0,.14c.18,0,.7-.08.64-.31C34.61,30.6,34.45,30.92,34.15,30.87Z"/><path class="cls-1" d="M30.44,18.81c.4-.1,1.14-.06,1.39-.4C31.46,18.53,30.82,18.63,30.44,18.81Z"/><path class="cls-1" d="M31.55,21.75c.28-.09.93,0,1-.34A5,5,0,0,0,31.55,21.75Z"/><path class="cls-1" d="M32.21,23.38c.1.15.67.07.65-.17A4,4,0,0,1,32.21,23.38Z"/><path class="cls-1" d="M31.32,19.65c.14.16.89,0,.8-.29C31.93,19.36,31.74,19.6,31.32,19.65Z"/><path class="cls-1" d="M30.24,14.67c.08.14.46,0,.5-.12C30.6,14.45,30.41,14.63,30.24,14.67Z"/><path class="cls-1" d="M30.51,14.3c.11.1.53.09.55-.1S30.63,14.19,30.51,14.3Z"/><path class="cls-1" d="M2.6,14.64c-.64-.41-1-.7-1.61-1.06A3.37,3.37,0,0,1,.17,13c-.39-.54,0-1.08.11-1.77,0-.11-.13-.08-.14-.21.74.07,1.41.12,2.08.22a5.62,5.62,0,0,0,.72.58,1.29,1.29,0,0,1-.06-.45c.43-.27.79-.79,1.32-1.1.15,0,.16.19.29.2a5.8,5.8,0,0,1-.68-2.07c0-.15-.15-.1-.19-.23a3.59,3.59,0,0,0,.69-1.15c.46,0,.87.1,1.34.09.05.16,0,.15.19.23a10,10,0,0,0,1,2.09c.12-.39.69-.56.74-1a.64.64,0,0,0,.26,0A4.46,4.46,0,0,0,7.42,7.1c.41-.33,1-.62,1-1.06.45-.18,1,.24,1.16-.14.65.89.78,2.23,1.29,3.28.22-.06.4-.23.54-.24a6.75,6.75,0,0,1-.66-1.49c.07-.11.29,0,.3-.17s-.16-.08-.21-.3c.12-.13.28-.24.38-.38A15.54,15.54,0,0,0,10,4.7c-.05-.08-.19,0-.25-.06.15-.35.25-1.18.66-1.37.13-.06.26,0,.42,0,.34-.06.69-.32,1-.28a13.6,13.6,0,0,0,1.55,2.51l1.18,2.17A12,12,0,0,1,14.15,5a2,2,0,0,0,.94-.47c0-.29-.23-.67-.17-.92.31-.25.82-.29,1.1-.59,0-.61-.42-1.37,0-1.91a4.6,4.6,0,0,0,1.39-.5c.33.16.26.58.32.91.16.83.54,1.75.76,2.69.16-.1.13-.29.17-.45.4,0,.82.19,1.13.15a5.6,5.6,0,0,1-.14-2.05,4.47,4.47,0,0,0,1.55-.37c0,.21.14.19.21.3s.16.89.47,1.26c0-.39,0-.73,0-1.12.14-.06.14-.2.13-.34.37-.22.62-.59,1.06-.69s.87.16,1.27.11c.21.35.1.69.12,1.12A40,40,0,0,0,25,6.94c-.07-1,0-2.23-.1-3.33a7.81,7.81,0,0,1-.18-1.21c0-.47.57-.71.92-1,.15-.14.15-.32.33-.42.33.34.82.34,1.07.71.36.52,0,1.77.18,2.44.33.11.74-.21,1,0,.24.43.14,1.14.42,1.49a9,9,0,0,1,.09-1.22c0-.39,0-.8,0-1.24a7.37,7.37,0,0,0,.1-1.19A2.86,2.86,0,0,1,28.93.77C29.16.41,30,.16,30.36,0c.31.33.93.14,1.26.44a56.54,56.54,0,0,0-.83,7.42c.55-1.49,1.32-2.87,2-4.32a10.37,10.37,0,0,1,1.2-.63c.48.44,1.21.46,1.6,1-.11.08-.11.12-.27.13a28.09,28.09,0,0,0-2.6,6.34c.39,0,.4.4.48.68.28,1,.61,1.94.8,2.93.3,1.59.57,3.3.91,4.92.12.58.3,1.14.46,1.74.34,1.28.5,2.23.79,3.4.67,2.71,1.23,6.15,2.22,9.14-.12.28.08.71.1,1.05,0,.1-.15.13-.16.23s0,.23,0,.37a6.76,6.76,0,0,1-1.83,2.45,4.08,4.08,0,0,1-1,.62c-1.13.47-2.36,1-3.6,1.48a52.37,52.37,0,0,1-12.39,3.17c-.61-.21-1.42-.14-1.87-.65-.14-.16-.13-.45-.4-.53a10.78,10.78,0,0,1-1.19-2.34,8.46,8.46,0,0,0-.38-1.22c-.13-.25-.35-.44-.48-.68a9,9,0,0,1-.73-1.84,7.28,7.28,0,0,0-.78-1.63c-.18-.34-.27-.71-.44-1.05s-.43-.75-.59-1.15c-.35-.86-.71-1.53-1.1-2.29-.58-1.13-1.11-2.39-1.58-3.48-.6-1.39-1.33-2.64-2-3.92-.29-.53-.45-1.09-.7-1.62s-.95-1.38-.35-1.88a16.34,16.34,0,0,0-3.6-2.6C3.75,15.19,3,14.92,2.6,14.64ZM.73,12.73a.47.47,0,0,0-.35,0q.82.59,1.67,1.14a6.06,6.06,0,0,0-1.35-1C.67,12.81.67,12.75.73,12.73Zm.39-.12c-.08-.38.43-.71.42-1.14a6.26,6.26,0,0,1-.87.08c-.28.22-.18.62-.29.92C.56,12.63.86,12.59,1.12,12.6Zm-.32.1c0,.12.27.24.38.35s.12,0,.22,0a15,15,0,0,1,2.25,1.87,11.1,11.1,0,0,1,1.78,1.36,31.9,31.9,0,0,0-3-2.68A3.42,3.42,0,0,0,.8,12.7Zm7.64,6.62c.42-.09.72-.11,1.18-.19-.08-.07-.22-.09-.19-.23-.07.05-.1.12-.23.15,0-.15.11-.21.13-.33-.17,0-.15.32-.34.39-.14-.21.37-.45.12-.73-.21.09-.17.29-.34.39,0-.24.13-.38.25-.55a1.78,1.78,0,0,1-.2-.27c-.15.18-.18.4-.32.58-.11-.22.16-.48.25-.69s-.11-.16-.15-.24c-.19.1-.14.32-.33.43a.92.92,0,0,1,.22-.54.88.88,0,0,1-.2-.27c-.25.2-.14.57-.42.75-.1-.3.49-.75.17-1.06-.26.16-.17.5-.5.63,0-.28.29-.46.35-.73s-.17-.11-.2-.26c-.25.15-.1.49-.43.61,0-.32.47-.61.19-.89-.2.17-.2.44-.39.63-.09-.24.25-.52.26-.8-1.34-2-3.54-3.28-5.49-4.55a2,2,0,0,0-.56.94A36.1,36.1,0,0,1,8.44,19.33ZM2.18,13.9a5.53,5.53,0,0,0,1.06.79A11.47,11.47,0,0,0,2.18,13.9Zm1.48,1.79c-.05-.12,0-.18.08-.25-.12-.08-.13.12-.18.17s.18.06.24.14,0-.11.08-.13C3.77,15.55,3.8,15.74,3.66,15.68Zm.34,0c0,.31.52.42.74.63A6.58,6.58,0,0,0,4,15.65Zm-.73-4.22c.84.82,1.67,1.65,2.46,2.56.08-.29.5-.46.25-.84-.12.19-.19.42-.41.56-.07-.19.26-.43.34-.64s-.12-.2-.17-.31a.6.6,0,0,1-.29.56c0-.17.13-.26.19-.39s-.14-.11-.16-.27c-.15.17-.18.4-.37.55-.05-.21.26-.47.32-.71s-.21-.38-.19-.48c-.21.06-.25.43-.43.6-.05-.24.28-.53.32-.82-.35-.33-.61-.84-1-1.06C3.83,11,3.53,11.19,3.27,11.43ZM3.6,12a1.81,1.81,0,0,0,.94.9C4.24,12.54,3.91,12.28,3.6,12Zm1.55,4.25c0,.28.49.52.7.76C5.74,16.72,5.36,16.49,5.15,16.23Zm0-2.56a2.53,2.53,0,0,1,.25.18C5.45,13.89,5.25,13.62,5.13,13.67Zm2.09,5.71c.11,0,.25-.11.33-.07a.14.14,0,0,1-.09.21c.19.15.29-.05.46,0s0,0,0,.15a14.67,14.67,0,0,0,5.16-1.1c0-.21-.57-.06-.63.09-.74.1-1.61.3-2.37.48-.07,0-.1.1-.08.09a7,7,0,0,1-2,.22A1.9,1.9,0,0,1,7.19,19l-.11,0C7,19.22,7.22,19.19,7.21,19.38Zm.14.31c.13.11.38.25.54.12A3.11,3.11,0,0,0,7.35,19.7Zm.14.32.05.16c.22,0,.35.09.54.12,0-.07,0-.15,0-.23C7.9,20.08,7.72,20,7.49,20Zm.17.31c0,.08,0,.11,0,.24a3.94,3.94,0,0,0,.91.18c0-.06,0-.08,0-.15a.36.36,0,0,1-.32,0c-.08-.09.11-.06,0-.16A1.47,1.47,0,0,1,7.66,20.32Zm.17.42c-.07,0,0,.19,0,.28S8,21,8.1,21a5.15,5.15,0,0,0,2,.13c.2,0,.42-.17.61,0A5.87,5.87,0,0,1,8,21.14a.66.66,0,0,1,.12.26,5.93,5.93,0,0,0,2.64.15c-.44.34-1.06.14-1.53.18.29.14.74,0,1,.15a4.37,4.37,0,0,1-1.28,0c0-.09,0-.15.07-.16-.31,0-.54-.12-.82-.14.05.13.21.14.17.3a5.85,5.85,0,0,0,2.75.13c-.17.3-.77.19-1.06.22.06.1.25,0,.3.08a2.72,2.72,0,0,1-1.18,0c0-.07,0-.13,0-.15a2.36,2.36,0,0,1-.67-.15c0,.12.05.12.08.26a6.8,6.8,0,0,0,2.65.19c-.09.32-.54.19-.8.18s-.64,0-.87-.06c.14.21.66.19,1,.28-.44.17-.89-.08-1.29-.15a.1.1,0,0,1,.08-.1,1.61,1.61,0,0,0-.66-.15c.1.13.17.31.26.46a5.83,5.83,0,0,0,2.25.27c.11,0,.26-.17.35,0a3.51,3.51,0,0,1-1.52.08c.14.23.74.09,1.09.13-.43.29-1.06.07-1.48,0-.05-.08.06-.08.08-.13a2.74,2.74,0,0,1-.64-.2c0,.1.05.17.1.33a4.54,4.54,0,0,0,2.6.27c-.08.22-.42.17-.6.19a4.4,4.4,0,0,1-1.83-.26c-.07.11.12.2.11.37l.14,0a3.68,3.68,0,0,0,2,.33c.15,0,.34-.18.43,0a4,4,0,0,1-2.46-.17c0,.07.08.12.09.29a3.71,3.71,0,0,0,2.11.43c.17,0,.4-.13.55,0a5.06,5.06,0,0,1-2.48-.13c.1.15.06.22.14.32a4.2,4.2,0,0,0,2.13.38c.15,0,.36-.16.5,0a4.38,4.38,0,0,1-1.77,0c.24.19.65.07.92.22a2.57,2.57,0,0,1-1.15-.08.15.15,0,0,1,0-.15c-.16-.09-.36-.08-.52-.16,0,.08.07.18.11.36a4.94,4.94,0,0,0,2.52.15c0,.25-.52.11-.77.24.1,0,.25,0,.36,0-.3.21-.85,0-1.23.05-.14-.3-.51-.19-.75-.31,0,.31.47.24.61.46a4.57,4.57,0,0,0,2.06,0c-.13.26-.55.25-.81.25s-.57-.07-.79,0a3.43,3.43,0,0,0,1.13.15c-.07.18-.44.12-.67.1s-.51-.09-.69-.11,0-.15.06-.17c-.24-.09-.53-.09-.71-.29.21.94,1.78.66,2.62.7a4.23,4.23,0,0,1-2.39-.09l.12.4a6.51,6.51,0,0,0,2.76.26,3.34,3.34,0,0,1-1.6.1c0,.17.52,0,.69.11-.29.21-.83,0-1.19,0-.09-.11.08-.09,0-.18a3.5,3.5,0,0,1-.54-.12c0,.07.11.21.11.36s0,0,.14,0a4.76,4.76,0,0,0,2.46.17c-.15.24-.83.17-1,.2s.24,0,.41.06c-.42.21-.87,0-1.27,0-.06-.24-.37-.2-.62-.24a.51.51,0,0,0,.09.29,6.88,6.88,0,0,0,2.24.24c.16-.05.32-.13.39,0a5.45,5.45,0,0,1-2.53,0,2.13,2.13,0,0,1,.26.46,6,6,0,0,0,2.46.17c-.16.24-.58.22-.87.2a7.82,7.82,0,0,1-.84-.1c.17.2.75.11,1.09.16-.32.24-.86.05-1.23,0,0-.09,0-.15.07-.17a3.59,3.59,0,0,0-.63-.13c.21.59,1.18.68,1.87.65.23,0,.5-.18.66,0-.28.16-.66,0-1,.09.14.09.39,0,.56.07-.34.25-.86,0-1.28,0,0-.23-.29-.19-.5-.24.52.83,1.75.41,2.6.64a5.1,5.1,0,0,1-2.34-.18c-.08.12.1.24.12.37a4.31,4.31,0,0,0,1.88.31c.14,0,.35-.19.49,0a3,3,0,0,1-2.19-.07c-.11.11.17.24.07.34a4.58,4.58,0,0,0,2.54.29c-.83.44-1.69,0-2.42,0a3,3,0,0,1,.17.42,14.22,14.22,0,0,0,2.37.27,2.27,2.27,0,0,1-1.1.05c-.39,0-.78-.09-1.12-.12a.57.57,0,0,0,.15.36,6.71,6.71,0,0,0,2.29.26c-.09.21-.44.1-.67.1s-.52,0-.74,0a1.21,1.21,0,0,0,.9.15c-.32.26-1,.16-1.11-.2a2.05,2.05,0,0,1-.52-.05c-.12.06.13.13,0,.17a3.7,3.7,0,0,0,2.4.48c0,.24-.49.2-.61.15s0,.12-.11.14a4.92,4.92,0,0,1-1-.12c0-.1,0-.13.15-.15-.22-.1-.45-.17-.66-.26.3.81,1.46.83,2.31.69.08.27-.6.23-.82.22s-.45-.13-.61-.1c.24.21.64.14,1,.16a1.21,1.21,0,0,1-1.14,0c0-.08,0-.11.11-.14a3.28,3.28,0,0,0-.5-.13,1.44,1.44,0,0,0,.17.42,5.27,5.27,0,0,0,1.38.33c.25,0,.54-.17.73,0a3.12,3.12,0,0,1-1.89-.1c-.08.15.12.26.13.43a5.78,5.78,0,0,0,2,.31c-.16.29-.7.14-1,.09l-1-.2c-.07.13.1.27.12.39a5,5,0,0,0,1.7.48c.17,0,.34-.11.48,0a2.26,2.26,0,0,1-1.3-.07c.11.23.68.09.93.25a2.3,2.3,0,0,1-1.28-.14c0-.06,0-.13.11-.15-.15-.09-.35-.09-.49-.21a.67.67,0,0,0,.11.47,4.64,4.64,0,0,0,1.7.48c.14,0,.32-.09.4,0a3.17,3.17,0,0,1-2-.31l.2.41A3.48,3.48,0,0,0,16.8,37c.17,0,.34-.13.48,0-.42.2-.87,0-1.28,0a1.5,1.5,0,0,0,.67.18c-.22.23-.65,0-.88-.09,0-.09,0-.12.11-.14a2.69,2.69,0,0,0-.61-.21,2,2,0,0,0,.18.45c.12-.06.18,0,.27,0a3.76,3.76,0,0,0,1.17.39c.21,0,.43-.17.62,0a2.9,2.9,0,0,1-1.29.21,4.91,4.91,0,0,0,1.64.29c-.09.26-.42.13-.63.09a4.59,4.59,0,0,0-.7-.11c.21.18.57.09.78.27-.31.11-.69-.08-1-.12,0-.05.08-.2.15-.12a1.41,1.41,0,0,0-.57-.22.9.9,0,0,1,.15.35c.2,0,.27.14.41.2a13.23,13.23,0,0,0,1.61.33c-.36.26-.87-.1-1.27-.11a3,3,0,0,0,.82.25,1.23,1.23,0,0,1-1-.19c0-.08.17,0,.08-.14s-.33-.1-.51-.13c.08.13,0,.21.13.4s.26,0,.37.07,0,.07-.05.09c.48.32,1.26.1,1.73.44-.46.16-.86-.22-1.36-.15.19.21.51.18.78.26-.21.18-.68,0-.93-.11-.05-.1,0-.16,0-.24-.17,0-.23-.12-.41-.06.08.08,0,.15.1.3a3.59,3.59,0,0,0,2,.47c-.14.38-.86,0-1.16,0a1.32,1.32,0,0,0,.68.19c-.24.26-.61-.07-.91,0a1.69,1.69,0,0,0,.95.43c.19,0,.41-.14.56,0-.29.18-.83,0-1.18-.06a1.24,1.24,0,0,0-.59-.29c.17.32.44.8.92.72a2.33,2.33,0,0,1-.5-.24c.27-.26.55.27.89.23-.24.18.58,0,.74.13a3.44,3.44,0,0,1-1.66-.1c.1.27.42.13.46.36.1,0,.17,0,.28,0a3.15,3.15,0,0,0,1.32.24,1.24,1.24,0,0,1-1.45-.05,1.89,1.89,0,0,0,2.05.51c0-.06-.12,0-.14-.06s.34-.06.48-.08-.08.05-.13.08A39.21,39.21,0,0,0,28.94,40c.06-.05.09-.12.14-.18a6.13,6.13,0,0,0,1.3-.44c0,.1-.09.11-.15.16.63-.23,1.32-.52,2-.78a34.08,34.08,0,0,0-4.14,1.29c-.3-.1-.86.21-1.34.31.27.09.79-.26,1.06-.19a6.11,6.11,0,0,1-1.08.37.17.17,0,0,1-.12-.14,6.7,6.7,0,0,1-1.68.45c.34.11-.66.36-1,.41-.71.12-1.81.29-2.33.36.8-.27,1.79-.37,2.66-.68-.91.07-2,.38-2.88.46a1.45,1.45,0,0,1-.71,0c1.64-.22,3.42-.5,5.15-.88,1.15-.26,2.44-.75,3.57-1.11.63-.2,1.28-.36,1.91-.6a12.78,12.78,0,0,1,2.37-.84c.08,0,0-.11.08-.13A7.42,7.42,0,0,0,35.44,37a.25.25,0,0,1,.1.07c.07-.15.34-.21.43-.35s0,.13.16.13-.08-.24,0-.3a23.8,23.8,0,0,1-3.91,1.76,31,31,0,0,0,3.81-1.95c.05-.16,0-.22-.06-.45-1,.32-1.76,1-2.58,1.17.63-.4,1.31-.65,2-1,0-.09,0,0,0-.13.13-.14.57-.14.55-.35-.57.11-1.53.81-2.13.88.11-.25.65-.29.9-.46a26.21,26.21,0,0,0-2.95,1.24,11.93,11.93,0,0,1-1.93.64,57.6,57.6,0,0,0,5.38-2.37,2.64,2.64,0,0,0,.65-.42,5.67,5.67,0,0,1-.15-.6,4.72,4.72,0,0,1-1.07.41,9.93,9.93,0,0,1,1-.5c0-.09-.12-.23,0-.28-1,.19-1.69.78-2.65,1,.87-.37,1.8-.85,2.61-1.1a2.07,2.07,0,0,0-.07-.48c-.64.19-1.41.67-2.06.85a7.91,7.91,0,0,1,1.2-.62c.3-.16.75-.22.81-.51-.75.14-1.8.57-2.74.78.85-.44,1.92-.61,2.68-1a5.64,5.64,0,0,1-.15-.86A7.25,7.25,0,0,1,34,32.5,7.57,7.57,0,0,1,35.18,32a2.17,2.17,0,0,1-.06-.45c-.1.22-.58.26-.89.39a2.74,2.74,0,0,1,.84-.52c-.2-.81-.33-1.46-.52-2.15a4.07,4.07,0,0,1-.94.22,3.28,3.28,0,0,1,.89-.38l-.08-.26c-.11,0-.09.11-.19.13-1.12.11-1.75.73-2.91.87,1-.35,1.92-.75,3.07-1.1-.09,0,0-.07-.05-.17a2.48,2.48,0,0,1-.92.26,2.78,2.78,0,0,1,.89-.38c-.07-.12,0-.16,0-.28A9.29,9.29,0,0,1,32,29c.66-.36,1.67-.53,2.21-.87-.06-.15,0-.25-.09-.41a3.49,3.49,0,0,1-1.41.33c.52-.23.83-.16,1.38-.43-.15-.56-.22-.92-.35-1.48a1.46,1.46,0,0,1-.67.21c.11-.18.54-.21.66-.38l-.11-.36a1.43,1.43,0,0,1-.67.1c.15-.2.55-.09.6-.33a16.64,16.64,0,0,0-2.14.49c.22-.37,1.68-.27,2.08-.79a4.34,4.34,0,0,0-.83.19c0-.21.61-.26.71-.33a19.82,19.82,0,0,0-.45-2.06,31.49,31.49,0,0,1-5,1.53c.48-.16,1.06-.3,1.66-.52.86-.32,1.8-.59,2.49-.82.3-.1.75-.15.83-.44-.3-.07-.56.2-.87.2.07-.22.65-.31.85-.37-.15-.52-.14-.95-.35-1.49A.57.57,0,0,1,32,21c0-.09.32-.2.46-.14a1.38,1.38,0,0,0-.09-.52,2.9,2.9,0,0,1-.94.22,2.06,2.06,0,0,1,1-.29c-.13-.43-.14-.77-.29-1.18a43.57,43.57,0,0,1-4.45,1.27c1.56-.52,2.88-.86,4.44-1.42-.1-.21-.54.16-.61-.1.09-.1.34-.06.53-.17-.07-.45-.23-1-.32-1.42-.21.16-.73.41-1,.31a7.57,7.57,0,0,1,.93-.37A10.85,10.85,0,0,1,31.36,16c-.09.1-.36.3-.52.2,0-.21.43-.18.48-.33-.3,0-1,.32-1.35.28.36-.21.82-.21,1.19-.41,0-.08-.12-.23,0-.28-.44.06-.77.23-1.16.25.37-.27.78-.21,1.22-.45a3,3,0,0,1-.12-.51c-.2,0-.76.31-.9.21.22-.18.84-.18.82-.48.29,0,.2.72.4.78.18,1.5.79,3.09,1.16,4.84.54,2.57,1.12,5.16,1.79,7.76.78,3,1.34,6,2,8.94a5.13,5.13,0,0,0,1.48-2.34c-.3.2-.4.74-.87,1,.33-.5.92-1,.75-1.83a3.13,3.13,0,0,1-.83,1.17c0-.14.13-.25.2-.36a2,2,0,0,0,.5-1c0-.09,0-.14.09-.21s0-.16,0-.24c-.31.19-.33.52-.68.69.15-.45.8-.66.52-1.32-.29.28-.39.65-.72.91,0-.45.91-.9.51-1.49-.18,0-.32.53-.65.67.21-.51.82-.79.51-1.49-.27.27-.38.62-.7.86.13-.55.86-.88.57-1.55-.17.22-.27.47-.58.62.17-.4.68-.63.43-1.22-.2.15-.25.37-.51.48.14-.38.68-.57.33-1.18-.16.13-.23.3-.41.42.14-.42.55-.58.25-1.17a4.67,4.67,0,0,1-.45.54c0-.35.59-.69.39-1.24-.2,0-.26.39-.55.49.16-.46.72-.6.36-1.2-.24.13-.32.47-.58.5.1-.27.4-.44.52-.7a4.19,4.19,0,0,1-.13-.54c-.18.15-.23.36-.43.49,0-.32.55-.61.31-1.14-.18,0-.26.3-.46.39,0-.3.61-.51.3-1-.16,0-.25.46-.57.54.19-.42.69-.7.39-1.36a3.92,3.92,0,0,1-.49.55c-.06-.22.33-.46.45-.68a1.16,1.16,0,0,0-.12-.4c-.16-.05-.32.52-.58.51.23-.41.71-.69.4-1.35-.21.15-.32.35-.55.49-.07-.21.37-.4.47-.62-.09-.08-.09-.33-.11-.47-.24.18-.31.43-.64.57.13-.3.44-.5.61-.77-.13-.09,0-.27-.13-.43a3.57,3.57,0,0,1-.54.49c0-.23.44-.44.52-.7-.12-.25-.06-.29-.13-.54-.22.11-.31.42-.52.45a2.21,2.21,0,0,1,.5-.62,2.46,2.46,0,0,1-.16-.64c-.18.15-.25.49-.5.51.16-.35.59-.59.34-1.15-.19.17-.24.4-.53.53.12-.37.63-.55.39-1.1-.2.12-.19.34-.45.43,0-.26.31-.39.39-.63s-.12-.34-.08-.52c-.17,0-.25.33-.45.43,0-.3.57-.62.29-1.07-.2.09-.19.29-.43.35,0-.24.31-.36.41-.56-.09-.18,0-.3-.11-.47-.15.11-.17.27-.4.34,0-.23.28-.33.38-.52a.78.78,0,0,1-.08-.52c-.25,0-.3.42-.61.52.19-.41.74-.66.45-1.29-.09,0-.22.21-.32.35s-.18.35-.33.43c0-.37.62-.71.55-1.22-.14,0-.3.38-.51.48,0-.41.61-.56.39-1.1a3.12,3.12,0,0,1-.53.53c.11-.4.67-.58.42-1.15-.17,0-.29.52-.57.65.09-.44.58-.69.47-1.23-.19.15-.24.37-.51.48.13-.35.6-.63.39-1-.24.22-.31.51-.69.65.16-.37.64-.57.61-1-.17,0-.19.29-.33.43s-.18.08-.26.15a7.38,7.38,0,0,1-1,.9,14.63,14.63,0,0,1-3.44,1,5.55,5.55,0,0,0,.56,1.92,2.07,2.07,0,0,1,.1.69,4.84,4.84,0,0,1-2.3,4.08,10.89,10.89,0,0,1-3.82,1.66,8.27,8.27,0,0,0-1.46.42c-.08,0-.1-.07-.17-.05a9.27,9.27,0,0,1-4.95-.09c-.37-.15-.65-.46-1.08-.6-.47-.53-1-.86-1.17-1.66-.08-.52-.35-1.25-.49-1.94a36.54,36.54,0,0,1-3.95,1c.22.16.68-.1,1,0,.07.16-.24.18-.31.13a5.15,5.15,0,0,1-1.4.11c.09.14.6,0,.78.12-.21.16-.47,0-.75.09a11.68,11.68,0,0,0,2-.08c-.21.22-.73.14-1.06.22-.14,0,0,0,0,.11-.16.05-.28,0-.44.07a4.15,4.15,0,0,0,1.37,0c-.38.29-1,.18-1.47.24a2.28,2.28,0,0,0,1,0C9.1,21.41,8.45,20.85,7.83,20.74ZM5.78,14a1,1,0,0,0,.38.35c.05.09-.08.09,0,.19.31.22.57.52.86.78a4.92,4.92,0,0,1-.52-1.17c-.13,0-.06.17-.25.18-.08-.23.28-.29.08-.5a2.68,2.68,0,0,1-.22.29c-.15-.17.31-.37,0-.59C6,13.68,5.94,13.87,5.78,14ZM4.25,8.85a8.23,8.23,0,0,0,.4,1.28C4.86,9.87,4.37,9.25,4.25,8.85Zm.46,1.34a5.26,5.26,0,0,0,.61,1.33A8.14,8.14,0,0,0,4.71,10.19ZM7.23,18c-.11.07.21.22.26.35C7.51,18.28,7.31,18.13,7.23,18ZM4.12,8.2c.19.13.56-.07.75.06.16-.27.31-.54.48-.8l-.9.1C4.26,7.73,4.29,8,4.12,8.2ZM5,10c.07.93.83,1.81,1,2.71,0,.11-.09,0-.14,0,.11.18.18.1.33.19a5.59,5.59,0,0,0,.68,1.7c.19-.24.51-.53.23-.9-.17.15-.13.41-.34.54,0-.13.05-.2.1-.29C6.2,12.65,5.61,11.42,5,10Zm1.89,3.93c.41-.37-.21-1.16-.49-1.7A16.45,16.45,0,0,1,4.7,8.42a.7.7,0,0,0-.51,0,.8.8,0,0,1,.2.4c.17.1-.14-.29,0-.38.23.06.25.45.31.63.6,1.63,1.64,3.13,2.15,4.79ZM5.59,12c0,.23.17.45.24.65A2.34,2.34,0,0,0,5.59,12Zm3.59,8.42a5.78,5.78,0,0,0-.74,0A1.66,1.66,0,0,0,9.18,20.47ZM4.88,8.4a13.69,13.69,0,0,0,1.71,4l0-.07C6,11.08,5.45,9.66,4.88,8.4Zm2.05,6.34c.05.11.15.15.17.31.08-.05.09-.15,0-.26.1-.08.06.09.16,0s.12-.15,0-.26.06,0,.08,0,0-.24-.06-.34C7.11,14.35,7.14,14.6,6.94,14.74ZM10.15,19a11,11,0,0,0,1.44-.34,21,21,0,0,0-2.54-3.54,1.52,1.52,0,0,0-.65,1c-.3,0-.15-.33-.1-.44s.53-.54.58-.76a3.37,3.37,0,0,1-.73-.1c-.29.29-.55.6-.85.88a2.55,2.55,0,0,0,1,.47C8.86,17.23,9.73,17.94,10.15,19ZM7.38,15.43s0-.34-.17-.31S7.23,15.41,7.38,15.43Zm2,6.79a.92.92,0,0,0,.59,0A4.12,4.12,0,0,0,9.38,22.21ZM7.91,14.75c.29-.16.26-.47.45-.68.12.18-.15.41-.15.63.26,0,.28-.19.45-.29a5.62,5.62,0,0,0-.39-.75c-.21.13-.24.35-.43.49,0-.27.24-.45.38-.66a2.78,2.78,0,0,0-.79-1.27c.36-.1.62.36.85.6a30.21,30.21,0,0,1,2.2,2.57A28.28,28.28,0,0,0,8,12.17c.31.05.39.4.58.61.36.4.78.8,1.17,1.27A7,7,0,0,0,8,12c-.26,0-.43.06-.68.06-.11-.18,0-.27,0-.39-.69-1.36-1.17-2.8-1.9-4.11-.12.23-.48.51-.23.75l-.11,0A44.55,44.55,0,0,0,7.91,14.75ZM7.53,16c-.08.06.09.11.07.23s0-.13.05-.2S7.55,16.07,7.53,16Zm-.22-1.09c0,.09.11.12.14.21.14-.08,0-.2,0-.32S7.41,14.93,7.31,14.94Zm.48,1.41c-.07.11.1.22.16.28S7.83,16.43,7.78,16.35Zm1,3.44a1.45,1.45,0,0,0,.67-.07A4.42,4.42,0,0,0,8.82,19.79ZM10.05,19c-.58-1-1.26-1.86-1.91-2.77-.12,0-.18-.07-.27-.1a21.33,21.33,0,0,0,1.79,2.37C9.77,18.75,9.84,19,10.05,19Zm-2-2.4c-.08.09.07.17.11.22S8,16.73,8,16.63Zm-.39-1.75a.72.72,0,0,0-.12-.29C7.39,14.66,7.47,14.91,7.64,14.88Zm-.45-1.2c-.05,0,0,.27.08.27S7.21,13.74,7.18,13.68Zm.14.43c0,.13.1.12.12.25C7.53,14.34,7.43,14.09,7.32,14.11Zm2.05,4.35c-.09,0,.14.17.16.27C9.6,18.62,9.43,18.51,9.37,18.46Zm.29.66c.21,0,0-.16,0-.25C9.6,18.94,9.68,19.05,9.66,19.13Zm-2.28-7.7.06.2c0-.07.14-.12.13-.22A.24.24,0,0,0,7.38,11.42Zm.19.48c.69.23.64-.38.89-.75s.49-.36.55-.61c-.14.07-.3.06-.46.14s0,.12-.1.18-.15,0-.16,0C8,10.95,7.5,11.68,7.56,11.9ZM7,9.45c.16.18.12.38.26.57s0,.19.09.15C7.19,9.93,7.17,9.51,7,9.45Zm1.63,5.23c0,.08.12,0,.14.07s0-.12,0-.17S8.69,14.68,8.58,14.69Zm7.09,22.66c0,.24.25.35.4.42,0-.15.14-.13.3-.13A6.33,6.33,0,0,1,15.68,37.35ZM9.11,14.75c.1-.32-.3-.62-.36-1,0-.06,0-.08.09-.1a4.73,4.73,0,0,0-.69-.73,4.06,4.06,0,0,0,.58,1.37C8.82,14.46,8.88,14.79,9.11,14.75ZM7.33,10.27a9,9,0,0,0,.33.95c.13-.07.15-.18.27-.26A11.65,11.65,0,0,0,7.31,9.6,4,4,0,0,0,7.74,11C7.59,10.9,7.49,10.48,7.33,10.27ZM16.74,40c.15-.12.31,0,.42-.16-.15-.11-.34-.14-.5-.24C16.6,39.78,16.72,39.95,16.74,40ZM8,10.86c.14-.23-.15-.54-.27-.86a7.3,7.3,0,0,0-.28-.78C7.37,9.7,7.84,10.27,8,10.86Zm.32,1.27a50.57,50.57,0,0,1,3.75,4.72A24.24,24.24,0,0,0,8.33,12.13Zm.87,2.8c.18.25.37.48.54.74A.83.83,0,0,0,9.2,14.93Zm4,3.17.1.33c.19-.17.17-.44.26-.66.19.14,0,.7-.19.75s.09.17.09.3c.13-.08.08-.25.16-.34.12.1,0,.43-.1.43.1.33.28.54.38.86.1,0,0-.17.13-.19s-.06.23,0,.34.16.26.24.39c.15-.16.14-.4.29-.56.13.24-.13.52-.24.73.1.13.15.35.26.46a.92.92,0,0,0,.29-.7s.1,0,.12,0a34.28,34.28,0,0,0-2.11-3.93c0-.12-.16.15-.24,0s.13,0,.13-.19c-.55-.91-1.23-1.85-1.7-2.61,0-.17.39-.34.32-.46s-.2,0-.26-.1,0-.13,0-.24a17.51,17.51,0,0,1-1.73-2.06,2.41,2.41,0,0,0-1,1.25s0,0,0,0a26.25,26.25,0,0,1,2.39,2.69A21.15,21.15,0,0,1,13,18.08C13.07,18.08,13.08,18.18,13.18,18.11ZM9,13.83c-.05,0,0,.25.08.23S9,13.92,9,13.83ZM7.56,9a4.19,4.19,0,0,0,.68,1.56C8,10.24,7.92,9.31,7.56,9Zm1.81,5.18c0,.1.07.34.21.3A2.34,2.34,0,0,0,9.37,14.23ZM10.07,16c0-.09-.1-.16-.15-.24S10,16,10.07,16ZM8.14,9.77s-.07.08,0,.08C8.22,10.22,8.25,10,8.14,9.77Zm-.25-1a10.23,10.23,0,0,0,.72,1.8,3,3,0,0,1,.76-.16,5.19,5.19,0,0,0,1,1.36,6,6,0,0,0-.71-1.66c-.25-.5-.4-1.07-.7-1.27S8.25,8.83,7.89,8.73Zm2,6.55a2,2,0,0,0,.2.52C10.18,15.63,10,15.41,9.93,15.28Zm.29.92c0,.28.39.48.52.78C10.74,16.73,10.41,16.43,10.22,16.2Zm.29.17c.07,0,0-.17,0-.24S10.44,16.34,10.5,16.37Zm-.57-2.1c.11.5.68.89,1,1.44A4.74,4.74,0,0,0,9.93,14.27ZM10.81,17c-.06.17.17.28.21.44C11.09,17.27,10.87,17.14,10.81,17ZM8.18,8.42c.24-.1,0-.5-.08-.74s0-.45-.16-.53A6.16,6.16,0,0,0,8.18,8.42Zm2.47,7.43c0,.1,0,.25.19.23C10.77,16,10.72,15.92,10.65,15.86ZM11.44,18,8,7c.08,0,.2,0,.3,0,0-.33.6-.37.83-.58C8.63,6.23,8.39,6.82,8,7Zm.62,1.47c-.22-.47-.15-1-.46-1.34C8.23,7.52,8.32,8.29,8.63,8.46Zm2.52,7.86c0-.14-.16-.33-.25-.43S11.09,16.17,11.15,16.32ZM9,8.68c-.11-.28-.18-.74-.31-1.13-.05-.16-.11-.42-.3-.45C8.63,7.48,8.5,8.4,9,8.68Zm2.13,7a3.52,3.52,0,0,0,.53.85C11.57,16.2,11.25,15.94,11.09,15.65Zm.48,1.55a4.52,4.52,0,0,0,.58,1.12A4.18,4.18,0,0,0,11.57,17.19ZM8.65,7c.08,0-.08-.21,0-.23.3.67.54,1.36.76,1.93a1.74,1.74,0,0,1,.14.82c.62,1,1,2.69,1.87,3.29.17-.19.26-.42.43-.6a17.22,17.22,0,0,0-.85-2c0,.3.4.79.3,1.1-.25,0-.25-.25-.32-.4-.25-.57-.56-1.33-.75-1.79-.08-.11.1-.1.1-.18-.26-.66-.54-1.79-.93-2.6-.15,0-.3.19-.49.3S8.35,6.86,8.65,7Zm3.09,10.06c.19.33.51.86.72,1.33A3.15,3.15,0,0,0,11.74,17.11ZM9.12,8.56a6.25,6.25,0,0,0-.29-1.07C8.75,7.72,9,8.25,9.12,8.56ZM9.31,9m2.81,8.16c.17.4.34.75.54,1.13.07,0,.28,0,.23-.14C12.48,18.32,12.5,17.39,12.12,17.2Zm.1-.17c0,.19.26.38.35.61C12.56,17.45,12.33,17.21,12.22,17Zm.84-1c.23.06.19.29.26.46.16.41.48.78.69,1.23a15.9,15.9,0,0,0,1.19,2.45c0,.12-.15.07,0,.18s0,.07.13,0c.1.14.16.35.27.5a6.92,6.92,0,0,0-.52-1.29,47.83,47.83,0,0,0-3.12-5.68c0,.17.09.21.13.43-.31-.17-.38-.77-.81-.84a13.78,13.78,0,0,0,1.56,2.41,13.67,13.67,0,0,0,1,1.85C13.72,17.3,13.16,16.55,13.06,16ZM11.3,13.34c.59.14.66-.19,1-.62.19-.21.47-.31.37-.55C11.86,12.06,11.74,12.92,11.3,13.34Zm2.2,6.07c.07-.11-.12-.2-.11-.36C13.26,19.15,13.44,19.35,13.5,19.41Zm.33,1.31c0,.08.06.17.16.13C13.94,20.8,13.93,20.67,13.83,20.72Zm.26.71a.26.26,0,0,0,.24.29C14.29,21.57,14.17,21.53,14.09,21.43Zm-2.47-7.94c.11.07.16.24.23.37,0-.08,0-.18.11,0,.11-.11-.21-.17-.09-.29C11.81,13.46,11.73,13.46,11.62,13.49ZM14,20.92c0,.14.16.31.22.47C14.28,21.22,14.07,21.05,14,20.92Zm.36.9c1.19,1.43,3.34,1.68,5.8,1.34a25.6,25.6,0,0,0,2.57-.59c3.08-.75,5.4-2.57,5.59-5a6.87,6.87,0,0,1-.75,1.71c-1.14,1.43-3.85,2.79-6.3,3.41a13,13,0,0,1-1.77.19C17.45,23.16,15.57,23,14.37,21.82Zm-2.31-8.54s0,0,0,0c.1.57.65,1.06.91,1.67a39.85,39.85,0,0,1,2.44,4.12c.3-.29.22-.65-.05-1-.15,0-.13.19-.32.21,0-.18.24-.22.23-.4-.34-.41-.7-1-1-1.32a2.34,2.34,0,0,1,.63-.7,35.41,35.41,0,0,0-1.9-3.49A7.64,7.64,0,0,0,12.06,13.28Zm.38,1.08c1.31,2.15,2.63,5,3.83,7.45,0,.06.05.06,0,0A43.79,43.79,0,0,0,12.43,14.36ZM11,9.56a3.2,3.2,0,0,0,.54,1.38c.2.39.23.93.58,1.12-.2-.61-.29-1.11-.51-1.65a2.42,2.42,0,0,0-.45-.95c.17.45.34,1.1.63,1.76C11.43,10.94,11.38,10.13,11,9.56Zm-.1-.18,3.68,11.72a4.41,4.41,0,0,0,.3.34A.92.92,0,0,0,15,20.26,2.33,2.33,0,0,1,14.61,21.09Zm.5.49c.2-.06.09-.27.33-.32A1.16,1.16,0,0,0,15.3,21C15.2,21.13,15,21.41,15.11,21.59Zm-2.86-9.7c-.16-.84-.61-1.92-.8-2.57A15.64,15.64,0,0,0,12.25,11.89Zm3.06,9.71a1,1,0,0,0,.37.32c0-.2-.19-.35-.22-.58A1.43,1.43,0,0,0,15.31,21.6ZM12.52,12a1,1,0,0,1,.69-.14c-.33-.62-.51-1.38-.89-2a1.13,1.13,0,0,0-.59-.54A11.8,11.8,0,0,0,12.52,12Zm.53-1.39C12.7,9.35,11.76,8.2,11.46,7c.23.13.29.41.39.63s.19.45.29.67c.2.46.52.86.71,1.29.9,2,1.66,3.84,2.57,5.78.11-.23-.32-.64-.15-.86-.26-.25-.28-.66-.48-1.15-.91-2.37-2.21-4.5-3.22-6.62-.18.05-.22.17-.35.25s.16.2,0,.32a.17.17,0,0,0-.08.13C11.67,8.66,12.63,9.41,13.05,10.62ZM10.49,4.38a4.23,4.23,0,0,1,.6-.08c.08-.05-.12-.15,0-.24.38.17.53.65.75,1s.49.75.66,1.13c.22,0,.5-.15.65,0s-.06.14-.09.21.13,0,.18.09a26,26,0,0,1,1.85,3.58c.1,0-.08-.15,0-.16a25.2,25.2,0,0,0-3.43-6.41c-.16.2-.13.48-.3.67-.27-.21.25-.61.13-.83a6.71,6.71,0,0,1-.79.21C10.48,3.8,10.07,4.14,10.49,4.38Zm.11.11a9.44,9.44,0,0,0,1,1.78c.17-.22-.16-.45-.27-.64A9.76,9.76,0,0,0,10.6,4.49Zm3.23,8.9A2.61,2.61,0,0,0,13.18,12C13.22,12.4,13.67,12.91,13.84,13.39Zm.67,3.15a2.73,2.73,0,0,0,.68.07,7.71,7.71,0,0,1,1-.82C15.56,15.26,14.85,16.06,14.51,16.54ZM11.75,5.94a4.38,4.38,0,0,0-.89-1.5s-.06,0-.06.05C11.13,5,11.43,5.47,11.75,5.94Zm4,13.75c.16-.13.1-.36.23-.51.18.21-.1.44-.15.63s.17.21.23.36c.07-.1,0-.31.21-.43,0,.26-.32.53,0,.94a2.63,2.63,0,0,0,.28-.48,10.4,10.4,0,0,0-.77-1.46A.7.7,0,0,0,15.76,19.69Zm.41,1.57c.29.25.35.88.68,1.05a8.35,8.35,0,0,0-.63-1.4C16.11,21,16.41,21.25,16.17,21.26ZM11.71,6.67a67.53,67.53,0,0,1,3.62,7.77,9.3,9.3,0,0,0-1-2.76c-.64-1.44-1.24-2.59-1.9-4a9.76,9.76,0,0,0-.65-1.1s0,0,0,0S11.67,6.68,11.71,6.67ZM11.15,4.5c0,.29.34.54.48.79s.23.79.63.9c-.34-.56-.64-1.17-1-1.68C11.22,4.51,11.17,4.54,11.15,4.5Zm3.09,9.7a2.71,2.71,0,0,0-.26-.71C13.85,13.24,14,13.92,14.24,14.19Zm.87,2.55s0,0,0,.07.09,0,.19,0c.71,1,1.37,2.11,2.06,3.15a21.76,21.76,0,0,0-2-3.17C15.29,16.75,15.18,16.79,15.11,16.74Zm1.49,4.56c.18-.09.07-.32.21-.43.19.29-.31.49,0,.91.17,0,.16-.29.31-.38s0,.17,0,.25.08-.13.15,0a12.31,12.31,0,0,0-.55-1.27C16.37,20.48,16.32,20.93,16.61,21.3ZM11.95,6.45a.79.79,0,0,0,.17.06c.92,1.77,1.75,3.31,2.42,4.92.19-.36.61-.6.42-1.14a2.19,2.19,0,0,1-.55.6c.14-.27.29-.53.45-.79a14.31,14.31,0,0,0-1.92-3.56c-.18,0-.4-.16-.58,0C12.22,6.54,12.08,6.31,11.95,6.45Zm3.34,10.6a4.2,4.2,0,0,0,.66,1.13c0,.16-.13,0-.13.08.34.56.55,1.06.9,1.64.08-.14-.11-.25-.12-.4.26.09.27.37.38.6.35.74.78,1.49,1.12,2.36.08,0,.16-.12.2,0A22.83,22.83,0,0,0,15.29,17.05Zm-1.1-3.89c.08-.23-.12-.45-.22-.72A1.29,1.29,0,0,0,14.19,13.16Zm2.77,9a.37.37,0,0,0,.05-.45C16.82,21.81,16.91,22,17,22.2Zm.09.15s.15,0,.18.09c.06-.11,0-.16,0-.28C17.11,22.22,17.13,22.31,17.05,22.36Zm-1.91-6.74c-.1,0-.15-.14-.2-.27S15.06,15.79,15.15,15.61ZM12.7,8a2.88,2.88,0,0,0,.55,1.13A6.34,6.34,0,0,0,12.7,8Zm2.75,8.58s0,0,0,0a34.09,34.09,0,0,1,3.26,6c.46,0,1-.11,1.45-.09A19.33,19.33,0,0,0,18.06,18a12,12,0,0,0-1.15-1.84c0-.28-.07.06-.15,0s-.06-.32-.22-.33C16.06,15.92,15.82,16.34,15.45,16.57ZM13.37,9.41a5.75,5.75,0,0,0,.28.53A.72.72,0,0,0,13.37,9.41Zm4,12.65c.08-.13-.11-.27-.07-.37C17.19,21.77,17.34,22,17.42,22.06ZM14.59,11.45c-.05.06.1.19.1.33.27-.19.3-.64.49-.77s0-.19,0-.27C14.94,10.95,14.88,11.38,14.59,11.45Zm2.89,8.79a19.1,19.1,0,0,0,1.12,2.33A18.21,18.21,0,0,0,17.48,20.23Zm-.94-5.16c-.18,0,.1.26,0,.35s-.18-.14-.36,0c0-.14,0-.31-.09-.41.14-.1.12.1.19.12-.18-.87-.52-1.55-.83-2.67-.05-.21,0-.5-.24-.54a11.08,11.08,0,0,0,.35,1.26c-.3-.24-.33-.72-.5-1.11,0-.07,0-.11.07-.13-.44-.06-.12.39-.05.56.31.86.65,2.08,1,2.84,0,.07,0,.15-.06.17a.64.64,0,0,0,.57.08c.19.09.29.34.43.51.06-.09-.07-.28-.09-.4C16.65,15.74,16.6,15.18,16.53,15.07Zm-.67-3.26c0-.11.14-.19,0-.37.29-.22.65-.4.93-.62a10.38,10.38,0,0,0-1.35.13,2,2,0,0,0-.46.76A1.84,1.84,0,0,0,15.86,11.81ZM24.3,41c.18,0,.29-.05.5-.12A.72.72,0,0,0,24.3,41ZM15.6,12a14.46,14.46,0,0,0,.74,2.73c.05.06.14,0,0,0C16.16,13.73,15.87,13,15.6,12Zm1.32,3.49c-.16-.58-.33-.81-.47-1.26,0,0,0,0,0,0A2.18,2.18,0,0,0,16.92,15.46ZM16,12.92c0,.16.09.06,0,0s-.06-.17-.08-.26C15.9,12.24,15.88,12.67,16,12.92Zm.25.68c-.07.07.06.23.07.34C16.4,13.87,16.28,13.71,16.27,13.6Zm2,4.23c.1,0,.43-.4.23-.65s-.19.26-.33.32c-.06-.26.32-.41.23-.75-.2-.77-.76-1.89-1-2.81,0,0,0-.17.05-.09.1-.09-.1-.09-.1-.19s.18,0,.27-.12A23.61,23.61,0,0,1,16.89,11c-.27.13-.42.32-.72.44-.05.16,0,.36-.2.46a25.67,25.67,0,0,0,.8,2.71c.11.31.28.6.4.92A7.13,7.13,0,0,0,18.24,17.83ZM15.6,10.7c0,.14.14,0,.18.09a15.38,15.38,0,0,0-.44-1.67c0-.07-.06-.11-.05-.05a10.34,10.34,0,0,0,.41,1.57A.15.15,0,0,1,15.6,10.7Zm.44,0C15.85,9.32,15,7.28,14.58,5.45A22.11,22.11,0,0,0,16,10.75Zm2.45,7.51a.65.65,0,0,0,.14-.69C18.47,17.74,18.2,18.05,18.49,18.26Zm-2.35-7.54c.06,0,.19,0,.27,0C16,8.91,15.24,6.88,14.82,5.45a41.69,41.69,0,0,0,1.42,5.2A.2.2,0,0,1,16.14,10.71Zm2.48,7.86c.25-.08.18-.31.13-.47C18.67,18.25,18.49,18.33,18.63,18.58Zm.36.54a1.85,1.85,0,0,0-.08-.51C18.68,18.77,18.87,18.91,19,19.11ZM14.6,5.27c.51.37,1.32-.3,1.82-.5C16,4.47,15.06,5,14.6,5.27Zm2,5.41a.47.47,0,0,0,0-.41c-.36-1.44-1.1-3.4-1.5-4.7a2.6,2.6,0,0,0,.19,1.1C15.69,8.15,16.32,9.41,16.6,10.68Zm3.43,10c-.8-2.14-1.42-4.64-2.19-6.8.43,1.49,1,3.69,1.51,5.49A4.06,4.06,0,0,0,20,20.71Zm-2.34-7c.52.65,1.42,0,2.07-.43a4.27,4.27,0,0,1-.82-.28A3.58,3.58,0,0,0,17.68,13.67Zm.52-2.55c-.22.36-.44.72-.67,1.08,0-.52.81-.9.53-1.65a4.57,4.57,0,0,1-.73,1.38c0-.39.4-.68.53-1,.06-.16,0-.34.17-.45-.18-.3-.26-1.09-.56-1.31,0-.12.08-.14.05-.2-.41-1.37-.74-2.54-1.05-4a5.31,5.31,0,0,0-1.19.55c.44,1.53,1.16,3.57,1.57,5.15a.43.43,0,0,1,.36,0c0,.09,0,.21-.15.27a15.27,15.27,0,0,0,.47,1.77c.27-.41.39-.9.68-1.3,0,.59-.59,1-.6,1.56.19,0,.26-.64.39-.88,0,.42.25-.18.35-.36C18.22,11.5,18.33,11.25,18.21,11.12Zm-.44,2.2c.38-.1.44-.3.61-.55s.24-.28.18-.42-.28.48-.5.63c0-.39.51-.64.37-1.05a6.39,6.39,0,0,0-.74,1.24C17.69,13.24,17.77,13.21,17.77,13.32Zm2.95,9.09c-.47-1.95-1.33-4.35-2.05-6.59-.08.48.37,1.17.53,1.71.08.25,0,.52.12.76C19.78,19.71,20.28,21.07,20.71,22.41ZM19,16.3a6,6,0,0,0-.66-2.11A10.79,10.79,0,0,0,19,16.3Zm.25.57a.85.85,0,0,0,.19.59C19.34,17.27,19.28,17.07,19.22,16.87Zm.41,1.32c-.08.3.11.41,0,.11C19.61,18.28,19.66,18.23,19.63,18.19Zm.93,3A6.22,6.22,0,0,0,20,19.48,11.46,11.46,0,0,0,20.57,21.19Zm.23.76c.14-.2-.17-.45-.18-.7C20.55,21.4,20.76,21.68,20.8,21.95Zm.37.43c.37-.09,1-.33,1.34-.42-.71-2.26-2-5.73-2.69-8.52a4.93,4.93,0,0,0-1.2.62C19.25,16.93,20.45,20,21.17,22.38Zm-2.9-9.32c.18,0,.22-.26.35-.36C18.47,12.68,18.37,12.95,18.27,13.05ZM15.68,4.61a.81.81,0,0,1,.27-.12l-.27-.85c-.17.18.36.84,0,.85-.09-.15-.13-.51-.23-.76A2.48,2.48,0,0,0,15.68,4.61Zm2.74,3.09c.13.17-.15.35-.14.55.22,0,.23-.22.32-.35-.39-1.29-.81-3-1.28-4.73a3,3,0,0,0-1.23.27c.25.07.33.86.16,1-.14-.05-.18-.6-.32-.91-.13.22.1.68.2,1,.26-.06.4.08.56.19s-.07.1-.06.17c.25,1.26.65,2.61,1,3.84A4.65,4.65,0,0,0,18.42,7.69Zm-.25.69a4.11,4.11,0,0,0-.5.63c.11.24.43.13.59.29.34-.24.72-.46,1.06-.69.07.36-.52.59-.7.87.17,1.09.61,2.21.87,3.3a22.94,22.94,0,0,0,0-2.42c.12-.05.25-.31.37-.19-.17-.3-.1-1-.42-1.49S18.55,8.5,18.17,8.38Zm-.34.9c-.06,0,.07.12.11.11a15.46,15.46,0,0,0,1.14,3.4c-.26-1-.57-2-1-3.17,0-.06-.07-.2,0-.22Zm1.36,3.63s.08,0,.1.07a33.08,33.08,0,0,0-.81-3.36c-.24,0-.14.24-.13.33.18,1,.71,2,.94,2.89A.2.2,0,0,1,19.19,12.91Zm-1-3.39a.1.1,0,0,0,.13,0c.06-.09,0-.1-.09-.15S18.27,9.51,18.21,9.52ZM16.58,3l.07,0c.08-.2-.21-.61-.25-.93C16.22,2.26,16.45,2.78,16.58,3ZM16.29,2c.06,0,0-.13.11-.14.28.12.52-.11.83-.19a.59.59,0,0,0-.17-.52c-.32.06-.46.37-.77.27C16.38,1.6,16.15,1.8,16.29,2Zm3.77,11.26c-.13.76.46,1.87.67,2.79a24.51,24.51,0,0,1-.29-2.55c0-.71-.09-1.43-.06-2.19,0-.25.13-.58-.09-.77a4.62,4.62,0,0,0-.07,1.65c0,.48,0,.93,0,1.3,0,.15.19.35,0,.47A20.06,20.06,0,0,1,20,10.44c-.29.3-.15.74-.14,1.16a5.4,5.4,0,0,1-.09,1.33,4.61,4.61,0,0,1,0-1.5c0-.37,0-.74,0-1.09a11.2,11.2,0,0,0-.13,2.57C19.64,13.14,20,13.1,20.06,13.22Zm1.2,4.62c-.19-1.52-.39-3-.53-4.43,0-.46-.09-1-.09-1.42a3.12,3.12,0,0,0,0-1.3c-.31,1.33.06,3,.07,4.46a1.61,1.61,0,0,1,.13,1.3C21,16.9,21.11,17.41,21.26,17.83Zm1.54,4a49.12,49.12,0,0,1-1-10.27,2.25,2.25,0,0,1,.16-1.1c.2.06,0,.37,0,.51s.12-.09.19,0a13.93,13.93,0,0,0,.8,1.81c-.13-.61-.67-1.43-.84-2.09.39.14.38.67.58,1.12a57.56,57.56,0,0,1,3.22,8.47,5.25,5.25,0,0,0,.83-.83A96.53,96.53,0,0,0,21.78,7.29a2.12,2.12,0,0,0-.61,1,13.9,13.9,0,0,0,1,2,6.48,6.48,0,0,0-1.31.52,38.5,38.5,0,0,0,.78,7.6l-.07.13c.44,1,.53,1.7.94,2.78C22.53,21.5,22.58,21.79,22.81,21.8ZM16.9,2.93c.13-.12-.16-.65-.22-.94l-.14,0C16.59,2.27,16.66,2.77,16.9,2.93Zm.21-.07c.12-.23,0-.62-.16-.89.36,0,.24.6.35.87.06,0,.11,0,.12,0,.11-.17-.16-.68-.24-1L16.83,2A4.87,4.87,0,0,0,17.11,2.86Zm1.65,5.42c0,.07.12,0,.13.06,0-.07,0-.1,0-.24C18.8,8.14,18.83,8.24,18.75,8.27Zm-.12-.65a.89.89,0,0,1,.15.35C18.87,7.94,18.8,7.52,18.63,7.62ZM23,21.53c.2.11,0-.23.12-.25C22.88,21.11,23,21.44,23,21.53Zm-.07-.34c.12,0,.08-.37-.07-.34S22.86,21.07,22.89,21.19ZM18.14,5.68c-.09-.87-.41-1.63-.62-2.63A13.15,13.15,0,0,0,18.14,5.68Zm0,.06c-.06.1.07.28.09.41C18.31,6.06,18.18,5.88,18.16,5.75Zm4.65,15.07c.11-.1,0-.31,0-.5A1.21,1.21,0,0,0,22.81,20.82ZM19,8.32a2.65,2.65,0,0,0,.32,0c-.34-1-.37-2.16-.79-3a9.72,9.72,0,0,0,.56,2.93A.2.2,0,0,1,19,8.32ZM22.66,20c.08,0,0,.12.07.23S22.76,19.88,22.66,20ZM18.08,4.62c.12-.13-.1-.37-.07-.49C17.87,4.21,18.08,4.47,18.08,4.62Zm4.68,15c.25,0,.16-.66-.11-.61.19-.17-.06-.42-.11-.73A3.79,3.79,0,0,0,22.76,19.64Zm.11.36c.15-.08.15-.24.14-.4S22.75,19.8,22.87,20Zm.18.46c.13-.08-.08-.38,0-.4C22.83,20,23,20.26,23.05,20.46ZM18,4.08a2,2,0,0,0-.25-1,2.64,2.64,0,0,0-.14-.57c-.11-.16,0,.2,0,.2A10.64,10.64,0,0,0,18,4.08Zm5.21,16.74c.16-.08,0-.16,0-.29C23,20.57,23.14,20.71,23.16,20.82Zm.15.35c.07-.05,0-.19,0-.27C23.22,21,23.22,21.13,23.31,21.17Zm-5-16.11c.24.3.74.16,1,.36a3.73,3.73,0,0,0,.73-.87c-.16-.39-.7-.1-1-.19A9.59,9.59,0,0,1,18.3,5.06Zm1.16,3.36a6.92,6.92,0,0,0-.4-2.26c-.06-.27,0-.62-.27-.75A12.4,12.4,0,0,0,19.46,8.41ZM20,10.24c.29.15.6.27.9.4.3-.15.63-.28.91-.43A2.51,2.51,0,0,0,21,9.84C20.62,9.95,20.42,10.15,20,10.24Zm.15-.38a3.8,3.8,0,0,0-.54-1.35C19.65,8.92,19.78,9.72,20.14,9.87Zm2.53,8.5c.19-.05.07-.24,0-.32-.07-.44-.22-.7-.3-1.21C22.18,17.32,22.63,17.81,22.67,18.37Zm.16.38c.13,0,.08-.35-.06-.31S22.8,18.64,22.83,18.75Zm.17.56c.24-.05,0-.46-.06-.45S23,19.17,23,19.31Zm.15.35c.11-.11,0-.12,0-.29C23,19.45,23.1,19.52,23.15,19.66Zm.11.47c.19,0,0-.25,0-.4C23.13,19.87,23.23,19.94,23.26,20.13Zm.16.39c.1,0,.07-.26,0-.29S23.42,20.43,23.42,20.52ZM19.59,8c.13.08.09-.16.17-.2-.13-.49-.22-1-.34-1.48-.09-.35,0-.85-.36-.79C19.22,6.32,19.49,7.19,19.59,8ZM21,8.29c.1-.11.05-.29.1-.43s.45-.34.42-.64c-.47.17-1-.17-1.31,0s-.36.79-.5,1A1.89,1.89,0,0,0,21,8.29Zm1.73,9.43c.22-.19,0-.47-.1-.69a14.7,14.7,0,0,1-.46-1.85A7.18,7.18,0,0,0,22.74,17.73Zm.06.31c.06,0,.06-.06.13-.08l-.06-.2A.3.3,0,0,0,22.8,18Zm.28.41c-.06-.09,0-.36-.17-.31S22.93,18.47,23.08,18.45Zm.07.59c.17,0,0-.44-.09-.4S23.13,18.91,23.15,19Zm.13.43c.14-.1,0-.22,0-.33C23.19,19.26,23.3,19.37,23.28,19.47Zm.21.41-.11-.33C23.29,19.57,23.37,19.93,23.49,19.88ZM20,8.58a2.65,2.65,0,0,0,.6,1.3A8.25,8.25,0,0,0,20,8.58Zm.23,0a4.83,4.83,0,0,0,.44,1A3.85,3.85,0,0,0,20.2,8.58Zm-.33-1.05A.75.75,0,0,0,20,7.13c.25,0,.55-.15.7,0-.15-.86-.32-1.56-.48-2.42-.31.17-.3.49-.65.64A5,5,0,0,0,19.88,7.53ZM24.2,21.29c.44-.16.71-.52.49-.91-.13.09-.14.23-.29.31,0-.18.36-.49.15-.77-.17.09-.09.29-.27.37,0-.24.37-.51.08-1-.1-.13-.11.24-.26.27a.71.71,0,0,1,.21-.43c-.17-.59-.29-1-.44-1.41-.17,0-.18.32-.38.41a.74.74,0,0,1,.31-.49,4.19,4.19,0,0,0-.25-.68c-.16.25-.18.57-.46.76C23.6,19.29,23.7,19.9,24.2,21.29Zm-1.13-3.62c.23-.22.2-.56.47-.76,0-.21-.16-.3-.2-.52a2.27,2.27,0,0,1-.39.62c.1-.22.15-.59.38-.66a4.7,4.7,0,0,1-.23-.5c-.13.19-.22.4-.36.59A11,11,0,0,1,23.07,17.67Zm-.35-1.37c.14-.18.19-.4.33-.58-.23-.65-.61-1.29-.8-2C22,14.18,22.46,15.59,22.72,16.29ZM20.35,8.54c.24.31.32.91.59,1.16a3.49,3.49,0,0,0-.46-1.09S20.45,8.49,20.35,8.54ZM22,13.3c-.07.07.06.23.07.34C22.21,13.57,22,13.39,22,13.3Zm-.1-.58s0,.33.12.25S21.95,12.75,21.88,12.72Zm-1.27-4.2c.28.52.37,1.07.77,1.36a6.13,6.13,0,0,0-.59-1.41Zm1.29,3.9a1.45,1.45,0,0,0,0-.7A1.75,1.75,0,0,0,21.91,12.43Zm3.6,8.09c-.63-2.93-2.13-5.51-3.39-8.41-.31.76.55,1.66.91,2.43C23.91,16.41,24.71,18.58,25.51,20.52Zm-2.9-6.33a8.44,8.44,0,0,0,.65,1.61A4.81,4.81,0,0,0,22.61,14.19ZM21.76,10a12.09,12.09,0,0,0-.69-1.48s-.08,0-.07,0C21.19,8.9,21.45,9.8,21.76,10Zm4,10.39c-.25-1.17-1-3-1.38-4.3,0-.18-.2-.16-.19-.37,0,.19.13.27.19.59a5.57,5.57,0,0,1-.68-1.56c-.14-.34-.36-.66-.5-1s-.12-.51-.23-.73a13.89,13.89,0,0,1-.82-1.62c-.24.51.33,1.17.59,1.77.19.44.37.82.56,1.17C24.31,16.18,24.89,18.27,25.77,20.36Zm-1.18-.68c-.06.08.06.25.08.37C24.81,20,24.61,19.81,24.59,19.69Zm-1.12-3.84a1.2,1.2,0,0,0,.23.61A4.59,4.59,0,0,0,23.47,15.84Zm1.83,4.75a24.88,24.88,0,0,0-1.35-3.48c.36,1.24.7,2,1,3.22A2.33,2.33,0,0,1,25.3,20.59ZM20.84,7c.09,0,.15.08.28,0-.23-.13-.25-.7-.37-.93-.06,0-.09,0-.15,0C20.71,6.44,20.79,6.78,20.84,7ZM20,3.44a1.35,1.35,0,0,0,.7-.11A6.31,6.31,0,0,0,20,3.44Zm0-.18c.41.09.82-.27,1.07-.29,0-.32.14-.53,0-.9-.26-.11-.75.16-1,0A2.59,2.59,0,0,0,20,3.26ZM21.31,7c-.19-1-.45-2-.64-2.66A5,5,0,0,0,21.31,7ZM20.62,4.3c-.06-.3-.07-.66-.27-.75A.59.59,0,0,0,20.62,4.3Zm.77,2.22c.23.09,0-.25.11-.28s.07.67.35.75a21.61,21.61,0,0,0-1.2-3.46A18.3,18.3,0,0,0,21.38,6.52ZM31.75,38.71a13.87,13.87,0,0,0,2.81-.91A15.22,15.22,0,0,0,31.75,38.71Zm-10-32.62c.28-.27.05-.72-.1-1.05s-.51-1-.7-1.52C21.05,4.39,21.47,5.06,21.72,6.09Zm.81,2.35c-.12-.72-.2-1.43-.37-2.17-.06.21.06.51,0,.72-.19-.23,0-.54-.19-.85A4.32,4.32,0,0,0,22.53,8.44Zm.67,1.42c-.39-1.38-.51-2.61-.84-3.82-.16.85.37,1.92.3,2.69C22.89,9.05,22.9,9.6,23.2,9.86Zm.55,1.38c0-.41-.31-.82-.37-1.19,0-.06.11-.05.13,0,0-.28-.19-.46-.26-.71s0-.32,0-.46-.14-.3-.18-.45A18.89,18.89,0,0,0,22.58,6a31.38,31.38,0,0,0,.75,4l-.11,0C23.44,10.49,23.56,10.82,23.75,11.24ZM21.81,4.9a4.15,4.15,0,0,0-.55-2.25C21,3.24,21.61,4.14,21.81,4.9Zm2.47,7.58a19.67,19.67,0,0,0-.55-2.25,4.46,4.46,0,0,0,.25,1.3s-.16.1,0,.09C24,12,24.2,12.14,24.29,12.48Zm-.68-2.54a30.26,30.26,0,0,1-.73-4c.33.21.16.6.21.92C23.35,8.73,24.17,11,24.63,13a9.39,9.39,0,0,0,.78,2.4l-.14-.46a1.67,1.67,0,0,1,0-.37c.21.09.08.29.21.41a1.44,1.44,0,0,0,.21-1.19c-.21.24-.25.55-.49.77.14-.51.6-.94.45-1.66-.23-1.09-.7-2.39-1-3.57-.15-.69-.37-1.81-.54-2.72,0-.25-.06-.63-.09-.66-.27-.24-1,.08-1.26.07A15,15,0,0,0,23.61,9.94Zm-1-4.05c.2-.06.07-.31.06-.42-.1-1.11-.32-2.36-.34-3.47A13.69,13.69,0,0,0,22.58,5.89Zm3.08,9.41c.15-.17.1-.43.1-.68C25.64,14.81,25.45,15,25.67,15.3Zm.63,1.9c0-3.19.06-6.38.17-9.52a4.35,4.35,0,0,1,.07,1.71c0,.58,0,1.19,0,1.78.22-1.08.09-2.33.2-3.46a1.58,1.58,0,0,0-.49-.21,19.37,19.37,0,0,1,0,2.72c0,.93-.05,1.85,0,2.87,0,.77.06,1.5,0,2.34a6.72,6.72,0,0,0,0,.84A8.71,8.71,0,0,1,26.3,17.2Zm.2.15c0,.11-.09,0-.14,0s.23.32.24.53a20.49,20.49,0,0,0,0-2.74c0-1,0-1.77,0-2.81a1.44,1.44,0,0,0-.06-.56C26.35,13.61,26.48,15.5,26.5,17.35ZM22.83,5.82s.05,0,.08,0c.05-1-.27-2.15-.29-3.16,0-.26.14-.64-.16-.78A29.07,29.07,0,0,0,22.83,5.82Zm4,12.66c.21-.17.09-.57.06-.92-.17-2.25-.18-4.57-.12-6.87a15.73,15.73,0,0,0-.1,3.28C26.69,15.46,26.72,17,26.85,18.47ZM23.21,5.77c.15-.39,0-.8-.1-1.19A23.79,23.79,0,0,0,22.84,2a14.72,14.72,0,0,0,.26,3.71A.1.1,0,0,0,23.21,5.77Zm4,13,0,.06a8.87,8.87,0,0,1,.44-1,20.14,20.14,0,0,0-.22-3.44c0-.09.17-.11.12-.22a39.77,39.77,0,0,1,.37-6.91c-.3,0-.41.3-.69.4.11.24-.07.44-.1.65A18.05,18.05,0,0,0,27,10.19a59,59,0,0,0,.17,8.51ZM26,14.3c.12.08.05-.18.06-.31,0-1,0-2.13,0-3.12.07-1.17.05-2.35.07-3.38-.21.17-.19.48-.2.71-.07.81-.12,1.66-.11,2.53C25.85,11.91,25.85,13.12,26,14.3ZM23.46,5.73c.25,0,.51,0,.76-.06a2.51,2.51,0,0,0,0,.63c.08.15.12-.17.21-.21-.22-1.62-.36-3.2-.47-4.73-.4,0-.44.45-1,.52A23.66,23.66,0,0,0,23.46,5.73ZM22.24,1.66a1.19,1.19,0,0,0,1.38-.28C23.2,1.15,22.74,1.39,22.24,1.66Zm3,9.28a.37.37,0,0,0,0-.35C25.13,10.64,25.26,10.82,25.28,10.94Zm-.62-2.48c.11-.09,0-.27,0-.43C24.52,8.11,24.72,8.34,24.66,8.46ZM25.48,11c.19-.06.09-.2,0-.29C25.43,10.73,25.49,10.85,25.48,11Zm-1-3.4c.26-.13.09-.46.09-.71A.74.74,0,0,0,24.46,7.55Zm.19,0a.26.26,0,0,1-.17.09c.1.1,0,.21.12.37.15,0,0-.38.08-.35S24.65,7.58,24.64,7.52Zm-.32-.66c.09.06.28-.29.15-.52C24.27,6.45,24.34,6.68,24.32,6.87Zm.85,1.72c.11,0,0-.17,0-.26S25.18,8.52,25.17,8.59Zm2.54,7.3a1.35,1.35,0,0,0,0,.57c0,.21,0-.22,0-.4Zm-2.15-7a1,1,0,0,0,0-.47C25.45,8.52,25.56,8.65,25.56,8.87Zm-.08-1.28c.07-.1,0-.28,0-.42A.6.6,0,0,0,25.48,7.59Zm2.16,6.19c0,.07.13,0,.19,0a2,2,0,0,0-.1-.84C27.64,13.11,27.72,13.52,27.64,13.78ZM25.38,6.39c.08-.24-.07-.57,0-.89A2.44,2.44,0,0,0,25.38,6.39Zm.22.72c.06-.07.16-.17,0-.19,0-1-.08-2.09-.12-3.14A20.91,20.91,0,0,0,25.6,7.12Zm2.16,7,0,.09a12.05,12.05,0,0,0,3.75-1.27,2.24,2.24,0,0,0,1.14-1.08A6.18,6.18,0,0,1,30,13.33a10.49,10.49,0,0,1-2.16.64C27.77,14,27.82,14,27.77,14.07Zm7.31,23.49c.2.09.63-.18.71-.33C35.55,37.23,35.32,37.47,35.07,37.56Zm-8.33-27,0,.1c.1-.63.11-1.46.16-2.22,0-.22.17-.51,0-.68A21.14,21.14,0,0,0,26.74,10.53ZM28,13.63c.16-.06.05-.27,0-.37a16.68,16.68,0,0,0-.36-1.66A7,7,0,0,0,28,13.63ZM25.32,5a.7.7,0,0,0,0-.39A.7.7,0,0,0,25.32,5ZM26,7.31c.39,0,.63.31,1.06.29S27.73,7,28,7c-.19-.25-.75-.31-1.08-.49C26.58,6.64,25.84,6.83,26,7.31ZM25.78,6.2a4,4,0,0,0-.05-1A3,3,0,0,0,25.78,6.2Zm.19.63c.05.16,0-.05.14,0a7.91,7.91,0,0,1-.2-1.49A11.55,11.55,0,0,0,26,6.82Zm9.33,28.75-7-22c.16-.06.05-.27,0-.38-.16-1.07-.45-2.2-.58-3.22a2.42,2.42,0,0,0,0,1.3A15.72,15.72,0,0,0,28.31,13.58ZM25.49,2.53c-.07,0-.05.11,0,.23.09,0,.13,0,.14.07.26-.41.88-.64,1.15-1-.12,0-.22-.1-.3,0-.08-.12.05-.12.14-.16a1.73,1.73,0,0,0-.5-.24c-.43.2-.52.56-.84.8,0,.08.05.08.07.12s-.07-.09-.16,0a9.36,9.36,0,0,0,.13,1.55c.09-.37-.07-.91,0-1.26,0-.09.16-.12.06-.2C25.44,2.34,25.41,2.54,25.49,2.53Zm.81,4.08c.16-.21,0-.42-.11-.72C26,6.07,26.31,6.45,26.3,6.61Zm-.43-1.49a3.57,3.57,0,0,0-.07-1.35A3.4,3.4,0,0,0,25.87,5.12Zm2.67,8.31a38.19,38.19,0,0,0-.7-4.37,10.85,10.85,0,0,0,.33,2.43C28.26,12.13,28.37,12.76,28.53,13.43Zm-3.08-10c.08-.14,0-.37,0-.54C25.38,3,25.45,3.22,25.45,3.4ZM26.09,5c.23-.17.3-.43.51-.62,0-.11-.13,0-.13-.18s.26-.07.39-.12A19.14,19.14,0,0,1,26.79,2a2.09,2.09,0,0,0-.93.75c0,.11.15.08.18.2A19.6,19.6,0,0,0,26.09,5Zm2.65,8.5c.14-.3,0-.65-.11-1.08-.24-1.35-.37-2.77-.72-4-.1.11,0,.31-.1.43C28.39,10.22,28.34,11.87,28.74,13.47Zm-3-9.8c.2-.17-.12-.6.11-.76-.07,0-.13,0-.29-.06C25.66,3.15,25.82,3.34,25.77,3.67Zm1,2.69c.05-.12-.09-.34-.12-.5A.81.81,0,0,0,26.76,6.36Zm.46-1.26c0,.07.12.2.18.34.14.32.11.83.29,1.18.14.12.35.13.5.24s-.1.18-.15.27a.32.32,0,0,1,0,.33,2.35,2.35,0,0,1,.27.86c.3,1.7.5,3.64.66,5.11.09,0,.27-.06.4-.09a3.66,3.66,0,0,1,0-.46c-.13.12,0,.48-.24.47a7.33,7.33,0,0,1,.53-1.65c-.22-.05-.21.45-.39.6,0-.54.54-.81.41-1.4a2.77,2.77,0,0,1-.45.79c0-.41.44-.78.39-1.24a5.81,5.81,0,0,0-.34-1.2c-.54-1.44-.9-3.23-1.42-4.69-.68.4.09,1.38.1,2.07l-.11,0s0,0,0,0c-.12-.28-.13-.76-.3-1.21C27.43,5.29,27.36,5,27.22,5.1ZM26.46,5c.21.13.58,0,.9-.1a.72.72,0,0,1,.39-.48c-.2-.08-.5,0-.71,0C26.79,4.57,26.7,4.83,26.46,5ZM27,6.26c-.17-.17-.12-.46-.22-.69C26.74,5.77,26.77,6.3,27,6.26Zm.3.2C27,6,27.14,5.38,26.78,5.2,27,5.67,26.82,6.35,27.26,6.46Zm1.12,3.48A13.25,13.25,0,0,0,28,7.78c-.2.1,0,.14,0,.24C28.17,8.53,28.18,9.33,28.38,9.94Zm-.86-3.38a3.78,3.78,0,0,0-.45-1.45C27.21,5.56,27.16,6.27,27.52,6.56ZM25.9,1.35c.08,0,0-.14.15-.15C26,1.13,25.81,1.25,25.9,1.35Zm3.78,11.51c.16,0,.12-.41.21-.57C29.75,12.34,29.76,12.7,29.67,12.86Zm.15.24c.35,0,.37-.46.4-.7a24.8,24.8,0,0,1,.64-2.66A12.26,12.26,0,0,0,29.83,13.1Zm.51.53a1.16,1.16,0,0,0,.69-.29Zm-.58-2.86c.15,0,.16-.23.2-.35A10.15,10.15,0,0,0,30.4,9c0-.28,0-.61,0-.89a15.22,15.22,0,0,1,.1-1.8c.21-1.76.52-3.75.67-5.56a9.47,9.47,0,0,0-.91.32c-.17.05.09.05.06.2a82.61,82.61,0,0,0-.61,9.12A1.15,1.15,0,0,1,29.76,10.77ZM29.5,9.7a8.88,8.88,0,0,0,.08-1.36A2.72,2.72,0,0,0,29.5,9.7Zm.56,1.78a1.65,1.65,0,0,0,.11-.5A.76.76,0,0,0,30.06,11.48Zm-.75-2.91c0,.09.15-.38.16-.48s-.05-.49,0-.75c.07-1,.11-2.35.15-3.52a21,21,0,0,0,.16-2.72,12.84,12.84,0,0,0-.26,3c0,.49-.06,1-.09,1.47,0,.83-.15,1.7-.16,2.58A1.37,1.37,0,0,1,29.31,8.57Zm.1-7.52a1.47,1.47,0,0,0-.15.77C29.15,3.5,29.08,5.34,28.9,7c.11.2.11.63.24.65-.06-1.11.13-2.21.16-3.34,0-.84.09-1.64.15-2.5C29.47,1.57,29.63,1.25,29.41,1.05Zm5.32,3a6.68,6.68,0,0,0-1,.25,27.92,27.92,0,0,0-3.06,8c.12.15.06.31.07.48.36-.2.23-.63.46-.9.11.21-.15.49-.11.76.43-.16.24-.61.42-.89.15.22-.06.51,0,.77a.27.27,0,0,0,.17-.09,7.2,7.2,0,0,1,.36-1.2c.13,0-.08.36,0,.28a36.16,36.16,0,0,1,1.22-3.81C33.68,6.47,34.18,5.23,34.73,4.1ZM29.57,7.65c.11,0,.07-.35.07-.52C29.53,7.26,29.62,7.5,29.57,7.65ZM32.47,5a29.87,29.87,0,0,0-1.54,3.4c.06.09,0-.09.13-.07a11.71,11.71,0,0,1-.39,1.35c0,.07.2-.26.24-.36.16-.46.24-1.06.41-1.54a23.43,23.43,0,0,0,.89-2.23C32.32,5.4,32.49,5.26,32.47,5Zm-2.8,1c.12-1,.16-2.15.25-3.18,0-.34.16-.7,0-1A27.46,27.46,0,0,0,29.67,6Zm2.18,6.26c.07,0,0-.1.13-.11-.07-.13,0-.2-.06-.31A1.72,1.72,0,0,0,31.85,12.26Zm-1-3.44c.08-.08.07-.21.14-.3S30.82,8.72,30.82,8.82Zm.29.2a4,4,0,0,0,.39-1.1c.1-.28.34-.53.45-.79s.17-.53.29-.81c.31-.75.55-1.62.94-2.35-.31,0-.31.4-.39.63a4,4,0,0,1-.46,1C32,6.77,31.38,7.81,31.11,9ZM29.31.87c.48.31,1.08-.07,1.78-.26A1.57,1.57,0,0,0,29.31.87Zm3.23,4.92a7.19,7.19,0,0,0,.81-1.73A9.62,9.62,0,0,0,32.55,5.79ZM33.49,4c.41-.32.66,0,1.1-.2a1.92,1.92,0,0,0-.68-.44C33.2,3.41,32.83,3.85,33.49,4Z"/><path class="cls-1" d="M29.22,34.94s0,.06.05.06a9.25,9.25,0,0,0,2.87-.86A27.6,27.6,0,0,1,29.22,34.94Z"/><path class="cls-2" d="M26.65,38.58A5.47,5.47,0,0,1,25.48,40s0,0,0,0c.38-.47.81-.89,1.17-1.38,0,0,0,0,0,0Z"/><path class="cls-2" d="M26,38.4a5.7,5.7,0,0,1-1.94,2.14,0,0,0,0,1,0,0c.33-.31.68-.6,1-.94s.62-.8.94-1.19c0,0,.06,0,0,0Z"/><path class="cls-2" d="M25.08,38.08c-.76,1.19-1.57,2.71-2.82,3.45,0,0-.08,0,0-.06a20.87,20.87,0,0,0,2.83-3.41s0,0,0,0Z"/><path class="cls-2" d="M24.1,37.89c-1,1.32-2,3-3.51,3.77,0,0-.07,0,0-.05a17.71,17.71,0,0,0,1.9-1.75c.57-.64,1.08-1.33,1.63-2,0,0,0,0,0,0Z"/><path class="cls-2" d="M23.39,37.52a15.06,15.06,0,0,1-4.07,3.94s-.07,0,0,0c.69-.64,1.46-1.18,2.13-1.84s1.32-1.37,1.94-2.09c0,0,.06,0,0,0Z"/><path class="cls-2" d="M22.57,37.18A20.7,20.7,0,0,1,18,41.09s-.07,0,0-.06c1.56-1.28,3.11-2.5,4.59-3.88,0,0,.06,0,0,0Z"/><path class="cls-2" d="M21.85,36.51a26.4,26.4,0,0,1-4.34,3.73s-.07,0,0-.05c1.37-1.31,3-2.4,4.35-3.71,0,0,0,0,0,0Z"/><path class="cls-2" d="M20.84,36.15a10.61,10.61,0,0,1-3.57,3.06s-.06,0,0-.06a35.28,35.28,0,0,0,3.53-3.05,0,0,0,0,1,.06.05Z"/><path class="cls-2" d="M19.74,35.59A8.42,8.42,0,0,1,17,38s0,0,0-.05c.47-.4,1-.73,1.44-1.14s.86-.85,1.3-1.26c0,0,.07,0,0,0Z"/><path class="cls-2" d="M18.77,35.39a5.58,5.58,0,0,1-2.18,1.72,0,0,0,0,1,0-.06c.35-.23.71-.42,1-.68s.76-.67,1.13-1a0,0,0,0,1,0,0Z"/><path class="cls-2" d="M17.76,35.1a18.18,18.18,0,0,1-1.43,1.17s0,0,0,0c.46-.4.95-.8,1.44-1.17,0,0,0,0,0,0Z"/><path class="cls-2" d="M17.07,34.83a4.27,4.27,0,0,0-1.19.68s0,0,0,0a3.39,3.39,0,0,1,1.2-.69s0,0,0,0Z"/><path class="cls-2" d="M32.32,15.29a3.27,3.27,0,0,0-2.18-1.09s0-.05,0-.05a2.58,2.58,0,0,1,2.17,1.13Z"/><path class="cls-2" d="M31.73,15.69a14.53,14.53,0,0,0-2.2-.89s0,0,0,0a7.55,7.55,0,0,1,2.2.91s0,0,0,0Z"/><path class="cls-2" d="M32.45,17c-.51-.22-1-.47-1.49-.71a8.48,8.48,0,0,0-1.74-.55s0-.05,0-.05c1.18,0,2.22.8,3.24,1.29,0,0,0,0,0,0Z"/><path class="cls-2" d="M32.68,18a10.44,10.44,0,0,0-3.62-1.52s0-.08,0-.08A6.34,6.34,0,0,1,32.69,18s0,0,0,0Z"/><path class="cls-2" d="M32.37,18.91c-.45-.28-.9-.57-1.37-.81a6.9,6.9,0,0,0-1.79-.57,0,0,0,0,1,0-.05c1.12-.1,2.32.77,3.18,1.41,0,0,0,0,0,0Z"/><path class="cls-2" d="M31.88,19.57a9.22,9.22,0,0,0-2.63-1s0-.05,0-.06a5.52,5.52,0,0,1,2.64,1s0,0,0,0Z"/><path class="cls-2" d="M31.69,20.24A9.41,9.41,0,0,0,29,19.81s-.05-.06,0-.06a4.62,4.62,0,0,1,2.68.46,0,0,0,1,1,0,0Z"/><path class="cls-3" d="M29.05,20.79a0,0,0,0,0,0,0,0,0,0,0,0,0,0Z"/><path class="cls-2" d="M36.84,33.68c-1.51,1.45-2.76,3.18-4.55,4.31,0,0-.06,0,0,0a39.21,39.21,0,0,0,2.1-3.64,10.3,10.3,0,0,0,.73-2.14c0-.17.28-1-.06-.6s-.44.48-.65.73c-1.5,1.81-2.8,4-5.27,4.53a.06.06,0,0,1-.07-.07c.54-2.12,2.23-3.73,2.76-5.87.06-.27.19-.54-.15-.22s-.44.45-.65.68c-.44.47-.85,1-1.28,1.44a10.7,10.7,0,0,1-2.82,2.41,0,0,0,0,1-.06,0,32.51,32.51,0,0,0,.89-3.49,3.57,3.57,0,0,0-.2-2.12c-.4-.77-1.36-.8-2.1-.72,0,0,0-.06,0-.06.84-.13,1.86-.05,2.25.84a4.93,4.93,0,0,1,0,3c-.13.56-.29,1.11-.45,1.66l-.2.68c-.12.42.45-.13.62-.25,1.67-1.19,2.81-3,4.3-4.38a.06.06,0,0,1,.1.05,8.29,8.29,0,0,1-1.23,3.15c-.3.52-.62,1-.91,1.56-.16.28-.3.57-.43.87s-.47.85.05.72c2.66-.68,3.92-3.63,5.75-5.4a0,0,0,0,1,.08,0A13.48,13.48,0,0,1,32.93,37l-.38.6c-.3.47.15.07.3,0a11.61,11.61,0,0,0,1.45-1.28c.86-.84,1.64-1.77,2.52-2.6,0,0,0,0,0,0Z"/><path class="cls-2" d="M26.29,35.05a33.76,33.76,0,0,0,.61-3.72s0,0,0,0a18.05,18.05,0,0,1-.61,3.72s0,0,0,0Z"/><path class="cls-2" d="M32,29.65a25.43,25.43,0,0,0-2.84,2.73s-.05,0,0,0A13.82,13.82,0,0,1,32,29.63a0,0,0,0,1,0,0Z"/><path class="cls-2" d="M14,28.62a28.57,28.57,0,0,0,.28-3,7,7,0,0,0-.14-1.46,5.44,5.44,0,0,0-.21-.71c-.11-.32-.42.16-.51.26-.94,1.06-1.12,2.62-1.94,3.76a.07.07,0,0,1-.12,0,14,14,0,0,0-.13-3.29,3.22,3.22,0,0,0-2.18-2.75.05.05,0,0,1,0-.1c2,.2,2.39,2.76,2.46,4.34,0,.46,0,.93,0,1.4l0,.27a1.48,1.48,0,0,1,.25-.52,9.46,9.46,0,0,0,.41-.89,5.87,5.87,0,0,1,1.7-2.73.06.06,0,0,1,.09,0c.71,1.75.35,3.61.09,5.42,0,0,0,0,0,0Z"/><path class="cls-2" d="M20,22a10.47,10.47,0,0,1-1.07.77s0,0,0,0A10.28,10.28,0,0,1,20,22h0Z"/><path class="cls-2" d="M19.79,21.58c-.21.17-.44.33-.64.52s-.3.37-.47.54-.06,0,0,0a2.47,2.47,0,0,1,1.14-1.06s0,0,0,0Z"/><path class="cls-2" d="M19.44,21.36c-.17.22-.37.42-.55.63a2.73,2.73,0,0,1-.58.64,0,0,0,0,1,0,0,3.55,3.55,0,0,1,.54-.68,3,3,0,0,1,.6-.59s0,0,0,0Z"/><path class="cls-2" d="M19.24,20.72l-.47.61a5.05,5.05,0,0,1-.5.69s-.07,0-.06,0a2.41,2.41,0,0,1,.37-.57,4.94,4.94,0,0,1,.63-.73,0,0,0,0,1,0,0Z"/><path class="cls-2" d="M18.92,20.4c-.18.25-.37.5-.53.76a5.05,5.05,0,0,1-.4.66,0,0,0,0,1,0,0,2.58,2.58,0,0,1,.41-.76,3.16,3.16,0,0,1,.54-.66s0,0,0,0Z"/><path class="cls-2" d="M18.65,19.73c-.15.25-.31.5-.46.76a3.54,3.54,0,0,1-.4.71,0,0,0,0,1-.06,0,3.38,3.38,0,0,1,.35-.72,4.82,4.82,0,0,1,.51-.74s.06,0,0,0Z"/><path class="cls-2" d="M18.41,19.46a4.52,4.52,0,0,0-.38.48c-.15.21-.23.45-.35.67a0,0,0,0,1-.05,0,1.91,1.91,0,0,1,.76-1.16,0,0,0,0,1,0,0Z"/><path class="cls-2" d="M18.14,19a4,4,0,0,1-.24.53,2.24,2.24,0,0,1-.37.59s-.06,0-.05,0a2.93,2.93,0,0,1,.3-.55c.11-.19.2-.39.33-.57a0,0,0,0,1,0,0Z"/><path class="cls-2" d="M17.81,18.88a2.81,2.81,0,0,0-.24.35c-.07.14-.12.29-.2.42a0,0,0,0,1,0,0,1.35,1.35,0,0,1,.46-.78s.05,0,0,0Z"/><path class="cls-2" d="M17.6,18.46a1.54,1.54,0,0,0-.4.68s0,0,0,0a.91.91,0,0,1,.42-.71,0,0,0,0,1,0,0Z"/><path class="cls-2" d="M22.25,21.64a2.84,2.84,0,0,1-.42.32c-.17.11-.32.24-.5.33a0,0,0,0,1,0,0,1.91,1.91,0,0,1,.42-.32l.5-.32s.05,0,0,0Z"/><path class="cls-2" d="M22.07,21.29c-.2.17-.4.35-.59.52a2.86,2.86,0,0,1-.55.48s-.07,0,0,0a3.22,3.22,0,0,1,.51-.5,4,4,0,0,1,.64-.5,0,0,0,0,1,0,.05Z"/><path class="cls-2" d="M21.62,20.78c-.09.14-.19.27-.29.4a1.41,1.41,0,0,1-.37.38s0,0,0,0a2.06,2.06,0,0,1,.31-.35c.12-.14.24-.27.35-.42a0,0,0,0,1,0,0Z"/><path class="cls-2" d="M21.55,20.05l-.28.43a1.73,1.73,0,0,1-.31.4s-.06,0,0,0a1.38,1.38,0,0,1,.24-.38l.33-.45s.09,0,.06,0Z"/><path class="cls-2" d="M21.25,19.58a1.76,1.76,0,0,1-.14.39,1,1,0,0,1-.25.38s0,0,0,0a2.23,2.23,0,0,1,.22-.38,2.5,2.5,0,0,0,.17-.37s0,0,0,0Z"/><path class="cls-2" d="M20.94,19.26a.57.57,0,0,1-.23.43s0,0,0,0,.08-.12.11-.18a1.08,1.08,0,0,0,.09-.23,0,0,0,1,1,0,0Z"/><path class="cls-2" d="M20.66,18.86l0,.08s0,0,0,0l0-.08s0,0,0,0Z"/><path class="cls-3" d="M20.59,18.47a0,0,0,0,0,0,0,0,0,0,0,0,0,0Z"/><path class="cls-2" d="M26.65,19.31c-.21.3-.47.57-.69.86,0,0-.07,0-.06,0,0-.38.13-.75.18-1.13.14-1-.31,0-.44.3,0,.06-.1,0-.11,0a11.22,11.22,0,0,0-.27-2.41c0-.05,0-.07.07,0a3.93,3.93,0,0,1,.3,1.56,1.82,1.82,0,0,1,0,.68,7.7,7.7,0,0,1,.49-.71s.08,0,.08,0a5,5,0,0,1-.12,1.21c0,.17-.2.54.07.22s.33-.37.49-.56c0,0,0,0,0,0Z"/><path class="cls-2" d="M32.2,9.3a6.14,6.14,0,0,0-.89.7s0,0,0,0a2.72,2.72,0,0,1,.89-.71,0,0,0,0,1,0,0Z"/><path class="cls-2" d="M32.24,9.63c-.52.34-.93.81-1.43,1.17a0,0,0,0,1,0,0,5.91,5.91,0,0,1,1.45-1.15,0,0,0,0,1,0,0Z"/><path class="cls-2" d="M32,10.21a10.85,10.85,0,0,0-1.47,1.45s-.08,0-.06,0A4,4,0,0,1,32,10.16a0,0,0,0,1,0,0Z"/><path class="cls-2" d="M32,10.52a4.53,4.53,0,0,1-.75.81c-.33.33-.57.71-.87,1.06a0,0,0,0,1-.07,0,2.94,2.94,0,0,1,.76-1,6.21,6.21,0,0,1,.9-.84s0,0,0,0Z"/><path class="cls-2" d="M32.11,10.94c-.28.3-.56.58-.84.88s-.5.67-.79,1a0,0,0,0,1,0,0,5.45,5.45,0,0,1,1.64-1.86,0,0,0,0,1,0,0Z"/><path class="cls-2" d="M31.73,11.69c-.37.34-.67.75-1,1.1,0,0-.07,0-.05,0a4.77,4.77,0,0,1,1.05-1.12s.06,0,0,0Z"/><path class="cls-2" d="M11.44,18.37a5.7,5.7,0,0,1-.58.32,2.59,2.59,0,0,1-.62.28s0,0,0,0a2.73,2.73,0,0,1,.59-.33,5.63,5.63,0,0,1,.62-.28s0,0,0,0Z"/><path class="cls-2" d="M11.1,18a8.93,8.93,0,0,1-1.3,1.13s0,0,0,0A9.45,9.45,0,0,1,11.09,18s0,0,0,0Z"/><path class="cls-2" d="M10.83,17.78c-.15.18-.32.34-.49.5s-.33.36-.51.52c0,0,0,0,0,0a3.84,3.84,0,0,1,1-1s0,0,0,0Z"/><path class="cls-2" d="M10.64,17.42a3.52,3.52,0,0,0-.42.43c-.13.16-.19.35-.31.51s0,0,0,0a1.59,1.59,0,0,1,.76-.94s0,0,0,0Z"/><path class="cls-2" d="M10.19,17.3c-.08.09-.16.16-.23.25a1.44,1.44,0,0,1-.18.24s0,0,0,0a.47.47,0,0,1,.13-.24,1,1,0,0,1,.29-.26s0,0,0,0Z"/><path class="cls-2" d="M10,16.83a1.26,1.26,0,0,0-.21.25,1.85,1.85,0,0,1-.18.29,0,0,0,0,1,0,0,1,1,0,0,1,.39-.56s.07,0,0,.05Z"/><path class="cls-3" d="M9.05,18.36a0,0,0,0,0,0,0,0,0,0,0,0,0,0Z"/><path class="cls-2" d="M7.19,15.93c-.12.14-.26.37-.45.42,0,0-.07,0,0-.05a1.21,1.21,0,0,1,.21-.23l.22-.21s.1,0,.07.08Z"/><path class="cls-2" d="M6.84,15.82a1.46,1.46,0,0,0-.21.13c-.06,0-.12.12-.2.14s0,0,0,0,.1-.12.16-.17a1.07,1.07,0,0,1,.26-.13,0,0,0,0,1,0,.07Z"/><path class="cls-2" d="M6.05,15.31a.42.42,0,0,0-.21.17s0,0,0,0A.36.36,0,0,1,6,15.24s.07.06,0,.08Z"/><path class="cls-2" d="M4.28,14.38a1.7,1.7,0,0,1-.17-.93s0,0,0,0,0,.3,0,.45a4.38,4.38,0,0,0,.11.48Z"/><path class="cls-2" d="M3.63,13.95a9,9,0,0,1,0-1.11s0,0,0,0a5.09,5.09,0,0,1,0,1.11s-.06,0-.06,0Z"/><path class="cls-2" d="M3.07,13.44A2.71,2.71,0,0,0,3,12.5s0,0,0,0a1.86,1.86,0,0,1,.09,1s0,0,0,0Z"/><path class="cls-2" d="M2.73,13.27a5.12,5.12,0,0,0,0-.73c0-.24-.11-.46-.11-.69a0,0,0,0,1,0,0,2.36,2.36,0,0,1,.11,1.45s0,0,0,0Z"/><path class="cls-2" d="M2.32,13.06a4.51,4.51,0,0,1-.12-.59,1.78,1.78,0,0,1,0-.71s.06,0,.08,0a3.54,3.54,0,0,1,0,.62c0,.22.05.45.06.68,0,0,0,0,0,0Z"/><path class="cls-2" d="M1.83,13.08A3.1,3.1,0,0,1,2,11.61a0,0,0,0,1,.06,0c0,.21-.08.42-.11.64a4.6,4.6,0,0,0-.06.81s0,0,0,0Z"/><path class="cls-2" d="M1.57,12.88a3.54,3.54,0,0,1,.33-1.31s.06,0,0,0a4.35,4.35,0,0,1-.2.63c-.07.22-.12.44-.17.66,0,0,0,0,0,0Z"/><path class="cls-2" d="M12.06,11.88S12,12,12,12l-.22.32-.23.34c0,.06-.07.18-.14.19a0,0,0,0,1,0,0c0-.07.06-.16.09-.21l.24-.36.22-.31c0-.05.09-.07.12-.12s0,0,0,0Z"/><path class="cls-2" d="M11.94,11.5c-.11.2-.23.38-.34.58a2.58,2.58,0,0,1-.35.5s-.07,0-.05,0a2.44,2.44,0,0,1,.33-.51c.13-.19.26-.37.4-.54a0,0,0,1,1,0,0Z"/><path class="cls-2" d="M11.68,11.1c-.28.42-.48.88-.75,1.3a0,0,0,1,1-.07,0,4.4,4.4,0,0,1,.79-1.29,0,0,0,0,1,0,0Z"/><path class="cls-2" d="M11.53,10.82c-.11.21-.22.42-.35.63a2.41,2.41,0,0,1-.41.53s-.06,0-.05,0a4.92,4.92,0,0,1,.37-.53c.13-.2.26-.41.37-.61a0,0,0,0,1,.07,0Z"/><path class="cls-2" d="M11.35,10.51a2.85,2.85,0,0,1-.38.66,1.68,1.68,0,0,1-.5.54,0,0,0,0,1,0,0,4.06,4.06,0,0,1,.41-.51c.17-.21.31-.45.47-.67a0,0,0,1,1,0,0Z"/><path class="cls-2" d="M11.12,10.23a5.3,5.3,0,0,1-.87,1.2s-.06,0,0,0a3.59,3.59,0,0,1,.36-.48c.18-.23.35-.46.52-.7,0,0,0,0,0,0Z"/><path class="cls-2" d="M10.84,10c-.13.16-.24.33-.38.49a1.2,1.2,0,0,1-.35.32s0,0,0,0a3.58,3.58,0,0,1,.32-.34c.14-.15.27-.3.42-.45s0,0,0,0Z"/><path class="cls-2" d="M10.69,9.54a2,2,0,0,1-.63.69s0,0,0,0c.18-.26.46-.41.61-.69,0,0,.07,0,0,0Z"/><path class="cls-2" d="M10.55,9.11a2.58,2.58,0,0,1-.75.72s0,0,0,0a2.62,2.62,0,0,1,.39-.36,2.6,2.6,0,0,0,.34-.38s.07,0,0,0Z"/><path class="cls-2" d="M10,8.85l-.19.22c-.07.08-.14.17-.22.25s0,0,0,0a3.22,3.22,0,0,1,.4-.49s0,0,0,0Z"/><path class="cls-2" d="M9.71,8.41a3.85,3.85,0,0,0-.24.35s-.06,0-.05,0a.9.9,0,0,1,.23-.37s.1,0,.06.05Z"/></svg>