<svg id="Layer_1" data-name="Layer 1" xmlns="http://www.w3.org/2000/svg" viewBox="0 0 5.76 10.69"><defs><style>.cls-1{fill:#302929;}</style></defs><title>fusilli</title><path class="cls-1" d="M4.69,0c-.64.36-.62,1.49-.62,2.11a6.3,6.3,0,0,1-.15,1.37c-.1.42-.29,1-.8,1.07-.13,0-.06.23.07.2.79-.18.94-1.12,1-1.8.06-.48,0-1,0-1.47A3.81,3.81,0,0,1,4.7,0Z"/><path class="cls-1" d="M4.59.65a1.94,1.94,0,0,0-.24.88,9.05,9.05,0,0,0,0,1.2A2.43,2.43,0,0,1,4,4.07a1.11,1.11,0,0,1-.92.52c-.1,0-.09.14,0,.14.76,0,1.13-.74,1.27-1.31a4.28,4.28,0,0,0,.06-1.25,7.65,7.65,0,0,1,0-.83,3,3,0,0,1,.16-.7Z"/><path class="cls-1" d="M4.43,2.71A2.48,2.48,0,0,0,5.75,1.47c0-.05-.07-.11-.1-.05A3.27,3.27,0,0,1,4.41,2.67s0,0,0,0Z"/><path class="cls-1" d="M4.73,0a3.09,3.09,0,0,1,.18.63,1.64,1.64,0,0,0,0,.38c.12.29.45.3.69.45s.15-.08.06-.13a1.34,1.34,0,0,0-.33-.14C5,1.09,5.07.88,5,.63A.87.87,0,0,0,4.74,0Z"/><path class="cls-1" d="M4.88,1.45c-.09.12-.15.25-.23.37a3.16,3.16,0,0,1-.27.33c-.06.07.08.17.13.1a2,2,0,0,0,.38-.79Z"/><path class="cls-1" d="M4.13,1.31a1.77,1.77,0,0,0-1,.85,2.92,2.92,0,0,0-.25,1.43c0,1.08.58,2.36-.35,3.09-.09.07,0,.22.12.15.74-.6.6-1.59.46-2.51A5.46,5.46,0,0,1,3,2.74a1.47,1.47,0,0,1,.48-.92c.2-.18.49-.28.63-.51Z"/><path class="cls-1" d="M4.09,1.14A1.9,1.9,0,0,0,3,2a2.39,2.39,0,0,0-.3,1.39c0,.54.08,1.08.09,1.61A2.43,2.43,0,0,1,2.48,6.7c-.06.07.08.16.13.08a4.83,4.83,0,0,0,.23-2.65A5.33,5.33,0,0,1,2.9,2.41c.18-.63.71-.92,1.19-1.26Z"/><path class="cls-1" d="M2.73,2.95a2.17,2.17,0,0,0-1,1.11,2.29,2.29,0,0,0,0,1.52c.15.63.49,1.22.66,1.82A1.58,1.58,0,0,1,1.83,9c-.08.08.05.21.13.13A2.05,2.05,0,0,0,2.58,8a3,3,0,0,0-.41-1.55,3.77,3.77,0,0,1-.42-2c.1-.66.62-1,1-1.48,0,0,0,0,0,0Z"/><path class="cls-1" d="M2.43,3.46a2.4,2.4,0,0,0-.59,1.22A3.61,3.61,0,0,0,2.1,6a4.2,4.2,0,0,1,.47,1.47,2.39,2.39,0,0,1-.1.69A2.86,2.86,0,0,1,2,8.84c0,.05.05.13.1.08a2.06,2.06,0,0,0,.43-2.28c-.09-.23-.22-.46-.31-.7A5.44,5.44,0,0,1,2,5.2a1.78,1.78,0,0,1,0-.87,5.25,5.25,0,0,1,.44-.86,0,0,0,0,0,0,0Z"/><path class="cls-1" d="M1.65,5.21c-.44.07-.74.62-.85,1A2,2,0,0,0,1,7.54c.45,1.07,1.43,2,.62,3-.06.08.1.16.16.08a1.38,1.38,0,0,0,.32-1.2,4.05,4.05,0,0,0-.61-1.26A3.32,3.32,0,0,1,.88,6.76a1.72,1.72,0,0,1,.21-.9,3.63,3.63,0,0,1,.57-.63s0,0,0,0Z"/><path class="cls-1" d="M1,5.87a2.31,2.31,0,0,0-.08,2,3.8,3.8,0,0,0,.56,1,1.88,1.88,0,0,1,.3,1.05s.06,0,.07,0a2.74,2.74,0,0,0-.63-1.58A2.71,2.71,0,0,1,.8,7.1,8.72,8.72,0,0,1,1,5.87Z"/><path class="cls-1" d="M0,9c.35-.4.81-.67,1-1.19a0,0,0,0,0-.09,0,3.18,3.18,0,0,1-.5.76C.23,8.73,0,8.84,0,9Z"/><path class="cls-1" d="M0,9.07c.24.35.77.22,1,.57s.29.71.5,1c0,.06.15,0,.11-.05-.22-.32-.28-.69-.51-1S.4,9.27,0,9.06Z"/><path class="cls-1" d="M1.18,8.41a1.36,1.36,0,0,1,0,.43,2.39,2.39,0,0,1-.13.46c0,.08.12.13.14,0,.06-.24.21-.72,0-.94Z"/><path class="cls-1" d="M3.27,2.43a2.12,2.12,0,0,1,.85-.79s0-.08,0-.06c-.31.18-.79.43-.81.85Z"/><path class="cls-1" d="M3.38,2.6c.11-.08.2-.2.31-.29L4.07,2s0-.09,0-.06c-.21.18-.57.35-.64.64Z"/><path class="cls-1" d="M3.59,2.76a1.08,1.08,0,0,1,.5-.39c.06,0,0-.11,0-.09a1.32,1.32,0,0,0-.52.43s0,.08.06,0Z"/><path class="cls-1" d="M3.61,3a1.14,1.14,0,0,1,.54-.36s0-.09,0-.07A1.34,1.34,0,0,0,3.6,3Z"/><path class="cls-1" d="M3.67,3.27a1.57,1.57,0,0,1,.21-.21,2.18,2.18,0,0,1,.23-.13s0-.07,0-.07a.6.6,0,0,0-.43.39s0,0,0,0Z"/><path class="cls-1" d="M3.77,3.43l.14-.12c.06,0,.13-.06.19-.1s0-.07,0-.07a.44.44,0,0,0-.32.25s0,.06,0,0Z"/><path class="cls-1" d="M3.78,3.69a.3.3,0,0,0,.09-.06S4,3.6,4,3.56a.05.05,0,0,0,0-.07c-.06,0-.1,0-.13.07a.18.18,0,0,0-.06.12Z"/><path class="cls-1" d="M2.13,4.34A3.16,3.16,0,0,0,2.37,4a1.82,1.82,0,0,1,.45-.46s0-.11-.06-.08a1.54,1.54,0,0,0-.63.91Z"/><path class="cls-1" d="M2.3,4.55a1.53,1.53,0,0,1,.5-.66s0-.11-.07-.07a1.67,1.67,0,0,0-.49.71s0,0,.06,0Z"/><path class="cls-1" d="M2.35,4.69a3.66,3.66,0,0,1,.43-.45s0-.1-.06-.06a1.11,1.11,0,0,0-.38.51Z"/><path class="cls-1" d="M2.53,4.87a1.56,1.56,0,0,1,.3-.34c.05,0,0-.12-.09-.07a1.51,1.51,0,0,0-.26.39s0,0,.05,0Z"/><path class="cls-1" d="M2.54,5.19a2,2,0,0,1,.31-.35s0-.09-.07-.06a.79.79,0,0,0-.28.4s0,0,0,0Z"/><path class="cls-1" d="M2.66,5.36a.36.36,0,0,1,.19-.18s0-.08,0-.06a.44.44,0,0,0-.22.2s0,.08.07,0Z"/><path class="cls-1" d="M2.66,5.63a1.09,1.09,0,0,1,.21-.18s0-.11-.05-.07a.42.42,0,0,0-.17.25Z"/><path class="cls-1" d="M2.7,5.82a.33.33,0,0,1,.12-.09s0-.1-.06-.05a.8.8,0,0,0-.06.14Z"/><path class="cls-1" d="M1.08,6.89a2.43,2.43,0,0,1,.64-1.41s0-.1-.07-.06a1.92,1.92,0,0,0-.58,1.47Z"/><path class="cls-1" d="M1.29,6.82a3,3,0,0,1,.54-1s0-.11-.07-.06a2.53,2.53,0,0,0-.47,1Z"/><path class="cls-1" d="M1.53,7a1.92,1.92,0,0,1,.14-.46c.07-.15.18-.27.26-.41s0-.06-.06,0a1.77,1.77,0,0,0-.23.43A1.58,1.58,0,0,0,1.48,7s0,0,0,0Z"/><path class="cls-1" d="M1.71,7.14l.12-.33A1.46,1.46,0,0,1,2,6.47s0-.06,0,0c-.2.15-.24.48-.3.7Z"/><path class="cls-1" d="M1.9,7.37a1.68,1.68,0,0,1,.3-.62s0-.1-.08-.06a1.19,1.19,0,0,0-.26.67s0,0,0,0Z"/><path class="cls-1" d="M2.05,7.58a1.11,1.11,0,0,1,.08-.33A1.63,1.63,0,0,0,2.27,7a0,0,0,0,0,0,0c-.09.06-.11.18-.15.27A1.14,1.14,0,0,0,2,7.57s.06,0,.06,0Z"/><path class="cls-1" d="M2.19,7.75a.81.81,0,0,0,.22-.69s-.06,0-.07,0,0,.25-.07.37a1,1,0,0,0-.08.33Z"/><path class="cls-1" d="M2,8.58a1.33,1.33,0,0,0,.47-1.1s0,0,0,0A4.7,4.7,0,0,1,2.31,8a4.49,4.49,0,0,1-.32.6Z"/><path class="cls-1" d="M.36,9a1.32,1.32,0,0,0,.7-.87C1.07,8,1,8,1,8.06a2.32,2.32,0,0,1-.6.9Z"/><path class="cls-1" d="M.8,8.93a.88.88,0,0,0,.39-.61c0-.06-.09-.07-.1,0a2,2,0,0,1-.29.61Z"/><path class="cls-1" d="M1.37,9.58a1,1,0,0,0,0-1s-.09,0-.08,0a1.82,1.82,0,0,1,.12.47c0,.16,0,.32,0,.48Z"/><path class="cls-1" d="M1.59,10.09a2.26,2.26,0,0,0-.18-1.43s-.09,0-.07,0a2,2,0,0,1,.22,1.4s0,0,0,0Z"/><path class="cls-1" d="M1.16,7.27a1.82,1.82,0,0,0,.26.58c.11.21.21.42.33.61,0,0,0,0,0,0a2.09,2.09,0,0,0-.28-.57c-.12-.2-.21-.42-.34-.62Z"/><path class="cls-1" d="M2.19,5.34A3.33,3.33,0,0,0,2.37,6a3.41,3.41,0,0,0,.25.74s.09,0,.08,0a5.18,5.18,0,0,0-.24-.66,6.65,6.65,0,0,0-.26-.75Z"/><path class="cls-1" d="M3.13,3.1c0,.21,0,.41,0,.61s0,.46,0,.68c0,0,.07.06.08,0a2.13,2.13,0,0,0,0-.61c0-.23-.06-.46-.07-.69Z"/><path class="cls-1" d="M5.38,1.48a8.35,8.35,0,0,0-1,1.11s0,.09.06.06a4,4,0,0,0,.93-1.17Z"/><path class="cls-1" d="M4.78,1.08c-.17.33-.24.71-.4,1,0,.07.09.13.12.05a9,9,0,0,0,.28-1.1Z"/><path class="cls-1" d="M4.64,3a2.43,2.43,0,0,1-.89,1.79s0,.06,0,0A2.15,2.15,0,0,0,4.64,3Z"/><path class="cls-1" d="M1.15,5.22A2.15,2.15,0,0,0,.59,7.36a0,0,0,0,0,0,0,2.37,2.37,0,0,1,.51-2.12Z"/></svg>