<svg id="Layer_1" data-name="Layer 1" xmlns="http://www.w3.org/2000/svg" viewBox="0 0 10.02 7.79"><defs><style>.cls-1{fill:#302929;}</style></defs><title>garlic</title><path class="cls-1" d="M.24,3.93s0,0,0,0A.19.19,0,0,0,.18,4a.6.6,0,0,0,0,.24l.08-.12c-.14,0-.31.11-.29.29a.37.37,0,0,0,.32.28.09.09,0,0,0,.09,0,.09.09,0,0,0,0,0,.1.1,0,0,0,0-.09.52.52,0,0,1-.17-.1c0-.05.08-.08.11-.09a.1.1,0,0,0,.08-.12A1.58,1.58,0,0,1,.37,4,.24.24,0,0,0,.34,4l0,0a0,0,0,0,0-.06,0Z"/><path class="cls-1" d="M.57,4.39a.35.35,0,0,0,0,.27c0,.08.15.17.23.13a0,0,0,0,0,0,0c0-.06-.06-.08-.1-.11a.24.24,0,0,1-.1-.24s0,0,0,0Z"/><path class="cls-1" d="M.89,4.44c-.06.19.16.54.38.47a0,0,0,0,0,0-.05c-.06-.07-.15-.11-.21-.17a1.07,1.07,0,0,1-.14-.25s0,0,0,0Z"/><path class="cls-1" d="M1.27,4.91c.12,0,.29-.1.41,0a.05.05,0,0,0,.07,0c.1-.11.24-.38.05-.48,0,0-.05,0-.05,0a.36.36,0,0,0,0,.15.26.26,0,0,1-.09.23h.06c-.14-.1-.35,0-.5,0s0,.09,0,.07Z"/><path class="cls-1" d="M1.76,4.25s0,.05.05.07a.12.12,0,0,0,.13,0C2,4.23,2.13,4.06,2,4A0,0,0,0,0,2,4c-.06.05-.05.12-.07.19s-.06.13-.11.09,0,0,0,0Z"/><path class="cls-1" d="M1.06,3.29c.07.09.19.11.25.22a1.45,1.45,0,0,1,.08.26.26.26,0,0,0,.12.18c.06,0,.18,0,.18-.07s-.09-.07-.11-.08,0-.16-.06-.22-.23-.48-.45-.37a.05.05,0,0,0,0,.08Z"/><path class="cls-1" d="M1.67,3.85c.11,0,.15,0,.19.07s.22,0,.17-.08-.27-.1-.4,0,0,0,0,0Z"/><path class="cls-1" d="M.48,3.63A1.43,1.43,0,0,0,.7,3.44a.34.34,0,0,1,.42-.09s0-.14,0-.15-.67.21-.68.35,0,.07,0,.05Z"/><path class="cls-1" d="M.54,4.08a.32.32,0,0,0,.4.32s0,0,0-.06S.67,4.22.6,4.07a0,0,0,0,0-.06,0Z"/><path class="cls-1" d="M.85,4c.08.07.16.2.27.22s0,0,0,0S1,4,.88,4,.82,4,.85,4Z"/><path class="cls-1" d="M1.17,4.54a.27.27,0,0,0,.31-.26,0,0,0,0,0,0,0c-.1.07-.14.19-.27.23a0,0,0,0,0,0,.05Z"/><path class="cls-1" d="M1.43,4.7a.16.16,0,0,0,.13-.19,0,0,0,0,0-.07,0s0,.09-.09.1,0,.12,0,.1Z"/><path class="cls-1" d="M.33,4.69c.2,2,2.73,2.85,4.4,2.69A4.05,4.05,0,0,0,7.41,6c.89-1.16.73-2.48.76-3.87,0-.15-.23-.17-.23,0A9.63,9.63,0,0,1,7.7,5.06,3.59,3.59,0,0,1,5,7.1,4.05,4.05,0,0,1,.37,4.72l0-.05Z"/><path class="cls-1" d="M8.17,2.21a3.58,3.58,0,0,1,.58-1C9.11.86,9.68.74,10,.35c0,0,0-.1-.07-.08a4.37,4.37,0,0,0-1.56,1.1c-.06.06-.47.53-.44.85,0,0,.16-.07.14-.1Z"/><path class="cls-1" d="M2,4c.6-.31,1.16-1,1.78-1.32a12,12,0,0,1,2.64-.5C7.65,1.93,8.66.86,9.57.09A.05.05,0,0,0,9.51,0,7.11,7.11,0,0,0,8.09,1,4.83,4.83,0,0,1,5.48,2.15a8.11,8.11,0,0,0-1.74.39A6.58,6.58,0,0,0,2,4H2Z"/><path class="cls-1" d="M2.13,4.43a3.51,3.51,0,0,0,2.11-1,4.94,4.94,0,0,1,1.55-.69,6.82,6.82,0,0,0,1.38-.31.05.05,0,0,0,0-.1,5.32,5.32,0,0,0-2.34.51c-1,.4-1.61,1.26-2.68,1.47a0,0,0,0,0,0,.07Z"/><path class="cls-1" d="M1.74,5a2.58,2.58,0,0,0,1.4,1.77c.6.36,1.47.77,2.13.37.09-.05.07-.17,0-.14a2.85,2.85,0,0,1-2.18-.51A4,4,0,0,1,1.75,5Z"/><path class="cls-1" d="M3,4.48c.41,0,.81-.4,1.12-.63a5.49,5.49,0,0,1,.75-.52,2.57,2.57,0,0,1,.82-.2,0,0,0,0,0,0-.07c-.42-.15-.89.17-1.21.42s-.43.36-.64.53A4.58,4.58,0,0,1,3,4.46s0,0,0,0Z"/><path class="cls-1" d="M4.35,4a3.51,3.51,0,0,1,.33-.19c.1-.05.27,0,.35-.14a0,0,0,0,0,0-.05c-.1-.06-.23,0-.32.09s-.23.19-.36.28Z"/><path class="cls-1" d="M5.39,3.68a.28.28,0,0,0,0,.22h0c.09,0,.06-.18,0-.25s-.1,0-.11,0Z"/><path class="cls-1" d="M5.64,3.45a2.32,2.32,0,0,0,.09.46s0,0,0,0a.43.43,0,0,0-.08-.49,0,0,0,0,0,0,0Z"/><path class="cls-1" d="M5.93,3.21A2.24,2.24,0,0,1,6,3.67c0,.13,0,.32.06.43a0,0,0,0,0,.06,0,1,1,0,0,0,0-.48.56.56,0,0,0-.19-.41Z"/><path class="cls-1" d="M6.28,3.05c0,.18.05.36.08.54a2,2,0,0,0,.09.47,0,0,0,0,0,.07,0c.12-.32-.12-.72-.22-1Z"/><path class="cls-1" d="M6.66,3a1.6,1.6,0,0,1,.06.55c0,.13,0,.3.07.4a0,0,0,0,0,.06,0c.08-.12,0-.32,0-.46A1.66,1.66,0,0,0,6.67,3a0,0,0,0,0,0,0Z"/><path class="cls-1" d="M6.95,2.93a.68.68,0,0,1,.12.44c0,.1,0,.24,0,.32a0,0,0,0,0,.06,0c.07-.09,0-.28,0-.39A.84.84,0,0,0,7,2.91s-.05,0,0,0Z"/><path class="cls-1" d="M7.26,2.83a1.94,1.94,0,0,1,.06.28c0,.09,0,.21.09.27a.05.05,0,0,0,.07,0c.06-.08,0-.22,0-.32a.37.37,0,0,0-.15-.26s-.07,0-.06,0Z"/><path class="cls-1" d="M7.5,2.74a.31.31,0,0,1,0,.13A.11.11,0,0,0,7.6,3h0a.11.11,0,0,0,.11-.07.34.34,0,0,0,0-.26.11.11,0,0,0-.2.09Z"/><path class="cls-1" d="M.61,5c0,.15.2.21.31.26a1.15,1.15,0,0,0,.61.08,0,0,0,0,0,0-.07,1.7,1.7,0,0,0-.44-.09,1,1,0,0,1-.3-.1A.59.59,0,0,0,.63,5a0,0,0,0,0,0,0Z"/><path class="cls-1" d="M.87,5.49a1.27,1.27,0,0,0,.44.25c.12,0,.29.11.39,0a0,0,0,0,0,0-.06c-.06-.11-.2-.11-.31-.14L.88,5.45a0,0,0,0,0,0,0Z"/><path class="cls-1" d="M1.29,6a2.48,2.48,0,0,0,.38.14c.1,0,.26,0,.29-.1a0,0,0,0,0,0,0c-.08-.06-.21,0-.3,0a1.31,1.31,0,0,0-.36,0,0,0,0,0,0,0,0Z"/><path class="cls-1" d="M1.81,6.38a.78.78,0,0,0,.31.08.07.07,0,0,0,.06,0v0a0,0,0,0,0,0,0c-.06-.09-.26-.05-.36-.07a0,0,0,0,0,0,.07Z"/><path class="cls-1" d="M.21,3.52c-.09.06-.06.2,0,.29A.25.25,0,0,0,.43,4,.09.09,0,0,0,.5,3.88c0-.06-.08-.1-.11-.16s0-.12-.05-.17a.08.08,0,0,0-.12,0Z"/><path class="cls-1" d="M.34,3.45c0,.12,0,.33.2.32s.06,0,0-.06A.32.32,0,0,0,.5,3.62a.25.25,0,0,1-.07-.18s-.08,0-.09,0Z"/><path class="cls-1" d="M2.09,5A2.19,2.19,0,0,0,3,6.16,3.26,3.26,0,0,0,4.6,6.8,3.1,3.1,0,0,0,7.67,4.68a0,0,0,0,0-.08,0,3.12,3.12,0,0,1-3,2,3.21,3.21,0,0,1-1.48-.52A5.28,5.28,0,0,1,2.09,5Z"/><path class="cls-1" d="M2.58,5.21c.7,1.6,3.83,1.65,4.37-.1,0-.05-.06-.09-.09,0a2.18,2.18,0,0,1-2,1.15A2.88,2.88,0,0,1,3.69,6a5.34,5.34,0,0,1-1.11-.79Z"/><path class="cls-1" d="M3.46,5.51a2.11,2.11,0,0,0,2.76,0,0,0,0,0,0-.05-.08,2.87,2.87,0,0,1-1.33.43A4.63,4.63,0,0,1,3.46,5.5Z"/><path class="cls-1" d="M.9,6.35A3.34,3.34,0,0,0,2.74,7.57a3.38,3.38,0,0,0,2.19,0s0-.06,0-.05a3.92,3.92,0,0,1-2.13-.11A5.73,5.73,0,0,1,.91,6.35Z"/><path class="cls-1" d="M3.94,2.15C5.43,1.91,7,1.88,8.15.72a0,0,0,0,0,0,0A4.64,4.64,0,0,1,5.75,1.77a5.06,5.06,0,0,0-1.82.38Z"/></svg>