<svg id="Layer_1" data-name="Layer 1" xmlns="http://www.w3.org/2000/svg" viewBox="0 0 14.06 11.59"><defs><style>.cls-1{fill:#302929;}</style></defs><title>sweet_pepper_slice</title><path class="cls-1" d="M10,10a6,6,0,0,0,1.35-.59,2.06,2.06,0,0,0,1-.92,2.14,2.14,0,0,0,.1-1.24c-.09-.49-.42-.87-.34-1.38a1.09,1.09,0,0,1,0-.15L12,5.65v0a1.39,1.39,0,0,0,.08,1,2.36,2.36,0,0,1,.23,1.45,1.6,1.6,0,0,1-.91,1.07,6.45,6.45,0,0,1-1.18.56l-.11,0a2.19,2.19,0,0,1-2.6-.7c-.35-.54-.42-1.22-.77-1.76a1.06,1.06,0,0,0-1.45-.36c-.56.26-1,.63-1.66.51a2.26,2.26,0,0,1-1-.45V7a5.68,5.68,0,0,1-1-1.87l-.16,0,.13.43a4.49,4.49,0,0,0,.86,1.53,2,2,0,0,0,2,.37C5,7.26,5.48,6.86,6,7c.33.08.52.42.65.72a4.81,4.81,0,0,0,.87,1.79A2.42,2.42,0,0,0,10,10Z"/><path class="cls-1" d="M13.45,9.15a3.36,3.36,0,0,0,.08-1.73,1.67,1.67,0,0,1,.07-1l-.26-.18a1,1,0,0,0-.13.32,1.34,1.34,0,0,0,0,.47,1.86,1.86,0,0,0,0,.26c0,.31.11.63.13.94.07,1.44-1.16,2-2.32,2.34a14.39,14.39,0,0,1-1.79.35,2.09,2.09,0,0,1-1.7-.47c-.29-.24-.59-.61-.91-1h0a2.37,2.37,0,0,0-1.45-.89c-.5,0-1,.24-1.47.27-1.3.08-2-1.12-2.39-2.21C1.13,6.19,1,5.76.85,5.33l-.22.06c.11.36.24.73.36,1.08A3.79,3.79,0,0,0,2.88,9,2.64,2.64,0,0,0,4.52,9a2.45,2.45,0,0,1,.63-.11A1.36,1.36,0,0,1,6,9.24c.13.11.22.13.35.24l.18.14a10.38,10.38,0,0,0,1.14,1.15c.93.67,2.22.27,3.22.05A3.24,3.24,0,0,0,13.45,9.15Z"/><path class="cls-1" d="M1.56,3.07a.17.17,0,0,0,0,0,2.25,2.25,0,0,1,.61-.89c.51-.44,1.07-.34,1.69-.4a1,1,0,0,0,.52-.15s.06-.15.06-.15l0-.07a2.86,2.86,0,0,1-1.49.3A2.06,2.06,0,0,0,1.39,3a4.5,4.5,0,0,0,0,1.75c0,.14.07.29.11.44l.16,0A5.67,5.67,0,0,1,1.56,3.07Z"/><path class="cls-1" d="M1.55.94A14.51,14.51,0,0,0,3,.43a1.28,1.28,0,0,0,.24-.2L3,0a.87.87,0,0,1-.19.16,2.52,2.52,0,0,1-.61.22,2.64,2.64,0,0,0-1.42.81A3.79,3.79,0,0,0,.41,4.33c.07.37.15.75.23,1.12l.22-.06C.76,4.95.67,4.5.6,4.05.41,2.9.39,1.52,1.55.94Z"/><path class="cls-1" d="M.7,3.08A2.62,2.62,0,0,1,1.59,1.4,9.19,9.19,0,0,1,3.08.76,1.47,1.47,0,0,0,3.46.51L3.38.43a2.27,2.27,0,0,1-.77.4,2.66,2.66,0,0,0-1.31.71A3,3,0,0,0,.65,3.07S.7,3.11.7,3.08Z"/><path class="cls-1" d="M3.33,7.84a1.85,1.85,0,0,0,1.2-.14,2.37,2.37,0,0,1,1.3-.36c.31.07.46.43.58.69A5.07,5.07,0,0,0,7,9.26s0,0,0,0c-.18-.45-.36-.9-.56-1.34A1.2,1.2,0,0,0,6,7.25a1.26,1.26,0,0,0-1,.14,2.65,2.65,0,0,1-1.65.44Z"/><path class="cls-1" d="M12.36,9a2,2,0,0,0,.39-1.17,6.71,6.71,0,0,0-.27-1.23,1.43,1.43,0,0,1,0-.68l0-.07-.14-.05a.93.93,0,0,0-.08.33,2.38,2.38,0,0,0,.1.62c.05.23.12.45.18.68a2,2,0,0,1-.32,1.53A0,0,0,0,0,12.36,9Z"/><path class="cls-1" d="M3.6.64A2.41,2.41,0,0,1,3,1s0,0,0,0A1.26,1.26,0,0,0,3.69.72Z"/><path class="cls-1" d="M12.88,7.57a4.89,4.89,0,0,1-.08-1.39A.83.83,0,0,1,12.88,6l-.13-.05,0,.1a3.46,3.46,0,0,0,.09,1.55C12.79,7.64,12.89,7.64,12.88,7.57Z"/><path class="cls-1" d="M4.6,8a4.13,4.13,0,0,1,.78-.28.61.61,0,0,1,.78.37c0,.07.14,0,.11-.06a.68.68,0,0,0-.71-.43,2.58,2.58,0,0,0-1,.4Z"/><path class="cls-1" d="M1,1.07A2.57,2.57,0,0,0,0,3.24a6.36,6.36,0,0,0,.11,1,11,11,0,0,0,.5,2.17A5.6,5.6,0,0,0,2.17,9.17,2,2,0,0,0,3.7,9.6c.62-.08,1.22-.36,1.82-.07s1.12,1.08,1.71,1.54a2.81,2.81,0,0,0,2.29.45c.42-.07.84-.19,1.25-.3a7.14,7.14,0,0,0,1.14-.38,2.85,2.85,0,0,0,1.52-1.7c.06-.15-.19-.22-.24-.06A2.73,2.73,0,0,1,12,10.54a6.11,6.11,0,0,1-1.66.57,5.06,5.06,0,0,1-2.06.24,3,3,0,0,1-1.51-.9,5.64,5.64,0,0,0-1.21-1,2.12,2.12,0,0,0-1.53,0,2.31,2.31,0,0,1-1,.06A2,2,0,0,1,2.24,9a3.74,3.74,0,0,1-.94-1.37,13.41,13.41,0,0,1-1.13-4A3,3,0,0,1,1,1.08s0,0,0,0Z"/><path class="cls-1" d="M.07,2.91l.05-.08a1.08,1.08,0,0,0,.21-.39h0a.65.65,0,0,0-.25.25C.07,2.76.07,2.84.07,2.91Z"/><path class="cls-1" d="M.08,3.24c0,.06,0,.13,0,.19a2,2,0,0,0,.23-.49,0,0,0,0,0,0,0A1.7,1.7,0,0,0,.08,3.24Z"/><path class="cls-1" d="M.16,3.82l0,.08.14-.27a0,0,0,0,0,0,0Z"/><path class="cls-1" d="M.24,4.27c0,.1,0,.19,0,.29.07-.14.13-.29.21-.43a.08.08,0,0,0-.13-.08Z"/><path class="cls-1" d="M.33,5c0,.08,0,.17,0,.25a2.34,2.34,0,0,0,.21-.56,0,0,0,0,0-.07,0A3.57,3.57,0,0,0,.33,5Z"/><path class="cls-1" d="M.47,5.75l0,.07,0,0,0,0A3.57,3.57,0,0,0,.68,5.2h0Z"/><path class="cls-1" d="M.82,5.69C.76,5.86.7,6,.64,6.21s.07.19.09.29a1.78,1.78,0,0,0,.14-.8A0,0,0,0,0,.82,5.69Z"/><path class="cls-1" d="M1.08,6.4c-.07.25-.15.5-.2.75a0,0,0,0,0,0,0c.07-.25.14-.5.2-.75a0,0,0,0,0,0,0Z"/><path class="cls-1" d="M1.34,7c-.07.21-.15.42-.21.63l.11.2v0A1.76,1.76,0,0,0,1.37,7S1.34,7,1.34,7Z"/><path class="cls-1" d="M1.66,7.58a6.26,6.26,0,0,1-.17.78l.07.11a2.21,2.21,0,0,0,.13-.88A0,0,0,0,0,1.66,7.58Z"/><path class="cls-1" d="M1.92,8.12c0,.2-.07.39-.11.58l.11.11A3.2,3.2,0,0,0,2,8.12,0,0,0,0,0,1.92,8.12Z"/><path class="cls-1" d="M2.34,8.65a.09.09,0,0,1,0,.08h0v0a.49.49,0,0,0,0-.05Z"/><path class="cls-1" d="M4.12,9l0,0v0l0,.06s0,0,0,0a.09.09,0,0,0,0-.06V9s0,0,0,0Z"/><path class="cls-1" d="M4.52,9.4a3.41,3.41,0,0,0,.22-.63,0,0,0,0,0,0,0c-.09.16-.16.33-.24.5l-.09.18Z"/><path class="cls-1" d="M5,9.37a4.89,4.89,0,0,0,.21-.67.05.05,0,0,0-.1,0,5.71,5.71,0,0,0-.3.71Z"/><path class="cls-1" d="M5.36,9.43l.09,0a3.11,3.11,0,0,0,.16-.58.06.06,0,0,0-.12,0c-.06.19-.14.37-.21.56Z"/><path class="cls-1" d="M5.88,9.05a1.85,1.85,0,0,1-.2.51l.14.09A1.64,1.64,0,0,0,6,9.07.06.06,0,0,0,5.88,9.05Z"/><path class="cls-1" d="M6.13,9.61,6,9.83l.12.1.09-.24a.75.75,0,0,0,.06-.34s0,0,0,0A.63.63,0,0,0,6.13,9.61Z"/><path class="cls-1" d="M6.46,10.2h0l.11.14a1.66,1.66,0,0,0,.08-.74,0,0,0,0,0,0,0A4.38,4.38,0,0,0,6.46,10.2Z"/><path class="cls-1" d="M6.92,10.09c-.05.16-.12.33-.18.49l.08.1A5.4,5.4,0,0,0,7,10.12,0,0,0,0,0,6.92,10.09Z"/><path class="cls-1" d="M7.27,10.36c-.06.19-.14.37-.22.55L7.2,11a5,5,0,0,0,.18-.63A.05.05,0,0,0,7.27,10.36Z"/><path class="cls-1" d="M7.47,11.18l.08,0a2,2,0,0,0,.08-.55h0C7.56,10.84,7.51,11,7.47,11.18Z"/><path class="cls-1" d="M7.89,10.93a3.14,3.14,0,0,1-.06.38h.07A2.24,2.24,0,0,0,8,10.93S7.9,10.88,7.89,10.93Z"/><path class="cls-1" d="M8.27,11c0,.11-.06.22-.1.32a0,0,0,0,0,.05,0A1,1,0,0,0,8.35,11s-.06-.07-.07,0Z"/><path class="cls-1" d="M8.76,11.15a1.34,1.34,0,0,1-.07.23s.06.08.08,0a.8.8,0,0,0,.07-.25s-.07-.05-.08,0Z"/><path class="cls-1" d="M12.21,10.63a1.28,1.28,0,0,0,.1-.22.05.05,0,0,0-.09-.05,2.13,2.13,0,0,0-.27.38Z"/><path class="cls-1" d="M11.65,10.58c-.06.12-.12.24-.18.36a0,0,0,0,0,.06,0,3,3,0,0,0,.18-.36s0-.07-.06,0Z"/><path class="cls-1" d="M11.07,11.07a2.28,2.28,0,0,0,.2-.45c0-.05-.07-.07-.08,0a4.17,4.17,0,0,1-.25.51Z"/><path class="cls-1" d="M10.64,10.81l-.17.39c0,.07.06.13.1.06a4.21,4.21,0,0,0,.2-.42c0-.08-.1-.11-.13,0Z"/><path class="cls-1" d="M1.41,5.39A11.87,11.87,0,0,0,1.87,6.8a2,2,0,0,0,1,1c.08,0,.15-.09.08-.14s-.36-.23-.52-.38A2.55,2.55,0,0,1,2,6.73a6.84,6.84,0,0,1-.57-1.35Z"/><path class="cls-1" d="M12.08,9.15a5,5,0,0,0-.7.43,5.82,5.82,0,0,1-.91.43,4.37,4.37,0,0,1-1,.25,7.22,7.22,0,0,0-.82.09,0,0,0,0,0,0,.06,1.59,1.59,0,0,0,.83,0,6.67,6.67,0,0,0,1-.29,6.1,6.1,0,0,0,.88-.41,1.9,1.9,0,0,0,.71-.55Z"/><path class="cls-1" d="M2.94.16c0,.18.29.34.41.45a4,4,0,0,1,.76.94.2.2,0,0,0,.34-.21A6.29,6.29,0,0,0,3,0s-.09,0-.08.13Z"/><path class="cls-1" d="M12,5.81c.14,0,.41.08.53.12a1.7,1.7,0,0,1,.8.54c.13.18.38,0,.22-.21a1.69,1.69,0,0,0-.79-.5c-.13,0-.66-.22-.79-.11s0,.06,0,.08Z"/><path class="cls-1" d="M3.07,10a3.06,3.06,0,0,1-2-1.36,5.25,5.25,0,0,1-.59-1.1A4.61,4.61,0,0,1,.33,7a1,1,0,0,0-.12-.38.1.1,0,0,0-.17,0c-.11.31.13.79.25,1.08A5.49,5.49,0,0,0,1,8.91,2.38,2.38,0,0,0,3.07,10a0,0,0,0,0,0,0Z"/><path class="cls-1" d="M4.22,7.06a4.88,4.88,0,0,0,1-.46A1.5,1.5,0,0,1,6,6.47a3.56,3.56,0,0,1,.76.23.08.08,0,0,0,.08-.13c-.73-.72-2,0-2.59.49Z"/><path class="cls-1" d="M14,8A4.13,4.13,0,0,0,14,7.46a2,2,0,0,1,.07-.78.09.09,0,1,0-.18,0A2,2,0,0,0,14,8Z"/></svg>