<svg id="Layer_1" data-name="Layer 1" xmlns="http://www.w3.org/2000/svg" viewBox="0 0 16.08 12.36"><defs><style>.cls-1{fill:#464646;}</style></defs><title>cinnamon</title><path class="cls-1" d="M14.72,4.6c-2.18.49-3.92,1.81-5.8,2.93-1,.62-2.1,1.21-3.12,1.87a31.53,31.53,0,0,0-3.1,2.4c-.14.12,0,.36.17.24.9-.77,1.82-1.51,2.78-2.19s2-1.29,3.07-1.94,1.91-1.3,2.94-1.84a18.19,18.19,0,0,1,3.16-1.42s-.05-.06-.1-.05Z"/><path class="cls-1" d="M12.17.78A73.45,73.45,0,0,0,5.33,5c-.85.64-1.63,1.39-2.43,2.09a7.22,7.22,0,0,0-1.84,2c-.09.18.2.31.29.13A7.76,7.76,0,0,1,3.3,7.17c.78-.68,1.53-1.41,2.34-2.06C7.66,3.5,10,2.45,12.12.92A.07.07,0,0,0,12,.82Z"/><path class="cls-1" d="M2.75,12v-.08c-.06,0,0-.05-.07,0a1.48,1.48,0,0,1-.92.13,1.47,1.47,0,0,1-.86-1.08,1.88,1.88,0,0,1,.13-1A6.2,6.2,0,0,0,1.41,9c0-.06-.18-.22-.21-.18A3.67,3.67,0,0,0,.65,10,1.85,1.85,0,0,0,.77,11.4c.39.72,1.41,1.37,2.1.65.06-.07,0-.25-.09-.19s0,.06,0,.1Z"/><path class="cls-1" d="M13.71,1.68c-1.41.14-.72,2.58.55,1.85,2-1.14,0-3.71-1.86-2.88a2.09,2.09,0,0,0-1.06,2.07,2.48,2.48,0,0,0,1.8,2,2.29,2.29,0,0,0,2.66-.92A2.63,2.63,0,0,0,15.36.9a3,3,0,0,0-.43-.45c-.12-.11-.26.08-.16.19a3,3,0,0,1,1,2.24A1.86,1.86,0,0,1,14,4.54a2.11,2.11,0,0,1-2.15-2.88A1.54,1.54,0,0,1,13.52.79,1.52,1.52,0,0,1,14.8,2.62c-.2.61-1.08,1.14-1.53.49a.83.83,0,0,1,.47-1.31c.07,0,0-.12,0-.12Z"/><path class="cls-1" d="M14.55.78c.83,1,1.52,2.85-.09,3.45a1.8,1.8,0,0,1-2.15-2.41,1.18,1.18,0,0,1,1.63-.57,1.34,1.34,0,0,1,.56,1.53c-.19.46-1.36-.28-.67-.93.09-.09-.06-.25-.15-.16a.77.77,0,0,0-.14,1.09c.19.26.63.5.94.32.48-.28.27-1.11.08-1.5A1.36,1.36,0,0,0,12.76,1,1.68,1.68,0,0,0,12,3a2,2,0,0,0,1.88,1.54A1.7,1.7,0,0,0,15.6,3.29a2.91,2.91,0,0,0-1-2.58s-.11,0-.08.07Z"/><path class="cls-1" d="M14.75.47c0,.05-.12.13-.16.19a.36.36,0,0,0-.08.19.08.08,0,0,0,.09.07c.09,0,.12-.09.17-.16a.77.77,0,0,0,.08-.19c0-.08-.1-.13-.15-.07Z"/><path class="cls-1" d="M14.58.77s-.05,0-.07.07-.09,0-.13.07a.13.13,0,0,0,.12.23A.28.28,0,0,0,14.65,1a.3.3,0,0,0,0-.2,0,0,0,0,0-.09,0Z"/><path class="cls-1" d="M13.57,1.71a2.39,2.39,0,0,0-1.34,1.56s0,0,0,0a6.77,6.77,0,0,1,.68-1c.24-.24.47-.24.64-.54,0,0,0,0,0,0Z"/><path class="cls-1" d="M14.75,2.93c-.24.22-.45.45-.68.68a2.27,2.27,0,0,1-.45.35c-.13.08-.32.09-.41.21a.07.07,0,0,0,0,.11c.25.16.68-.24.85-.39A2.91,2.91,0,0,0,14.77,3s0,0,0,0Z"/><path class="cls-1" d="M12.41,4.65a2.32,2.32,0,0,1-.77-.5,2,2,0,0,1-.34-.71,10.49,10.49,0,0,1-.1-1.51.1.1,0,0,0-.19,0c-.45.91.22,2.8,1.38,2.82,0,0,0,0,0-.06Z"/><path class="cls-1" d="M11.31,4.78a5.44,5.44,0,0,1-.68-2.31c0-.13-.24-.07-.22.05a11.48,11.48,0,0,0,.22,1.27,1.76,1.76,0,0,0,.67,1Z"/><path class="cls-1" d="M10.66,5.05a4.16,4.16,0,0,1-.45-1.16c-.09-.39,0-.78-.05-1.16,0,0-.07-.08-.1,0A1.76,1.76,0,0,0,10,3.91a2.05,2.05,0,0,0,.64,1.16s0,0,0,0Z"/><path class="cls-1" d="M10.09,5.21c-.13-.35-.28-.7-.38-1.06s0-.76-.13-1.12a.06.06,0,0,0-.11,0,1.57,1.57,0,0,0,0,1.08A2.53,2.53,0,0,0,10,5.24a0,0,0,0,0,0,0Z"/><path class="cls-1" d="M9.65,5.41a2,2,0,0,1-.43-1.07,4.09,4.09,0,0,0,0-1,.07.07,0,0,0-.13,0A2.05,2.05,0,0,0,9,4.57a1.37,1.37,0,0,0,.55.91s.11,0,.07-.07Z"/><path class="cls-1" d="M9.21,5.66a2.77,2.77,0,0,1-.5-.82,2.49,2.49,0,0,1-.11-.59,2.08,2.08,0,0,0,0-.42.05.05,0,0,0-.09,0c-.21.26-.09.81,0,1.1s.32.76.68.8a0,0,0,0,0,0-.06Z"/><path class="cls-1" d="M8.5,5.95A5.58,5.58,0,0,1,8,5,4.06,4.06,0,0,1,8,4a0,0,0,0,0-.07,0,1.9,1.9,0,0,0,.6,2s0,0,0,0Z"/><path class="cls-1" d="M7.88,6.23a3.47,3.47,0,0,1-.35-.9c-.06-.31,0-.62,0-.92a.07.07,0,0,0-.12,0,1.78,1.78,0,0,0,.45,1.87s.05,0,0,0Z"/><path class="cls-1" d="M7.49,6.5a4,4,0,0,0-.4-.82A1.42,1.42,0,0,1,7,5.14a1.74,1.74,0,0,0,0-.54.06.06,0,0,0-.11,0,1,1,0,0,0,.05.45A6,6,0,0,1,7,5.7a1.13,1.13,0,0,0,.46.83,0,0,0,0,0,0,0Z"/><path class="cls-1" d="M6.82,6.82a3.79,3.79,0,0,1-.33-1c-.06-.31,0-.63-.06-.94a0,0,0,0,0-.06,0,2.05,2.05,0,0,0,.39,2s.09,0,.07,0Z"/><path class="cls-1" d="M6.29,7.27a2,2,0,0,1-.32-1,7.49,7.49,0,0,0,0-.87.06.06,0,0,0-.1,0,1.7,1.7,0,0,0,0,1,1.76,1.76,0,0,0,.46.89Z"/><path class="cls-1" d="M5.92,7.65a3.2,3.2,0,0,1-.39-1c0-.29,0-.59,0-.88,0,0-.06-.06-.08,0a1.59,1.59,0,0,0,.49,1.91s0,0,0,0Z"/><path class="cls-1" d="M5.34,7.78A2.45,2.45,0,0,1,4.92,7c-.08-.27,0-.56,0-.81a0,0,0,0,0-.06,0,1,1,0,0,0,0,.79,1.45,1.45,0,0,0,.54.81s0,0,0,0Z"/><path class="cls-1" d="M4.87,8.24c-.08-.25-.23-.47-.28-.73s0-.52-.07-.78a0,0,0,0,0-.1,0A1.51,1.51,0,0,0,4.8,8.29a0,0,0,0,0,.07,0Z"/><path class="cls-1" d="M4.37,8.57a1.27,1.27,0,0,1-.32-.84A2.32,2.32,0,0,0,4,7a.05.05,0,0,0-.09,0,1.28,1.28,0,0,0,0,.88,1.19,1.19,0,0,0,.44.8,0,0,0,0,0,0-.05Z"/><path class="cls-1" d="M3.83,9.08a2.66,2.66,0,0,1-.17-.91c0-.24.08-.53,0-.76a.05.05,0,0,0-.09,0,1.15,1.15,0,0,0-.08.8,2.24,2.24,0,0,0,.34.91s0,0,0,0Z"/><path class="cls-1" d="M3.52,9.36a6.65,6.65,0,0,1-.27-.78c-.05-.26-.09-.52-.14-.78a0,0,0,0,0,0,0C3,8.3,3,9.1,3.5,9.38c0,0,0,0,0,0Z"/><path class="cls-1" d="M3.08,9.64a1.33,1.33,0,0,1-.29-.8c0-.21.1-.52,0-.71a0,0,0,0,0-.07,0c-.17.19-.11.66-.08.89a.76.76,0,0,0,.4.66s0,0,0,0Z"/><path class="cls-1" d="M2.72,10a1.4,1.4,0,0,1-.28-.8c0-.21.09-.53,0-.72a.06.06,0,0,0-.09,0c-.18.18-.1.6-.07.82a1.14,1.14,0,0,0,.41.76s.1,0,.06-.06Z"/><path class="cls-1" d="M2.25,10.53c0-.24-.08-.47-.14-.71s0-.6-.19-.8a.06.06,0,0,0-.09,0,.88.88,0,0,0,0,.69,4.32,4.32,0,0,0,.33.85s.1,0,.09,0Z"/><path class="cls-1" d="M1.94,11.18a3.44,3.44,0,0,1-.3-1c0-.25.08-.64-.06-.84a.06.06,0,0,0-.1,0c-.22.21-.1.8-.06,1.06a1.1,1.1,0,0,0,.46.83s.07,0,.06-.05Z"/><path class="cls-1" d="M1.51,11.54a2.13,2.13,0,0,1-.24-.74,4.18,4.18,0,0,0,0-.72.07.07,0,0,0-.11,0c-.23.34-.15,1.42.35,1.51a0,0,0,0,0,0,0Z"/><path class="cls-1" d="M11.27,5.74a13.8,13.8,0,0,0-3.57,2c-.66.41-1.32.8-2,1.23A9.3,9.3,0,0,0,4,10.29s0,.1.07.07C5.24,9.58,6.38,8.76,7.6,8A19.33,19.33,0,0,0,9.46,6.77c.57-.44,1.24-.63,1.83-1a0,0,0,0,0,0,0Z"/><path class="cls-1" d="M8.88,6.51C8,7.18,7,7.72,6.18,8.4c0,0,0,.06,0,0A7.8,7.8,0,0,0,8.88,6.51Z"/><path class="cls-1" d="M14.62,2.47a1.36,1.36,0,0,1-.26.29.88.88,0,0,1-.18.09.23.23,0,0,0-.12.07,0,0,0,0,0,0,.06c.11.05.27-.06.35-.13a.64.64,0,0,0,.26-.35,0,0,0,0,0-.06,0Z"/><path class="cls-1" d="M14.55,2.08a2.66,2.66,0,0,0-.28.31.77.77,0,0,1-.48.23.12.12,0,0,0,0,.24.73.73,0,0,0,.61-.26c.13-.12.26-.34.17-.52Z"/><path class="cls-1" d="M14.37,1.72a1,1,0,0,1-.5.42c-.06,0-.44.1-.28.23s.18,0,.24,0a1.22,1.22,0,0,0,.31-.14.61.61,0,0,0,.32-.49,0,0,0,0,0-.09,0Z"/><path class="cls-1" d="M14,1.43a2.1,2.1,0,0,1-.28.23c-.08.06-.2.08-.22.19a0,0,0,0,0,0,0c.1.08.23,0,.3-.09A1.1,1.1,0,0,0,14,1.46s0-.06-.05,0Z"/><path class="cls-1" d="M13.54,1.31c-.11,0-.18.13-.25.2a1.56,1.56,0,0,1-.29.3.09.09,0,0,0,.08.16.65.65,0,0,0,.31-.27.73.73,0,0,0,.16-.36,0,0,0,0,0,0,0Z"/><path class="cls-1" d="M13,1.44a2.18,2.18,0,0,1-.22.22c-.08.07-.18.11-.23.2a.09.09,0,0,0,.07.13c.25,0,.39-.3.46-.5,0,0,0-.09-.08,0Z"/><path class="cls-1" d="M15.34,3H15c-.09,0-.09.15,0,.17A.42.42,0,0,0,15.35,3Z"/><path class="cls-1" d="M15.13,3.43l-.52-.17a.11.11,0,0,0-.1.21.8.8,0,0,0,.62,0s0,0,0,0Z"/><path class="cls-1" d="M14.74,3.86a1.48,1.48,0,0,1-.53-.21c-.15-.11-.33.12-.18.21s.52.27.73.06c0,0,0-.05,0-.06Z"/><path class="cls-1" d="M14.13,4.26l-.19-.08-.18-.1a.12.12,0,0,0-.13.21.4.4,0,0,0,.51,0,0,0,0,0,0,0,0Z"/><path class="cls-1" d="M13.92.22a2.4,2.4,0,0,0-1.63.21,9.26,9.26,0,0,1-1.34.8c-.05,0-.12,0-.08-.09.71-.75,2.06-1.51,3.06-.92,0,0,0,0,0,0Z"/><path class="cls-1" d="M.77,8.77A4.23,4.23,0,0,0,.3,9.92c-.09.43,0,.87,0,1.29a.08.08,0,0,1-.14,0,2.48,2.48,0,0,1,.6-2.5,0,0,0,0,1,0,0Z"/></svg>