<svg id="Layer_1" data-name="Layer 1" xmlns="http://www.w3.org/2000/svg" viewBox="0 0 5.13 5.74"><defs><style>.cls-1{fill:#302929;}</style></defs><title>curl1</title><path class="cls-1" d="M5.11,0A8.63,8.63,0,0,1,3.87,3.46q-.74.66-1.26-.31a1.71,1.71,0,0,1,.06-.46.6.6,0,0,1,.51-.5,1.48,1.48,0,0,1,1,.53,1.59,1.59,0,0,1-.48,2.7,3.68,3.68,0,0,1-3.62-1C0,4.34,0,4.43,0,4.5c1,1.12,3.17,1.78,4.44.69,1.06-.91.23-2.52-.8-3a.74.74,0,0,0-.95.16c-.26.32-.35,1.16.1,1.38.74.35,1.21-.17,1.49-.81A9.25,9.25,0,0,0,5.13,0s0,0,0,0Z"/></svg>