<svg id="Layer_1" data-name="Layer 1" xmlns="http://www.w3.org/2000/svg" viewBox="0 0 3.28 11.24"><defs><style>.cls-1{fill:#302929;}</style></defs><title>curl4</title><path class="cls-1" d="M1.75,11.24a5.27,5.27,0,0,1-1-1.81A12.74,12.74,0,0,1,.1,6.76c-.16-1.13-.25-3.17.77-4,.65-.54,1,.87,1.1,1.38s.25,2-.43,2.21c-.32.09-.6-.25-.7-.59a4.78,4.78,0,0,1,0-1.92A4.91,4.91,0,0,1,3.23,0c.06,0,.08.08,0,.11A4.6,4.6,0,0,0,1.16,2.86,5,5,0,0,0,1,5.72c.2.58.74.56.88-.15A4.27,4.27,0,0,0,1.82,3.9c-.09-.45-.25-1.07-.63-1.21s-.89,1-1,1.45a7.92,7.92,0,0,0,0,2.91A12.76,12.76,0,0,0,1,9.85a6.38,6.38,0,0,0,.74,1.38Z"/></svg>