<svg id="Слой_1" data-name="Слой 1" xmlns="http://www.w3.org/2000/svg" viewBox="0 0 688.6 644.9"><defs><style>.cls-1{fill:#f3d900;}.cls-2{fill:none;stroke:#324c5e;stroke-linecap:round;stroke-linejoin:round;stroke-width:9px;}</style></defs><title>delivery-new</title><path class="cls-1" d="M616.6,225.6c-.4,0-.4.2-.8.4s-.2.4-.2.6a2.2,2.2,0,0,0,.2.8c.4.2.4.4.8.4a1.6,1.6,0,0,0,.8-.4c.2,0,.4-.4.4-.8s-.2-.4-.4-.6A1.6,1.6,0,0,0,616.6,225.6Z" transform="translate(10.1 -20.1)"/><path class="cls-1" d="M625.2,226.8a1.1,1.1,0,0,0-.8.4.8.8,0,0,0-.2.6c0,.4,0,.6.2.8s.4.2.8.2a.8.8,0,0,0,.6-.2,1.1,1.1,0,0,0,.4-.8c0-.2-.2-.4-.4-.6S625.4,226.8,625.2,226.8Z" transform="translate(10.1 -20.1)"/><path class="cls-1" d="M625,232.7c-.2,0-.4,0-.4.2a1,1,0,0,0,0,1.7.4.4,0,0,0,.4.4c.2,0,.2-.2.4-.4a1.8,1.8,0,0,0,0-1.7C625.2,232.7,625.2,232.7,625,232.7Z" transform="translate(10.1 -20.1)"/><path class="cls-1" d="M624,260.1a.6.6,0,0,0-.4.2v.8a.6.6,0,0,0,.4.2c.2,0,.2,0,.2-.2a.2.2,0,0,0,.2-.2c0-.2,0-.6-.2-.6S624.2,260.1,624,260.1Z" transform="translate(10.1 -20.1)"/><path class="cls-1" d="M623.1,263.4c.4,2.3.6,2.1,1,0Z" transform="translate(10.1 -20.1)"/><path class="cls-1" d="M631.3,275.5h-.4a.7.7,0,0,1-.2.4c0,.4.2.4.2.6h.8c.2-.2.2-.2.2-.6a.6.6,0,0,0-.2-.4Z" transform="translate(10.1 -20.1)"/><path class="cls-1" d="M627.5,281.2c-.2,0-.4.2-.6.4a.8.8,0,0,0-.2.6c0,.4,0,.6.2.8a1,1,0,0,0,1.3,0c0-.2.2-.4.2-.8s-.2-.4-.2-.6S627.7,281.2,627.5,281.2Z" transform="translate(10.1 -20.1)"/><path class="cls-1" d="M624.6,275.9h-1v.8h1Z" transform="translate(10.1 -20.1)"/><path class="cls-1" d="M624.2,278.5c0-.4,0-.6-.2-.8l-.4-.2c-.4,0-.4.2-.6.2s-.2.4-.2.8.2.4.2.6.2.4.6.4a.4.4,0,0,0,.4-.4A.8.8,0,0,0,624.2,278.5Z" transform="translate(10.1 -20.1)"/><path class="cls-1" d="M634,281.2v.8c0,.2,0,.2.2.2s.2,0,.4-.2v-.8c-.2-.2-.2-.2-.4-.2S634,281,634,281.2Z" transform="translate(10.1 -20.1)"/><path class="cls-1" d="M14.6,339.7a1.9,1.9,0,0,0-2.1,0c-2.1,2.5-2.1,3.1,0,2.1Z" transform="translate(10.1 -20.1)"/><path class="cls-1" d="M41.1,327.6a4.3,4.3,0,0,0-.2-1,.9.9,0,0,0-1.7,0,4.3,4.3,0,0,0-.2,1c0,.4.2,1,.2,1.3s.6.8.8.8.6-.4.8-.8S41.1,328,41.1,327.6Z" transform="translate(10.1 -20.1)"/><path class="cls-1" d="M43,345.1c-.2-1.7-1-2.7-2.7-2.7-3.6,2.7-3.1,4.6,1.5,5.4C42.8,347,43.2,346.4,43,345.1Z" transform="translate(10.1 -20.1)"/><path class="cls-1" d="M29.4,342.6a.8.8,0,0,0-.8.4,2.7,2.7,0,0,0-.2,1.3c0,.4,0,1,.2,1.3a1.6,1.6,0,0,0,.8.4c.4,0,.4-.2.8-.4s.2-.8.2-1.3a2.7,2.7,0,0,0-.2-1.3C29.8,342.6,29.8,342.6,29.4,342.6Z" transform="translate(10.1 -20.1)"/><path class="cls-1" d="M31.5,384v-2.5a.7.7,0,0,0-.6-.4c-.4,0-.6,0-.8.4a3.9,3.9,0,0,0,0,2.5c.2.2.4.2.8.2A1,1,0,0,0,31.5,384Z" transform="translate(10.1 -20.1)"/><path class="cls-1" d="M18.9,348.7a2.9,2.9,0,0,0-1-1.9A2.6,2.6,0,0,0,16,346a3.8,3.8,0,0,0-1.9.8,2.6,2.6,0,0,0-.8,1.9,2.2,2.2,0,0,0,.8,2.1,2.6,2.6,0,0,0,1.9.8,2,2,0,0,0,1.9-.8A2.3,2.3,0,0,0,18.9,348.7Z" transform="translate(10.1 -20.1)"/><path class="cls-1" d="M12.5,346.8c1-3.1.6-4-1.3-2.7s-1.9,2.7.8,2.7Z" transform="translate(10.1 -20.1)"/><path class="cls-1" d="M25.6,359.4a1.8,1.8,0,0,0-1.5.8,2.6,2.6,0,0,0-.6,1.9,3.1,3.1,0,0,0,.6,2.1,2.2,2.2,0,0,0,1.5,1c.6,0,1-.4,1.7-1a3.1,3.1,0,0,0,.6-2.1,2.6,2.6,0,0,0-.6-1.9A2.2,2.2,0,0,0,25.6,359.4Z" transform="translate(10.1 -20.1)"/><path class="cls-1" d="M-3,346.8c0-.4,0-1-.4-1.3s-.4-.6-.8-.6-.6.4-.8.6a2.2,2.2,0,0,0-.4,1.3,2.2,2.2,0,0,0,.4,1.3c.2.4.4.6.8.6s.6-.2.8-.6S-3,347.4-3,346.8Z" transform="translate(10.1 -20.1)"/><path class="cls-1" d="M-10.1,355.2a1,1,0,0,0,.6,1c.4.2.6.4,1,.4a3,3,0,0,0,1.5-.4,1.2,1.2,0,0,0,.4-1c0-.2-.2-.4-.4-.8a1.8,1.8,0,0,0-1.5-.4,1.2,1.2,0,0,0-1,.4C-9.9,354.8-10.1,355-10.1,355.2Z" transform="translate(10.1 -20.1)"/><path class="cls-1" d="M1.8,366.5c.4,0,.6-.2,1-.6s.6-.6.6-1.3-.4-.8-.6-1.3-.6-.6-1-.6-.8.4-1.3.6a1.8,1.8,0,0,0-.6,1.3,1.5,1.5,0,0,0,.6,1.3A1.5,1.5,0,0,0,1.8,366.5Z" transform="translate(10.1 -20.1)"/><path class="cls-1" d="M5.1,381.1c.4,0,.6-.2,1-.8s.2-1,.2-1.5-.2-1.3-.2-1.7-.6-.8-1-.8-.6.4-1,.8-.2.8-.2,1.7.2,1,.2,1.5S4.9,381.1,5.1,381.1Z" transform="translate(10.1 -20.1)"/><path class="cls-1" d="M22.9,369.2a3,3,0,0,0,1.3-.4,1.5,1.5,0,0,0,0-2.1,3,3,0,0,0-1.3-.4,2.2,2.2,0,0,0-1,.4,1.5,1.5,0,0,0,0,2.1A2.2,2.2,0,0,0,22.9,369.2Z" transform="translate(10.1 -20.1)"/><path class="cls-1" d="M26.7,396.8a.7.7,0,0,0-.6-.6q-.3,0-.6.6a4.1,4.1,0,0,0-.2,1.7,4.6,4.6,0,0,0,.2,1.7q.3.6.6.6a.7.7,0,0,0,.6-.6,4.6,4.6,0,0,0,.2-1.7A4.1,4.1,0,0,0,26.7,396.8Z" transform="translate(10.1 -20.1)"/><path class="cls-1" d="M4.5,398a1.1,1.1,0,0,0-.8-.4,1.1,1.1,0,0,0-.8.4c-.4.2-.4.6-.4,1s0,.8.4,1,.4.2.8.2.6,0,.8-.2.4-.6.4-1S4.9,398.2,4.5,398Z" transform="translate(10.1 -20.1)"/><path class="cls-1" d="M38.8,144.9a1.1,1.1,0,0,0-1.3.8,1.3,1.3,0,0,0-.6,1.3,1.4,1.4,0,0,0,.6,1,1.3,1.3,0,0,0,1.3.6,1.1,1.1,0,0,0,1-.6,1.9,1.9,0,0,0,.8-1,1.4,1.4,0,0,0-.8-1.3A1.1,1.1,0,0,0,38.8,144.9Z" transform="translate(10.1 -20.1)"/><path class="cls-1" d="M31.3,151.1a3.5,3.5,0,0,0-.4-1,2.2,2.2,0,0,0-1.3-.4,2.2,2.2,0,0,0-1,.4,3.5,3.5,0,0,0-.4,1,1.8,1.8,0,0,0,.4,1.3,2.2,2.2,0,0,0,1,.4,2.2,2.2,0,0,0,1.3-.4A1.8,1.8,0,0,0,31.3,151.1Z" transform="translate(10.1 -20.1)"/><path class="cls-1" d="M33.2,233.5c.8,1,1.9,1.3,3.3,1.3a4.2,4.2,0,0,0,3.3-1.3,4.7,4.7,0,0,0,1.3-3.3,4.6,4.6,0,0,0-4.6-4.8,3.9,3.9,0,0,0-3.3,1.5,4.5,4.5,0,0,0-1.5,3.3A4.9,4.9,0,0,0,33.2,233.5Z" transform="translate(10.1 -20.1)"/><path class="cls-1" d="M30.9,258.8a2.3,2.3,0,0,0-1.3-.2,2.7,2.7,0,0,0-1.3.2,2.7,2.7,0,0,0-.2,1.3c0,.6,0,.8.2,1a1.5,1.5,0,0,0,1.3.8c.6,0,.8-.2,1.3-.8a1,1,0,0,0,.6-1A1.8,1.8,0,0,0,30.9,258.8Z" transform="translate(10.1 -20.1)"/><path class="cls-1" d="M17.5,270.3a1.3,1.3,0,0,0,1.3.6,1.3,1.3,0,0,0,1.3-.6,1.3,1.3,0,0,0,.6-1.3,1.5,1.5,0,0,0-.6-1.3c-.2-.4-.6-.4-1.3-.4s-1,0-1.3.4a1.5,1.5,0,0,0-.6,1.3A1.3,1.3,0,0,0,17.5,270.3Z" transform="translate(10.1 -20.1)"/><path class="cls-1" d="M248.5,49.1a3,3,0,0,0-.8,2.1,2.7,2.7,0,0,0,.8,2.1,2.3,2.3,0,0,0,1.9.8,2,2,0,0,0,1.9-.8,2.9,2.9,0,0,0,1-2.1,3.3,3.3,0,0,0-1-2.1,2.6,2.6,0,0,0-1.9-.6A2.9,2.9,0,0,0,248.5,49.1Z" transform="translate(10.1 -20.1)"/><path class="cls-1" d="M116.4,48.7a2.8,2.8,0,0,0,1,2.5,2.9,2.9,0,0,0,2.1,1,3.5,3.5,0,0,0,2.5-1,3.3,3.3,0,0,0,.8-2.5,3.1,3.1,0,0,0-.8-2.3,3.5,3.5,0,0,0-2.5-1,2.9,2.9,0,0,0-2.1,1A2.7,2.7,0,0,0,116.4,48.7Z" transform="translate(10.1 -20.1)"/><path class="cls-1" d="M85.8,112.3a4.3,4.3,0,0,0-1.3-3.1,4.6,4.6,0,0,0-6.7,0,4.5,4.5,0,0,0,0,6.3,4.6,4.6,0,0,0,7.9-3.1Z" transform="translate(10.1 -20.1)"/><path class="cls-1" d="M89,115.6c0-.2-.4-.2-.8-.2a.8.8,0,0,0-.6.2c-.2.2-.2.4-.2.8a.8.8,0,0,0,.2.6c.2.2.4.4.6.4s.8-.2.8-.4a.8.8,0,0,0,.2-.6C89.2,116,89.2,115.8,89,115.6Z" transform="translate(10.1 -20.1)"/><path class="cls-1" d="M101.9,113.3c0-1.9-.4-3.6-1.7-4.6a4.8,4.8,0,0,0-4-2.1,4.5,4.5,0,0,0-4,2.1,6.5,6.5,0,0,0-1.7,4.6,7.8,7.8,0,0,0,1.7,4.6,4.9,4.9,0,0,0,4,1.9,5.1,5.1,0,0,0,4-1.9A6.6,6.6,0,0,0,101.9,113.3Z" transform="translate(10.1 -20.1)"/><path class="cls-1" d="M111.6,122.5a1.8,1.8,0,0,0-1.3-.6c-.4,0-.6.2-1,.6a1.8,1.8,0,0,0-.4,1.3,3.5,3.5,0,0,0,.4,1c.4.2.6.4,1,.4a3,3,0,0,0,1.3-.4,1.4,1.4,0,0,0,.4-1C112,123.1,112,122.7,111.6,122.5Z" transform="translate(10.1 -20.1)"/><path class="cls-1" d="M154,84.2a6.5,6.5,0,0,0,1,3.6,3.3,3.3,0,0,0,5.4,0,5.1,5.1,0,0,0,1-3.6c0-1.5-.2-2.7-1-3.3a2.9,2.9,0,0,0-5.4,0A4.9,4.9,0,0,0,154,84.2Z" transform="translate(10.1 -20.1)"/><path class="cls-1" d="M155,99.3c-.2.2-.4.4-.4.6s.2.8.4.8a.8.8,0,0,0,.6.2c.4,0,.6,0,.8-.2s.2-.4.2-.8a.8.8,0,0,0-.2-.6c-.2,0-.4-.2-.8-.2Z" transform="translate(10.1 -20.1)"/><path class="cls-1" d="M149.8,113.9q-.3-.6-.6-.6c-.4,0-.6.2-.8.6s-.2.4-.2,1a3.6,3.6,0,0,0,.2,1.5c.2.2.4.2.8.2a.8.8,0,0,0,.6-.2,3.9,3.9,0,0,0,.4-1.5A1.2,1.2,0,0,0,149.8,113.9Z" transform="translate(10.1 -20.1)"/><path class="cls-1" d="M230.3,38.7c.2,0,.2-.4.2-.8a1.3,1.3,0,0,0-.2-.8c-.4-.2-.6-.4-1-.4a1.1,1.1,0,0,0-.8.4,1.6,1.6,0,0,0-.4.8c0,.4.2.8.4.8s.4.4.8.4A1.2,1.2,0,0,0,230.3,38.7Z" transform="translate(10.1 -20.1)"/><path class="cls-1" d="M229.9,45.6c0,.4,0,.6.4.8s.4.4.6.4.8-.2.8-.4.6-.4.6-.8-.4-.6-.6-.8-.4-.4-.8-.4-.4.2-.6.4A.8.8,0,0,0,229.9,45.6Z" transform="translate(10.1 -20.1)"/><path class="cls-1" d="M238.7,53.7c-.4,0-.4,0-.6.2s-.4.4-.4.8,0,.4.4.6.2.4.6.4.6-.2.6-.4.4-.4.4-.6,0-.6-.4-.8S239.1,53.7,238.7,53.7Z" transform="translate(10.1 -20.1)"/><path class="cls-1" d="M208.3,81.7c0-.2-.2-.2-.4-.6a.8.8,0,0,0-.6-.2c-.4,0-.4,0-.6.2s-.2.4-.2.6a1.3,1.3,0,0,0,.2.8c.2,0,.2.2.6.2l.6-.2A1.6,1.6,0,0,0,208.3,81.7Z" transform="translate(10.1 -20.1)"/><path class="cls-1" d="M229.9,66.1a2.2,2.2,0,0,0-.4,1,1.6,1.6,0,0,0,.4,1c0,.2.4.2.6.2a1.3,1.3,0,0,0,.8-.2,1.6,1.6,0,0,0,.2-1c0-.2,0-.8-.2-1s-.4-.4-.8-.4S229.9,65.8,229.9,66.1Z" transform="translate(10.1 -20.1)"/><path class="cls-1" d="M157.8,72.7c0-.6,0-1-.2-1.3s-.6-.8-1-.8a1.4,1.4,0,0,0-1,.8c-.4.2-.4.6-.4,1.3a2.3,2.3,0,0,0,.4,1.5c.2.4.6.4,1,.4a1.2,1.2,0,0,0,1-.4A4.1,4.1,0,0,0,157.8,72.7Z" transform="translate(10.1 -20.1)"/><path class="cls-1" d="M195.4,80.9c-.2-.8-.8-1-1.7-1a1.7,1.7,0,0,0-1.5,1,7.5,7.5,0,0,0-.4,2.3,9,9,0,0,0,.4,2.5,2.2,2.2,0,0,0,1.5,1,1.7,1.7,0,0,0,1.7-1,5,5,0,0,0,.6-2.5A4.2,4.2,0,0,0,195.4,80.9Z" transform="translate(10.1 -20.1)"/><path class="cls-1" d="M157.1,90.3a2.8,2.8,0,0,0-1.7.6,2.5,2.5,0,0,0-.4,1.7,2,2,0,0,0,.4,1.5,2.8,2.8,0,0,0,1.7.6,1.9,1.9,0,0,0,1.5-.6,1.6,1.6,0,0,0,.6-1.5,2.2,2.2,0,0,0-2.1-2.3Z" transform="translate(10.1 -20.1)"/><path class="cls-1" d="M174.5,97.2a.8.8,0,0,0-.6.2c0,.2-.2.4-.2.6a2.1,2.1,0,0,0,.2.6c.2.2.4.4.6.4a1.1,1.1,0,0,0,.8-.4c.2,0,.2-.4.2-.6a.8.8,0,0,0-.2-.6C175.1,97.2,174.9,97.2,174.5,97.2Z" transform="translate(10.1 -20.1)"/><path class="cls-1" d="M98.4,139.4a4.4,4.4,0,0,0-1-2.7c-.6-.6-1-1-1.9-1a4.3,4.3,0,0,0-1.9,1,5.8,5.8,0,0,0-.6,2.7,5,5,0,0,0,.6,2.5,2.8,2.8,0,0,0,1.9,1,2,2,0,0,0,1.9-1A3.9,3.9,0,0,0,98.4,139.4Z" transform="translate(10.1 -20.1)"/><path class="cls-1" d="M95.5,143.8a4.6,4.6,0,0,0-3.1-1.3,4.1,4.1,0,0,0-2.9,1.3,4.2,4.2,0,0,0-1.3,2.9,4.3,4.3,0,0,0,4.2,4,4.6,4.6,0,0,0,3.1-1.3,4,4,0,0,0,1-2.7A4.1,4.1,0,0,0,95.5,143.8Z" transform="translate(10.1 -20.1)"/><path class="cls-1" d="M618.9,435.9a1.9,1.9,0,0,0-.2-1l-1-.4a1.6,1.6,0,0,0-1,.4,1.5,1.5,0,0,0,0,2.1,1.8,1.8,0,0,0,1,.6c.2,0,.6-.4,1-.6A1.9,1.9,0,0,0,618.9,435.9Z" transform="translate(10.1 -20.1)"/><path class="cls-1" d="M628.6,440.1a1.1,1.1,0,0,0,.8.4s.4-.2.4-.4a1.8,1.8,0,0,0,.4-1.5c0-.4,0-.8-.4-1a.8.8,0,0,0-.4-.6c-.4,0-.6.2-.8.6a1.6,1.6,0,0,0-.2,1A3.1,3.1,0,0,0,628.6,440.1Z" transform="translate(10.1 -20.1)"/><path class="cls-1" d="M621.2,460.1c.2,0,.2-.4.2-.8a1.3,1.3,0,0,0-.2-.8c-.2-.4-.4-.4-.8-.4a1.2,1.2,0,0,0-1,.4,1.6,1.6,0,0,0-.4.8c0,.4.2.8.4.8a1.2,1.2,0,0,0,1,.4C620.8,460.5,621,460.5,621.2,460.1Z" transform="translate(10.1 -20.1)"/><path class="cls-1" d="M638.2,461.8a5.8,5.8,0,0,0-.6-2.7,3.9,3.9,0,0,0-2.1-1,2.2,2.2,0,0,0-1.9,1,4.1,4.1,0,0,0-.6,2.7c0,1.3,0,2.1.6,2.7a2,2,0,0,0,1.9,1.3c.6,0,1.3-.4,2.1-1.3A4.7,4.7,0,0,0,638.2,461.8Z" transform="translate(10.1 -20.1)"/><path class="cls-1" d="M626.7,484.6c.4,0,.6,0,.6-.2s.4-.4.4-.8,0-.4-.4-.6-.2-.4-.6-.4-.4.2-.6.4-.4.4-.4.6,0,.6.4.8S626.3,484.6,626.7,484.6Z" transform="translate(10.1 -20.1)"/><path class="cls-1" d="M617.3,445.5a3,3,0,0,0-.4-1.3,1.6,1.6,0,0,0-1-.4c-.2,0-.6.2-.6.4a1.5,1.5,0,0,0-.4,1.3c0,.6,0,.8.4,1.3s.4.4.6.4a1.6,1.6,0,0,0,1-.4A2.2,2.2,0,0,0,617.3,445.5Z" transform="translate(10.1 -20.1)"/><path class="cls-1" d="M605.8,468.1c0-.2-.4-.4-.8-.4s-.6.2-.6.4-.6.6-.6,1a1.1,1.1,0,0,0,.6,1c0,.4.4.4.6.4s.8,0,.8-.4a1.6,1.6,0,0,0,.4-1C606.2,468.7,606,468.5,605.8,468.1Z" transform="translate(10.1 -20.1)"/><path class="cls-1" d="M598,466.6c.2-.2.4-.2.4-.6s-.2-.4-.4-.6l-.6-.2c-.4,0-.4.2-.6.2s-.4.4-.4.6.2.4.4.6.2.2.6.2A.8.8,0,0,0,598,466.6Z" transform="translate(10.1 -20.1)"/><path class="cls-1" d="M585.5,481.5a1.3,1.3,0,0,0,0,1.9,1.2,1.2,0,0,0,1,.4c.4,0,.6-.2,1-.4s.2-.6.2-.8a9.1,9.1,0,0,0-.2-1,1.2,1.2,0,0,0-1-.4C585.9,481,585.7,481,585.5,481.5Z" transform="translate(10.1 -20.1)"/><path class="cls-1" d="M599.7,495.2c-.2,0-.4,0-.6.4s-.2.2-.2.4,0,.6.2.8a.8.8,0,0,0,.6.2,1.3,1.3,0,0,0,.8-.2v-1.3C600.1,495.2,600.1,495.2,599.7,495.2Z" transform="translate(10.1 -20.1)"/><path class="cls-1" d="M609.3,500.9c.2,0,.4-.4.4-.6s-.2-.4-.4-.6-.4-.2-.8-.2a2.3,2.3,0,0,0-1,.2v1.3a2.3,2.3,0,0,0,1,.2C608.9,501.1,609.1,501.1,609.3,500.9Z" transform="translate(10.1 -20.1)"/><path class="cls-1" d="M567.3,486.3c-.2.2-.6.4-.6.6s.4.4.6.6a5.2,5.2,0,0,0,2.9,0c.4-.2.6-.2.6-.6s-.2-.4-.6-.6l-1.5-.2Z" transform="translate(10.1 -20.1)"/><path class="cls-1" d="M558.7,507.6c.8.6,1.5.6,2.1,0s.4-1,0-1.5C558.5,504.7,557.9,505.1,558.7,507.6Z" transform="translate(10.1 -20.1)"/><path class="cls-1" d="M558.1,521.2c0-.6,0-1-.4-1.3s-.6-.4-1-.4a3,3,0,0,0-1.5.4,1.8,1.8,0,0,0-.4,1.3,1.6,1.6,0,0,0,.4,1,1.9,1.9,0,0,0,1.5.6c.4,0,.6-.2,1-.6S558.1,521.6,558.1,521.2Z" transform="translate(10.1 -20.1)"/><path class="cls-1" d="M571.1,516.2a1.6,1.6,0,0,0,.2-1,1.9,1.9,0,0,0-.2-1c-.2-.2-.4-.4-.6-.4s-.6.2-.6.4a1.9,1.9,0,0,0-.2,1,1.6,1.6,0,0,0,.2,1c0,.4.4.4.6.4S570.9,516.6,571.1,516.2Z" transform="translate(10.1 -20.1)"/><path class="cls-1" d="M546.2,538.9a.8.8,0,0,0,.6-.2,1.1,1.1,0,0,0,.4-.8.4.4,0,0,0-.4-.4c-.2-.2-.4-.4-.6-.4s-.4.2-.6.4-.4.2-.4.4,0,.6.4.8S545.8,538.9,546.2,538.9Z" transform="translate(10.1 -20.1)"/><path class="cls-1" d="M555.6,535.4v1.5a1.2,1.2,0,0,0,1,.4c.2,0,.4,0,.6-.4s.2-.4.2-.6-.2-.4-.2-.8l-.6-.2Z" transform="translate(10.1 -20.1)"/><path class="cls-1" d="M562.9,523.9c-.2-2.5-.6-2.7-1.9-1C562.3,524.9,562.9,525.4,562.9,523.9Z" transform="translate(10.1 -20.1)"/><path class="cls-1" d="M525.7,568c.2.2.2.6.6.6,1.9-1.7,1.7-2.1-.8-1.7C525.3,567.2,525.5,567.6,525.7,568Z" transform="translate(10.1 -20.1)"/><path class="cls-1" d="M443.7,624.4a5.6,5.6,0,0,0-1-3.1,2.1,2.1,0,0,0-2.1-1,2.8,2.8,0,0,0-2.5,1,7.8,7.8,0,0,0-.8,3.1,5.9,5.9,0,0,0,.8,2.7,3,3,0,0,0,2.5,1.3c1,0,1.5-.4,2.1-1.3A4.4,4.4,0,0,0,443.7,624.4Z" transform="translate(10.1 -20.1)"/><path class="cls-1" d="M418.9,646.6a3.3,3.3,0,0,0-2.5-1,3.2,3.2,0,0,0-2.7,1,1.7,1.7,0,0,0-1,1.7,2.5,2.5,0,0,0,1,2.1,5.2,5.2,0,0,0,2.7.6,5.6,5.6,0,0,0,2.5-.6,3.3,3.3,0,0,0,1-2.1A2.1,2.1,0,0,0,418.9,646.6Z" transform="translate(10.1 -20.1)"/><path class="cls-1" d="M434.1,648.3a2.9,2.9,0,0,0-2.1,1,3.5,3.5,0,0,0-.8,2.7,4.8,4.8,0,0,0,.8,2.9,2.3,2.3,0,0,0,2.1,1,2.5,2.5,0,0,0,2.1-1,5,5,0,0,0,1-2.9,3.6,3.6,0,0,0-1-2.7A3.3,3.3,0,0,0,434.1,648.3Z" transform="translate(10.1 -20.1)"/><path class="cls-1" d="M469,660.8a6.1,6.1,0,0,0-2.9-.6,4.5,4.5,0,0,0-2.5.6,1.9,1.9,0,0,0-1.5,1.9c0,.6.4,1,1.5,1.7a4.5,4.5,0,0,0,2.5.6,6.1,6.1,0,0,0,2.9-.6c.8-.6,1.3-1,1.3-1.7A2,2,0,0,0,469,660.8Z" transform="translate(10.1 -20.1)"/><path class="cls-1" d="M636.5,101.6a2.6,2.6,0,0,0-1.9-.8,1.9,1.9,0,0,0-1.7.8,2.3,2.3,0,0,0-.8,1.9,2.5,2.5,0,0,0,.8,1.7,2.4,2.4,0,0,0,1.7.6,3.4,3.4,0,0,0,1.9-.6,3.3,3.3,0,0,0,.6-1.7A2.9,2.9,0,0,0,636.5,101.6Z" transform="translate(10.1 -20.1)"/><path class="cls-1" d="M458.6,22.8a1.6,1.6,0,0,0,.8-.4,1.2,1.2,0,0,0,.4-1c0-.2,0-.4-.4-.8a1.3,1.3,0,0,0-1.9,0c-.2.4-.4.6-.4.8s.2.6.4,1A1.6,1.6,0,0,0,458.6,22.8Z" transform="translate(10.1 -20.1)"/><path class="cls-1" d="M451.9,41.8a2.8,2.8,0,0,0,1.7-.6,3,3,0,0,0,.4-1.5,3.9,3.9,0,0,0-.4-1.5c-.6-.2-1-.6-1.7-.6s-.8.4-1.5.6a3.9,3.9,0,0,0-.4,1.5,3,3,0,0,0,.4,1.5A2.8,2.8,0,0,0,451.9,41.8Z" transform="translate(10.1 -20.1)"/><path class="cls-1" d="M457.1,58.1c.4.4.6.4.8.4,2.1-1.3,1.9-2.3-1.3-3.1C455.5,56.4,455.7,57.5,457.1,58.1Z" transform="translate(10.1 -20.1)"/><path class="cls-1" d="M477.6,69.6c.2-.2.2-.6.2-1.3a3.1,3.1,0,0,0-.2-1.5l-1-.4a1.8,1.8,0,0,0-1.3.4,1.9,1.9,0,0,0-.6,1.5,1.3,1.3,0,0,0,.6,1.3c.2.4.6.4,1.3.4A1.4,1.4,0,0,0,477.6,69.6Z" transform="translate(10.1 -20.1)"/><path class="cls-1" d="M496.4,73.8a1.1,1.1,0,0,0-1,.8c-.4.2-.4.6-.4,1s0,.8.4,1a1.1,1.1,0,0,0,1,.6,1.3,1.3,0,0,0,1.3-.6,1.2,1.2,0,0,0,0-2.1A1.1,1.1,0,0,0,496.4,73.8Z" transform="translate(10.1 -20.1)"/><path class="cls-1" d="M503.5,75.3q-.6-.3-1.3.6c-1.9,2.5-1,3.6,2.7,2.7,0-.2.4-.2.4-.2S505.8,76.7,503.5,75.3Z" transform="translate(10.1 -20.1)"/><path class="cls-1" d="M551.4,103.9v-1l-1.3-.4c-.4,0-.8.2-.8.4s-.6.6-.6,1,.2.6.6,1,.4.4.8.4l1.3-.4Z" transform="translate(10.1 -20.1)"/><path class="cls-1" d="M569.8,127.9a3.2,3.2,0,0,0-2.7,1,3.4,3.4,0,0,0-1,2.3,5.6,5.6,0,0,0,1,3.1,4,4,0,0,0,2.7,1,3.5,3.5,0,0,0,2.5-1,5.6,5.6,0,0,0,1-3.1,3.4,3.4,0,0,0-1-2.3A2.8,2.8,0,0,0,569.8,127.9Z" transform="translate(10.1 -20.1)"/><path class="cls-1" d="M603.9,157.6a4.5,4.5,0,0,0,1.5,3.3,5.4,5.4,0,0,0,3.3,1.5,6.5,6.5,0,0,0,3.8-1.5,5.1,5.1,0,0,0,1.3-3.3,4.7,4.7,0,0,0-1.3-3.3,5.4,5.4,0,0,0-3.8-1.5,4.5,4.5,0,0,0-3.3,1.5A4.2,4.2,0,0,0,603.9,157.6Z" transform="translate(10.1 -20.1)"/><path class="cls-1" d="M617.9,240.6a1.5,1.5,0,0,0,.4,1.3c0,.2.4.4.6.4a1.1,1.1,0,0,0,.8-.4,2.7,2.7,0,0,0,.2-1.3,3.6,3.6,0,0,0-.2-1.5c-.2-.2-.4-.2-.8-.2s-.6,0-.6.2A2,2,0,0,0,617.9,240.6Z" transform="translate(10.1 -20.1)"/><path class="cls-1" d="M676.4,402.4a1.5,1.5,0,0,0-1.3.6c-.4.4-.8.8-.8,1.3a2.2,2.2,0,0,0,.8,1.7,2.2,2.2,0,0,0,1.3.4,2,2,0,0,0,1.5-.4c.6-.4.6-.8.6-1.7a1.3,1.3,0,0,0-.6-1.3C677.7,402.6,677.3,402.4,676.4,402.4Z" transform="translate(10.1 -20.1)"/><path class="cls-1" d="M636.1,364.8a4.3,4.3,0,0,0-3.6-1.5,4.5,4.5,0,0,0-3.3,1.5,5,5,0,0,0-1.5,3.6,4.9,4.9,0,0,0,1.5,3.3,4.5,4.5,0,0,0,3.3,1.5,4.3,4.3,0,0,0,3.6-1.5,4.2,4.2,0,0,0,1.5-3.3A4.3,4.3,0,0,0,636.1,364.8Z" transform="translate(10.1 -20.1)"/><path class="cls-1" d="M625.8,375.9c0,.2.2.4.4.8s.4.2.8.2a.8.8,0,0,0,.6-.2c.4-.4.4-.6.4-.8s0-.2-.4-.4-.4-.4-.6-.4a1.1,1.1,0,0,0-.8.4Z" transform="translate(10.1 -20.1)"/><path class="cls-1" d="M620.4,414.8a2.8,2.8,0,0,0-.6-1.7,2.9,2.9,0,0,0-1.9-.6,2.2,2.2,0,0,0-2.3,2.3,2.9,2.9,0,0,0,.6,1.9,2.8,2.8,0,0,0,1.7.6,2.2,2.2,0,0,0,2.5-2.5Z" transform="translate(10.1 -20.1)"/><path class="cls-1" d="M493.7,81.5a93.9,93.9,0,0,0-12.1-6.7c-23.8-10.5-38.9-16.7-45.8-19a238,238,0,0,0-81.1-11.9c-27.2,1-57.7,7.7-91.4,20.3-16.9,6.5-31.1,12.5-42.2,18.4-.2,0-.6.2-.6.4s-.2,0-.2.2a75.4,75.4,0,0,0-8.2,4.6c-2.1,1.5-7.7,4.2-16.5,8.6v-.6a3.9,3.9,0,0,0-.4-1.7c-.4-.6-.8-.6-1.5-.6a1.6,1.6,0,0,0-1.5.6,2.4,2.4,0,0,0-.6,1.7,2.6,2.6,0,0,0,.6,1.9l.2.2a22.5,22.5,0,0,1-3.1,1.5c0-.4-.2-.6-.4-1l-1-.4a1.6,1.6,0,0,0-1,.4c-.4.4-.4.6-.4,1.3s0,.8.4,1v.2c-4.6,2.1-10,4.4-15.9,7.3-24.3,11.5-37.8,18.2-41,19.9l-1,.6-.6-.6a2.2,2.2,0,0,0-1.9-1,2.1,2.1,0,0,0-1.7,1,2.2,2.2,0,0,0-.8,1.7,2.6,2.6,0,0,0,.6,1.9c-.2,0-.2.2-.4.2a2.2,2.2,0,0,0-1.3-.4,1.8,1.8,0,0,0-1.5.8,1.9,1.9,0,0,0-.8,1.7v.6a250.2,250.2,0,0,0-20.9,17.4C84,166,73.5,178.3,68.1,188.1s-12.1,24.7-18.4,40.3c-1,2.9-2.1,5.6-3.1,8.4h0a5.1,5.1,0,0,0-4-1.9,4.5,4.5,0,0,0-3.8,1.9,4.2,4.2,0,0,0-1.7,3.6,4.3,4.3,0,0,0,1.7,3.8,4.5,4.5,0,0,0,3.8,1.9h.8a186.6,186.6,0,0,0-6.1,20.5,1.6,1.6,0,0,0-.2.8h-.4a1.3,1.3,0,0,0-1.3.6,1.3,1.3,0,0,0-.6,1.3,1.5,1.5,0,0,0,.6,1.3,1.8,1.8,0,0,0,1.3.4c-1,8.6-.2,21.5,2.1,39.1a44.5,44.5,0,0,0,.6,5.2h-.2a1.5,1.5,0,0,0-.6,1.3,2.8,2.8,0,0,0,.6,1.7l.6.2c1.9,12.5,3.6,21.1,5,26.1A53.2,53.2,0,0,1,47.2,356c.2,4.4-.6,7.3-2.3,8.6a45.4,45.4,0,0,0-7.7,6.5c-2.9,3.3-4.6,6.3-5.2,9s-.4,11.9.4,26.8,1.3,25.5,2.3,32.4,4.6,15.3,11.5,29.3c3.8,7.3,8.2,15.5,13,24.5,6.1,11.3,14,26.6,24.3,45.6,14.8,27.6,23.2,42.2,24.9,44.1s6.9,3.3,15.7,6.1,15.3,4.8,17.1,6.1,7.3,5.6,20.9,16.1c11.3,9,18.4,13.6,21.1,14.2s17.1,5,44.1,11.1c22.8,5,41.2,9.2,55,11.9,8.6,1.7,15.3,1.9,19.9.6a67,67,0,0,0,11.5-4.2c7.3-2.1,23.6-8.4,49.3-19,3.6-1.3,9.6-2.1,18.4-1.9,4.8,0,11.5.2,19.9.4s25.3-5.2,54.8-14.6c3.6-1.3,11.1-6.3,22.4-14.8,3.1-2.5,6.1-4.8,9-6.9,3.6,2.1,7.9.2,13.4-5.2l9,.6q-5.6-5.3-10-5.6c1.9-1.5,3.8-3.1,5.4-4.6,4-3.8,9.2-7.3,15.3-11.3,4.2-2.7,7.7-5.4,10-8.8a19.3,19.3,0,0,0,1.9-2.7,1.2,1.2,0,0,0,.4,1c0,.2.4.2.6.2a1.6,1.6,0,0,0,.8-.2,2.3,2.3,0,0,0,.2-1c0-.6,0-.8-.2-1s-.6-.6-.8-.6h0c3.6-5.9,9.6-16.7,17.8-32.2,3.8-6.9,8.2-15.3,13.6-25.3a1.3,1.3,0,0,0,.8-.4,1.6,1.6,0,0,0,.2-1v-.6c3.1-5.9,6.5-12.5,10.2-19.4,10.5-19.2,16.3-38.3,18-56.7a26.4,26.4,0,0,1,.8-5.9,4.1,4.1,0,0,0,.2,1.7l7.1,5,12.1-2.9.8-.8c5.4-5.2,7.5-11.1,6.5-18l-4.8-5.2a15.3,15.3,0,0,0-7.5,0,32.8,32.8,0,0,0-4.8,1.9,10.5,10.5,0,0,1,1.5-1.7c5-5.4,7.9-11.1,8.6-17.1.4-2.7,1.3-4.8,2.5-6.1s2.1-1.5,4.6-2.3,3.1-3.8,4.8-9.2a72.2,72.2,0,0,0,3.1-14.8c.4-3.1,0-5.4-1-6.7a4.5,4.5,0,0,0,2.5.4,6.9,6.9,0,0,0,4.6-1.7,6.7,6.7,0,0,0,1.7-4.4,6,6,0,0,0-1.7-4.4,6.1,6.1,0,0,0-4.6-1.9,5.3,5.3,0,0,0-4.2,1.9,5.4,5.4,0,0,0-1.9,4.4,6,6,0,0,0,1.9,4.4s.2.4.4.4A28.6,28.6,0,0,1,621,328q-2.5-.6-1.3-9.4c1.5-11.3,2.3-19.2,2.7-23.4q.6-13.8-4.4-33.2c-1.9-6.9-3.6-13.2-5.9-19.4a1.6,1.6,0,0,0,1-.4,2.5,2.5,0,0,0,.4-1.7,2,2,0,0,0-.4-1.5,1.1,1.1,0,0,0-1-.8c-.4,0-.6.2-1,.8a.2.2,0,0,0-.2.2,23.2,23.2,0,0,0-1.5-3.3c-5-12.8-10.7-26.3-16.9-41-10.2-23.2-17.8-39.3-23-48.3a98.1,98.1,0,0,0-7.3-9.8,3.2,3.2,0,0,0,1.5-1,5.3,5.3,0,0,0,1.3-3.6,5,5,0,0,0-1.3-3.1,3.8,3.8,0,0,0-3.1-1.5,4.2,4.2,0,0,0-3.3,1.5c-.6.6-1,1-1,1.5a350.1,350.1,0,0,0-29.1-24.9c-8.8-6.9-16.9-13-23.6-17.8,0-.4.2-1,.2-1.5a5.9,5.9,0,0,0-2.1-4.4,6,6,0,0,0-4.2-1.9A5,5,0,0,0,493.7,81.5Z" transform="translate(10.1 -20.1)"/><path class="cls-2" d="M286.9,435.5c2.8,3.4,7.6,9.4,21.8,17.2-34.7-2-71.1-20.6-105.5-31.1-6.5-2-11.4-10.9-11.4-18.2l-.2-16.3c0-5.1,4.2-11.6,8.9-12l78.7-.2c77.5-.2-23.6,23.5,7.5,60.5Z" transform="translate(10.1 -20.1)"/><line class="cls-2" x1="318.8" y1="432.6" x2="369.8" y2="433.2"/><path class="cls-2" d="M359.8,453.3c6.6.1,14.5-2.3,18.4-8.4" transform="translate(10.1 -20.1)"/><path class="cls-2" d="M378.1,444.9c6.7-10.5,13.5-19.1,22.2-24.9,17.1-11.3,48.9-10.9,66.9,8.6" transform="translate(10.1 -20.1)"/><path class="cls-2" d="M419,411.4c4.1-37.1-4.2-68.4-10.4-82.7l-24.5-56.3c-3.5-8.1-43.1,4.6-42.8,14.4" transform="translate(10.1 -20.1)"/><path class="cls-2" d="M427.1,289.4a27.5,27.5,0,0,1,6.1.7l-3.6,29.5h-2.5c-11.4,0-20.6-6.8-20.6-15.2s9.2-15.2,20.6-15.2Z" transform="translate(10.1 -20.1)"/><path class="cls-2" d="M429.1,455.4a12.7,12.7,0,1,1-12.7,12.7h0a12.7,12.7,0,0,1,12.7-12.7Z" transform="translate(10.1 -20.1)"/><path class="cls-2" d="M429.1,434.9a33.2,33.2,0,1,1-33.2,33.2,33.2,33.2,0,0,1,33.2-33.2Z" transform="translate(10.1 -20.1)"/><path class="cls-2" d="M230.9,455.4a12.7,12.7,0,1,1-12.7,12.8h0a12.7,12.7,0,0,1,12.7-12.7h0Z" transform="translate(10.1 -20.1)"/><path class="cls-2" d="M230.9,434.9a33.2,33.2,0,1,1-33.2,33.2,33.2,33.2,0,0,1,33.2-33.2Z" transform="translate(10.1 -20.1)"/><polyline class="cls-2" points="220.7 355 175.7 355 175.7 324.2 304 324.2 304 355"/><line class="cls-2" x1="243.5" y1="220" x2="243.5" y2="355"/><path class="cls-2" d="M234.9,236.5c-31.7-73.4-94.5,5,0,0h0c73.7-1.9,27.2-53.9,2.6-8.5C236.7,229.3,235.4,234.9,234.9,236.5Z" transform="translate(10.1 -20.1)"/><polyline class="cls-2" points="194.4 322.8 194.4 292.1 322.7 292.1 323.7 324.2 304 324.2"/><polyline class="cls-2" points="194.4 292.1 176.3 292.1 175.7 259.9 304 259.9 304 290.7"/><polyline class="cls-2" points="182.7 258.5 182.7 227.8 311 227.8 311 260.9 302.1 260.9"/></svg>