<svg id="Слой_1" data-name="Слой 1" xmlns="http://www.w3.org/2000/svg" viewBox="0 0 310.6 305.3"><defs><style>.cls-1{fill:none;stroke:#324c5e;stroke-linecap:round;stroke-linejoin:round;stroke-width:9px;}</style></defs><title>delivery-new3</title><path class="cls-1" d="M297,415.4c2.8,3.4,7.6,9.4,21.8,17.2-34.7-2-71.1-20.6-105.5-31.1-6.5-2-11.4-10.9-11.4-18.2l-.2-16.3c0-5.1,4.2-11.6,8.9-12l78.7-.2c77.5-.2-23.6,23.5,7.5,60.5Z" transform="translate(-171.2 -180.4)"/><line class="cls-1" x1="147.6" y1="252.2" x2="198.6" y2="252.8"/><path class="cls-1" d="M369.9,433.2c6.6.1,14.5-2.3,18.4-8.4" transform="translate(-171.2 -180.4)"/><path class="cls-1" d="M388.2,424.8c6.7-10.5,13.5-19.1,22.2-24.9,17.1-11.3,48.9-10.9,66.9,8.6" transform="translate(-171.2 -180.4)"/><path class="cls-1" d="M429.1,391.3c4.1-37.1-4.2-68.4-10.4-82.7l-24.5-56.3c-3.5-8.1-43.1,4.6-42.8,14.4" transform="translate(-171.2 -180.4)"/><path class="cls-1" d="M437.2,269.3a27.5,27.5,0,0,1,6.1.7l-3.6,29.5h-2.5c-11.4,0-20.6-6.8-20.6-15.2s9.2-15.2,20.6-15.2Z" transform="translate(-171.2 -180.4)"/><path class="cls-1" d="M439.2,435.3A12.7,12.7,0,1,1,426.5,448h0a12.7,12.7,0,0,1,12.7-12.7Z" transform="translate(-171.2 -180.4)"/><path class="cls-1" d="M439.2,414.8A33.2,33.2,0,1,1,406,448a33.2,33.2,0,0,1,33.2-33.2Z" transform="translate(-171.2 -180.4)"/><path class="cls-1" d="M241,435.3a12.7,12.7,0,1,1-12.7,12.8h0A12.7,12.7,0,0,1,241,435.4h0Z" transform="translate(-171.2 -180.4)"/><path class="cls-1" d="M241,414.8A33.2,33.2,0,1,1,207.8,448,33.2,33.2,0,0,1,241,414.8Z" transform="translate(-171.2 -180.4)"/><polyline class="cls-1" points="49.5 174.6 4.5 174.6 4.5 143.8 132.8 143.8 132.8 174.6"/><line class="cls-1" x1="72.3" y1="39.6" x2="72.3" y2="174.6"/><path class="cls-1" d="M245,216.4c-31.7-73.4-94.5,5,0,0h0c73.7-1.9,27.2-53.9,2.6-8.5C246.8,209.2,245.5,214.8,245,216.4Z" transform="translate(-171.2 -180.4)"/><polyline class="cls-1" points="23.2 142.4 23.2 111.7 151.5 111.7 152.5 143.8 132.8 143.8"/><polyline class="cls-1" points="23.2 111.7 5.1 111.7 4.5 79.5 132.8 79.5 132.8 110.3"/><polyline class="cls-1" points="11.5 78.1 11.5 47.4 139.8 47.4 139.8 80.5 130.9 80.5"/></svg>