<svg id="Layer_1" data-name="Layer 1" xmlns="http://www.w3.org/2000/svg" viewBox="0 0 28 24.86"><defs><style>.cls-1,.cls-2{fill:red;}.cls-1{fill-rule:evenodd;}</style></defs><title>donut</title><path class="cls-1" d="M21.16,5.77a6.42,6.42,0,0,1,1.07.46A1.17,1.17,0,0,0,21.16,5.77Z"/><path class="cls-1" d="M20.28,5.56a1.82,1.82,0,0,0-.75-.21c-.39-.11-.88-.47-1.22-.35A6.1,6.1,0,0,0,20.28,5.56Z"/><path class="cls-1" d="M22.38,11.86a5.22,5.22,0,0,1,4,2.21.19.19,0,0,0,.11,0A4.62,4.62,0,0,0,22.38,11.86Z"/><path class="cls-1" d="M16.83,7.24c0,.1,0,.1.08.17.28-.25.55-.34.83-.58-.14-.13-.17.06-.33.11s.11-.18.12-.27C17.34,6.65,17.2,7.19,16.83,7.24Z"/><path class="cls-1" d="M12.88,3.46a4.34,4.34,0,0,0-1.7-.4c.19.16.5.07.78.14S12.56,3.55,12.88,3.46Z"/><path class="cls-1" d="M15.31,15.17a11.88,11.88,0,0,1,3.4.85.23.23,0,0,0,.11,0s0,0,0-.08,0,0-.05,0A5.58,5.58,0,0,0,17,15.37,4.81,4.81,0,0,0,15.31,15.17Z"/><path class="cls-1" d="M6.14,13.13c1.23.36,2.57.76,3.83,1.25a11.68,11.68,0,0,1,1.25.52.87.87,0,0,1,.23.19,11.14,11.14,0,0,0,1.94.54,35.82,35.82,0,0,0,6,1.92l.08-.06s0-.08,0-.06l0-.06a11.33,11.33,0,0,1-2.09-.56c-.23-.07-.47,0-.71-.1-.57-.15-1.12-.44-1.7-.63s-1.12-.46-1.68-.68S12,15,11.4,14.84s-1.16-.5-1.74-.69-1.18-.35-1.75-.59A3.92,3.92,0,0,0,6.14,13.13Z"/><path class="cls-1" d="M12.73,15.65c.94.48,1.92.68,2.87,1.06a.17.17,0,0,0,.11,0A18.86,18.86,0,0,0,12.73,15.65Z"/><path class="cls-1" d="M3.79,6.74a8.93,8.93,0,0,1,2.08.07c.18,0,.37.16.56.21A4.49,4.49,0,0,1,7,7.12c.6.26,1.05.82,1.7,1.17,0,0,0-.11-.07-.09A5.61,5.61,0,0,0,7,7c-.2-.07-.48-.08-.75-.16A4.27,4.27,0,0,0,3.79,6.74Z"/><path class="cls-1" d="M7.13,10.17c0,.12.14.08.22.11a7,7,0,0,1,.89.46,4.6,4.6,0,0,1,1.44,1s0,0,.07,0,0-.07,0-.1A8.53,8.53,0,0,0,7.13,10.17Z"/><path class="cls-1" d="M14.07,17.5a13.13,13.13,0,0,1-2-.67,1.32,1.32,0,0,0-.67-.23A5.33,5.33,0,0,0,14.07,17.5Z"/><path class="cls-1" d="M8.43,13a5.37,5.37,0,0,0-2.17-.73,8.22,8.22,0,0,0,1,.33c.35.13.71.29,1.06.39C8.35,13,8.39,13,8.43,13Z"/><path class="cls-1" d="M10.15,16.13a12.72,12.72,0,0,0-1.68-.55A3.27,3.27,0,0,0,10.15,16.13Z"/><path class="cls-1" d="M18.41,4A6.09,6.09,0,0,0,15,2.81s0,0,.07,0a11.44,11.44,0,0,1,1.64.5,6.1,6.1,0,0,1,.88.51,6.63,6.63,0,0,0,1.89.34,9.1,9.1,0,0,0,2.16.6,10.85,10.85,0,0,1,4.47,2.89,3.16,3.16,0,0,0-.87-1.16A16.23,16.23,0,0,0,21.55,4.3a10.85,10.85,0,0,0-1.61-.7,1.67,1.67,0,0,1-.18-.36,9.58,9.58,0,0,0-1.88-.4c-.44-.08-.87-.24-1.29-.34-2.62-.62-5.25-1.38-8-.79-.09,0-.15-.13-.25,0S8,2,7.85,1.89c-.17-.45.31-.53.72-.67a17.51,17.51,0,0,1,2.8-.74c.86-.17,1.7-.22,2.38-.38C15,.14,16.24-.08,17.45,0a16.1,16.1,0,0,1,3.71,1.39c.58.35,1.19.94,1.82,1.4A8.72,8.72,0,0,1,26.21,7a1,1,0,0,1,.21.34c0,.13-.23.12-.21.2.64-.18.8.69,1,1.28A10.56,10.56,0,0,0,27.71,10c0,.7.3,1.25.3,1.9a18.48,18.48,0,0,1-.15,2,10.56,10.56,0,0,1-1.23,3.86A16.66,16.66,0,0,1,25.23,20a17.12,17.12,0,0,1-1.59,1.56,12.14,12.14,0,0,1-1.83,1.55,11.22,11.22,0,0,1-1.88.87,17.93,17.93,0,0,1-5.41.93,2.38,2.38,0,0,0-.28-.2A11.29,11.29,0,0,1,7.34,22.9a12,12,0,0,1-2.16-1.5C4.79,21,4.44,20.62,4,20.27a9.77,9.77,0,0,1-2.54-2.67c-.36-1-.81-1.84-1.08-2.71A5.68,5.68,0,0,1,0,12.46,12.76,12.76,0,0,1,.14,11.1c.2-.89.63-1.73.77-2.66,0-.11.12-.07.2-.15-.11-.16.06-.32,0-.48S1,7.64,1,7.53a1.76,1.76,0,0,1,.75-1.47c.12-.08.28-.11.39-.2.27-.22.4-.61.69-.83s.47-.33.72-.54.66-.45,1-.69A17.17,17.17,0,0,1,6.07,2.59c.3-.17.65-.15.81-.43A11.39,11.39,0,0,1,9.18,2a13.84,13.84,0,0,1,2,.13c.59.08,1.13.32,1.67.42s1.25.11,1.86.19a14,14,0,0,0-1.41-.25,14.41,14.41,0,0,1,3.07.41,4.94,4.94,0,0,1,1,.23,12.25,12.25,0,0,0,1.12.7,2.37,2.37,0,0,1,1.9.43A3.29,3.29,0,0,0,18.41,4Zm6.36,1.3c.05-.06-.1-.15-.12-.22C24.49,5.17,24.71,5.18,24.77,5.27Zm.09.25c0,.08.13.25.19.26C25.16,5.64,24.93,5.65,24.86,5.52ZM24.45,5c-.21-.26-.43-.49-.68-.49C23.8,4.73,24.23,4.92,24.45,5ZM22.4,3.43c.42.24,1,.69,1.54,1A2.82,2.82,0,0,0,22.4,3.43Zm2.25,2.16a2.09,2.09,0,0,0-1.17-.84A13.58,13.58,0,0,1,24.65,5.59ZM26.7,8.76c0,.08,0,.18.06.27C26.81,8.95,26.79,8.86,26.7,8.76ZM22.95,3.93a8.62,8.62,0,0,0-1.32-.68,2,2,0,0,1,1,.17A1.88,1.88,0,0,0,21.48,3c0-.1.1-.05.14-.11-.41-.18-.81-.34-1.22-.49.28-.22.8-.09,1.18.07a5.83,5.83,0,0,0-2.12-.72c.2-.12.57.06.85,0A6.86,6.86,0,0,0,17.85,1a1.16,1.16,0,0,1,.73,0c.69.13,1.44.52,2.15.7a12.52,12.52,0,0,0-2.85-1c-.07.09.09,0,.11.14a9.47,9.47,0,0,0-3.1-.39c.67.2,1.62,0,2.34.46-.14.13-.23-.05-.35-.1A16.37,16.37,0,0,0,14,.62c.8.11,1.61.2,2.41.37C15.14,1,13.78.46,12.44.76a12.6,12.6,0,0,1,3,.4c-.05.14-.25,0-.36-.05L14.36,1c-.21,0-.51-.12-.59,0a16.3,16.3,0,0,1,3.88,1c-.69-.06-1.33-.47-2-.57a11.84,11.84,0,0,0,1.72.66c0,.06-.05.09,0,.16a14.69,14.69,0,0,1,2.73.62c.11.1,0,.17.12.28.92.38,1.84.74,2.77,1a17,17,0,0,0-2.61-1.3A25.23,25.23,0,0,1,22.95,3.93ZM22.38,3a2.17,2.17,0,0,0-1.64-.62C21.29,2.58,21.82,2.93,22.38,3Zm4.48,6.28a1.26,1.26,0,0,0,.32.85A1.11,1.11,0,0,0,26.85,9.32ZM21.11,2c0-.06-.16-.17-.24-.14S21,1.92,21.11,2Zm1.83,2.56c0-.14-.41-.21-.57-.34C22.45,4.34,22.77,4.41,22.94,4.52ZM7.09,5.58c-.37.09-.68-.15-1-.08A7.2,7.2,0,0,1,9.93,8.16,2.71,2.71,0,0,0,9,6.76c0-.14.15,0,.23.06a2.29,2.29,0,0,0-1.08-.91c.22-.14.57.18.79.4a8.76,8.76,0,0,1,1.12,1.56c.31-.32-.21-.82-.51-1.16.22-.05.44.34.54.54C10,6.53,9.15,6,8.69,5.61c.43.1.74.52,1.09.85a2.18,2.18,0,0,1,.63.84c.17-.31-.29-.85-.59-1.14,0,0,.06-.15.11,0-.09-.33-.45-.39-.63-.66A2.75,2.75,0,0,1,10.62,7.1c.35-.33-.12-.79-.41-1.14.35.06.57.6.72.91.2-.19,0-.5-.16-.69a5.82,5.82,0,0,0-1-1c.39.1.71.56,1,1,0-.12-.17-.28-.12-.41.27.22.35.64.52.93.25-.17,0-.48,0-.7a6.44,6.44,0,0,1-.21-.7c.4.19.36.9.55,1.22.27-.19-.13-.69-.06-1a1.81,1.81,0,0,1,.27.84c.09.05.21,0,.32-.11a3.44,3.44,0,0,1-.15-.92c.15.2.15.6.26.89.09.07.2,0,.31,0a3,3,0,0,1,0-1c.19.2,0,.92.33,1a5.05,5.05,0,0,1,0-1.08c.15.27,0,.7.11,1.05.42-.11.16-.66.42-1,0,.2-.14.59-.07.87.14-.11.23.11.36,0a1.25,1.25,0,0,1,0-.7c.13.15-.08.76.33.8.16-.16,0-.37,0-.54.17.12,0,.58.35.64.12-.18,0-.39.21-.56,0,.23-.07.44,0,.67a.23.23,0,0,1,.12,0c.23-.12.07-.51.28-.71a3.81,3.81,0,0,1-.08.74.75.75,0,0,1,.28.2c.22-.23.09-.5.31-.73.07.35-.42.83.12,1a2.13,2.13,0,0,1,.32-.78c0,.2-.23.59-.2.88.06,0,.13,0,.19.13.23-.22.31-.45.59-.66,0,.25-.35.47-.46.71.07.07.15,0,.22.11.26-.29.31-.61.54-.9,0,.25-.37.67-.38,1,.33.08.4-.58.82-.66-.21.23-.37.46-.56.7.14.11.32,0,.46.2a2,2,0,0,1,1-.38c-.16.23-.51.19-.75.38.44.07.94-.29,1.38-.27-.23.23-.64.17-1,.35.5.35,1.11,0,1.64.13-.25.18-.67,0-1,.17.52.44,1.17,0,1.71.3-.42.08-.8-.07-1.22.05a1.51,1.51,0,0,1,.21.34,4.88,4.88,0,0,1,1.52,0c-.35.13-1-.09-1.37.16a1.77,1.77,0,0,1,.28.43,3.2,3.2,0,0,1,1.78,0c-.48.08-1.24-.2-1.76.19.06.09.12.19.06.27a5,5,0,0,1,1.72-.06c-.43.17-1.16-.09-1.62.31,0,0,.07.08,0,.11.47,0,1-.21,1.45,0-.16.09-.52,0-.81.07s-.69.06-.67.37a3.24,3.24,0,0,1,1.65-.1c-.43.13-1.13-.1-1.61.39a3.93,3.93,0,0,1,1.47-.15c-.31.17-.79,0-1.2.27.81,0,1.66-.14,2.47-.09.07,0,0-.08,0-.12a7.82,7.82,0,0,1,2.22.43s0-.09,0-.12a2.6,2.6,0,0,1,1.08.72,4.57,4.57,0,0,0-3.07-1.45c.19-.19.49,0,.72,0a6.16,6.16,0,0,1,2.6,1.36c-.45-.71-1.26-.93-1.73-1.33a3.41,3.41,0,0,1,1.62,1s.22.34.16.16c-1.09-1.5-2.59-1.66-3.92-2a1.86,1.86,0,0,1,1,.09,7.06,7.06,0,0,1,3,1.67A4.53,4.53,0,0,0,24.7,9.95c-.06-.05,0-.09,0-.12a4.1,4.1,0,0,0-1.88-.63c.25-.18.61,0,.9.05a3.53,3.53,0,0,1,.9.41.16.16,0,0,1,.07-.09,6.48,6.48,0,0,1,1.66,1,8.45,8.45,0,0,0-3.71-2.06A4.35,4.35,0,0,1,24.24,9a8.44,8.44,0,0,1,1.49.84c-.26-.49-.95-.5-1.23-.85a3.68,3.68,0,0,1,2,1.46c-.2-.71-1.12-1.12-1.46-1.53A5.61,5.61,0,0,0,23,8c.36-.13.9.12,1.31.29.65,0,1.22.6,1.82,1A6.47,6.47,0,0,0,23,7.5a5.54,5.54,0,0,1,3,1.39c-.42-.81-1.36-1.06-2-1.48-.06,0,0-.08,0-.12a10.35,10.35,0,0,0-1.73-.56c.26-.1.55,0,.81.12a6.31,6.31,0,0,1,2.84,1.67,9.79,9.79,0,0,0-3.23-2.2,5.16,5.16,0,0,1,2.05.86,6.29,6.29,0,0,0-2.83-1.36c-.51-.18-1-.43-1.47-.57A14.3,14.3,0,0,0,19,4.86c-.15,0-.31,0-.46,0A19.87,19.87,0,0,1,16.37,4a24.33,24.33,0,0,0-3.81-1,14.47,14.47,0,0,0-1.64-.08c-1.1-.09-2.21-.19-3.31-.19A3.06,3.06,0,0,0,6,3.13a10.26,10.26,0,0,1,4.11,0c-1.56,0-3.2-.4-4.8.48a8.4,8.4,0,0,1,4.08,0c-.33.11-.68-.07-1-.12a7.17,7.17,0,0,0-1.6,0,3.81,3.81,0,0,0-2,.59A9.47,9.47,0,0,1,9.05,4c-.15.1-.38,0-.55,0a7.25,7.25,0,0,0-4.2.43A8.76,8.76,0,0,1,8,4.45a13,13,0,0,0-3.1,0,1.67,1.67,0,0,0-1.09.41c.61,0,1.24-.1,1.85-.12A3.69,3.69,0,0,1,7.44,5c-.14.11-.25-.06-.37-.08a11.52,11.52,0,0,0-1.73-.07,3,3,0,0,0-2.06.5,6.17,6.17,0,0,1,3.61.06,7.29,7.29,0,0,0-3.5,0A12.72,12.72,0,0,1,7.09,5.58ZM27,10.19a2.62,2.62,0,0,0,.52,1.24.37.37,0,0,0-.12-.46A1,1,0,0,0,27,10.19Zm-6-5a24.66,24.66,0,0,0,2.69,1.06c.06-.07-.3-.14-.4-.29-.45,0-.84-.41-1.28-.44C21.63,5.22,21.27,5.27,20.93,5.21Zm6.13,5.72c-.23.46.25,1,.48,1.54A2,2,0,0,0,27.06,10.93Zm-.12.68c0,.16-.17.3-.2.46.26.61.41,1.2.67,1.8A2.52,2.52,0,0,0,26.94,11.61Zm-.95-1c0,.18.27.39.38.57C26.49,11,26.11,10.84,26,10.65Zm-.38-.39c0-.22-.32-.32-.46-.38C25.19,10,25.48,10.06,25.61,10.26Zm1.06,2c-.05.18-.13.36-.18.54s.22.22.19.31,0-.1.14-.06c.14.38.29.77.4,1.14A4.61,4.61,0,0,0,26.67,12.22Zm-.58-.29c0,.08,0,.18.12.27A.37.37,0,0,0,26.09,11.93ZM20.88,5.21A8.86,8.86,0,0,0,18,4.44,28.75,28.75,0,0,0,20.88,5.21ZM18.6,11.89c-.33.2-.6.37-.54.67,1.78-.85,3.36-.35,5-.42a.66.66,0,0,1,.15.25,5.69,5.69,0,0,1,3.45,2.25c.3-.39,0-1.09-.34-1.6a4.63,4.63,0,0,0-1.7-1.3,4.51,4.51,0,0,0-1.35-.48,6.29,6.29,0,0,0-1.9-.12,9.72,9.72,0,0,0-2.26.6c-.15.07-.18.23-.29.22S18.64,11.91,18.6,11.89Zm6.27-.44c-.19-.26-.65-.26-1-.37C24.12,11.24,24.57,11.28,24.87,11.45Zm2.35,3.62c0-.06-.11,0-.15-.07s.2-.3.1-.48a3.09,3.09,0,0,1-.34.39,2.26,2.26,0,0,1,.19.63C27.16,15.49,27.1,15.2,27.22,15.07Zm-10-12.79A15.39,15.39,0,0,0,11.93,1c0,.11.24.09.35.1a22.53,22.53,0,0,1,3,.66c.06,0,.13-.05.19-.05A14.6,14.6,0,0,0,17.23,2.28ZM26.73,15c0,.1-.15.14-.23.17a6.23,6.23,0,0,1,.28,1.15A1.37,1.37,0,0,0,26.73,15Zm-.81-.84c.13.48-.17.89,0,1.37-.05.06-.08,0-.12,0-.06.23-.29.43-.18.67-.06.06-.08-.14-.15,0s.08.48,0,.69c-.14-.05,0-.3-.15-.43-.1.05-.06.13-.18.18a.9.9,0,0,1,.06.68c-.18-.11,0-.39-.15-.57-.15.08-.15.19-.25.28a.84.84,0,0,1,.09.66c-.17,0,0-.34-.14-.49-.49.22-.13.77-.29,1.12-.15-.14,0-.44-.14-.67-.13.19-.25.23-.37.41s.14.46,0,.65c-.17-.08,0-.33-.14-.48-.51.22,0,.85-.49.91-.08-.17.19-.2.06-.41-.38.27-.33.61-.44.92-.19,0,0-.17-.06-.27-.32.21,0,.5-.23.72-.12-.16,0-.29-.06-.45a1,1,0,0,1-1.09.36,2.21,2.21,0,0,1,.07,1.17c-.18.12-.31-.12-.48-.09a3,3,0,0,0-1-1.21.56.56,0,0,0-.36.36c-.28.14-.74.68-1.09.59a10.22,10.22,0,0,1-3.85.48,3.18,3.18,0,0,0,.4,1c0-.09-.09-.2-.09-.3.45.44.61,1.5,1.35,1.93.08.11-.11.09-.07.14.13.24.31.09.48.09-.1-.33-.54-.71-.55-1,.29.21.61,1.17.92,1a8.38,8.38,0,0,1-.91-1.76c.41.53.55,1.24,1.15,1.77.14-.07.25,0,.4-.07-.17-.48-.49-.68-.61-1.12A4.74,4.74,0,0,1,18,24.12s.08-.07.11,0a5.69,5.69,0,0,1-.64-1.64,6,6,0,0,0,.88,1.6c.1-.09.18,0,.27-.12-.07-.33-.44-.7-.5-1,.24.13.48.68.69,1a1,1,0,0,0,.38-.15c-.12-.4-.66-.87-.62-1.25.21.34.51.76.76,1.19.14,0,.13-.05.28-.12a1.6,1.6,0,0,0-.3-.82c.31,0,.36.66.53.78.33-.33-.3-.91-.58-1.38.24,0,.57.69.77,1a2.31,2.31,0,0,0,.09.29,1.26,1.26,0,0,0,.33-.16c.08-.34-.36-.65-.4-1a1.61,1.61,0,0,1,.59.91l.18-.13c0-.36-.48-.78-.59-1.14A3.18,3.18,0,0,1,21,23c.06-.08.11,0,.17-.08-.18-.07,0-.2-.06-.32A2.17,2.17,0,0,1,20.8,22a1.72,1.72,0,0,1,.52.88c.36-.29-.25-.71-.19-1,.2.07.29.65.51.8.23-.08-.13-.46,0-.66.16.07.15.34.27.48.3-.22-.08-.54,0-.8.13.09.2.41.25.58s.15-.1.22-.12c0-.21-.29-.46-.17-.65.15.05.14.54.34.51.08-.33-.29-.73-.26-1.07.17.2.24.6.44.89.36-.2,0-.52,0-.77.17,0,.16.3.32.43.33-.28,0-.66.09-1a2,2,0,0,1,.16.69c.12.05.1,0,.22-.12,0-.31-.24-.64-.15-.93a4.91,4.91,0,0,1,.31.77c.2-.35-.13-.78-.2-1.16.22.12.32.66.38.93.29-.12-.12-.61,0-.9.14.12.13.45.22.65.3-.31-.1-.72,0-1.06a2.79,2.79,0,0,1,.22.83c.3,0,.06-.36.24-.4,0-.27-.28-.59-.24-.86a2,2,0,0,1,.34.7,2.3,2.3,0,0,0,.11-.94,1.44,1.44,0,0,1,0,.91,1,1,0,0,0,.32-1.14c.18-.17-.16-.62-.08-.89a7.24,7.24,0,0,1,.35,1.32c.16-.27.31-.54.48-.81-.06-.44-.21-.89-.22-1.32a4.31,4.31,0,0,1,.3,1.13c.45-.39.23-.88.22-1.34.15.12.07.42.19.62.44-.59.18-1.29,0-2,0-.07.12-.1.1-.17A2.56,2.56,0,0,0,25.92,14.18Zm-2.29-3.12c-.32-.08-.64-.12-1-.19A2.26,2.26,0,0,0,23.63,11.06Zm1.86,2.72c-.11-.18-.26-.13-.38-.26,0,.14.2.29.28.38A.21.21,0,0,1,25.49,13.78Zm-.06.41c0,.06,0,.15-.08.2.11,0,0,.09.13.17a.2.2,0,0,1,.09-.12C25.45,14.34,25.55,14.21,25.43,14.19ZM25,13.89c0,.14.16.17.22.29C25.24,14,25.12,13.85,25,13.89Zm-.42-.5c-.22-.33-.66-.42-1-.56a2.15,2.15,0,0,0-1.07-.28A10.37,10.37,0,0,1,24.56,13.39ZM24,17.45s0,0,0,0c-.1-.18.06-.32-.06-.5s0,.12-.13.14a3.32,3.32,0,0,0-1-1.36,2.85,2.85,0,0,1,1.37,1.46c.2,0,0-.36.07-.51A6,6,0,0,0,23,15.4c.25,0,.47.3.7.51,0-.14-.19-.2-.19-.31a1.54,1.54,0,0,1,.85,1.31c.17,0,.08-.17.24-.22,0-.08-.1,0-.14-.12s.14,0,.22-.07a5.56,5.56,0,0,0-1.3-1.43,2.38,2.38,0,0,1,1.38,1.23c.13-.14.06-.54-.19-.49-.06-.47-.59-.76-.91-1,.37-.2,1.11.76,1.36,1.33.13-.09.09-.44-.14-.67,0-.07-.08,0-.13,0a3,3,0,0,0-1.26-1.14c.58-.14,1.21,1,1.81,1.27-.09-.18-.21-.57-.45-.48-.18-.44-.64-.7-.79-1,.35.12.65.56,1,.81,0-.11,0-.31-.17-.23-.71-1.17-1.63-1.28-2.6-1.72A4.78,4.78,0,0,1,25,14.39c-.11-.48-.64-.72-1-.91.18-.19.47.28.72.23a7.49,7.49,0,0,0-4.53-1.22c.07.16.33,0,.54.05a2.08,2.08,0,0,1,1.24.38c-.24.07-.44-.18-.68-.17s.35.12.46.25c-.25,0-.48-.16-.72-.24-.06,0,0,.08-.1.11a14.82,14.82,0,0,0-2.13.06,6.64,6.64,0,0,0,1.67.11c0,.2-.22,0-.33.11.36.19.9.05,1.15.45a5,5,0,0,0-2.67-.36,6.15,6.15,0,0,1,.86.12c-.21.13-.67,0-1,0-.05,0-.31,0-.13,0a14.21,14.21,0,0,1,2.25.53c-.16.19-.46-.15-.69-.07a4.56,4.56,0,0,0-2.21-.29c-.1,0-.06-.07-.11-.15-.17.1-.31,0-.49.19.36,0,.72.11,1.09.13,0,0,0,.09.06.14a5,5,0,0,1,1.92.46c-.21.07-.42-.09-.65-.14a18.37,18.37,0,0,0-2.12-.36c.22.2.71.11,1,.33-.27.07-.51-.15-.79-.08a6.36,6.36,0,0,0,1.67.42c.13,0,.45.08.37.31A10.55,10.55,0,0,0,17,14.14c.16.08.34.07.49.17a4.12,4.12,0,0,1-1-.18c.65.28,1.55.38,2.28.69a9.2,9.2,0,0,1-1.58-.36,9.26,9.26,0,0,0-1.61-.28c.32.29.81.17,1.2.28.21.06.38.22.58.29.66.23,1.46.12,2,.55-.27,0-.53-.13-.83-.2-.81-.19-1.74-.45-2.57-.65a.78.78,0,0,1-.55.1c.75.22,1.69.4,2.54.67.2.06.42.17.62.22s.46-.06.54.18c-.81-.11-1.8-.51-2.71-.73-1.08-.25-2.29-.14-3.36-.74.66.66,1.67.4,2.44.84-.71-.12-1.41-.26-2.11-.41A27.39,27.39,0,0,0,18.13,16a1.64,1.64,0,0,1-1-.09,5.14,5.14,0,0,0-1-.27c-.22.15-.65,0-1-.14a24.39,24.39,0,0,1-2.51-.88c-.12-.06,0-.2-.08-.17-1.81-.67-3.56-1.72-5.36-2.45.27-.11.49.18.75.16.78.46,1.67.8,2.51,1.24a9,9,0,0,0,2.34,1c-.57-.43-1.18-.57-1.75-.95.23-.14.39.2.6.18a18.63,18.63,0,0,0-4.63-3c2,.54,3.87,2.71,5.89,3.46a11.52,11.52,0,0,1-1.84-1.43,5.81,5.81,0,0,0-2.29-2.09c.56,0,1,.73,1.54,1A17,17,0,0,0,8.16,9.26c-.06,0-.09-.07-.16,0-.8-1-1.76-.86-2.66-1.13a6.58,6.58,0,0,1,4.41,2.26A5.44,5.44,0,0,0,8,8.71c-.09-.12,0,0-.09.07A5.76,5.76,0,0,0,5.79,8c.06,0,.12,0,.17.1-.69,0-1.35-.28-2-.34-.39,0-.77.12-1.18.11,0,.11.19,0,.24.14-.44,0-1.1-.07-1.44.44-.09,0-.22,0-.25.09A6.41,6.41,0,0,1,4.7,8.19c.34,0,.78,0,1,.33A9,9,0,0,0,3.1,8.16a3.87,3.87,0,0,0-1.77.6c.46-.15,1.09-.5,1.39-.14A5.64,5.64,0,0,1,5,8.85c-.63,0-1.47-.19-2.2-.16-.05,0,.05.11,0,.15s-.15,0-.23-.06C2.14,9,1.3,9,1.23,9.47a4.21,4.21,0,0,1,3.35-.11c-1-.08-2.17-.48-3.27.28.46,0,1.13-.57,1.46-.23A2.8,2.8,0,0,0,1.15,10a8,8,0,0,1,1.24-.34c.82.24,1.72-.1,2.52.28a17.24,17.24,0,0,0-2-.13,2.51,2.51,0,0,0-1.67.44c.47-.15,1.11-.52,1.43-.21a2,2,0,0,0-1.46.46c.42,0,.74-.3,1.13-.3.14,0,.21.08.35.1A18.78,18.78,0,0,1,5,10.48c-1.09.11-2.66-.49-3.69.27.29.1.64-.2,1-.22a.63.63,0,0,1,.43.08c-.12.14-.31,0-.5,0a2.63,2.63,0,0,0-.77.35,5.21,5.21,0,0,1,3,.1c-.48,0-.93-.15-1.4-.18-.07.06.08,0,.09.12a4,4,0,0,0-.89.08c-.25,0-.69.06-.75.38.36.06.78-.31,1.14-.22-.06.18-.27.05-.41.18a10.19,10.19,0,0,1,2.07.17c-.85.06-1.73-.27-2.71.36A5.45,5.45,0,0,1,4.69,12c-.95,0-2-.5-3.06.26.4-.06.85-.48,1.19-.17a1.91,1.91,0,0,0-1,.27,5.48,5.48,0,0,1,3,0c-.15.14-.36,0-.54-.05a5.55,5.55,0,0,0-1.7,0c.07.06.24,0,.22.11a1.83,1.83,0,0,0-1.1.28,7.91,7.91,0,0,1,3.4.13,14.38,14.38,0,0,0-2.15-.15.21.21,0,0,1-.1.12A1.38,1.38,0,0,0,1.7,13c.12.1.26,0,.4-.07A25.91,25.91,0,0,1,5,13.28s0,.07,0,.1a6,6,0,0,1,2.22.55c2.7.87,5.47,2,8.21,2.81a16.27,16.27,0,0,0,3.37.82c.07,0,0,.19,0,.12.6.42,1.48.47,2.13,1.21a8,8,0,0,0-2.55-1.12,5.91,5.91,0,0,1,2.73,1.71c.12-.49-.53-1.12-.93-1.43.37,0,.65.5,1,.86.18.12-.11-.21-.14-.25s-.25-.29-.23-.42a2.25,2.25,0,0,1,.7.88c.08.19,0,.5.23.42,0-.78-.91-1.4-1.44-1.91a2,2,0,0,1,.86.67c.08.1,0,0,.16,0,.47.42.47,1,.72,1.27.06-.74-.49-1.19-.92-1.71a2.54,2.54,0,0,1,.81.84c.09-.15-.23-.36-.31-.53.33-.07.55.64.6.86,0,0-.05.08-.09.12.12.14.08.25.15.38.55-.73-.58-1.57-1-2.12a3.2,3.2,0,0,1,1.32,1.23c-.09.17,0,.38.07.58a.1.1,0,0,1,.12-.09c.06-.76-.91-1.57-1.39-2a3,3,0,0,1,1.16,1.12c.09-.27-.39-.62-.56-.8,0,0,.06-.15.11,0,.06-.11-.17-.15-.13-.22a1.93,1.93,0,0,1,.74.62c0-.14-.21-.31-.3-.46.55.12.6.88.78,1.23.31-.51-.59-1.32-1.09-1.76.31,0,.69.49.88.74.1-.19-.31-.53-.49-.71,0-.09.1-.08.15,0,0-.13-.15-.12-.2-.26.53.16.89.76,1.28,1.35.33-.31,0-.71-.33-1.11.06.16.11.33,0,.46-.19-.06,0-.25-.1-.38s-.36-.29-.45-.48c.12-.1.18.21.3.09-.07-.06-.27-.18-.24-.27a3.12,3.12,0,0,1,1.15,1.36C24,17.55,23.94,17.39,24,17.45Zm1.2-3c-.08.07,0,.16.09.25S25.26,14.55,25.24,14.47Zm0,.25a3.4,3.4,0,0,1,.11.51C25.48,15.09,25.29,14.9,25.2,14.73ZM17.25,4.17c-.24-.23-.69-.6-1.07-.46a5,5,0,0,0-2-.59c.18.2.48.19.74.26A16.63,16.63,0,0,1,17.25,4.17Zm4.91,8.31c-.11-.08-.47-.15-.44,0C21.88,12.38,22,12.56,22.16,12.48ZM12.89,1c-.24-.2-.75-.11-1.1-.13C12.16,1,12.54.91,12.89,1Zm2.58,7.43a1.05,1.05,0,0,1-.43,1c.08.06.16.06.24.14A2.54,2.54,0,0,0,16,8.67c.07.22-.24.62-.46.89.07.14.17.13.26.17.49-.28.44-.64.58-1a1.16,1.16,0,0,1-.49,1.09c.06,0,.11.08.16.15a1.49,1.49,0,0,0,.94-.75c.07.26-.43.72-.8.87.09,0,.15.15.23.24,0-.14.15,0,.22-.07.34-.17.54-.66.78-.9a1.79,1.79,0,0,1-.77,1c.38.13.76-.56,1.13-.66a2.56,2.56,0,0,1-1.11.87c.09.08.06,0,.11.15.46-.11.7-.79,1.11-.74-.22.17-.63.59-1,.89.11.06.06.11.18.23.41-.25.52-1,1-.87a2.65,2.65,0,0,0-.85,1c.35-.38,1-1,1.4-.6-.17.12-.31,0-.47,0-.22.35-.82.64-.77,1,.31-.26.74-.89,1.15-.82-.35.22-1.13.71-1,1.15.35-.23.82-.87,1.19-.76,0,.14-.23,0-.34.21.13,0,.28,0,.4.11a5.35,5.35,0,0,1,.72-.49,2.94,2.94,0,0,0,0-.65c-.1,0-.22.11-.33.11s.23-.31.33-.29,0-.19,0-.28-.22.21-.3.09.1-.05.1-.17c-.22-.13.08-.35,0-.54-.13,0-.14.15-.26.2-.13-.14.08-.23.15-.34a1,1,0,0,0-.2-.26,1.27,1.27,0,0,0-.31.19c-.13-.1.14-.27.22-.25a.29.29,0,0,0-.07-.21c-.13.07-.15.15-.24.22-.13-.14.11-.22.15-.34-.13-.13-.18-.14-.27-.25-.11.08-.2.26-.3.27s.2-.21.15-.34c-.22-.13-.32,0-.57.2,0-.13.11-.22.25-.32-.11-.13-.25,0-.36-.18-.13.09-.11.21-.27.29-.1-.12.09-.19.09-.29A2,2,0,0,0,17,7.94c-.12.09-.09.29-.23.3s.05-.2,0-.3a.53.53,0,0,0-.37-.13c-.13.09,0,.21-.15.29-.12-.16.11-.26,0-.42-.21,0-.05.28-.26.37-.09-.16.07-.28,0-.43s-.28-.12-.41-.24c-.12.1,0,.24-.1.35-.19-.08,0-.31-.06-.45a1.83,1.83,0,0,0-.28-.2c-.13.12,0,.27-.16.39-.12-.06,0-.31,0-.44s-.16-.1-.23-.19c-.13.15-.06.34-.12.5-.22-.12,0-.39-.07-.58a.23.23,0,0,1-.12,0c-.17.13-.11.28-.19.41-.22-.08.14-.42-.06-.5s-.11.25-.23.36c-.18-.07.06-.3,0-.44s-.15,0-.28.12c-.11,0,0-.19-.18-.18s0,.29-.2.28.09-.16,0-.26-.26.17-.38.33c-.14,0,0-.19,0-.28-.24-.11-.32.18-.5.24s.07-.13,0-.21-.25.18-.41.35c-.15-.1.09-.16,0-.26s-.11.46-.37.41c0-.09.09-.16.08-.25-.34,0-.22.33-.38.51-.14,0,0-.22,0-.31-.39.06-.26.43-.35.62-.09,0-.1-.2-.06-.27-.41.12-.28.55-.3.81-.12,0-.12-.22-.09-.3-.24,0-.15.34-.28.53a11,11,0,0,1,.46,2.37c.35-.24-.18-.79-.09-1.15.1.11,0,.19.14.3a1.34,1.34,0,0,0-.23-.73c.33,0,.36.79.38,1.12.47-.38-.16-1.14-.17-1.68.3.24.32.71.54,1.14.2-.4-.44-.92-.23-1.32.17.16,0,.51.25.76,0-.23-.09-.48-.08-.71.32.32,0,.79.4,1.14.25-.59-.3-1.28-.14-1.88.29.42.08,1,.51,1.52.11-.35-.09-.75-.07-1.12.26.37.11.91.24,1.35a2.39,2.39,0,0,0,.36-1.08c.16.42-.15.77-.17,1.16.23-.09.12-.22.15-.34s.14.08.21.16a2.16,2.16,0,0,0-.05-1.64,1.83,1.83,0,0,1,.21,1.61c.65-.16.44-.85.44-1.28a1.29,1.29,0,0,1,0,1.19c.06.06.14,0,.2,0a2.25,2.25,0,0,0,.43-1.54,1.68,1.68,0,0,1-.2,1.42c.22.17.31-.16.35-.26.09-.28,0-.75.09-1,.18.36,0,.88,0,1.29.42-.29.24-.67.33-1,.15.2,0,.59.06.86a.73.73,0,0,0,.41-.89c.3.28,0,.85-.46,1,.05.12.35.11.5.12A1.65,1.65,0,0,0,15.47,8.44ZM20,11.05c-.07-.09-.24.07-.25.14S19.87,11.11,20,11.05Zm.66,1.36c0-.07-.24-.1-.35-.05C20.37,12.47,20.5,12.37,20.62,12.41Zm.26.35a2.86,2.86,0,0,0-1,0A4,4,0,0,0,20.88,12.76ZM11.83,1a2,2,0,0,0-.54,0A1.2,1.2,0,0,0,11.83,1Zm8,11.49a1.85,1.85,0,0,0-1.11.15A3.11,3.11,0,0,0,19.8,12.53Zm2.77,4.3c.19.14.69.59.42.81a5.59,5.59,0,0,1,.38.63C23.69,17.83,22.95,17,22.57,16.83ZM12,2.75c-.5-.16-1-.1-1.54-.3-.08.06-.05.14-.05.22A7.14,7.14,0,0,0,12,2.75ZM17.61,11c-.1,0-.27.22-.36.31C17.38,11.36,17.52,11.14,17.61,11ZM22,17.37c.29.24.79.68.58,1a3.41,3.41,0,0,0,.18.36c.08-.11.13,0,.21-.07A2.29,2.29,0,0,0,22,17.37Zm-3.53-4.59c-.11-.1-.24,0-.37.1A.52.52,0,0,0,18.49,12.78Zm.09.25c-.29-.11-.63.19-.94.2A1.51,1.51,0,0,0,18.59,13Zm-.74-1c-.15,0-.23.19-.35.26s.09.26.05.37C17.71,12.57,17.55,12.21,17.85,12ZM10.23,2.59a3,3,0,0,0-.91-.13A2,2,0,0,0,10.23,2.59Zm6.84,10.58a3.3,3.3,0,0,0-5.37-2.81,1.39,1.39,0,0,0-.64,1.38,5.11,5.11,0,0,0,2.56,1.79,3.87,3.87,0,0,0,2.54.13C16.49,13.39,16.76,13.39,17.07,13.17ZM8.85,2.5a1.92,1.92,0,0,0-1.28.05C8,2.61,8.44,2.41,8.85,2.5Zm8.4,11.22c-.11,0-.23,0-.33,0S17.22,13.87,17.25,13.71Zm-.33.29c-.23,0-.46,0-.69,0C16.36,14.05,16.74,14.16,16.92,14Zm-15.07.71c-.15-.64.54-.58,1-.66.8.18,1.59.07,2.39.29a9.65,9.65,0,0,1,2.08,1,27.94,27.94,0,0,0,2.84,1.13c.14,0,.14-.15.25-.14s.36.14.55.13a5.52,5.52,0,0,0,2,1c.79.28,1.62.4,2.5.62.34.09.69.22,1,.27a13.69,13.69,0,0,1,2.78.63c.33.13.54.45.91.54.48.43.79,1,1.11,1.3a2,2,0,0,0-.7-1.29,5.46,5.46,0,0,0-2.14-1.29c-.76-.26-1.57-.33-2.3-.54-1.62-.47-2.91-1.07-4.52-1.63-.75-.26-1.48-.62-2.26-.85-1.58-.45-2.91-1-4.56-1.38a5.64,5.64,0,0,0-2.35-.18c-.28.09-.5.35-.7.39C1.72,14.26,1.62,14.46,1.85,14.71Zm16.42,3.08c-.12-.15-.48-.14-.7-.16A3.84,3.84,0,0,0,18.27,17.79Zm-2.48-3.3c0-.16-.47,0-.5-.25a5.56,5.56,0,0,1-2.53-.59A6.81,6.81,0,0,0,15.79,14.49ZM12.08,9.71s0-.09-.06-.14a1.21,1.21,0,0,0-.16.21C11.92,9.87,12,9.63,12.08,9.71Zm-.32-.48c-.06.12.06.27,0,.38C11.93,9.61,11.95,9.37,11.76,9.23ZM19.5,19.68c-.17-.16-.34-.31-.53-.29a1.61,1.61,0,0,0,.41.42C19.45,19.77,19.4,19.71,19.5,19.68Zm-1.89-2.16a2.14,2.14,0,0,0-.8-.22A6.29,6.29,0,0,0,17.61,17.52ZM19.27,20l-.3-.41C18.92,19.69,19.09,20.07,19.27,20Zm-.61-.76c0,.05.11.25.12.22S18.7,19.22,18.66,19.22ZM11.55,9.79a.14.14,0,0,0-.06.23C11.59,10,11.61,9.88,11.55,9.79Zm2,5.07a18.52,18.52,0,0,0,2.17.73s0,0,.08,0C15,15.35,14.3,15,13.54,14.86Zm4.9,4.43c-.13.1,0,.09,0,.18s.12,0,.17,0,.27.49.36.73l.14-.11C18.84,19.92,18.72,19.37,18.44,19.29Zm-1.23-1.7c-.13-.15-.51-.18-.74-.26C16.6,17.53,17,17.52,17.21,17.59ZM15,14.52c-.6-.21-1.22-.29-1.82-.44A3.47,3.47,0,0,0,15,14.52Zm3.28,4.74a.34.34,0,0,0-.29.22C18.07,19.6,18.18,19.32,18.24,19.26Zm-.18-.18c-.41-.2-.53.46-.8.51.12.11.09.2.19.31,0-.07,0-.16,0-.24s.09-.07.12-.14.08.05.12.1a.24.24,0,0,0,.07-.33c.06,0,.1,0,.15.07A.47.47,0,0,1,18.05,19.08Zm-6.9-9.21c0,.07-.07.14,0,.23C11.24,10,11.19,9.95,11.16,9.87Zm7.2,9.67a.48.48,0,0,0,.19.49s-.06.16-.11.09c0,.09.14.21.19.31s.16-.08.25-.14C18.57,20.15,18.62,19.82,18.35,19.54Zm-7-9.33-.06-.09c0,.06-.09.11-.1.17S11.31,10.22,11.36,10.2Zm5.15,7c-3.24-1-6.45-2.16-9.66-3.35-1-.14-2-.45-3-.5a47,47,0,0,1,6,1.69c1.23.43,2.61,1.06,3.92,1.5.21.07.45.11.64.19a4.07,4.07,0,0,0,.6.32c.13,0,.27,0,.4,0C15.83,17.08,16.17,17.29,16.52,17.21Zm1.68,2.36s-.09,0-.14.06.08,0,.12.09S18.14,19.61,18.19,19.57ZM17.63,19c-.31-.07-.64.27-.77.53.15.07.09.18.19.31,0,0,.09,0,.14-.06a4.18,4.18,0,0,1,.26.89c.1.06.21,0,.32-.06a4,4,0,0,1-.63-1.2C17.34,19.5,17.48,19.15,17.63,19ZM1.26,7.41a10.51,10.51,0,0,1,2.17-.54A7.88,7.88,0,0,1,5.54,7a12,12,0,0,1,2.64,1c.11.07.17.21.34.33A3.81,3.81,0,0,1,10,9.78c.15-.1,0-.23.1-.35-.36-.33-.25-.74-.56-1.17A6.29,6.29,0,0,0,7.92,6.81a6.94,6.94,0,0,0-2.64-1c-1.06.09-2.17.47-3.25.67A1.74,1.74,0,0,0,1.26,7.41ZM17.83,19.56c-.1,0,0,.1-.12.14a6.3,6.3,0,0,0,.44.71C18.05,20.13,17.94,19.84,17.83,19.56Zm-.68-.66c0-.05-.06,0-.09-.07-.81.46-.62,1.06-.12,1.71.06-.24-.3-.56-.18-.72s.12.13.18.18a.57.57,0,0,0-.2-.44C16.89,19.34,16.8,19.09,17.15,18.9Zm-6.7-9c-.36.12-.09.61.06.81C10.58,10.5,10.44,10.21,10.45,9.94Zm7.24,10c.18.25,0,.82.4.65C17.9,20.33,17.85,20.13,17.68,19.9Zm-.9-1.09c-.36-.12-.62.33-.78.59a7.36,7.36,0,0,0,.55,1.4,5.59,5.59,0,0,0,.73-.05c-.1-.23-.18-.46-.29-.69.14.29.12,1-.29.4-.08,0,0,.1-.12.14,0-.28-.29-.58-.16-.83,0-.14-.11.06-.15,0A2.53,2.53,0,0,1,16.78,18.82Zm-4.31-5.27c.06,0-.27-.25-.38-.21A.82.82,0,0,0,12.46,13.55Zm-3-3.82c.18.06.17.27.25.4C9.9,10,9.61,9.61,9.47,9.73Zm-.05-.19A10.32,10.32,0,0,0,8.09,8.36c.13.26.63.53,1,.86C9.18,9.35,9.21,9.57,9.42,9.54Zm-5.17,5.9c.08,0,.06.15.19.13a1.2,1.2,0,0,0,0,.85c.18-.25.11-.67.33-.83A2.89,2.89,0,0,0,5,17.35a4.34,4.34,0,0,1-.11-1.23c.12.08.06.37.13.53.14-.15,0-.34.12-.5s.09.18.17.05a2.72,2.72,0,0,0,.11.64.43.43,0,0,1,.18-.36,1.28,1.28,0,0,1,.09.48c.14,0,.13-.22.17-.31.24.15,0,.45.23.73a1.37,1.37,0,0,0,.1-.35c.15,0,.06.28.17.41.06-.09.06-.18.11-.27.21.09,0,.32-.06.45s.19.37.18.54c.13-.16,0-.59.25-.82.08.44-.21.81,0,1.27.07-.27.08-.54.17-.81.07-.09.12,0,.19,0,.08.16.08.44.3.41a.59.59,0,0,0,0,.46c.17,0,0-.2.07-.27.38.16-.13.61.15.92.1-.07.16.08.26,0a13.36,13.36,0,0,1-.32-1.52c.23.13.16.63.33.93.06-.09,0-.38.2-.28.07-.1-.1-.24,0-.33.16.17.1.55.19.8a1.46,1.46,0,0,0,.16-.75c.15.18.12.55.25.81a1.66,1.66,0,0,0,.31-.86c.15.22,0,.62,0,.91.19,0,0-.47.3-.5a.5.5,0,0,1,0-.34c.19.2.12.59.14.85.18,0,0-.32.24-.41,0-.23-.17-.47,0-.67a7.65,7.65,0,0,0,.2.93c.11-.1,0-.23.08-.33s0,0,.08,0c.17.3-.2.53-.07.82.06,0,.13-.05.18,0,.26-.29-.14-.68,0-1,.13.09.08.37.18.55.06-.09,0-.18.12-.27s.07.23.21.34c.06-.07.07-.12.17-.08,0,.19-.14.36.12.59.09-.14,0-.38.19-.41,0-.12-.11-.25,0-.36.09.18.15.57.27.84.12-.09,0-.22,0-.34s.13,0,.18.05c0-.07-.12-.17,0-.23s.09.46.33.38a.94.94,0,0,0,.21.7c.09-.28,0-.59,0-.88.16.15.21.51.33.75.12-.11,0-.26.13-.37.22.19-.13.6.11.87a.37.37,0,0,0,.4.11c0-.14-.14,0-.2-.08,0-.41-.24-.85-.26-1.25.17.06.1.47.35.46a.76.76,0,0,0,.11.51c.11-.27-.07-.58-.11-.87.2.1.19.39.33.57,0-.07.11-.15.17-.08a1.17,1.17,0,0,0,.16.88.72.72,0,0,0,.48.1,2.88,2.88,0,0,1-.42-.68c-.07-.14-.2-.37-.11-.51.11.1.18.42.32.62.15-.12,0-.29.14-.42a2.77,2.77,0,0,1,.43.76c.15-.33,0-.71,0-1.07a2.41,2.41,0,0,1,.29.51,3.63,3.63,0,0,0,.42.87c.09,0,.16.06.26,0a1.38,1.38,0,0,1-.19-.44c-.12-.13,0,.13-.1.17-.22-.21,0-.57,0-.83.17.23.19.75.56,1.17.09-.09.15,0,.24,0a1.67,1.67,0,0,1-.39-1.25c.23.23.21.56.36,1,.31-.14.15.43.45.29a4.26,4.26,0,0,1-.44-1.25c-.08-.06-.08.11-.12.14-.05-.25.14-.46.3-.68,0-.15-.13.08-.18,0s.26-.24.31-.37c-.24-.13-.4.31-.57.33-.06-.14.09-.25.23-.36-.07,0-.13,0-.19-.13-.32.07-.45.47-.67.55,0-.22.25-.4.42-.59-.25-.18-.6.36-.87.34.07-.18.33-.28.42-.41-.41-.13-.6.28-.92.46,0-.22.31-.41.55-.59-.28,0-.61.24-.85.37,0-.24.3-.33.48-.45a.88.88,0,0,0-1.06.39c-.1-.25.25-.34.39-.51-.29-.21-.7.21-.92.46-.13-.24.29-.41.5-.6-.27-.26-.71.2-1,.36,0-.25.3-.36.51-.52-.26-.14-.68.21-.92.46-.1-.21.32-.52.51-.52-.15-.4-.72.15-.9.31-.07-.21.27-.36.47-.53-.26-.26-.64.26-.9.44-.06-.24.29-.43.53-.62-.29-.3-.72.17-.89.44-.15-.26.32-.44.46-.66-.28-.22-.61.3-.77.49-.08-.26.29-.46.44-.69-.29-.18-.53.34-.67.5-.08-.18,0-.34.23-.48-.25-.15-.58.23-.68.42-.22-.14.17-.36.33-.52-.23-.18-.52.17-.67.37-.17-.2.18-.32.28-.48-.13-.1-.27-.06-.4-.11a1.66,1.66,0,0,0-.57.56c-.15-.25.21-.44.43-.64-.24-.3-.78.07-.8.38-.27-.15.11-.41.34-.57-.28-.27-.63.17-.68.42-.21-.14.05-.44.32-.6L8,16.08c-.31.16-.34.36-.49.55-.12-.23.13-.41.32-.6-.09-.07-.2,0-.29-.15-.36.2-.37.45-.53.67-.1-.25.1-.45.28-.66-.29-.12-.44.32-.56.46-.13-.26.13-.46.41-.66a1.92,1.92,0,0,1-.24-.14c-.28.14-.6.36-.53.62-.45,0,.06-.53.38-.7-.42-.29-.72.45-.84.63-.11-.32.25-.57.46-.84-.36-.13-.79.4-.9.67-.09-.29.25-.66.58-.79-.16-.39-.9.23-.83.53-.26-.18.1-.61.42-.71-.11-.06-.24.07-.33,0-.26.18-.24.41-.45.61a.79.79,0,0,1,.41-.72c-.23-.27-.72.16-.73.41-.24-.1,0-.35.2-.46-.61-.07-.57.66-.57,1.06C4.31,15.83,4.12,15.54,4.25,15.44Zm8.49-1.29c0-.13-.16-.09-.21-.16C12.49,14.12,12.68,14.12,12.74,14.15ZM8.92,9.73a12,12,0,0,0,1.3,1.43C10.07,10.74,9.32,10.16,8.92,9.73ZM7.56,8.26A4.35,4.35,0,0,0,7.06,8C7.12,8,7.38,8.35,7.56,8.26ZM4,7.34c.93.19,2.05.6,3.06.83A6.81,6.81,0,0,0,4,7.34Zm2,.23c0-.11-.28-.17-.42-.14C5.72,7.52,5.86,7.5,6,7.57Zm-1.93-2c-.15-.09-.42,0-.65,0a1.62,1.62,0,0,0-.71.26C3.15,5.8,3.63,5.56,4.07,5.53Zm1.3,1.74a8.64,8.64,0,0,0-2.66,0c.46.06.94,0,1.48,0S4.93,7.45,5.37,7.28Zm9.41,13a.56.56,0,0,0,.07.58c.06,0,.13-.05.18,0C15,20.71,14.86,20.51,14.78,20.32ZM5.09,7.75a3.46,3.46,0,0,0-1.94-.17c.1,0,.2,0,.3.09C4,7.48,4.54,7.78,5.09,7.75ZM14.2,20.16c-.06.09-.06.18-.12.27.14.16.26.44.43.45A2.62,2.62,0,0,0,14.2,20.16Zm-.31,1a4.64,4.64,0,0,0,1.83,3.1c.06-.42-.74-.68-.77-1.09l.77.73c.15.15.32.37.52.33a11.73,11.73,0,0,1-1.65-2.93C14.38,21.17,14.13,21.27,13.9,21.2ZM3.93,7.4a2.67,2.67,0,0,0-1.41.11A10.52,10.52,0,0,1,3.93,7.4Zm9.42,12.94c-.12.11,0,.45.19.31A.57.57,0,0,0,13.35,20.34Zm1.17,4.1c.1-.11.17,0,.27-.07a8.65,8.65,0,0,1-.68-1c.27.18.68.8,1,1.07.14,0,.39,0,.46-.12a5.33,5.33,0,0,1-1.81-3.08,4.48,4.48,0,0,0-.87-.25c-.13.1.07.65.15.93A7.5,7.5,0,0,0,14.52,24.44Zm-2.15-4.5c-.11.1.13.26-.05.35.07.15.17,0,.24.14A1.25,1.25,0,0,0,12.37,19.95ZM2,6.22c-.1-.11-.26.16-.39.2C1.53,6.65,1.85,6.22,2,6.22Zm9.69,13.06a4.62,4.62,0,0,1-.12.63c.17.23.36.22.54.36,0-.11-.12-.26-.15-.38-.05.05,0,.12,0,.17C11.67,19.88,11.94,19.55,11.69,19.28Zm.17,1.32c-.16.83.58,2.45,1.22,3.38.14.21.31.46.59.37-.17-.4-.55-.64-.51-.93.29.34.71,1.12,1.14,1A7.46,7.46,0,0,1,12.69,21C12.43,20.74,12.13,20.79,11.87,20.6Zm-.59-1.33c-.15,0-.19.65.18.54A1.74,1.74,0,0,1,11.28,19.27ZM2.55,7.67c-.11,0-.25,0-.38.1C2.28,7.8,2.42,7.71,2.55,7.67ZM10.6,19c-.13.14-.09.3,0,.47A.5.5,0,0,0,10.6,19Zm-2.25.87c-.22.92.49,2.46,1.24,3.41a1.44,1.44,0,0,0,.63.48c0-.44-.78-1-.85-1.44a5.31,5.31,0,0,1,.66.82c.22.29.39.71.67.71a6.63,6.63,0,0,1-1.43-3.9,8.15,8.15,0,0,0,1.45,3.75c.18.21.34.39.6.32a9.5,9.5,0,0,1-.88-1.6c.48.52.8,1.68,1.53,1.8a7.44,7.44,0,0,1-1.53-4.28,13.06,13.06,0,0,0,.85,2.95c.31.57.73,1.42,1.22,1.39-.14-.45-.62-1-.73-1.4.35.37.64,1,1,1.49.1,0,.32,0,.34,0a7.32,7.32,0,0,1-1.4-3.75A6.85,6.85,0,0,0,10.66,20c-.15-.08-.26-.25-.41-.24-.38,0-1,.17-1.42.16C8.66,19.87,8.55,19.76,8.35,19.83ZM2.57,8.6a1.46,1.46,0,0,0-1,.22C1.89,8.77,2.24,8.64,2.57,8.6ZM9.82,18.78c-.13.1-.1.45-.25.63.11.08.24,0,.37,0C9.76,19.23,9.92,19,9.82,18.78Zm-.39,0c-.22,0,0,.49-.28.53.08.13.19.09.3,0A1.53,1.53,0,0,1,9.43,18.8ZM9,18.94a.34.34,0,0,0-.12.5.1.1,0,0,1,.13,0C9.05,19.28,9,19.11,9,18.94Zm-.39-.16a.47.47,0,0,0-.1.66C8.79,19.35,8.55,19,8.61,18.78Zm-.41-.24a.8.8,0,0,0-.09.84.31.31,0,0,1,.2,0A4.39,4.39,0,0,1,8.2,18.55Zm-4-5.31a4.53,4.53,0,0,0-2.34.08A9.17,9.17,0,0,1,4.23,13.24ZM7.12,18c-.13.15,0,.35,0,.51C7.33,18.43,7.2,18.12,7.12,18Zm.18.54a.6.6,0,0,0,.17.78A3.3,3.3,0,0,0,7.3,18.49ZM2.12,11.57c-.16,0-.44,0-.54.18A1.75,1.75,0,0,0,2.12,11.57Zm5.5,8.13a5.12,5.12,0,0,0,1.06,3.41l.34.15a10.13,10.13,0,0,1-.7-1.47c.4.49.66,1.5,1.26,1.68a6.46,6.46,0,0,1-1.45-3.62C8,19.8,7.81,19.68,7.62,19.7ZM4.29,14.78c-.14,0-.6.37-.33.52A.82.82,0,0,1,4.29,14.78ZM7,18.5c-.05.11,0,.24-.1.35.07.14.16.18.25.27A5.54,5.54,0,0,1,7,18.5Zm-.78-1a.26.26,0,0,0,0,.33A.29.29,0,0,0,6.21,17.46ZM4.13,14.67c-.88,0-.52,1.11-.56,1.55C3.87,15.77,3.4,15.13,4.13,14.67ZM.91,10.38c-.11,0-.15.18-.21.26C.79,10.66.85,10.45.91,10.38Zm4.92,6.68c-.18.23.1.53.14.8A1.39,1.39,0,0,0,5.83,17.07ZM1,10.6c-.33.23-.27.74-.46,1.07,0,.09.08.07.14.12a4.77,4.77,0,0,0,.06,2.62,6.17,6.17,0,0,1,.43-3.35C1.07,10.91,1,10.74,1,10.6Zm5.37,7.29c-.17.18.1.65.33,1C6.64,18.55,6.39,18.21,6.35,17.89Zm-.81-1c-.06.14,0,.29-.09.43C5.66,17.28,5.62,17,5.55,16.87Zm-.32-.31c-.33.26-.13.9.22,1.2A7,7,0,0,1,5.23,16.56Zm-4-5.28s-.07,0-.11,0a6.7,6.7,0,0,0,.09,4.46,3,3,0,0,0,0-.93A14.47,14.47,0,0,1,1.36,12a1.71,1.71,0,0,1-.12-.59S1.21,11.31,1.22,11.28Zm5.56,8.09a5.72,5.72,0,0,0,.16,1.42,5.12,5.12,0,0,0,.41,1.46c.07.11.22.39.42.32a3,3,0,0,1-.35-1.19c.24.44.33,1.46,1,1.6a5.7,5.7,0,0,1-1-3.25C7.24,19.59,7,19.51,6.79,19.38Zm-1.08-2c-.25.11-.08.64.17.82C6,18,5.72,17.65,5.7,17.38ZM3.53,14.67c-.42.11-.2.52-.34.75C3.38,15.28,3.32,14.89,3.53,14.67ZM4,15.4c-.22.38-.41.83.06,1.22C4,16.23,4.06,15.72,4,15.4Zm-.63-.84c-.47,0-.45.49-.55.77.09,0,.17.13.26.17C3.06,15.2,2.9,14.86,3.37,14.57ZM.62,11c-.05-.08-.1.25-.15.34C.6,11.36.56,11.11.62,11Zm1.7,2.39a1.28,1.28,0,0,0-.51.16A1,1,0,0,0,2.32,13.41Zm2.29,3.12c-.15,0-.13.43,0,.52C4.72,16.89,4.58,16.7,4.61,16.53Zm-.35-.41c-.2.07,0,.54.08.66C4.37,16.56,4.24,16.33,4.26,16.12Zm1.56,2.45A3.88,3.88,0,0,0,7,22.14c0-.44-.46-.94-.45-1.38a9.9,9.9,0,0,1,.69,1.52,23.1,23.1,0,0,1-.61-3C6.25,19.16,6.24,18.54,5.82,18.57Zm-2.4-3.14c-.1,0-.08.23-.22.31a2,2,0,0,1,.18.36C3.5,15.89,3.33,15.63,3.42,15.43Zm2.24,5.11c.21.28.35,1,.73,1.22a5,5,0,0,1-.76-3.13c-.24-.21-.29-.56-.54-.73a2.2,2.2,0,0,0,.11,1.59,8.05,8.05,0,0,0,.73,1.89C5.88,21.1,5.56,20.79,5.67,20.53Zm-3-5.83c-.17,0-.32.25-.16.39C2.64,15,2.61,14.83,2.7,14.7Zm1.44,2.41a4.93,4.93,0,0,0,.78,3.4c0-.37-.32-.79-.28-1.15.36.51.3,1.36,1,1.85-.26-1.14-1-2.35-.7-3.41A5.16,5.16,0,0,0,4.14,17.11Zm-.58-.47a4.18,4.18,0,0,0,.31,2.48c.05-.05-.06-.13.06-.17a5,5,0,0,0,.53,1.13,6.22,6.22,0,0,1-.45-3C3.87,16.83,3.7,16.87,3.56,16.64ZM1.32,13.52A7.32,7.32,0,0,0,1.73,17s0,0,0,0a6.22,6.22,0,0,1-.16-1.91C1.25,14.51,1.65,14.07,1.32,13.52ZM2.77,15.7c-.27.07-.23.39-.22.61a17.06,17.06,0,0,0,.53,2.64,2.75,2.75,0,0,0,.35.28A4.71,4.71,0,0,1,3.16,18c.24.42.28,1.16.7,1.6a6.9,6.9,0,0,1-.47-3C3.15,16.23,3,16,2.77,15.7Zm-.44-.35c-.3.54-.08,1.14,0,1.84a2.35,2.35,0,0,0,.53,1.55c-.12-.78-.4-1.56-.44-2.34,0-.25.09-.48.08-.74C2.51,15.55,2.54,15.48,2.32,15.35Zm-.59-.19a7.52,7.52,0,0,0,.56,2.92,11.66,11.66,0,0,1-.16-2.87A.46.46,0,0,0,1.73,15.16Z"/><path class="cls-1" d="M17.29,4.59c-.41-.18-.87-.32-1.3-.47a2.47,2.47,0,0,0-1.33-.32c.43.15.88.24,1.31.42A3.51,3.51,0,0,0,17.29,4.59Z"/><path class="cls-1" d="M9,10.25c-.4-.44-.85-.44-1.28-.62.21.18.63.22.95.42C8.79,10.12,8.82,10.33,9,10.25Z"/><path class="cls-1" d="M8.77,10.61c.07-.19-.22-.29-.36-.37-.48-.26-1.12-.46-1.61-.7A17.39,17.39,0,0,1,8.77,10.61Z"/><path class="cls-1" d="M9.36,12.43A6.35,6.35,0,0,0,7.12,11.3,18.29,18.29,0,0,1,9.36,12.43Z"/><path class="cls-1" d="M18.75,16.8c-.45-.13-.89-.21-1.36-.3s-.91-.29-1.35-.35c-.12,0-.26,0-.39,0a23.53,23.53,0,0,1-2.93-1.07c-.13-.1-.14-.19-.24-.27-1.24-.46-2.54-.92-3.76-1.34a4.49,4.49,0,0,1-1.23-.43,4.47,4.47,0,0,1,1.42.38c1.4.54,2.83,1,4.23,1.54a27.91,27.91,0,0,0,5.73,1.73C18.84,16.78,18.81,16.8,18.75,16.8Zm-3.23-.75c-.12-.16-.49-.15-.71-.28C14.93,15.93,15.3,15.94,15.52,16.05Zm-2.4-1c.1.18.44.18.63.3C13.65,15.26,13.31,15.2,13.12,15.09Z"/><path class="cls-2" d="M19.55,20.91c-3,1.65-6.35.65-9.32-.48a.13.13,0,0,1,.07-.25c1.48.35,2.84,1,4.35,1.3a10,10,0,0,0,4.9-.59s0,0,0,0Z"/><path class="cls-2" d="M9.5,20.25a5.66,5.66,0,0,1-3.69-1,13.78,13.78,0,0,1-1.45-1.16,9.25,9.25,0,0,1-1.67-1.55c0-.07,0-.12.1-.1a5.58,5.58,0,0,1,1.36,1.1c.5.45,1,.89,1.53,1.29A7.55,7.55,0,0,0,9.5,20.2a0,0,0,0,1,0,.05Z"/><path class="cls-2" d="M17.35,22.09a8.54,8.54,0,0,1-2.76.09,5.9,5.9,0,0,1-2.67-.8c-.06,0,0-.14,0-.12a15.52,15.52,0,0,0,2.43.76,13.92,13.92,0,0,0,3,.06s0,0,0,0Z"/></svg>