<svg id="Layer_1" data-name="Layer 1" xmlns="http://www.w3.org/2000/svg" viewBox="0 0 8.78 7.53"><defs><style>.cls-1{fill:#302929;}</style></defs><title>farfalle</title><path class="cls-1" d="M4.27,3.86c-.64-.25-1.12.41-1.49.81A2.6,2.6,0,0,1,.2,5.19a.09.09,0,0,0-.08.16,2.71,2.71,0,0,0,2.12-.1,2.28,2.28,0,0,0,.88-.65c.13-.14.25-.28.39-.41a1.23,1.23,0,0,1,.77-.33h0Z"/><path class="cls-1" d="M4.42,3.23a2.68,2.68,0,0,1-.57-1.14,2.6,2.6,0,0,0-.46-1A3,3,0,0,0,1.11,0C1,0,1,.22,1.12.21A2.63,2.63,0,0,1,3.57,1.64c.19.46.24,1.45.85,1.59Z"/><path class="cls-1" d="M.22,5.2C0,5,.13,4.82.38,4.74a.13.13,0,0,0,.1-.13A.28.28,0,0,0,.33,4.4l-.08,0C.09,4.27.17,4,.5,4c.07,0,0,0,0-.05s0-.07-.06-.07-.34,0-.4.21,0,.31.21.39.23.17,0,.23-.12,0-.18,0A.21.21,0,0,0,0,4.88C0,5,0,5.27.13,5.35a.29.29,0,0,0,0-.09Z"/><path class="cls-1" d="M.52,4c.11,0,.13-.12.08-.23a1.06,1.06,0,0,0-.19-.22c-.17-.17,0-.21.15-.24S.75,3.15.72,3,.61,2.86.55,2.81c-.36-.35.12-.33.27-.38a.05.05,0,0,0,0-.1c-.23,0-.45,0-.5.26a.3.3,0,0,0,.07.21c.06.09.4.35.11.39s-.32.05-.32.25.35.43.31.45S.44,4,.52,4Z"/><path class="cls-1" d="M.83,2.42C1,2.33.8,2.14.71,2.05s.11-.21.21-.3A.22.22,0,0,0,1,1.57a.33.33,0,0,0-.13-.24c-.29-.26.26-.3.34-.37C1.46.76.76.29,1.19.21,1.25.2,1.12,0,1.06,0,.82.12.89.37,1,.59s.18.23,0,.28S.71,1,.67,1.09a.29.29,0,0,0,0,.3c.27.26,0,.25-.15.37s.25.41.18.61c0,0,0,0,0,0Z"/><path class="cls-1" d="M6.48,7.5A1.81,1.81,0,0,0,6,7.28a1.26,1.26,0,0,1-.58-.57,7.57,7.57,0,0,1-.68-1.45c-.14-.39-.09-.8-.21-1.19s-.28-.28-.5-.23a0,0,0,0,0,0,.05c.47.07.36.6.43.94A4.71,4.71,0,0,0,5,6.11,2.29,2.29,0,0,0,6.47,7.52a0,0,0,0,0,0,0Z"/><path class="cls-1" d="M4.29,3.17c.32.4,1-.14,1.25-.34a3.44,3.44,0,0,1,2.79-.77.07.07,0,0,0,0-.14,3.4,3.4,0,0,0-2.44.42,5.35,5.35,0,0,0-.69.52,1.16,1.16,0,0,1-.93.29s0,0,0,0Z"/><path class="cls-1" d="M6.45,7.52c.14,0,.45,0,.42-.24s-.2-.42,0-.45.26.05.41,0,.11-.32,0-.44,0-.28.16-.26h.19A.18.18,0,0,0,7.8,6a0,0,0,0,0-.08,0c-.15.16-.44,0-.57.19a.21.21,0,0,0,0,.17c0,.12.34.32.1.43s-.42-.1-.57.13a.25.25,0,0,0,0,.2s.06.12.08.16-.14.24-.27.29,0,0,0,0Z"/><path class="cls-1" d="M7.74,6a.18.18,0,0,0,0-.22c-.08-.13-.2-.32,0-.35a.85.85,0,0,0,.21,0c.41-.16-.21-.67.16-.78.14,0,.52-.23.35-.44s-.39-.34,0-.46a.45.45,0,0,0,.26-.2c.14-.25-.66-.32-.08-.62.14-.07.27-.24.13-.38a.58.58,0,0,0-.23-.1c-.17-.06.15-.14.21-.2s-.28-.27-.34-.27-.1.14,0,.14.29.08.24.1l-.16,0a.18.18,0,0,0-.1.14c0,.14.25.18.32.21s-.23.3-.27.34a.23.23,0,0,0-.08.26.27.27,0,0,0,.13.16c.06,0,.38.2,0,.31a.61.61,0,0,0-.18.07.25.25,0,0,0-.05.39c.09.09.26.19,0,.37A1.3,1.3,0,0,1,8,4.53a.22.22,0,0,0-.13.17c0,.11.06.23.11.31.17.29-.29.26-.4.33-.26.17.19.48.16.63a0,0,0,0,0,0,0Z"/><path class="cls-1" d="M4,3.69c-.43-.14-1,.44-1.32.7A2.5,2.5,0,0,1,1.72,5a2.39,2.39,0,0,1-1.32,0,.07.07,0,0,0,0,.13A2.65,2.65,0,0,0,2.13,5C2.8,4.59,3.17,3.8,4,3.69Z"/><path class="cls-1" d="M4,3.15c-.65-.51-.36-1.61-1.08-2,0,0-.06,0,0,0a2.11,2.11,0,0,1,.38.54c.09.2.15.42.21.63A1.51,1.51,0,0,0,4,3.15Z"/><path class="cls-1" d="M2.83,1A1.85,1.85,0,0,0,1.55.37s0,.06,0,.08a5.88,5.88,0,0,1,.68.22A6,6,0,0,1,2.83,1Z"/><path class="cls-1" d="M4.25,3.33c.45.4,1-.06,1.42-.31A5.67,5.67,0,0,1,6.8,2.48c.35-.13.73-.17,1.08-.3a0,0,0,0,0,0,0,3.77,3.77,0,0,0-1.6.41c-.65.32-1.25,1-2,.77Z"/><path class="cls-1" d="M6.38,7.26a2.37,2.37,0,0,0-.47-.39,2.32,2.32,0,0,1-.5-.65,4.39,4.39,0,0,1-.49-1.37c-.06-.27-.07-.54-.12-.81s-.38-.39-.67-.41c0,0,0,0,0,0A1.1,1.1,0,0,1,4.6,4a.89.89,0,0,1,.1.34c.07.33.12.67.21,1a3.86,3.86,0,0,0,.52,1.15,3.18,3.18,0,0,0,.94.81Z"/><path class="cls-1" d="M3.89,3.54c-.94,0-1.55.94-2.41,1.23a0,0,0,0,0,0,0,3.15,3.15,0,0,0,1-.49,2.85,2.85,0,0,1,1.38-.76Z"/><path class="cls-1" d="M4.14,3.51a2.37,2.37,0,0,0-1.23.15c-.39.17-.72.47-1.11.65,0,0,0,.05,0,0a3.52,3.52,0,0,0,.93-.53,2,2,0,0,1,.71-.28c.22,0,.45,0,.67,0Z"/><path class="cls-1" d="M3.88,3.27c-.33-.65-.8-1.69-1.61-1.83a0,0,0,0,0,0,.08,3.14,3.14,0,0,1,1,.85c.22.29.38.62.62.89Z"/><path class="cls-1" d="M4,3.41c-.42-.15-.66-.56-1-.84a1.69,1.69,0,0,0-1-.45s0,.06,0,.08a3.19,3.19,0,0,1,1.29.71c.21.21.42.51.75.5Z"/><path class="cls-1" d="M3.32,3.19A1.23,1.23,0,0,0,2.92,3a2,2,0,0,0-.49-.14s0,0,0,.06a1.8,1.8,0,0,0,.42.15,1.82,1.82,0,0,0,.49.12Z"/><path class="cls-1" d="M3.31,3.39a14.51,14.51,0,0,1-2.48.82,0,0,0,0,0,0,.06,7.57,7.57,0,0,0,2.48-.88Z"/><path class="cls-1" d="M5,3.59c.47,0,.89-.43,1.3-.6a6.84,6.84,0,0,1,1.82-.36.07.07,0,0,0,0-.14,4.48,4.48,0,0,0-1.62.3c-.53.2-1,.57-1.5.78,0,0,0,0,0,0Z"/><path class="cls-1" d="M5.89,6.25a3.49,3.49,0,0,1-.69-1.61,1.2,1.2,0,0,0-.46-.94s-.08,0,0,.07A2,2,0,0,1,5.2,5a3.42,3.42,0,0,0,.66,1.29s0,0,0,0Z"/><path class="cls-1" d="M6.73,6.12a6.38,6.38,0,0,1-.65-.5,2.42,2.42,0,0,1-.54-.86,1.87,1.87,0,0,0-.75-1.1c-.07,0-.15.07-.08.12.49.35.61.88.91,1.37a2.11,2.11,0,0,0,1.11,1Z"/><path class="cls-1" d="M5.58,3.61a2.1,2.1,0,0,0,.62-.23A3.81,3.81,0,0,1,7.3,3a0,0,0,0,0,0-.07,3.6,3.6,0,0,0-1.72.67Z"/><path class="cls-1" d="M5.92,4.41a1.51,1.51,0,0,0-.3-.34,1.14,1.14,0,0,0-.4-.26,0,0,0,0,0,0,0c.12.09.26.16.38.25s.22.21.34.3Z"/><path class="cls-1" d="M.52,4.86c.2-.09.06-.36,0-.46s0,0,0,0,.06.12.09.19a.37.37,0,0,1,0,.25Z"/><path class="cls-1" d="M1,1.91a.39.39,0,0,0,.16-.52,0,0,0,1,0,0,0c.11.18,0,.34-.12.49Z"/><path class="cls-1" d="M7.81,5.09a.52.52,0,0,0,0-.2.45.45,0,0,1,0-.3s0-.06-.06,0,0,.42.12.54h0Z"/><path class="cls-1" d="M8.11,3.11a.42.42,0,0,1,.13-.23,1,1,0,0,1,.2-.14,0,0,0,0,0,0,0,.42.42,0,0,0-.23.15.45.45,0,0,0-.08.26Z"/><path class="cls-1" d="M6.53,7.1a.31.31,0,0,1,0-.26c0-.06.09-.11.12-.17a0,0,0,0,0,0,0,.33.33,0,0,0-.07.48Z"/><path class="cls-1" d="M7.59,5a3.48,3.48,0,0,1,0-.54,0,0,0,0,0-.07,0c-.11.17,0,.41.08.57Z"/><path class="cls-1" d="M7.42,4.85a.94.94,0,0,1,0-.26c0-.08,0-.16,0-.24a0,0,0,0,0-.09,0,.55.55,0,0,0,0,.55s.07,0,.06,0Z"/><path class="cls-1" d="M7.19,4.74a.69.69,0,0,1,0-.43s0-.06-.06,0a.52.52,0,0,0,0,.47s0,0,0,0Z"/><path class="cls-1" d="M8,4a1,1,0,0,1,0-.22.56.56,0,0,1,.13-.2s0,0,0,0A.37.37,0,0,0,8,4Z"/><path class="cls-1" d="M7.81,3.91a.44.44,0,0,1,.1-.21A1.17,1.17,0,0,0,8,3.54a0,0,0,0,0,0,0,.51.51,0,0,0-.21.41Z"/><path class="cls-1" d="M6.35,6.77a1.6,1.6,0,0,1,.22-.28s0-.07,0,0a.47.47,0,0,0-.19.32Z"/><path class="cls-1" d="M6.28,6.62a.61.61,0,0,0,.13-.19,0,0,0,0,0-.05,0,.35.35,0,0,0-.1.22,0,0,0,0,0,0,0Z"/><path class="cls-1" d="M6.95,4.52s0-.06,0-.1a.24.24,0,0,0,0-.1,0,0,0,0,0-.06,0,.16.16,0,0,0,0,.11.75.75,0,0,0,0,.1Z"/><path class="cls-1" d="M3.07,1.56a.67.67,0,0,0,0-.11s0-.09,0-.14,0,0,0,0a.36.36,0,0,0,0,.12.69.69,0,0,0,0,.08.56.56,0,0,1,0,.06Z"/><path class="cls-1" d="M2.89,1.52a.91.91,0,0,0,.05-.19.39.39,0,0,0,0-.21,0,0,0,0,0-.09,0,.48.48,0,0,0,0,.19.57.57,0,0,0,0,.21,0,0,0,0,0,.07,0Z"/><path class="cls-1" d="M2.67,1.39a1.89,1.89,0,0,0,0-.48,0,0,0,0,0,0,0,1.76,1.76,0,0,0,0,.48s0,0,0,0Z"/><path class="cls-1" d="M2.48,1.19A1,1,0,0,0,2.42.66c0-.07-.13,0-.12.06a1.8,1.8,0,0,1,0,.48c0,.09.14.09.14,0Z"/><path class="cls-1" d="M2.14,1.16a2,2,0,0,0,0-.62c0-.07-.13,0-.11,0a4.72,4.72,0,0,1,.08.59,0,0,0,0,0,0,0Z"/><path class="cls-1" d="M1.84,1.16a1.43,1.43,0,0,0,0-.41A.5.5,0,0,0,1.78.43s-.08,0-.08,0a3.41,3.41,0,0,0,.05.34,3.39,3.39,0,0,0,0,.36s0,0,.06,0Z"/><path class="cls-1" d="M1.59,1a1.11,1.11,0,0,0,0-.71c0-.05-.11,0-.11,0s0,.22,0,.33A1.84,1.84,0,0,0,1.54,1a0,0,0,0,0,.05,0Z"/><path class="cls-1" d="M1.35,1A.62.62,0,0,0,1.25.49a0,0,0,0,0-.08,0c.06.17.13.33.17.5h0Z"/><path class="cls-1" d="M4.28,4.24A3.22,3.22,0,0,0,5,6.71s.12,0,.08-.05a3.78,3.78,0,0,1-.84-2.42Z"/><path class="cls-1" d="M4.2,2.62A3.22,3.22,0,0,0,3.08.28S3,.3,3,.35A3.76,3.76,0,0,1,4.19,2.62Z"/></svg>