<svg id="Layer_1" data-name="Layer 1" xmlns="http://www.w3.org/2000/svg" viewBox="0 0 57.01 36.87"><defs><style>.cls-1,.cls-2{fill:#eb0029;}.cls-1{fill-rule:evenodd;}</style></defs><title>hot_dog</title><path class="cls-1" d="M56.13,30.23a1.1,1.1,0,0,0-.2.73C56.13,30.79,56.11,30.5,56.13,30.23Z"/><path class="cls-1" d="M55.67,28.88a4.28,4.28,0,0,0-1.12-1.93C54.83,27.46,55.33,28.21,55.67,28.88Z"/><path class="cls-1" d="M56.18,31.36c-.3,0-.16.3-.2.47a.86.86,0,0,1-1,.59c0-.19.15,0,.23-.15-.32-.25-.46.25-.71.32.28.08-.13.22-.24.32.26.24.36-.19.61-.3s.42,0,.61-.08A1.15,1.15,0,0,0,56.18,31.36Z"/><path class="cls-1" d="M55.85,31.28c-.1.37-.51.56-.56,1C55.49,31.93,55.93,31.78,55.85,31.28Z"/><path class="cls-1" d="M54.75,26.69a6,6,0,0,0-1.11-1.47A5.2,5.2,0,0,0,54.75,26.69Z"/><path class="cls-1" d="M53.48,25c-.52-.34-.89-.93-1.47-1.18A4.39,4.39,0,0,0,53.48,25Z"/><path class="cls-1" d="M54.73,31.85c0-.11-.07-.12-.1-.19-.38.32-1,0-1.45,0A2.2,2.2,0,0,0,54.73,31.85Z"/><path class="cls-1" d="M54.52,30.91a9,9,0,0,1-2.16-.55C53,30.67,53.82,31.22,54.52,30.91Z"/><path class="cls-1" d="M54.26,32.74c0-.08-.07-.08-.09-.14-.69.18-1-.3-1.5-.38A1.92,1.92,0,0,0,54.26,32.74Z"/><path class="cls-1" d="M51.84,23.55c-.06-.18-.33-.6-.62-.64A2.84,2.84,0,0,0,51.84,23.55Z"/><path class="cls-1" d="M53.12,30c0-.08-.07-.08-.08-.14-.39.18-.55,0-.8-.07A.68.68,0,0,0,53.12,30Z"/><path class="cls-1" d="M53.42,32.94a17.07,17.07,0,0,1-2.06-1c-.29-.23-.48-.62-.89-.68A5.73,5.73,0,0,0,53.42,32.94Z"/><path class="cls-1" d="M50.83,29.82c.18.69,1,.92,1.5,1.33C52.08,30.57,51.19,30.45,50.83,29.82Z"/><path class="cls-1" d="M52.45,32.11c0-.17-.33-.37-.56-.39C52,32,52.27,32,52.45,32.11Z"/><path class="cls-1" d="M50.73,26.2a3.59,3.59,0,0,0-.38-.75C50.36,25.62,50.45,26.24,50.73,26.2Z"/><path class="cls-1" d="M50.55,25.61a4.33,4.33,0,0,0-1.32-2.14C49.51,24.15,50.23,24.75,50.55,25.61Z"/><path class="cls-1" d="M51.68,31.51l-.36-.44C51.17,31.18,51.49,31.52,51.68,31.51Z"/><path class="cls-1" d="M51.13,30.9c-.29-.16-.41-.61-.74-.72A1.2,1.2,0,0,0,51.13,30.9Z"/><path class="cls-1" d="M50,29.13a4.46,4.46,0,0,0-1.87-1.55A16.37,16.37,0,0,1,50,29.13Z"/><path class="cls-1" d="M50.11,29.88a11.46,11.46,0,0,0-2-1.95A12.86,12.86,0,0,0,50.11,29.88Z"/><path class="cls-1" d="M49.35,30.21a19.21,19.21,0,0,0-1.49-1.48A6.37,6.37,0,0,0,49.35,30.21Z"/><path class="cls-1" d="M45.4,15a5.31,5.31,0,0,1,.67,1.57C46.15,16.06,45.87,15,45.4,15Z"/><path class="cls-1" d="M45,15.16a9.67,9.67,0,0,0,.59,1.22C45.56,15.93,45.35,15.26,45,15.16Z"/><path class="cls-1" d="M49.61,34.74c0-.06-.1-.06-.13-.13-2.16.79-4.07.29-5.61.08A9.36,9.36,0,0,0,49.61,34.74Z"/><path class="cls-1" d="M47.28,25.47c-.25-.18-.76.12-.93.27C46.5,25.82,47.13,25.57,47.28,25.47Z"/><path class="cls-1" d="M45,16.26c.07-.3-.14-.71-.42-.69A6.55,6.55,0,0,0,45,16.26Z"/><path class="cls-1" d="M47.21,30.18c-.22-.27-.33-.69-.73-.67.15.44.56.46.72.88.44-.1.59.68,1,.87-.08-.41-.57-.75-.79-1.17C47.29,30.09,47.27,30.15,47.21,30.18Z"/><path class="cls-1" d="M46.89,26l0-.2c-.09.18-.5.16-.54.38A1.6,1.6,0,0,0,46.89,26Z"/><path class="cls-1" d="M46.56,26.42c-.06-.19-.49,0-.42.21A.77.77,0,0,0,46.56,26.42Z"/><path class="cls-1" d="M45.66,22.51c0-.21-.32,0-.47,0C45.31,22.67,45.49,22.59,45.66,22.51Z"/><path class="cls-1" d="M47.59,33.9c0-.08-.07-.08-.08-.14a22.59,22.59,0,0,1-5.57-.66C43.5,33.87,45.65,33.72,47.59,33.9Z"/><path class="cls-1" d="M44.22,22.58c-.18-.21-.63,0-1,.07C43.46,22.8,43.93,22.55,44.22,22.58Z"/><path class="cls-1" d="M46.36,32.4c-.47-.39-1.28-.25-1.91-.39A18.17,18.17,0,0,0,46.36,32.4Z"/><path class="cls-1" d="M45.75,31.56c-.82-.31-1.77-.43-2.61-.71.22.25.71.3,1.14.42s.9.2,1.27.33Z"/><path class="cls-1" d="M43,20.88a1.67,1.67,0,0,0-.93-.68C42.37,20.44,42.61,20.77,43,20.88Z"/><path class="cls-1" d="M45.11,30.82c-.88-.22-1.69-.56-2.57-.77A7.35,7.35,0,0,0,45.11,30.82Z"/><path class="cls-1" d="M42.91,22.77c-.48-.23-1.21.06-1.87,0A4.55,4.55,0,0,0,42.91,22.77Z"/><path class="cls-1" d="M44.19,29.52a6.91,6.91,0,0,0-1.79-.74A5.13,5.13,0,0,0,44.19,29.52Z"/><path class="cls-1" d="M43.7,29c-.39-.59-1.14-.58-1.67-.93C42.34,28.45,43.22,28.57,43.7,29Z"/><path class="cls-1" d="M38.7,9.14c-.51.1-.76.73-1.11,1.09A7.75,7.75,0,0,0,38.7,9.14Z"/><path class="cls-1" d="M42.83,27.9c-.19-.37-.77-.4-1.12-.32C42.09,27.69,42.49,27.75,42.83,27.9Z"/><path class="cls-1" d="M38.26,8.77c-.28-.09-.56.51-.77.75C37.77,9.46,38,9,38.26,8.77Z"/><path class="cls-1" d="M44,34.26c-.34-.11-.7-.19-1.05-.28A1.19,1.19,0,0,0,44,34.26Z"/><path class="cls-1" d="M37.77,8.73c-.31-.16-.69.31-.69.63A5.79,5.79,0,0,1,37.77,8.73Z"/><path class="cls-1" d="M38.9,15.92a15,15,0,0,0-2.74-1.51C36.93,15.13,38,15.33,38.9,15.92Z"/><path class="cls-1" d="M37.19,8.44a1.27,1.27,0,0,0-.61.76A1.55,1.55,0,0,0,37.19,8.44Z"/><path class="cls-1" d="M36.72,8.44c-.37-.2-.48.45-.69.63C36.34,9.08,36.48,8.62,36.72,8.44Z"/><path class="cls-1" d="M39.11,20c0-.2-.57-.21-.5.06C38.81,20,38.91,20.11,39.11,20Z"/><path class="cls-1" d="M40.61,27.31a2.46,2.46,0,0,0-1.26-.7C39.74,26.9,40.2,27.06,40.61,27.31Z"/><path class="cls-1" d="M38.87,21.3c-.13,0,0,.59.13.55A.69.69,0,0,0,38.87,21.3Z"/><path class="cls-1" d="M37.91,17.76c-.19-.29-.68-.09-1.06-.07A2.13,2.13,0,0,0,37.91,17.76Z"/><path class="cls-1" d="M35.58,8.7A4.51,4.51,0,0,0,35,10.57a9.81,9.81,0,0,0-.34,2,7.51,7.51,0,0,0,.48-1.78,6,6,0,0,1,.51-1.89Z"/><path class="cls-1" d="M40.86,33.87c.08-.06,0-.1,0-.15-.87-.25-1.72-.32-2.54-.62a4.79,4.79,0,0,0-1.7-.6A21.49,21.49,0,0,0,40.86,33.87Z"/><path class="cls-1" d="M39.92,30.65c-.19-.31-.61-.24-1-.3A4.54,4.54,0,0,0,39.92,30.65Z"/><path class="cls-1" d="M39,30.91c.26.15.63.12.86.33C39.92,30.79,39.32,30.92,39,30.91Z"/><path class="cls-1" d="M37.15,20.13A8.69,8.69,0,0,0,35.07,19c.13.23.46.33.73.46A7.35,7.35,0,0,0,37.15,20.13Z"/><path class="cls-1" d="M36.7,18.15c0-.08-.07-.07-.08-.14a20.76,20.76,0,0,1-4.54.67C33.36,19.09,35.29,18.24,36.7,18.15Z"/><path class="cls-1" d="M35.7,13.79c-.42-.16-.83-.64-1.31-.48A5.37,5.37,0,0,0,35.7,13.79Z"/><path class="cls-1" d="M40,32.82a8.66,8.66,0,0,0-2-.69A7.65,7.65,0,0,0,40,32.82Z"/><path class="cls-1" d="M39.74,31.94c-.26-.42-.89-.25-1.34-.37C38.76,31.84,39.35,31.74,39.74,31.94Z"/><path class="cls-1" d="M37.1,21.07a2.47,2.47,0,0,0-1.67-.92A7.3,7.3,0,0,1,37.1,21.07Z"/><path class="cls-1" d="M35.72,18c0-.06,0-.09-.07-.09-1.08.14-1.84.32-2.77.42C33.63,18.55,34.84,18,35.72,18Z"/><path class="cls-1" d="M35.53,21.49c-.19-.39-.73-.23-1-.5C34.61,21.28,35.18,21.39,35.53,21.49Z"/><path class="cls-1" d="M35.22,20.15a4.9,4.9,0,0,0-1.44-.61A3.88,3.88,0,0,0,35.22,20.15Z"/><path class="cls-1" d="M32,14.05c-.1-.17-.31-.18-.55-.13A.73.73,0,0,0,32,14.05Z"/><path class="cls-1" d="M34.35,24.78c-.31-.09-.14.56-.46.47,0,.51-.26.88-.31,1.38.33-.23.28-.71.38-1.08A1.46,1.46,0,0,1,33.83,27C34.66,26.7,34,25.39,34.35,24.78Z"/><path class="cls-1" d="M32.42,18.39a.94.94,0,0,0-.82-.18c0,.13-.21.28-.07.38s.09-.17.21-.2C32,18.54,32.16,18.38,32.42,18.39Z"/><path class="cls-1" d="M31.94,16.26c-.1-.21-.51.05-.47.21A3.27,3.27,0,0,0,31.94,16.26Z"/><path class="cls-1" d="M31.86,16.8c-.18-.35-.6.09-.6.34C31.52,17.08,31.47,16.8,31.86,16.8Z"/><path class="cls-1" d="M33.51,25c-.31.3-.32,1-.37,1.33C33.51,26,33.32,25.37,33.51,25Z"/><path class="cls-1" d="M31.85,17.69c-.09-.13-.13-.35-.21-.47-.06,0-.09,0-.11,0-.2.1-.42.19-.43.41.22,0,.37-.35.54-.13-.2.16-.57.21-.5.53A.94.94,0,0,1,31.85,17.69Z"/><path class="cls-1" d="M30.82,13.86c-.15-.26-.53-.14-.86-.12C30.25,13.77,30.46,13.93,30.82,13.86Z"/><path class="cls-1" d="M30.25,11.59a5.38,5.38,0,0,0-2.1-.77c.22.3.65.25,1,.35s.62.3.93.42A.3.3,0,0,0,30.25,11.59Z"/><path class="cls-1" d="M32.93,25.16c-.25-.13-.45.7-.24,1C32.91,25.91,32.66,25.37,32.93,25.16Z"/><path class="cls-1" d="M32.18,23.24c-.78.08-1.22,1.1-1.22,1.95.31-.09.17-.42.22-.62.11-.39.42-.69.54-1.06C31.87,23.42,32,23.34,32.18,23.24Z"/><path class="cls-1" d="M32.54,25.51a.9.9,0,0,0-.29.53C32.5,26,32.54,25.75,32.54,25.51Z"/><path class="cls-1" d="M29.49,14.21l0-.15c-1,.12-2.4,0-3.2.63A10.27,10.27,0,0,1,29.49,14.21Z"/><path class="cls-1" d="M29.41,13.87c-.38-.38-1,.05-1.48.13s-1.22-.06-1.54.35A26.86,26.86,0,0,1,29.41,13.87Z"/><path class="cls-1" d="M27.17,25.07c1.62,1,3.4,1.66,5.11,2.48-.07-.27-.32-.33-.51-.41C30.21,26.48,28.71,25.76,27.17,25.07Z"/><path class="cls-1" d="M31.3,23.71c-.52,0-.68.9-.64,1.29.27,0,.15-.28.16-.46A1.67,1.67,0,0,1,31.3,23.71Z"/><path class="cls-1" d="M29.48,18a1.45,1.45,0,0,0-1-.51A3.2,3.2,0,0,0,29.48,18Z"/><path class="cls-1" d="M27.2,8.07c-.19.22-.46.38-.46.73A1.51,1.51,0,0,0,27.2,8.07Z"/><path class="cls-1" d="M31.23,27.52a12.35,12.35,0,0,0-3.17-1.31C29.05,26.72,30.31,27.14,31.23,27.52Z"/><path class="cls-1" d="M30.42,24a1,1,0,0,0-.39.82C30.34,24.62,30.34,24.26,30.42,24Z"/><path class="cls-1" d="M28.29,15.79c-.6-.14-1.13-.72-1.71-.65A6.19,6.19,0,0,0,28.29,15.79Z"/><path class="cls-1" d="M28.24,16.74A5.32,5.32,0,0,0,26.66,16,4.87,4.87,0,0,0,28.24,16.74Z"/><path class="cls-1" d="M28.62,20.88c0-.08-.07-.07-.08-.14a4,4,0,0,0-3,1.15A6.07,6.07,0,0,1,28.62,20.88Z"/><path class="cls-1" d="M26.82,16.44a3.12,3.12,0,0,0-2.26-1c.06.16.2.18.32.24A3.47,3.47,0,0,1,26.82,16.44Z"/><path class="cls-1" d="M27.91,21.46c-.08-.12-.47.13-.64.15C27.34,21.78,27.91,21.59,27.91,21.46Z"/><path class="cls-1" d="M29.05,27.14a1,1,0,0,0-.77-.4A1.34,1.34,0,0,0,29.05,27.14Z"/><path class="cls-1" d="M27.68,21.35l-.06-.25a3.67,3.67,0,0,0-1.18.53C26.78,21.67,27.33,21.19,27.68,21.35Z"/><path class="cls-1" d="M25.39,14.73c-.07-.18-.25-.19-.42-.22C24.9,14.7,25.22,14.72,25.39,14.73Z"/><path class="cls-1" d="M27.77,26.07a2,2,0,0,0-.83-.44A1,1,0,0,0,27.77,26.07Z"/><path class="cls-1" d="M24.8,14.66c-.09-.17-.15-.4-.39-.33C24.49,14.53,24.6,14.66,24.8,14.66Z"/><path class="cls-1" d="M23,28.16c-.06.19.26.22.37.28,1.58.78,3.38,1.67,5,2.4A15,15,0,0,0,25,29.11,8.37,8.37,0,0,0,23,28.16Z"/><path class="cls-1" d="M24.18,14.23c-.22.12.08.43.17.48S24.23,14.38,24.18,14.23Z"/><path class="cls-1" d="M25,18.16c-.1-.11-.25-.13-.32-.29C24.45,18,24.81,18.18,25,18.16Z"/><path class="cls-1" d="M23.9,13.93c-.3,0-.22.47,0,.53S23.88,14.1,23.9,13.93Z"/><path class="cls-1" d="M25.29,20.23a1.54,1.54,0,0,0-1.57.41A7,7,0,0,1,25.29,20.23Z"/><path class="cls-1" d="M27.18,29.23c-.42-.2-.71-.61-1.17-.78A2.42,2.42,0,0,0,27.18,29.23Z"/><path class="cls-1" d="M24.18,17.2c0,.2.11.23.14.39C24.41,17.53,24.38,17.13,24.18,17.2Z"/><path class="cls-1" d="M23.55,13.75s-.06-.08-.12-.07c-.23.06-.21.47-.06.64C23.52,14.18,23.32,13.83,23.55,13.75Z"/><path class="cls-1" d="M23.33,13.28c-.11,0-.13-.07-.26,0A1,1,0,0,0,23,14C23.19,13.81,23.1,13.44,23.33,13.28Z"/><path class="cls-1" d="M24.71,19.74c0-.08-.07-.07-.09-.14-.5.24-1.31.28-1.5.71A13.72,13.72,0,0,1,24.71,19.74Z"/><path class="cls-1" d="M21,4.63a.92.92,0,0,0-.18.82C21,5.29,21,4.94,21,4.63Z"/><path class="cls-1" d="M23.84,19.36c-.31-.09-1.2.18-1.23.54A10,10,0,0,1,23.84,19.36Z"/><path class="cls-1" d="M20.41,5.24c.11-.05.19-.35.06-.43S20.38,5.07,20.41,5.24Z"/><path class="cls-1" d="M25.36,28.29c-3.11-1.33-6-2.94-9-4.45A57.67,57.67,0,0,0,25.36,28.29Z"/><path class="cls-1" d="M19.09,11.81l-.45-.17a3.9,3.9,0,0,0,.46.25S19.09,11.83,19.09,11.81Z"/><path class="cls-1" d="M24.21,24.18c0-.05,0-.1,0-.14a35.21,35.21,0,0,1-4.62-2A26.87,26.87,0,0,0,24,24.16.25.25,0,0,0,24.21,24.18Z"/><path class="cls-1" d="M21.27,16.77a3,3,0,0,0,.18.79c.16,0,0-.24.09-.28.27.15.37.82.31,1.13C22.26,18,21.7,16.89,21.27,16.77Z"/><path class="cls-1" d="M22.9,26.66A19.65,19.65,0,0,1,21,25.79c0,.18.3.32.57.45A4.47,4.47,0,0,0,22.9,26.66Z"/><path class="cls-1" d="M18.29,10.1c-.19-.28-.68-.09-1.06-.08A3.89,3.89,0,0,0,18.29,10.1Z"/><path class="cls-1" d="M17.83,11.93a3.86,3.86,0,0,0,.73.3,4.63,4.63,0,0,0-.79-.5A.57.57,0,0,1,17.83,11.93Z"/><path class="cls-1" d="M17.07,10l0-.15a2.13,2.13,0,0,0-.6.09C16.52,10.16,16.78,10,17.07,10Z"/><path class="cls-1" d="M15.89,10.13l0-.15A7.6,7.6,0,0,0,14,10c-.32,0-.68-.36-1-.19C13.78,10.29,14.93,10.06,15.89,10.13Z"/><path class="cls-1" d="M13.6,1.22c.11.21.15.53.34.6C14,1.61,13.84,1.22,13.6,1.22Z"/><path class="cls-1" d="M17.67,22c-.62-.53-1.37-.89-2-1.36A10.12,10.12,0,0,0,17.67,22Z"/><path class="cls-1" d="M12.59,1.13a4.68,4.68,0,0,1,.3.4C13.1,1.4,12.81,1,12.59,1.13Z"/><path class="cls-1" d="M13.42,5.69c.11-.18-.22-.23-.37-.23C13.09,5.67,13.32,5.58,13.42,5.69Z"/><path class="cls-1" d="M13.11,5.71a1.19,1.19,0,0,0-.79-.29C12.54,5.55,12.83,5.88,13.11,5.71Z"/><path class="cls-1" d="M12.4,7.85c0-.21-.08,0-.15,0,0-.14.08-.18,0-.32A1.82,1.82,0,0,0,11.93,9C12.13,8.58,12,8,12.4,7.85Z"/><path class="cls-1" d="M12.58,9.53c-.11-.27-.34-.36-.38-.74C12.07,9,12.28,9.55,12.58,9.53Z"/><path class="cls-1" d="M14.94,20.35a1,1,0,0,0-.73-.46A4.17,4.17,0,0,0,14.94,20.35Z"/><path class="cls-1" d="M14.67,21.87c-2.16-1.06-4-2.64-6.13-3.76a64.21,64.21,0,0,0,5.92,3.81A.15.15,0,0,0,14.67,21.87Z"/><path class="cls-1" d="M10.86,6.11c0-.3-.44-.38-.72-.41C10.32,5.95,10.67,5.9,10.86,6.11Z"/><path class="cls-1" d="M10.54,6.55c-.13-.31-.42-.36-.72-.41A3.16,3.16,0,0,0,10.54,6.55Z"/><path class="cls-1" d="M11.46,15.36c.29,0,.3-.24.44-.36C11.74,14.95,11.46,15.17,11.46,15.36Z"/><path class="cls-1" d="M10.64,16.33a6.74,6.74,0,0,1,1.26,1C11.92,16.79,11.07,16.55,10.64,16.33Z"/><path class="cls-1" d="M9.34,7.2c0-.05,0-.1,0-.15-.23.05-.35.18-.33.38A1.35,1.35,0,0,0,9.34,7.2Z"/><path class="cls-1" d="M10.51,13a3.45,3.45,0,0,0-.73-.25C9.85,13.09,10.35,13.06,10.51,13Z"/><path class="cls-1" d="M8.75,7.38c-.13-.29-.43-.31-.74-.3.07.12.21.12.3.19-.42.21-.76-.27-1.12-.37.17-.2-.25-.4-.42-.48A2.32,2.32,0,0,0,8.12,7.57C8.3,7.4,8.56,7.48,8.75,7.38Z"/><path class="cls-2" d="M47.18,29.14c.23.2.46.42.69.64C47.69,29.53,47.51,29.12,47.18,29.14Z"/><path class="cls-2" d="M19.61,12.91l0,0a3.5,3.5,0,0,0-.87-.26,5.81,5.81,0,0,0,.92.44S19.61,13,19.61,12.91Z"/><path class="cls-2" d="M23.64,8.39l-.19-.09L23,8.16s0,.09,0,.13l.27.13Z"/><path class="cls-2" d="M54.94,25.45a10.26,10.26,0,0,0-2.72-5.06c-.62-.63-1.13-1.18-1.72-1.8a4,4,0,0,0-.1-1.33,2.65,2.65,0,0,0-1.58-.32A8.73,8.73,0,0,0,46,13.46c-.52-.05-.91-.53-1.55-.17-.18.38.12,1.06,0,1.47a29.15,29.15,0,0,0-4.89-3.16c-.06-.52-.35-.71-.55-1,.2-.58.13-1.15.29-1.68a3.31,3.31,0,0,0-2.38-1.28c-.45,0-.84.15-1.21,0s-.41-.61-.66-.84a3.22,3.22,0,0,0-.82-.38c-.95.06-.85,1.49-.86,2.38a50.82,50.82,0,0,0-5.61-2.42,6.42,6.42,0,0,0,0-1.2A1.75,1.75,0,0,0,28.3,4c-1.36-.57-1.94.88-2.21,1.75-.49-.08-.83-.38-1.34-.42-.18,0,0,.27-.19.31a1.18,1.18,0,0,0-.4-1.32c-.43.06-.73.2-.71.53-.3,0-.45-.14-.43-.53-.52-.56-1.77-1.06-2.4-.24a7.94,7.94,0,0,0-2.81-.66c.2-1-1-1.7-2.24-1.37-.88-.51-1.43-1.55-2.34-2a1.29,1.29,0,0,0-.6.34c-1-.62-1.85.64-1.83,1.57a15.26,15.26,0,0,0-2.94.62,7.28,7.28,0,0,1-1.41,0,7.53,7.53,0,0,0-3.6.45A6.89,6.89,0,0,0,.57,4.87,4.8,4.8,0,0,0,.3,7.38,1.92,1.92,0,0,0,.81,8.67C.65,9.33.36,9.92.2,10.58A8.38,8.38,0,0,0,1.28,14.4a14.07,14.07,0,0,0,2.6,3c1,.9,1.89,1.88,2.78,2.59.56.45,1.26.77,1.88,1.18,1.22.82,2.48,1.61,3.7,2.49.6.43,1.13,1,1.72,1.38,3,2.09,6.47,3.55,9.73,5.39,1.89,1.06,4,1.89,6.07,2.83.7.33,1.32.72,2,1a31.7,31.7,0,0,0,6.64,1.92c1,.19,2,.48,3.06.61s2.49-.15,3.62.11c.95-.25,2.15,0,3.22-.26S50,35.36,50.86,35c.16,0,0,.19,0,.31s.08-.2.14-.29a1.49,1.49,0,0,1,.61.18,5,5,0,0,0,3-.94c.94-.65,1.44-.84,1.92-1.64C57.68,30.66,56.61,26.89,54.94,25.45Zm-1.3-2.26c0,.15-.17-.09-.14.08s.46.76.29,1c-.37-.4-.48-1.22-.92-1.51.11.4.51.68.46,1.1-.36-.28-.6-.76-1-.91,0-.23.18-.39,0-.61.08-.25.34-.38.31-.7a8.28,8.28,0,0,0-1.53-1,2.89,2.89,0,0,1,.48-.42A9,9,0,0,1,53.64,23.19Zm-2.28-1.1c.25-.07.44-.38.71-.32l0,.15C51.85,22,51.53,22.2,51.36,22.09Zm.42.48c0-.16-.16-.09-.2-.21s.09-.08.19-.09S51.93,22.51,51.78,22.57Zm-1.47-3c.35.08,1.16.39.72.88-.12,0-.3,0-.42,0s.22-.15.19-.31c-.22,0,0-.23-.2-.21s-.06.21-.26.21S50.05,19.61,50.31,19.57Zm.15,1.32c.46.23,1,.27,1.33.79-.15,0-.13.15-.27.16-.12-.28-.5.27-.63,0,.14-.09.36-.13.4-.3-.22-.1-.53.38-.72.06.1-.15.29,0,.32-.18-.33,0-.71.11-.83-.22C50.25,21.13,50.2,20.92,50.46,20.89ZM45,14.48c0-.29-.28-.58-.16-1a5.43,5.43,0,0,1,3.28,2.74,1.84,1.84,0,0,1,.28,1c.1,0,.07.16.18.12l.55-.13c1-.05,1.28.81.9,1.67-.09.21-.32.31-.34.55-.09.78.74,1.12.1,1.59-.18-.15-.44-.15-.56-.4s.22-.17.18-.35c-.19,0-.21.35-.41.25s.29-.41.13-.55c-.21,0-.28.5-.45.31.08-.19.37-.47.27-.64-.25.08-.29.66-.51.48.09-.35.49-.74.44-1-.26.25-.41.78-.68.89a9.37,9.37,0,0,1,.65-1.5c.31-.14.75-.43.74-.64-1,.4-1.2,1.28-1.62,2-.05-.34.27-.67.09-1-.2.19-.08.79-.4.77-.11-.54.35-.94.21-1.35-.3.27-.17,1.19-.58,1.13,0-.49.62-1.45.26-2-.13.66,0,1.47-.56,1.9,0-.78.62-1.62.44-2.66a9.47,9.47,0,0,0-.32-1c0-.12.11-.57-.26-.46a4.36,4.36,0,0,1,0,3.71c.38-1.24.16-4.09-1.13-4.49,1.2.86,1.34,3.31.94,4.58-.46.16-.34-.59-.55-.81-.21.14.17.41,0,.58-.48-.15-.29-.84-.35-1.33-.2.22-.1.62-.09,1-.42.1-.35-.78-.51-.87-.22.08.12.5,0,.63-.44,0-.33-.84-.61-1.06-.09.24.16.44.17.74s-.28-.15-.45-.16c-.09-.4.11-.55.07-.85-.13-1-1.38-1-.93-1.77C43.86,15.43,45,15.23,45,14.48Zm2.82,6c-.11-.11-.3-.1-.38-.28C47.6,20.15,47.83,20.4,47.8,20.45ZM47.08,20c-.27-.23-.68-.23-.9-.53A1.82,1.82,0,0,1,47.08,20ZM43.4,16.93c-.07.13-.12.26-.35.28-.07-.14.23-.27,0-.36s-.13.29-.32.18.27-.36,0-.53c-.16.08-.06.33-.28.38,0-.07-.12,0-.17-.07,0-.21.28-.45.06-.64-.21.11,0,.48-.29.54-.28-.21.27-.44.07-.59-.23.07-.15.33-.38.4,0-.14-.25,0-.25-.21s.25-.35,0-.48c-.21.06-.05.33-.28.38-.37-.5-1.58-.56-1.35-1.36.32.46.68.86,1.4.67.49.28,1.05.44,1.56.68.42-.1,1.3.8.66,1.26a.67.67,0,0,1-.31-.19.43.43,0,0,0,.24-.32C43.46,17,43.44,16.93,43.4,16.93Zm-3.57-3.77c.46.36,1.07.46,1.31,1.16-.21.16-.61.21-.61.5.64.5,1.6.47,2.17,1.07-.45,0-.81-.41-1.31-.48-.22,0-.47.07-.68,0a1.12,1.12,0,0,1-.6-.8c.28-.07.66-.1.71-.32C40.72,13.59,40,13.56,39.83,13.16Zm1.76.17c-.68-.12-1.1-1-1.77-.9a33.59,33.59,0,0,1,3.37,2.2c-.47.51-.77-.48-1.34-.42.3.37.78.47,1.12.79,0,.16-.06.25-.07.38-.5-.2-.8-.71-1.38-.78,0,.16.16.1.21.22-.19,0-.41,0-.54-.09.34-.07.4-.31.44-.57a4,4,0,0,0-1.92-1.54c-.07-.21.09-.25,0-.47A18.66,18.66,0,0,1,44,14.87,20.6,20.6,0,0,1,41.59,13.33Zm-.2-.42c-.26-.2-.76-.36-.86-.59C40.79,12.5,41.28,12.69,41.39,12.9Zm-1.21-.77c-.13-.18-.44-.06-.54-.29C39.86,11.83,40.17,12,40.17,12.14Zm-.64,1.09c.16.45,1,.3,1.08,1.06a2.4,2.4,0,0,1-.64.15,3.85,3.85,0,0,1-.31.69c-.15-.45.17-.6.2-.93-.38.13-.2.6-.5.79,0-.35.14-.65.13-1-.23.2-.22.54-.28.84-.15.06-.16-.1-.28-.09,0-.22.15-.55,0-.72a.73.73,0,0,0-.13.55c-.13,0-.2-.05-.28-.09s.25-.47.12-.6c-.28.07-.08.43-.36.5,0-.07-.12,0-.17-.07-.07-.23.15-.27,0-.53.11-.07.31-.09.25-.26-.23,0-.31.17-.52.22,0-.07,0-.19-.09-.19s0,.35-.22.42-.06-.33-.05-.46C38.22,13.46,38.85,13.18,39.53,13.23ZM37.78,14A.3.3,0,0,0,38,13.9C38.09,14.1,37.8,14.21,37.78,14ZM36,13.35a1.72,1.72,0,0,1,1.06-1.07c.37.43,1,.48,1.39.83A7.47,7.47,0,0,1,36,13.35Zm1.14.42c0-.08,0-.16-.06-.25l.2,0C37.3,13.6,37.31,13.74,37.16,13.76ZM34,6.94c.94-.21,1.08.84,1.72,1.12.51-.14,1,.16,1.5.18.82,0,1.5.34,1.59,1.25-.31.54-.88.92-1.11,1.51.47-.25.63-.93,1.11-1-.54.39-.21,1.3.34,1.48a2.55,2.55,0,0,1,.11,1.18.66.66,0,0,1-.53,0c.09,0,.21-.06.16-.2-.28,0-.4.11-.56,0,0-.2.34-.18.2-.46a.85.85,0,0,1-.5.32c0-.16-.16-.1-.2-.21.15-.14.41-.22.35-.5a1.37,1.37,0,0,1-.78.44c0-.28.42-.3.44-.57-.24,0-.5.46-.61.3.08-.18.33-.25.3-.49a4.9,4.9,0,0,0-.46.47c-.65,0-.83.83-1.24,1,.23-.26.74-.77.55-1a2.36,2.36,0,0,1-.72.94c0-.54.52-1,.51-1.42a7,7,0,0,0-.85,1.76c-.1-.71.55-1.51.61-2.12-.4.6-.54,1.36-.9,2a12.38,12.38,0,0,1,.5-2.15,7.9,7.9,0,0,0-.73,2c-.06-.1-.2-.08-.29-.14,0-1.29.47-2.56.14-3.94a10,10,0,0,1-.14,2.12,18.62,18.62,0,0,1-.25-3.38c-.4.06-.18.59-.13,1,.07.67.21,1.56.24,2.19,0,.24,0,.58-.16.66A16.48,16.48,0,0,0,34,9.13c-.3.91.42,2.59,0,3.18-.27-.12,0-.68-.38-.75-.11.13.18.51,0,.58A.4.4,0,0,0,33.2,12c.08-.14.15-.51-.09-.6a2.09,2.09,0,0,0,0,.46c-.18,0-.25-.09-.39-.12-.12-.42-.07-.74-.29-1,.16,0,.2.12.38.07C34.31,10.11,33.57,8.16,34,6.94Zm.31,5c.07-.13,0-.35.11-.45C34.42,11.64,34.4,12,34.28,11.92Zm-2.79-.82c-.41,0-.32-.84-.68-.94a3.16,3.16,0,0,1,.2.63c-.42.1-.41-.48-.66-.63-.15.14.22.38,0,.42-.25-.13-.29-.61-.62-.64-.06.15.18.26.25.41a2.67,2.67,0,0,1-1.1-.47,2.4,2.4,0,0,1,2.75-.05c.36.28.19,1.08.56,1.54-.49,0-.51-.73-.84-1C31.32,10.7,31.58,10.9,31.49,11.1ZM28.71,9.44a2.8,2.8,0,0,1,.48-.89A1.06,1.06,0,0,1,28.71,9.44Zm3.16.58a1.72,1.72,0,0,1,.56,1.54C32.3,11,31.88,10.56,31.87,10Zm1.45-.48a.14.14,0,0,1-.2,0C32,8.87,30.7,8.44,29.57,7.73A15.15,15.15,0,0,1,33.32,9.54Zm-3.64-1.1A5.08,5.08,0,0,0,31.07,9a4.54,4.54,0,0,0-.77-.4c-.24-.12-.64-.25-.64-.53a13.15,13.15,0,0,1,3.54,1.79.27.27,0,0,0-.11.18c-1.14-.35-2-1.35-3.71-.93C29.58,9,29.53,8.64,29.68,8.44Zm-.53,0c-.11-.82-.78-1.1-1-1.49C28.62,7.12,29.38,7.7,29.16,8.4ZM27.87,6.87c-.07-.1-.33-.23-.24-.36C27.67,6.64,28,6.73,27.87,6.87ZM26.3,6.19c.09.17-.09.17,0,.32-.2,0-.58-.15-.59-.28A.42.42,0,0,0,26.3,6.19Zm-1.18-.36c-.15,0-.21-.07-.29-.14C25,5.69,25.1,5.67,25.13,5.83Zm.14.86c.27.11.62.07.63.27-.57-.17-1.37,0-1.58-.74C24.63,6.17,24.91,6.54,25.27,6.69Zm-1-.2c.3.62,1.13.4,1.7.6a1.78,1.78,0,0,1-.66,1.19c-.69,0-.26-.42-.13-.8-.29.13-.22.48-.54.59-.07-.29.46-.41.27-.64-.18.07-.19.25-.34.34s.24-.43,0-.57c0,.25-.25.75-.55.54a.46.46,0,0,0,.22-.41c-.18.1-.25.44-.55.33A3.2,3.2,0,0,1,24.29,6.49Zm-.38-.07c.06-.44.3-1.08-.09-1.54C24.72,4.63,24,6.1,23.91,6.42ZM20.25,4.33c-.1,0-.1.08-.19.09A8,8,0,0,0,19,4c-.36-.1-.85-.1-1-.34A15.81,15.81,0,0,1,20.25,4.33Zm-3.7,0a5.39,5.39,0,0,0,.51-1.63C17.86,3.14,16.76,3.88,16.55,4.34Zm-5.39-3a4.28,4.28,0,0,1,.57-.7c.66-.28,1.17.56,1.62.94a2.27,2.27,0,0,0-.34-1c.95.07,1.25,1.39,2.07,1.77.59.27,1.23-.17,1.82.21a1.72,1.72,0,0,1-.28,1.27c-.16.36-.27.88-.66,1a3.13,3.13,0,0,0,.29-1.26c-.25.34-.16,1.12-.5,1.26a1.75,1.75,0,0,0,0-1.16c-.12.39.09,1-.36,1.17-.09-.45.06-.94-.19-1.05a4.46,4.46,0,0,1,0,.79c-.6-.14-.22-1.92-.73-2.29a5.52,5.52,0,0,1,.21,2c-.32-.44-.14-1.49-.5-2A13.55,13.55,0,0,1,14.44,4c-.61-.06-.41-1.42-.87-1.73A11,11,0,0,1,14,3.84c-.68,0-.51-1.31-1-1.66a4.53,4.53,0,0,1,.34,1.49c-.38-.43-.43-1.38-.86-1.73a11,11,0,0,1,.58,1.64c-.35,0-.3-.62-.58-.71,0,.21.16.31.18.59-.47.11-.41-.61-.78-.66,0,.29.22.37.3.62-.38.08-.37-.45-.64-.53-.16.16.3.37.05.46-.28-.08-.38-.43-.61-.59a1.18,1.18,0,0,0,.34-.34A1.53,1.53,0,0,1,11.17,1.3Zm-.25,1.41c-.18.19,0,.35.13.55a2.35,2.35,0,0,1-.81-.13A.58.58,0,0,1,10.92,2.71Zm-1.32.15c0-.21-.24-.07-.26-.25a1,1,0,0,1,.71.15c-.15.08-.19.22-.35.29-.23-.25-.68-.14-1-.3C9,2.55,9.3,2.86,9.59,2.86Zm-6,.75C4,3,5.34,3.39,5.92,3.23c-.34-.13-.84,0-1.18-.15a9.29,9.29,0,0,1,5.05.67,6.37,6.37,0,0,1-2,0c0,.2.2,0,.21.21a1.26,1.26,0,0,0-.49.16C7.38,4,7.12,3.87,6.93,4c.06.17.31,0,.37.23-.29.26-.61-.13-.83,0,0,.19.27.06.35.18-.15.35-.61,0-.76.13,0,.22.3.07.36.22-.14.31-.44,0-.59.14.07.13.29,0,.32.24-.14,0-.07.13-.12.18C5.26,5.06,5,4.08,4.1,3.91c-.35-.07-.74.11-1.2,0,.54-.39,1.57-.2,2.07-.32A2.81,2.81,0,0,0,3.56,3.61ZM4,4a3.19,3.19,0,0,1-1.47.18A3.46,3.46,0,0,1,4,4ZM2.86,4.4a3.69,3.69,0,0,1-1.57.41A2.48,2.48,0,0,1,2.86,4.4Zm-.37.45C2.3,5.21,1.66,5,1.28,5A2,2,0,0,1,2.49,4.85Zm-.28.38c-.26.14-.68,0-1.1.2C1.2,5.07,2,5.12,2.21,5.22Zm-.08.59c.34-.17.52-.88,1-1.11A5.36,5.36,0,0,1,4,4.6c.05,0,.08-.14.13-.13.38.06.47.48.83.64.57.86.3,1.66.72,2.23.14.2.51.21.71.36s.08.2.17.28.37.18.49.31A7.76,7.76,0,0,1,8,10.42c.14-.33.28-.85.87-.77-.12.3.36.34.25.62-.17.1-.24-.29-.33-.08s.36.29.27.51c-.29,0-.32-.47-.63-.48.06.3.46.37.37.7-.46-.27-.84-.36-1.34-.63,0-.15.12-.41-.07-.51-.11.07,0,.28-.07.38-.58.09-.55-.62-.64-1a1,1,0,0,0,0,.58c-.47.21-.36-.73-.43-.95-.15.2,0,.54-.2.73-.49-.43.08-1.13.22-1.56a1.81,1.81,0,0,0-.58,1.33c-.1-.29-.26-.07-.46-.21S5,8.54,4.86,8.37c-.11.09.12.38,0,.47-.36-.11-.42-.67-.61-1.06a2.27,2.27,0,0,0,.11.7c-.46-.23-.6-1-.6-1.48,0-.19.24-.56-.07-.55a1.09,1.09,0,0,1-.32,1.11c-.15-1.2.72-1.74.68-2.71-.17.25-.07.79-.57.71a3,3,0,0,0-.84,2.27c-.45-.23-.16-1.12-.4-1.32a2,2,0,0,0,.22,1.42c-.47,0-.41-.75-.61-1.06-.15.17.06.58.1.87-.18,0-.08.2-.26.21-.36-.23-.09-.82-.24-1a1.58,1.58,0,0,0,0,1.1C.92,7.13.78,5.4,2.14,5.82Zm10.27.47c-.25.14-.29.49-.69.42.09.15.2.18.08.34s-.41-.21-.54-.08c.09.15.3.11.37.28s-.36.12-.47.21c0,.15.23,0,.25.21s-.25.09-.37.19.18,0,.19.17-.09.11-.05.22c-.66,0-1-.41-1.51-.69.78-.72-.87-1.5-1.3-1.79a2.71,2.71,0,0,1,.83-.24c0,.13,0,.24.16.22A4.41,4.41,0,0,1,12.71,6c-.33.25-.49-.23-.86-.12C12,6.1,12.3,6,12.41,6.29Zm-.63,7.08c-.25.13-.49.28-.74.43-.32-.66-1.2-.42-1.62-.94.45-.57.94.09,1.43.09-.16-.17-.39-.23-.56-.39A2.59,2.59,0,0,1,11.78,13.36ZM11.53,12a2,2,0,0,1,.49.3C11.84,12.27,11.49,12.17,11.53,12Zm-2.38-.86a1.7,1.7,0,0,0,.5-1.94c.16,0,.56.29.32.5.21,1.22-.79,1.68-.89,2.71-.17.06-.16-.15-.33-.08-.12-.31-.19-.79.12-.6.23-.1.06-.46.38-.4C9.21,11.27,9.15,11.25,9.14,11.15ZM8.33,9.2a.61.61,0,0,1,1.1,0A1.3,1.3,0,0,0,8.33,9.2Zm1.35,4.07c.44.18,1,.09,1.17.57.08.26-.11.6-.07.85.13.75.69.93,1.37,1.2l-.6.13c-.18-.2-.39-.14-.52-.25-.68-.53-.28-1.7-.71-2.18-.85.18-1.24-.37-1.54-1.06C9.28,12.64,9.23,13.08,9.68,13.26Zm.62-1.39c0,.26.2.28.22.53-.31.05-.15-.66-.53-.51,0,.21.2.19.2.42-.35.15-.18-.52-.51-.4,0,.16.19.22.07.3a.19.19,0,0,0-.28-.09c.06.18.18.21.14.39s-.1.13-.22.16c-.36-.24,0-.61,0-.89a3.86,3.86,0,0,0,.34-.34c.09-.36.19-.64.3-1a1,1,0,0,1,.26-.48,10.11,10.11,0,0,0,.92,2.66C10.74,12.66,10.83,11.77,10.3,11.87ZM10,9a5.53,5.53,0,0,1,2.09,1.14A4.9,4.9,0,0,1,10,9Zm2.66,1.84a4.57,4.57,0,0,1-2.06-1A9.4,9.4,0,0,1,12.71,10.8ZM11.16,8.55s-.08.15,0,.21a15,15,0,0,1-2-.85c.12,0,.2-.16.33-.18A3.8,3.8,0,0,1,11.16,8.55Zm.13.8c-.91-.6-2.13-.7-3-1.34C9.32,8.14,11,8.52,11.28,9.36Zm-3,2.35c-.24,0-.3-.2-.55-.13.09.19.39.06.4.38C6.57,11.3,5.5,9.88,3.76,9.51c0-.11-.33-.18-.23-.31,1.64.71,3.5,1.09,4.81,2.34A.14.14,0,0,0,8.28,11.71ZM4,9.66c.41.16,1,.27,1.09.69.14-.07.17.05.31,0,.79.83,1.94,1.1,2.73,1.93-.24.06-.28-.23-.48-.25.13.42.71.48.72.88-1.44-1.24-3.63-1.65-4.78-3.13a4.06,4.06,0,0,1,1.53,1,10.28,10.28,0,0,1,1.54.79C5.86,10.81,4.81,10.43,4,9.66ZM3.28,8.05a1.48,1.48,0,0,1,0-1.72c.06,0,.12,0,.12.08A2.67,2.67,0,0,0,3.28,8.05ZM2.83,6.8C3,6.47,3.22,6,3.58,6,3.27,6.17,3,6.67,2.83,6.8ZM.66,5.27A.7.7,0,0,1,.86,4.8C.92,5,.75,5.13.66,5.27Zm.23,5.79c0-.22,0-.49.11-.65C.92,10.59,1.19,11,.89,11.05Zm.21.27c.1.6.32,1,.42,1.62C1.22,12.62.84,11.75,1.1,11.32Zm.15-.51c.57.82.92,2,1.64,2.6.14.7.75,1,.83,1.58C2.8,13.83,1.41,12.72,1.25,10.81Zm3.3,6.44c0-.11-.33-.19-.23-.32C4.37,17,4.65,17.11,4.54,17.25Zm-.9-1.2A6.37,6.37,0,0,1,1.81,13.5a30.76,30.76,0,0,0,4.08,4.38A9.36,9.36,0,0,1,3.64,16.05Zm10.25,8.13c.28.24.79.47.9.74C14.52,24.67,14,24.44,13.89,24.19Zm15.46,8.14c-1.12-.57-2.24-1.11-3.39-1.62-2.88-1.27-5.55-3-8.33-4.3A15.21,15.21,0,0,1,16,25.53c-.54-.34-1-.81-1.47-1.17-1.54-1.08-3.25-1.87-4.71-3C12,22.53,14,24,16.13,25.29a74,74,0,0,0,6.6,3.55c1.12.55,2.19,1.18,3.32,1.74a68,68,0,0,0,7,2.94,15.28,15.28,0,0,1,3.5,1.39A61.13,61.13,0,0,1,29.35,32.33Zm1.67.92c2.09.78,4.27,1.4,6.38,2.14A19.18,19.18,0,0,1,31,33.25Zm15.07,3c.38-.11.81-.14.92-.32a12.4,12.4,0,0,1-5.32,0A27.87,27.87,0,0,1,38,35.21c-.68-.2-1.31-.54-2-.8-1.35-.55-2.75-1-4.09-1.47a68.13,68.13,0,0,1-7.79-3.54,89,89,0,0,1-9.35-5.11c-.58-.41-1.2-.77-1.78-1.16-2.34-1.59-4.94-2.8-7-4.77,2.88,1.91,5.75,3.82,8.72,5.57a.8.8,0,0,1,.43.05,26.24,26.24,0,0,1,3.31,1.7c1.09.57,2.23,1.15,3.36,1.68,2.25,1,4.42,2.34,6.74,3.26a107.08,107.08,0,0,0,10.77,3.79,30.08,30.08,0,0,0,3.77,1c.5.07,1-.09,1.44.14-6.06,0-10.66-2.75-15.51-4.48a72,72,0,0,0,9.5,3.72,17.33,17.33,0,0,0,4.21.87c.73.06,1.51,0,2.35,0,.61,0,1.18.2,1.87.2s1.38-.15,2.14-.23A8.5,8.5,0,0,1,46.1,36.28ZM7.22,18.94c.31-.12.5.29.73.46s.72.4,1,.6c0,.09.1.11,0,.15C8.41,19.74,7.8,19.36,7.22,18.94Zm2.45,1.58a12,12,0,0,1,1.8,1.25A10.83,10.83,0,0,1,9.67,20.52ZM45.58,35.61a13.81,13.81,0,0,0,3.33-.24s.07,0,.07.09A6.06,6.06,0,0,1,45.58,35.61Zm3.59,0c.11,0,.08-.15,0-.27.23,0,.29-.1.47,0C49.57,35.4,49.39,35.68,49.17,35.57Zm2.38-1c.22,0,.48-.1.63,0A.83.83,0,0,1,51.55,34.56Zm.42-.2c-.87.2-1.31-.27-1.9-.56a6.21,6.21,0,0,1-2.63-2.16,13.83,13.83,0,0,0,5,2.67.67.67,0,0,1,.79,0A2,2,0,0,1,52,34.36Zm-1.43-.09c-.18,0-.54-.17-.54-.3C50.18,34.08,50.4,34.1,50.54,34.27Zm-4.46-4.71a1.09,1.09,0,0,0,.62-.25,10.64,10.64,0,0,0,1.77,1.58c.4.38.69.88,1.11,1.21s.77.32.95.72c-.23-.37-.65-.32-1-.5a18.45,18.45,0,0,0-1.72-1.12A21.57,21.57,0,0,0,49.93,33C48.82,32.54,48,31.59,47,31c0-.35-.47-.46-.43-.74a2.07,2.07,0,0,0,.93.68C47.15,30.32,46.49,30.13,46.08,29.55Zm-.3-1.08c-.2,0-.14.22-.36.24-.12-.2,0-.4-.28-.3,0-.23.25-.27.32-.44-.15-.06-.29.2-.46.26a.14.14,0,0,0-.13-.12c-.07-.4.49-.62.48-.84-.33.13-.37.45-.7.58-.47-.56.65-.8.75-1.27-.42.21-.84.85-1.17.84a5.36,5.36,0,0,1,1.47-2,5.54,5.54,0,0,0-1.65,1.89c-.27-.53.24-.95.63-1.34s.59-.76.79-.86c.46-.22.83,0,1.23-.12-.68-.37-1.65.13-2.11.47a0,0,0,0,0,0-.08c-.24.12-.27.37-.58.44.14.15.06.32-.12.39a3.27,3.27,0,0,0,0-.63c.22-.23.57-.38.74-.64-.35.07-.44.31-.73.43-.28-.3.42-.51.31-.7-.28.05-.26.29-.49.38-.08-.17-.24-.21-.34-.34.12-.11.26-.2.28-.38-.34.08-.34.52-.67.47,0-.29.28-.39.32-.65-.32.11-.29.44-.6.55,0-.06-.09,0-.16,0-.06-.35.41-.59.34-.8-.4.23-.41.7-.77,1-.21-.25.32-.61.18-.82-.24.23-.29.56-.5.8-.56-.91,1.24-1.8,2.06-1.26.06.18.19.25.25.41,1.18.83,3.45-.09,3.88,1.93-.39.63-1.56.87-1.54,1.71,0,.68.54,1.52-.5,1.67a5.26,5.26,0,0,0-.31-.45C45.65,28.71,45.84,28.67,45.78,28.47Zm-2-1.47a2,2,0,0,1,1.3-1.6A3.9,3.9,0,0,0,43.77,27Zm-.55-1.28c-.1.26-.06.61-.29.79,0-.31,0-1.12-.33-1.23a1.79,1.79,0,0,1,.14,1.06c-.45,0-.17-.79-.57-.91,0,.2.09.4.14.59-.47-.09-.77-.43-1.22-.55,0-.12,0-.16,0-.31.37-.13.3.13.46.2.36-.42,1.34-.24,1.79-.15a1.33,1.33,0,0,1-.08,1.48C43.06,26.46,43.44,26,43.22,25.73Zm1-2.32a1,1,0,0,1,.68.47A2.11,2.11,0,0,1,44.25,23.4Zm3.66,8.5c-.13-.23-.56-.33-.54-.55C47.53,31.52,47.94,31.65,47.92,31.9Zm2.79,1.5c.18.23.68.32.74.51C51.2,33.78,50.73,33.65,50.71,33.39Zm3,.78a14,14,0,0,1-1.57-.27c-1.1,0-2.23-1.34-2.83-1.65a22.73,22.73,0,0,0,3.25,1.66c0-.14-.31-.07-.16-.22a3.81,3.81,0,0,0,2.42-.34C54.5,33.74,54.27,34.12,53.7,34.17Zm1.8-1c-.17,0-.46,0-.73,0,.18,0,.19-.18.1-.24s0,.24-.26.22c-1.83.36-2.79-.69-4-1.33a9.67,9.67,0,0,0-2.37-2.17c1.22,1,2.25,2.41,3.63,3.13a3.32,3.32,0,0,0,2.66.43c-.91.82-2,0-2.86-.18-.94-.7-1.82-1.65-2.69-2.41-.26-.24-.58-.39-.86-.59,1.47,1.42,3,3,4.83,3.6-.28,0-.46-.07-.74,0a13.4,13.4,0,0,1-3.33-2.26c-.57-.95-1.56-1.21-2.07-2.24a2.43,2.43,0,0,1,.32-.43c.29.2.47.6.84.69-.4-.54-.92-.74-1-1.59.42.08.58.56,1,.6a10.47,10.47,0,0,1-1-.91.81.81,0,0,1,.33-.39c.2.19.51.58.7.57-.08-.37-.39-.37-.55-.61.78-.73,1.23.3,1.79.53-.26-.51-.77-.62-1.11-1,1-1.61-1.24-2.88-2.68-2.62-.38-.26-.74-.54-1.12-.79-.13,0-.29.09-.32,0,1.11-.36,1.54.71,2.29.68A2.64,2.64,0,0,1,45.16,23a2.6,2.6,0,0,1,1.16-.16c.12.2-.31,0-.32.18.22.27.47.14.72.2,1.72.36,2.9,2,3.65,3.9,0,.11-.09.17,0,.32.29.54,1.12,1.29,1.77,1.16a1.8,1.8,0,0,0,1.19-1.42,11,11,0,0,0-.88-2,9,9,0,0,0-2.84-3.52,7.54,7.54,0,0,0-2.87-.7,11.24,11.24,0,0,0-2.18,0,9.61,9.61,0,0,1-3.57.14c-.1,0-.37.14-.35-.13a.14.14,0,0,0,.17.06.45.45,0,0,1,0-.68,5.51,5.51,0,0,0,1.4.67c-.44-.34-1-.45-1.4-.88.3-.21.5-.82,1-.64.23-.37.9-.52.92-1,0-.19-.19-.26-.29-.56s-.18-.58-.47-.67a9.81,9.81,0,0,1-1.08-.38c-.13,0-.09.12-.24.11-1.88-1.05-5.13.26-7.44,0,0-.35.21-.45.45-.31,0-.35.39-.38.61-.55,0,0-.05-.13,0-.15.22-.21.67-.36.91-.57A1.17,1.17,0,0,0,35.28,14a9.08,9.08,0,0,0-1.74-1,12.22,12.22,0,0,0-5.39-.54c-1.17.17-2.56.77-3.36.82a2.65,2.65,0,0,1,1-.75c.16-.09.21-.22.35-.29.55-.24,1.23-.26,1.53-.61s0-.92-.14-1.53c.39.15.74.35,1.15.47A4.26,4.26,0,0,0,27,9.76a1.29,1.29,0,0,1,0,.26l.1.07c.08.06,0,.18.11.24s.42.14.41.42.13.48-.26.69c-.06-.2-.12-.4-.34-.34.07.16.2.22.21.47l-.25.06c-.16,0-.1-.42-.34-.34-.06.14.19.26.17.54-.17,0-.39.13-.51.07s-.21-.68-.42-.48a1,1,0,0,1,.22.53c-.2,0-.22.14-.43.15-.12-.21-.14-.59-.4-.59.05.27.24.34.26.67-.1.09-.26.14-.36.24-.07-.25-.09-.58-.33-.55.12.24.3.71,0,.83-.14-.15-.22-.71-.44-.52.45.43.13.86.22,1.41.27.08.43-.11.57-.23a7.14,7.14,0,0,0,1.73-.4,11.74,11.74,0,0,1,5.83,0c.08.05.08.24.2.21s.35.08.54.08c0,.07,0,.18.1.18.57-.06.79.45,1.31.49a1.64,1.64,0,0,1,.46.62c0,1-1.24,1.26-1.74,2-.12,0-.17-.06-.31,0a3.49,3.49,0,0,0-.45.78c.35-.25.5.18.86.12.1-.1-.13-.14.06-.17,2.6,0,6-1.15,7.71.43A.69.69,0,0,1,42,18.82c-.09-.11.1-.24-.06-.25s-.07.27-.12.39a.35.35,0,0,0-.3.07c0-.14,0-.4-.19-.37,0,.2.18.58-.16.66-.15,0,0-.38-.22-.26.14.34-.16.66-.43.88-.05-.18-.05-.46-.25-.41,0,.11.14.32,0,.36s-.21-.2-.22-.05c.28.26.1.62,0,.89a2.28,2.28,0,0,0,2.45.69c.08,0,.05.19.14.18,1.13-.19,2.28-.06,3.27-.28.24,0,.36-.18.58-.18s.62.09.86.12a6.56,6.56,0,0,1,2.15.76,9.41,9.41,0,0,1,1.87,1.55,10.78,10.78,0,0,1,1.43,3.06c.18.53.37.77.1,1.13-.45,0-.61.27-1,.38-.56-.22-.74-1-1.13-1.52,0,.13.14.35,0,.41-.89-1.73-1.7-3.61-3.38-4.08a.44.44,0,0,1-.58,0c1.64-.39,2.31,1.31,3.27,2.22-.1-.5-.47-.56-.67-.88a2.26,2.26,0,0,0-.75-1,3.42,3.42,0,0,0-1.11-.53,7.4,7.4,0,0,0-1.07.08,6.73,6.73,0,0,0-1-.08c-.3,0-.57.21-.93.26a9.2,9.2,0,0,0-2.64.32s-.05.05-.11.06a1.21,1.21,0,0,0-.21.14c-.07-.14.09-.13.21-.14l.11-.06a.12.12,0,0,0,0-.08c-.31.06-.57,0-.91.11-.56-.58-1.71-.21-2-1.21-.13,0-.11-.08-.26,0a1.77,1.77,0,0,1-.27-.72.62.62,0,0,0,.32-.65c-.32.05-.08.42-.41.25-.12.07.14.38-.07.38a1.61,1.61,0,0,1,.07-1.06.14.14,0,0,0-.2,0c0-.3.41-.53.36-.71-.2,0-.24.27-.32.18a2.88,2.88,0,0,1,1-.8c-.27-.22-.56.23-.68.21.22-.42.78-.4,1.27-.6-.08-.18-.46.11-.54-.08.22-.21.81.13.92-.11-.17-.15-.52,0-.71-.15.38-.38.88-.13,1.2,0-.24-.41-.95-.41-1.45-.19a1.51,1.51,0,0,0-1.44-.14c.36.15,1-.15,1.25.24a18.68,18.68,0,0,0-3.12.24c-1.92.43-3.89,1.35-5,.1-.83-2.07.74-3.2,2-4a1.05,1.05,0,0,0-.91-.31c.11.19.41.07.49.31-.22.14-.51.5-.74.17-.16,0,.24-.07.11-.23A4,4,0,0,0,30,14.14c.39.29,1.1.06,1.45.4-2.17-.91-6.2,1.13-8.35.19a2.72,2.72,0,0,0-.45-.62.67.67,0,0,1-.26.16,1,1,0,0,1-.35,0,2.69,2.69,0,0,1,.73.55,10.61,10.61,0,0,0-1.42-.53,2,2,0,0,1-.49-.06c1,.45,2.1.7,3,1.22-.9,0-1.57-.68-2.38-.6-.71-.37-1.53-.57-2.29-.88-.08,0,0,.14-.13.14a.8.8,0,0,1-.54-.77c.4.11.87.46,1.24.4-.42-.34-1-.31-1.47-.55-.22-.11-.36-.38-.58-.49a1.3,1.3,0,0,0-.29-.1l-.13.07-.12,0a1.9,1.9,0,0,1-.78.41.61.61,0,0,1,0,.27.11.11,0,0,1,.08.07.63.63,0,0,1,.9.25.7.7,0,0,1,.42.14,1.88,1.88,0,0,0-.82-.93c.88,0,1.26.82,1.39,1.71l.11.13a.7.7,0,0,1,.46-.17l-.09-.07a1,1,0,0,1,.58.23h-.1a.7.7,0,0,1,.13.17l.18.34a.77.77,0,0,1,.37.46l-.1.16.07.21.08-.12c.13.22.12.54.29.82a.61.61,0,0,1-.19,0c0,.12,0,.25.06.37.44-.49.68-1.28,1.37-1.52.76.34,1.63,2,1,2.89-.12-1.06-.15-2.89-1.4-2.23a3.48,3.48,0,0,1,.37.7c.13,0,0-.26.08-.33a3.66,3.66,0,0,1,.5,1.71,1.41,1.41,0,0,1-.53.43c-.21,0-.49-.26-.65-.11.17.12.46,0,.54.3-.32.39-.62.09-1,0,.34.22.48.26.53.72-.37,0-.74-.41-1-.34a3.82,3.82,0,0,1,1.75,1.48c-.72-.13-1.3-.85-2-.86a15.14,15.14,0,0,1,1.85,1c-.39.37-1,0-1.41-.25s-1-.76-1.43-.77c.82.5,1.68.92,2.51,1.41-.16,0-.11.16-.15.25-.87-.14-1.58-.92-2.29-1.09a4.77,4.77,0,0,0,1.09.64c.41.21,1.17.47,1.1.95a9.94,9.94,0,0,1-1.8-.84c-.18-.1-.34-.43-.59-.28a18,18,0,0,0,2.44,1.32c0,.14,0,.33.14.39a10.55,10.55,0,0,0,3,1.18c.05-.25.89-.25,1.12-.36a3.74,3.74,0,0,1,.2.42c1.32.79,2.84,1.43,4.24,2.11.49.24,1,.4,1.45.66.25.17.39.59.81.34.74.09,1.13,1,1.88.93.44-.06,1-.88,1.08-1.4.22-.87.05-1.91.58-2.48,1.22.29,2.36.7,3.53,1.07a.71.71,0,0,1,.26.25.19.19,0,0,1,.25-.06c1.86.91,3.74,1.75,5.12,3.47.53.66.86,1.54,1.35,2.25a23.53,23.53,0,0,0,2.11,2.38c.44.19.71.64,1.09.9.2.14.5.15.57.44-.27.4-.89.33-1.36.41a13.71,13.71,0,0,1-4.32,0c-.35,0-.76,0-1.15,0a36.15,36.15,0,0,1-3.9-1.09C38,33.88,36.7,33.46,35.5,33c-.63-.24-1.3-.35-1.91-.61s-1.22-.5-1.84-.73a112.62,112.62,0,0,1-10.7-4.85c-2.37-1.13-4.63-2.48-6.91-3.58a31.74,31.74,0,0,1-3.61-2.31c-1-.7-2.08-1.4-3-2.17a32.55,32.55,0,0,1-2.93-2.35c-.44-.44-.88-1-1.32-1.42a4.68,4.68,0,0,1-1.58-2.35,26.53,26.53,0,0,0,5,5.27c1.41,1.13,3,1.91,4.42,2.9.46.32.85.86,1.45.87C10.29,20.32,8.29,18.59,6,17.22c-.63-.93-1.74-1.46-2.18-2.47,1,1.08,1.93,2.43,3.37,2.88a18.61,18.61,0,0,1-4.7-4.82,4.65,4.65,0,0,1-.4-.85c-.28-.67-1.06-1.16-1-1.92C.43,9,2.58,8.73,3.3,9.09a1.35,1.35,0,0,0,.45.58c-.3.07-.41-.16-.66-.16,0,.24.52.14.3.4a4.25,4.25,0,0,0-1.09-.69c.35.41.8.67,1.14,1.1a1,1,0,0,1,.32,0c.44.32.77.81,1.35.89A22.18,22.18,0,0,0,7.17,12.8c.2.15.44.53.7.31a17.66,17.66,0,0,1-2.63-2c1,.6,2.25,1.11,3.18,1.82.42.33.58.92,1.13,1.1.14.06.5,0,.38.28s-.55-.38-.77-.19c.29.24.8.23.8.75a31.64,31.64,0,0,1-6.83-4.8c-.07.2-.26-.11-.3.07.73,1.13,1.81,1.61,2.75,2.44A6.34,6.34,0,0,0,7.7,14.19a32.62,32.62,0,0,1-4.21-3.58,40.66,40.66,0,0,0,4.89,3.63c.57.4,1.37.6,1.75,1.27-.4,0-.7-.55-1-.5.73.59,1.56,1,2.34,1.55.62-.24,1.05.7,1.59.57a9.41,9.41,0,0,0-1.15-.67c.47-.32.85.19,1.17.32a.57.57,0,0,1,0-.22c-.18-.06-.39-.08-.5-.24.16-.28.39-.18.61-.07a.59.59,0,0,1-.16-.62l0-.1c-.06,0-.17,0-.17-.12a.85.85,0,0,1,.24-.16l0-.15a3,3,0,0,1-1.2.57c0-.21.3-.44.18-.56-.27.52-.69.47-1,0a.84.84,0,0,0,.39-.56c-.16.14-.32.27-.48.42-.36-.83.53-1.44,1.25-1.59-.16.18-.54.22-.62.45.55-.08.93-.75,1.4-.48a5.35,5.35,0,0,0-1,.58c.41,0,.83-.5,1.22-.56,0-.17,0-.34,0-.51a.87.87,0,0,0,0-.14,3.37,3.37,0,0,1-1.82-.9c.15.06.25.18.45.16,0-.11-.08-.15-.18-.12.15-.13.5.17.69.26s.56.23.87.33c0,0,0-.08,0-.12-.45-.19-.88-.39-1.27-.58s-.84-.17-1.06-.54c.1-.1.32.16.54.08C11.49,11,11,11,11,10.83a15.47,15.47,0,0,1,1.93.91l.58.22a.77.77,0,0,1,.13-.19,11.84,11.84,0,0,0-2-.89c-.06,0-.05.08-.14.08-.21-.26-.6-.25-.72-.67.84.12,1.68.84,2.67,1-.13-.13-.67-.26-.51-.41l0-.1c.4.19.83.42,1.26.63l.14,0a2.92,2.92,0,0,1-1.12-.75,7.29,7.29,0,0,1,2.9,1l.18-.06c-.57-.25-1.14-.5-1.69-.77,1.43-.31,2.36.53,3.34.7a4.79,4.79,0,0,1-1.42-.72l2.67,0a3.14,3.14,0,0,1,.15-.28c-1.88,0-3.9,0-5.69,0a3.24,3.24,0,0,1-2-1.57c-.13-.42.07-.68,0-1,.05-.11.23,0,.22-.15a.56.56,0,0,1,.52-.69c.12-.53.55-.63,1-.8.14,0,.23.23.33.08s-.09-.08-.09-.19c.48-.21.8.15,1.1,0-.3-.5-1.13-.13-1.52-.48,0,.09,0,.23-.15.24-.51-.29-1.18-.32-1.7-.6.24-.1.46.2.62,0-.2-.21-.51-.09-.6-.33-.21.2-.88.18-.95,0-.5-.05-.36.37-.78.23.09,0,.21-.07.17-.2A4,4,0,0,0,8,5.79a2.18,2.18,0,0,0,.82.39c0,.11-.07.13,0,.26,1,.09,1.11,1.31-.09,1.43C7.9,7.93,6.15,7,6.14,6c0-.71.85-.88,1.09-1.61a9,9,0,0,1,7.5.63c.06,0,0-.1.08-.12a2.53,2.53,0,0,1,1.31,1.63,2.55,2.55,0,0,1-.36.5c-.05-.18.18-.39,0-.52-.1.23,0,.56-.37.66-.09-.17.16-.49-.11-.49-.06.25.06.64-.37.66,0-.15.14-.48-.15-.44.09.24,0,.36,0,.53-.19,0-.22.11-.38.14,0-.17,0-.25-.13-.34-.15.09.1.46-.12.6,0-.14-.07-.21-.19-.16l.12.54c-.27,0-.29-.31-.58-.23a5.19,5.19,0,0,0,.63.69c1.39-.14,2.66.35,4.08.34l-.07-.17-.33,0c-.43,0-1,.11-1.18-.14.47,0,.95-.06,1.43-.07l-.08-.23-2.84,0c-.37,0-.78,0-.79-.23,0-.51,1-.71,1.36-.68.32-.46,1.07-.66.74-1.53.42-.06.64.18,1,.26,0-.05,0-.1,0-.15s-.33-.09-.45-.22l.44.14c0-.16,0-.33-.05-.49a.55.55,0,0,1-.36-.22c.22-.12.47-.21.46-.47-.15.08-.13-.11-.23-.11-.06.26-.31.4-.43.62,0-.12-.15,0-.18-.11.27-.16.59-.5.38-.82,0,.37-.32.56-.54.8-.21-.26.28-.59.47-.89s.08-.42.32-.44c.09.31.35.34.61.38a2.26,2.26,0,0,1,0,.59.55.55,0,0,1,.31,0l.13.06c0-.08,0-.12,0-.2.25,0,.55.21.74,0-.17-.2-.57,0-.7-.31.55,0,1.05.39,1.52.28-.51-.28-1.21-.24-1.65-.61a6.06,6.06,0,0,1,1.89.5c-.15.13-.18.34-.37.45-.35-.07-.82.07-1.17,0a2.94,2.94,0,0,1,.57.48c.71-.18,1.41-.41,1.46-1,.69-.5,1.75-.52,2.11.09-.24.19-.59.35-.69.72.36-.25.92-.22,1,.32v.05a.41.41,0,0,1,.21.13H23l.06.4a1.48,1.48,0,0,0,.74-.27s.07,0,.07.09c-.23.49-.23,1.13-.59,1.54l-.13-.07a4.28,4.28,0,0,1,0,.53l1.12.43.54,0c.26,0,.57,0,.89.05A8.81,8.81,0,0,0,27,5.2c-.33.63-.45,1.62-.9,2,0-.35.46-.71.46-1.2a1.88,1.88,0,0,1,1.13-1.88c0,.15.15.13.17.27A2.72,2.72,0,0,0,27,6.23c-.05.06-.17.09-.22.16A7.37,7.37,0,0,1,26.08,8c-.1.17-.21.47-.41.51a2.77,2.77,0,0,1,.59.13c.36-.73.58-1.54,1-2.26.43.95,1.67.92,1.75,2.21-.3.33-.36.82-.74,1.11,0-.58.6-1,.5-1.47-.26.45-.5.9-.73,1.37,0-.52.54-1.24.6-1.7-.42.44-.47,1.12-.89,1.56-.06-.08-.2,0-.25-.15.16-.44.55-1,.64-1.29-.43.31-.52,1.2-1,1.18,0-.28.39-.58.23-.83-.21.19-.17.54-.47.68h0a1,1,0,0,1,.17.5s0,.08,0,.13c1.26.54,2.5,1.12,3.76,1.67.1,0,.15.07.27,0,.59.45,1.58.64,2,1.1a30.68,30.68,0,0,0-3.63-1.52c1.39.69,3,1.34,4.34,1.92,0-.22-.41-.11-.27-.3,1.23.62,2.47,1.24,3.67,1.92-.12,0-.24-.05-.24.11s.13,0,.25-.06a58.52,58.52,0,0,0,5.3,2.91,1.73,1.73,0,0,0,1.31.69c.18.14.61.24.62.43,0-.05-.1,0-.1,0,.33.19.58.51,1,.55-.13-.14-.49-.26-.46-.42.36.26.8.41,1.14.68-.08.07-.2-.11-.2,0a8.15,8.15,0,0,0,1.66.88c.29.17.65.69.94.46a24.06,24.06,0,0,1,7,6.21c0,.48.59,1.12.55,1.7,0,.13.22,0,.21.21a5.24,5.24,0,0,0,.13,1.74c0-.2,0-.41.09-.54A3.51,3.51,0,0,1,55.49,33.14ZM43.42,21.35c-.34-.05-.49.17-.75.12C42.68,21.47,43.18,21.16,43.42,21.35ZM39.73,24.8c-.26.06-.23-.36-.45-.37,0,.07,0,.11,0,.21a1.94,1.94,0,0,1-.92-.36c0-.29.43-.4.75-.38.13,0-.05.25.12.28s.07-.26.12-.39.42,0,.62,0a6.55,6.55,0,0,1,.25,1.3c-.3,0-.25-.52-.53-.51C39.69,24.64,39.71,24.72,39.73,24.8ZM34.4,25c0,.49.23,1,.18,1.47s-.5.61-.4,1c-.82-.17-1.33-.85-2.24-.89-.5-.53-.17-1.4-.33-2.12.06-.11.18,0,.35-.08a3.61,3.61,0,0,1,3.61-1.76,2.06,2.06,0,0,0-1.08,1c.36.09.62-.22.85-.35-.57.78-.25,2.11-.62,3a4.2,4.2,0,0,1,.14-2.59A2.29,2.29,0,0,0,34.4,25Zm-3.19,1.56c-.27-.2-.66-.21-.89-.47A1.21,1.21,0,0,1,31.21,26.54ZM30.72,26c.25-.12.53.06.42.27C31,26.1,30.8,26.16,30.72,26Zm.49-.58c-.4,0-.66-.09-1,.18-.2-.08-.22-.47-.36-.65s-.4.1-.52,0a1.76,1.76,0,0,1,.47-2c.06.13.19.16.27.25-.31.4-.87,1.19-.47,1.62.08-.5.1-1.32.63-1.6.2-.11.48-.06.71-.11.58-.14,1.29-.44,1.71,0A2.84,2.84,0,0,0,31.21,25.39Zm-5-2.91A.8.8,0,0,0,26,23c-.25,0-.34-.18-.6-.12a.58.58,0,0,0-.18.35,2.08,2.08,0,0,1-1.51,0c.74,0,1.68-.18,1.9-.8a3.05,3.05,0,0,1-3.58.09c.2-.07.5.07.58-.19-.31.13-.9.14-1.08-.17.31-.24.85.08,1.2-.22a1.15,1.15,0,0,1-1,0c.1-.5,1-.22,1.26-.65a.85.85,0,0,1-.91.1c.23,0,.17-.15.2-.25.29-.14.65,0,.73-.22a1.87,1.87,0,0,1-.56.07c-.2-.64-1.07-.73-.92-1.51.39-.11.72-.54,1.07-.55,0,0,0,.11.12.08.34-.11.66-.36,1-.33a6.72,6.72,0,0,1,3.57,1.48c-.46.11-.78.3-1.2.43-.15.05.09-.17-.08-.14a2.11,2.11,0,0,0-1.84.84c.45-.32,1.32-.83,1.69-.59a.21.21,0,0,0-.09.28c.29.07.55-.25.89-.2-.92.31-1.56,1-2.38,1.22.11.14.34.08.58,0,1.32-1.32,4.07-1.85,5.41-.72-.06.32.35.31.37.7.17,0,.34.06.38.28-.61-.2-1.68-.32-2.05.37-.27,0-.42-.23-.72-.2s-.24.81-.54.85c0-.19,0-.4.07-.59-.41.19,0,.92-.37,1.13-.12-.36,0-.57,0-.87-.22.2-.05.65-.22.88-.09-.12-.37,0-.44-.11,0-.32.07-.6.11-.91a1.33,1.33,0,0,0-.26.94C26.06,23.67,26.2,22.76,26.17,22.48Zm-2.95-6.73c-.18,0-.14.22-.37.24a1.7,1.7,0,0,0-.38-.54A1.54,1.54,0,0,1,23.22,15.75Zm-.8-.55c.18,0,.55.12.53.25C22.78,15.35,22.58,15.31,22.42,15.2Zm.86,1c-.12,0,0,.17,0,.2.12-.38.55-.21.85-.14,0,.17-.13.42.08.56,0-.27.24-.33.11-.65s-.58-.06-.78-.24a.75.75,0,0,1,1,.25c-.84,1.38,1.12,2.54,2.2,1.42.31.67-1.18,1-1.62.68.33.47,1.38.18,1.78-.2,0,.5.33,1,.32,1.39a6.93,6.93,0,0,0-4.07-1.15,3.08,3.08,0,0,0-.25-2C23,16.28,23.26,16.15,23.28,16.21Zm1.33.58c.07,0,.1.31,0,.37C24.54,17,24.52,16.86,24.6,16.79Zm.77.61c-.14,0-.29,0-.3-.19s.14,0,.26,0C25.36,17.33,25.27,17.32,25.37,17.4ZM25,16.7a.78.78,0,0,1,.58.23C25.36,16.89,25.12,16.9,25,16.7Zm.82.64c.14.07.34.05.42.22C26.09,17.79,25.73,17.51,25.83,17.34Zm1.72,3.21a2,2,0,0,1-.81.08C27,20.57,27.36,20.45,27.55,20.55Zm7.13,1.55a4.36,4.36,0,0,1-1,.29c-.22-.48-.94-.53-1.05-1a14.74,14.74,0,0,0,1.46.71,13.9,13.9,0,0,0-3.32-1.54c.11.14.31.14.43.27l-.3.07c-.86-.72-2.22-.68-3-1.5a15.45,15.45,0,0,0,2.81,1.13,8.29,8.29,0,0,0-1.77-.69c-.21-.1-.36-.32-.57-.44s-.56-.14-.62-.43c.27,0,.44.2.72.2-.29-.26-.9-.16-.85-.75,2.54,1.19,5.09,2.34,7.6,3.58-.16,0-.27,0-.46.06-.47-.46-1.28-.48-1.85-.78-.17-.09-.27-.24-.43-.32-.53-.25-1.11-.44-1.63-.72A23.82,23.82,0,0,0,34.68,22.1Zm-1.37.16c-.12.06-.3-.14-.2-.21C33.15,22.16,33.3,22.09,33.31,22.25Zm-1.37.16c-.21-.55-.76-.16-.87-.84a2,2,0,0,1,1.88.92c-.44.09-.62-.23-1-.3C31.93,22.24,32,22.38,31.94,22.41ZM31,21.32a.42.42,0,0,1,.53,0C31.4,21.28,31.09,21.49,31,21.32Zm-.16,1.13,0,.15a.47.47,0,0,1-.38-.07Zm-.65-.11c0-.12.37-.14.37,0C30.45,22.35,30.2,22.54,30.2,22.34Zm-1.35,1.41c-.17.24-.57-.06-.7-.31.07-.39.57-.35.88-.26-.17.06,0,.32-.23.37s-.41-.2-.49-.1C28.44,23.62,28.72,23.57,28.85,23.74Zm-.8-.08c.31.08.87.33.59.75a6.9,6.9,0,0,0-.65-.32C28,23.94,28.09,23.84,28.05,23.67Zm-1.49.55a1.59,1.59,0,0,0,1.33-.1c.31.21.71.27.85.74-.38-.12-.72-.29-1.09-.43a14.28,14.28,0,0,1,1.72,1.12l.25-.05c0,.16.12.13.12.28A10.42,10.42,0,0,1,27,24.47C26.85,24.47,26.52,24.34,26.56,24.21Zm8.81-.45c0,.29-.2.41-.27.64C35.14,24.16,35.1,23.86,35.37,23.76Zm0-.2c.08-.07.17-.32.29-.12C35.57,23.5,35.43,23.7,35.33,23.57Zm.13-1.49c-.11,0,0-.15-.09-.19-.78-.26-1.43-.67-2.15-1-.49-.21-1.06-.26-1.37-.63,0,0,0,0,0,0l0,0s.08-.11,0-.16a42.12,42.12,0,0,1-4.34-1.87c0-.16-.09-.17-.12-.29,1.05.06,1.78,1,2.69,1.05-1.1-.31-1.59-1.23-2.8-1.29C27,17.24,26.61,16.57,26,17c-.05-.14-.35-.25-.29-.35s.4.25.54.08c-.35-.26-1.15-.14-1.15-.73a10.07,10.07,0,0,0,2,.8,20.09,20.09,0,0,0-2.26-1c-.13-.34-.47-.33-.77-.4a.14.14,0,0,0,.07-.17c-.28-.11-.89-.06-.92-.36,1.24.71,3.48-.18,5.28-.37.08,0,0,.19.14.18.88.13,2-.16,2.64.39a.71.71,0,0,1-.44.36c.14.12,0,.34-.11.44s-.34-.22-.44-.11c.16.17.48.19.32.5-.23.13-.45-.3-.78-.24.2.22.52.25.69.52-.08.07,0,.2-.09.28a17.31,17.31,0,0,0-2-1c.36.56,2.1.77,1.94,1.64a19.53,19.53,0,0,0-1.86-.62c.47.19.88.49,1.36.68,0-.06-.1-.11-.14-.17.28.1.57.17.69.52-.26.06-.41-.35-.61-.17.22.25.63.21.72.67-.29,0-.36-.33-.69-.26.16.3,1.1.45.78.66.35.25.83.3,1.1.69.58-.43,1,.39,1.61.41-.25-.22-.56-.33-.8-.55,1.1.11,2.09-.53,3.08-.65a13.43,13.43,0,0,1,2.78.09A3.22,3.22,0,0,0,38,21.92c.12.08.33,0,.36.23-1.58-.46-3.14-1.9-4.83-2.18a23.75,23.75,0,0,1,4,2.06,6.57,6.57,0,0,1-1.74-.34c.19.22.55.17.72.41C36,22.28,35.8,22.09,35.46,22.08Zm2.73-1.51c0,.13,0,.29-.07.38C38.05,20.77,38.07,20.64,38.19,20.57Zm.34,2.16c.23.16.6.51.59.75a3.24,3.24,0,0,0-2.47-1A2.65,2.65,0,0,1,38.53,22.73Zm-.12-1c.14.37.45.45.64.75C38.72,22.49,38.46,22,38.41,21.77ZM36.3,23.71c-.18.08-.25,0-.29-.14C36.18,23.49,36.21,23.66,36.3,23.71Zm0-.41c.35,0,.45.37.65.58A.74.74,0,0,1,36.26,23.3Zm.31-.23c.52,0,.75.51,1,1A1.75,1.75,0,0,1,36.57,23.08ZM37,23c.57,0,.8.61,1,1.16C37.45,24.1,37.41,23.21,37,23Zm.65.11a5,5,0,0,0,.57.24c-.06.21.13.19.19.37-.18,0-.08.2-.26.22C38,23.58,37.65,23.31,37.62,23.09Zm1.94-.18c.16,0,.3,0,.35.18C39.74,23.11,39.66,23,39.56,22.92Zm.63.95c.48.16.28.79.41,1.32C40.29,25.06,40.21,24.21,40.19,23.86ZM19.11,14.4c-.14,0-.44,0-.32-.24a12.11,12.11,0,0,1,2.53,1c-.1,0-.1.08-.19.09A17.92,17.92,0,0,1,19.11,14.4Zm1.43,2.17a3.93,3.93,0,0,1-.22-1,.63.63,0,0,1,0-.12,1,1,0,0,1,0,.12C20.45,16,21,16.26,20.54,16.57Zm-1.07-2.42c.12.1.3.1.41.22C19.74,14.36,19.42,14.26,19.47,14.16Zm.92.36a12.39,12.39,0,0,1,1.61.67A5.11,5.11,0,0,1,20.39,14.52ZM6.93,17.91c.32.24.65.46.95.72,0,0-.1,0-.11,0C7.51,18.38,7,18.14,6.93,17.91ZM27.45,6.4c-.13,0-.08-.41,0-.27C27.34,6.13,27.59,6.39,27.45,6.4Zm-.22-.52c.09-.24.12-.52.31-.69C27.69,5.54,27.51,5.92,27.22,5.87Zm-.73,1.84c-.2.23-.2.58-.45.78C26,8.17,26.37,7.65,26.49,7.71Z"/><path class="cls-2" d="M23.93,12c-.16-.1-.46.12-.48,0s-.1-.07-.13-.13.18-.21.29-.31a6.77,6.77,0,0,0-1.07.21.18.18,0,0,1,.12.14c-.09.16-.22.06-.33.18.1,0,.18.13.11.24a.69.69,0,0,1-.43-.1,2.87,2.87,0,0,1,.18.24.43.43,0,0,1,.1.1.28.28,0,0,1,0,.05,1.54,1.54,0,0,1,.16.4l.16.07c-.09-.37.34-.64.35-1,.19-.11.28-.05.43.06-.64.18-.54.82-.55,1.26l0,.06a1.43,1.43,0,0,1,.7-.79c-.19-.1-.48.09-.58.18C23,12.31,23.49,12.18,23.93,12Z"/><path class="cls-2" d="M20,7.09l-.05,0s0,.1,0,.14l.57.21.07-.2h0A3.4,3.4,0,0,1,20,7.09Z"/><path class="cls-2" d="M20.77,7a.54.54,0,0,1,.32-.3c-.16-.19-.1-.67-.23-.82-.12.17,0,.48-.05.69-.14,0-.18-.08-.32,0-.11-.28.07-.6-.13-.8a1.35,1.35,0,0,0,0,.68c-.51.17-.32-.79-.71-.83,0,.17.06.43,0,.62l-.1,0a4.43,4.43,0,0,1,.29.59c.29.1.57.21.85.34Z"/><path class="cls-2" d="M21.45,6.15a3.44,3.44,0,0,1,0-.62c0-.3.21-.58,0-.74a3.4,3.4,0,0,0-.09,1.6Z"/><path class="cls-2" d="M21.69,5.57a.68.68,0,0,1,.08-.15,1.47,1.47,0,0,0,0-.38,1.37,1.37,0,0,0-.18.8Z"/><path class="cls-2" d="M18.07,17.6h0a1.15,1.15,0,0,0,1,.78A8.59,8.59,0,0,1,18.07,17.6Z"/><path class="cls-2" d="M16.41,15.79a.78.78,0,0,1-.14-.23,3.63,3.63,0,0,0-.48.05l-.1.16a.66.66,0,0,1-.09.41l-.11.16A3.32,3.32,0,0,1,16.55,16Z"/><path class="cls-2" d="M20.8,17a4.2,4.2,0,0,1-.46.37,4.74,4.74,0,0,1,0,.54,4.21,4.21,0,0,0,.45-.4c.23.16.11.55.38.54,0-.22-.2-.47-.27-.72.35,0,.29.67.55.81A1.28,1.28,0,0,0,20.8,17Z"/><path class="cls-2" d="M13.32,13.54a.87.87,0,0,0-.59.33,3.94,3.94,0,0,0,.58-.18C13.32,13.64,13.32,13.59,13.32,13.54Z"/><path class="cls-1" d="M47.14,23.94A6.34,6.34,0,0,0,45.63,23,5.27,5.27,0,0,0,47.14,23.94Z"/><path class="cls-1" d="M49.61,30.21c.09-.33-.53-.68-.75-1C48.95,29.56,49.37,29.92,49.61,30.21Z"/><path class="cls-1" d="M20.47,27c.63.11.94.71,1.62.72-1.6-1-3.37-1.73-5-2.66a4.31,4.31,0,0,0-1.1-.48,23.67,23.67,0,0,0,4,2.11c.07.14-.12.13,0,.27,2.27,1.2,4.45,2.55,6.82,3.6C26.39,30,25.65,30,25,29.67s-1.08-.78-1.64-1a5.78,5.78,0,0,1-.81-.33C21.9,27.87,21.22,27.4,20.47,27Z"/><path class="cls-1" d="M48.53,34.37c-1.24-.21-2.92.28-4.08-.06A9.73,9.73,0,0,0,48.53,34.37Z"/><path class="cls-1" d="M47,33.25a15.83,15.83,0,0,0-3.27-.61c.37.27,1.06.21,1.63.3A13.13,13.13,0,0,0,47,33.25Z"/><path class="cls-1" d="M44.85,30.35a5.75,5.75,0,0,0-2.38-.86C43,29.65,44.09,30.11,44.85,30.35Z"/><path class="cls-1" d="M34.2,20.91c.07,0,0-.06,0-.15-1.64-.61-3-1.67-4.71-2.15C31,19.5,32.62,20.13,34.2,20.91Z"/><path class="cls-1" d="M29.9,19.9c-.11-.24-.65-.41-1-.56C29.09,19.54,29.63,19.69,29.9,19.9Z"/><path class="cls-1" d="M30.25,32.13c0,.05.07,0,.11,0-1-.53-2.05-1-3.09-1.43A10.59,10.59,0,0,0,30.25,32.13Z"/><path class="cls-1" d="M24.63,26.95c-1.33-.81-2.87-1.45-4.36-2.19S17.43,23.1,16,22.41a9.43,9.43,0,0,0,2.1,1.24C20.2,24.77,22.35,26,24.63,26.95Z"/><path class="cls-1" d="M17.38,6.3a3.73,3.73,0,0,0-.62-.13l.64.26S17.38,6.34,17.38,6.3Z"/><path class="cls-1" d="M23.72,27.05c0-.26-.54-.22-.72-.41C23,26.85,23.51,26.91,23.72,27.05Z"/><path class="cls-1" d="M23.46,25.91c-3.39-1.88-7-3.48-10.28-5.52a24.66,24.66,0,0,0-3.31-2A120,120,0,0,0,23.46,25.91Z"/><path class="cls-1" d="M22.8,24.19c-.28-.55-1.19-.67-1.67-1.13C21.48,23.5,22.29,23.79,22.8,24.19Z"/><path class="cls-1" d="M20.64,25.67c-.24-.28-.66-.37-1-.55l-1.07-.59a7.78,7.78,0,0,1-2-1.2,50.29,50.29,0,0,1-6.81-4A64,64,0,0,0,20.64,25.67Z"/><path class="cls-1" d="M18.82,22.7c-.11-.11-.29-.12-.41-.21C18.36,22.58,18.67,22.68,18.82,22.7Z"/><path class="cls-1" d="M15.57,23.54c-.25-.3-.93-.5-1.33-.79C14.42,23.17,15.15,23.29,15.57,23.54Z"/><path class="cls-1" d="M9,16.49a12.06,12.06,0,0,0,1.89,1.19c0,.07.05,0,0-.06C10.18,17.42,9.8,16.63,9,16.49Z"/><path class="cls-1" d="M8.07,15.82c-.31.21-.48-.44-.8-.08-.89-.78-2-1.55-2.78-2.34a16.57,16.57,0,0,0,3.37,2.88c1.47,1.18,3,2.29,4.51,3.3.85.45,1.75.8,2.58,1.28-3.69-1.26-6.57-4.18-9.61-6.25,1,.87,2,1.91,3.06,2.69.24.16.57.17.73.46A8.73,8.73,0,0,1,7,16.38c-.87-.71-1.58-1.67-2.47-2.35a17.29,17.29,0,0,0-1.84-2.14,26.54,26.54,0,0,0,6.38,6.26c-.61-.12-1-.67-1.51-.91.05.19,0,0-.14.09a25.65,25.65,0,0,0-2.15-1.64C6.49,17,8,17.83,9.26,19A3.11,3.11,0,0,1,8,18.13c-.77-.65-1.53-1.09-2.28-1.78A20.07,20.07,0,0,1,3,13.12C2.89,13,3,13,3,12.82a5.58,5.58,0,0,1-1.33-2.4c.39,0,.44.95.81.8a4.18,4.18,0,0,1-.66-1.78c.44.52.63,1.42,1.18,1.76-.13.11.09.21.08.34a.48.48,0,0,1,.34.13,12.65,12.65,0,0,0,3.88,3.75,19.84,19.84,0,0,1-4.9-5.5A12.09,12.09,0,0,1,4,11.65a14.49,14.49,0,0,0,1.72,1.59c.84.62,1.79,1.1,2.59,1.75a23.9,23.9,0,0,0,3.62,2.61c-1.7-.59-3-2-4.39-3a23.4,23.4,0,0,1-4.07-3.24,17.46,17.46,0,0,0,2.15,2.12c-.4.1-.75-.78-1.11-.74A26,26,0,0,0,8.07,15.82Zm-1,1a30.62,30.62,0,0,1-2.93-2.77A9.63,9.63,0,0,0,7.1,16.83ZM4.24,13.41a6.27,6.27,0,0,0-.78-1.12c-.28-.35-.52-.83-.9-1A12.59,12.59,0,0,0,4.24,13.41Zm-.11-.49c.13.07-.12-.27-.18-.33C3.84,12.7,4.09,12.81,4.13,12.92Zm0,1.55c0-.18-.29-.44-.41-.64C3.73,14,4,14.28,4.17,14.47Zm-.67-1.1a19.3,19.3,0,0,0-1.45-2.22C2.27,12,3,12.65,3.5,13.37Z"/><path class="cls-2" d="M6.85,18a13.44,13.44,0,0,0-3.07-3.42c-.88-.86-2-2-2-3.35,0,0,.06-.06.07,0a7,7,0,0,0,2.38,3.69A11,11,0,0,1,6.9,18s0,.07-.05,0Z"/><path class="cls-2" d="M6.41,16.36c-.65-.79-1.25-1.62-1.89-2.42a28.09,28.09,0,0,1-1.93-2.5,0,0,0,0,1,.06,0,30.37,30.37,0,0,1,2,2.44,20.71,20.71,0,0,1,1.8,2.52s0,0,0,0Z"/><path class="cls-2" d="M4.89,16.06a8,8,0,0,1-3-3.49c0-.05.06-.08.08,0,.45.63.8,1.29,1.29,1.89A11.16,11.16,0,0,0,4.91,16s0,0,0,0Z"/><path class="cls-2" d="M4.85,15.63a27.62,27.62,0,0,1-2.19-4,0,0,0,0,1,.08-.05c.93,1.22,1.33,2.76,2.22,4,0,.06-.06.13-.11.06Z"/><path class="cls-2" d="M6.62,11C5.32,10,3.83,9.81,2.31,9.34c0,0,0-.1,0-.09a8.67,8.67,0,0,1,4.35,1.69s0,.09,0,.07Z"/><path class="cls-2" d="M6,10.94A20.18,20.18,0,0,0,2.23,9.79s0-.08,0-.09a8.69,8.69,0,0,1,3.83,1.13c.07,0,0,.14-.06.1Z"/><path class="cls-2" d="M6.11,11.68a38.87,38.87,0,0,1-4-1.43c-.06,0,0-.11,0-.1a18.52,18.52,0,0,1,4,1.46s0,.08,0,.07Z"/><path class="cls-2" d="M5.09,12.46a19.12,19.12,0,0,0-2.26-1s0-.11,0-.1a6.45,6.45,0,0,1,2.31,1c.08,0,0,.15-.07.12Z"/><path class="cls-2" d="M2.7,11l-.22,0-.17-.07s0-.07,0-.08a2.74,2.74,0,0,1,.39.05.06.06,0,0,1,0,.13Z"/><path class="cls-2" d="M8.19,9.52a1.72,1.72,0,0,0-.25-.75,3.32,3.32,0,0,0-.49-.51,0,0,0,0,1,0-.08c.54.09.83.86.8,1.34a0,0,0,0,1-.1,0Z"/><path class="cls-2" d="M2.09,8.51a1.72,1.72,0,0,0-1.36.64c-.32.44-.27,1-.45,1.46,0,.06-.12.1-.16,0-.52-1.12.79-2.77,2-2.22.06,0,0,.1,0,.11Z"/><path class="cls-2" d="M38.38,22.81a2.73,2.73,0,0,0-2.93,1,7.56,7.56,0,0,0-.79,2.94.08.08,0,0,1-.15,0,4.34,4.34,0,0,1,.79-3.26,2.62,2.62,0,0,1,3.08-.71s0,0,0,0Z"/><path class="cls-2" d="M25.44,17.58a.76.76,0,0,1-.62-.61,1,1,0,0,1,.29-1s.08,0,.08,0a5.23,5.23,0,0,1-.2.65.73.73,0,0,0,.46.86s0,0,0,0Z"/><path class="cls-1" d="M23.82,9.74A5.15,5.15,0,0,1,25,8.95c-.48,0-.82.53-1.26.68A.23.23,0,0,0,23.82,9.74Z"/><path class="cls-1" d="M26,9.12a2.79,2.79,0,0,0,.78-.48A2.31,2.31,0,0,0,26,9.12Z"/><path class="cls-1" d="M26.42,9.29a3,3,0,0,0,.75-.36C26.88,8.91,26.67,9.17,26.42,9.29Z"/><path class="cls-1" d="M27.13,9.28c.09,0,.23-.13.21-.23S27.21,9.21,27.13,9.28Z"/><path class="cls-1" d="M23.9,5.84c-.25-.51-.25-1.06-1-1.5a.25.25,0,0,1-.14.14,2.25,2.25,0,0,0-1.47-1c-.16.15-.41,0-.61-.06a2.22,2.22,0,0,0-.37.18c.74.56.46,1.17.6,1.82-.42.12-.27.62-.28.92-.3-.12-.26-.54-.63-.75a.25.25,0,0,0-.15.14c-.11-.13-.16-.3-.36-.27,0-.28-.43-.48-.6-.73-.06,0-.09.12-.16.09-.27-.3-.9-.92-1.28-.61A6.8,6.8,0,0,0,16.4,3.7c-.1,0,0,.28-.08.4.54.22.36.57.51.86-.39.21,0,.67.14,1-.18.09-.2.15-.36.23a2.53,2.53,0,0,0,.5,1.17c0,.05-.1-.13-.2-.08-.15.59.44,1,.74,1.55-.1.08-.24,0-.34.06s0,.17-.09.27a1.45,1.45,0,0,1,.64,1.61c-.15-.12-.21.07-.35.29-.62-.12-1.29-.41-1.83-.17-.07-.07.16-.2,0-.26s-.56,0-.85.07a7.79,7.79,0,0,0-.78.12c-.12.06-.16.18-.27.24a2.92,2.92,0,0,1-1.32.33c-.05,0-.1-.06-.09-.09a2.56,2.56,0,0,1-2.34-1c-.08-.06-.14,0-.21,0s0-.19-.18-.25a.48.48,0,0,0-.41.75c.07.06.1,0,.14-.06.75.55,1.78,1.17,2.45,1,.12.1.28.06.32.19s-.21-.11-.28,0c0,.26.32.31.46.42a1.62,1.62,0,0,1,.56,1.29,2.51,2.51,0,0,0-.39.49c.18.14.17.3.41.35-.57.33-.21.86-.38,1.35.12.08.19,0,.3,0-.32.37-.5.57-.51,1,.08.14.13,0,.25.07-.29.18-.21.37-.35.65a.55.55,0,0,0,.47.2c.08.11-.09.25.06.35-.15.12-.23.16-.18.34a2.53,2.53,0,0,0,2-.9c.14.1.11.24.32.33s.41-.35.45-.58c.36,0,.71-.52.8-.87.1,0,.06.09.13,0,.2.62.44,1.67,1.48,1.77a1.24,1.24,0,0,0,.24.38c.09.07.15,0,.21-.09a7.17,7.17,0,0,0,1.61.93c.07,0,.12-.08.16-.17a7,7,0,0,0,2.05.57l.17-.25a3.15,3.15,0,0,1-.56-.57c0-.18.15-.09.15-.22-.27-.07-.23-.63-.39-.88s-.32-.2-.32-.33.3-.16.35-.29c-.23-.21-.47-.43-.7-.65.34-.32-.31-.54-.5-.8.06-.1.17,0,.22-.18a2.33,2.33,0,0,0-.87-.76c.13-.72-1.16-.9-1.7-1.08.29-.22.66-.08.91-.45a5.43,5.43,0,0,0,.9.73.6.6,0,0,0,.16-.45,4.57,4.57,0,0,0,1,1.57,1,1,0,0,1,.31-.17c.29.19.61.78.93.61a5.16,5.16,0,0,0,1.82.76c.08-.1,0-.18.14-.28-.54-.4-.32-1-.51-1.36a.4.4,0,0,1,.29.09c-.09-.55.12-1,0-1.53.06-.12.2.1.28,0S24,13.06,24,13s.19,0,.16-.08a4.44,4.44,0,0,0-1.39-.81c.47-.06,1.16.14,1.48-.18.6.07,1.34.1,1.67-.48a1.56,1.56,0,0,1,.58,0h0l.13,0v0c.1,0,.18-.07.28-.06a5,5,0,0,1,.93-.62H27.6a1.29,1.29,0,0,1,.64-.21c.35-.16.7-.32,1.06-.46.05-.45-.94-.74-1.15-1h.06l-.06,0a5.19,5.19,0,0,0-1.24-.72c-.62,0-1.23-.56-1.91-.39-.06-.09,0-.2-.16-.28a1.84,1.84,0,0,0-1.13.26A9,9,0,0,0,23.9,5.84ZM9.71,10.36c-.1.09-.22.06-.34.06C9.44,10.27,9.66,10.23,9.71,10.36Zm1.57,1.19a5.4,5.4,0,0,1-1.79-1,.66.66,0,0,1,.37-.09C10.06,11,10.85,11.21,11.29,11.56Zm6.86.7c-.38-.07-.89,0-1.24-.3A2.78,2.78,0,0,0,18,12c-.77-.12-1.53-.15-2.3-.28.64-.35,1.49.16,2.19.07C18,12,18.24,12.08,18.14,12.26Zm-1.32.33c-.44-.18-.86-.66-1.31-.71a3.6,3.6,0,0,1,1.35.28s-.25-.05-.17,0c.23.07.69,0,.78.25-.11,0-.22-.1-.3,0,.23.1.55,0,.71.21C17.58,12.52,17.2,12.74,16.82,12.58Zm.2.07c.31,0,.62,0,.94.08A.6.6,0,0,1,17,12.66Zm.61-.31c.09-.06.41-.08.38.1C17.87,12.38,17.78,12.49,17.63,12.35Zm-2.56-.7c.41,0,.91-.25,1.24-.14C15.92,11.53,15.41,11.79,15.07,11.65Zm2.73,1.54c.3,0,.34-.5.6-.59,0,.19.2.35.28.54C18.45,13.38,18.13,13.32,17.8,13.19Zm-.32.17c.18-.15.44,0,.67,0C18,13.41,17.62,13.49,17.49,13.35Zm1.92,1.27c-.05,0-.25,0-.23-.1C19.25,14.6,19.42,14.47,19.41,14.62Zm-1.66,2.84a1.14,1.14,0,0,1,.18.39A.48.48,0,0,1,17.75,17.46Zm-.31.45c.1-.06,0-.22.13-.2,0,.08.08.14,0,.23A.2.2,0,0,0,17.44,17.91Zm-1.78-1.18c.15-.12.15-.36.26-.38C15.87,16.46,15.84,16.77,15.66,16.73Zm-2.38,1c.07.16-.14.33-.29.27C13,17.86,13.11,17.66,13.28,17.72Zm-.35-4c-.17.15-.11.37-.25.3C12.76,13.9,12.76,13.76,12.93,13.74Zm-.2-1.53c1.24.65,2,1.86,1.11,2.82.18,0,.42-.33.47-.53a5.75,5.75,0,0,1-.53,2.58c.58-.69.45-1.63.76-2.26.18.33.43.92.79,1a3.47,3.47,0,0,1-1-2.11c.07.14.22.42.44.45a10.43,10.43,0,0,1-1.1-1.67,9.58,9.58,0,0,1,3.47,2.72,11.93,11.93,0,0,0,1.14,2.47c-.14-.81-.85-1.52-.94-2.34a10.1,10.1,0,0,0,2.75,2.82c0-.09.18.15.21,0a8.08,8.08,0,0,1-2.71-2.88,7.9,7.9,0,0,0,1.88.74c-.57-.44-1.38-.36-2-.93-.33-.28-.48-.73-.82-1.05a11.26,11.26,0,0,0-3.7-2.17c1.26.18,2.9-.3,4,1a4.91,4.91,0,0,1,.68.1c-.21.27-.58-.11-.84,0,.15.11.43.06.5.22-.38,0-.78-.16-1.16-.21,0,.05.21.08.15.14a4,4,0,0,0-.85-.21,7.23,7.23,0,0,1,2.18,1,2.3,2.3,0,0,1,1.53.53s-.09,0-.11,0c0,.55,1.09.5,1.14,1.11-.13,0-.28-.08-.39,0,.21.25.77.51.88.9-.12.07-.11.19,0,.29.31,0,.35.24.46.42a4.21,4.21,0,0,1-1.19-.45c.78.6,1.53,1.09,1.62,1.86,0,0-.09-.07-.13,0,0,.33.34.59.49.89a5.17,5.17,0,0,1-2.15-.86c0,.12.3.19.17.33-.32.14-.83-.66-1.2-.51-.78-.41-.58-1.13-1.18-1.54a1.06,1.06,0,0,1-.18.85,3.69,3.69,0,0,1-.69-1.24.59.59,0,0,0-.09-.6.57.57,0,0,1-.15.22c-.19-.41,0-1-.17-1.42A2.14,2.14,0,0,0,15,13.5c0,.18.31.32.48.47-.06.08-.11.15,0,.2a.88.88,0,0,1,.52.91c-.23,0-.28-.26-.46-.28.09.42.75.74.51,1.22-.15-.05-.11-.26-.25-.15.37.54-.55.75-.64,1.29-.15-.21-.15,0-.22,0s-.12-.26-.3-.37c-.16.66-.77.77-1.18,1.14,0-.15,0-.51-.3-.36,0-.12.14-.27.11-.39a1.21,1.21,0,0,1-.58,0,1.09,1.09,0,0,0,.21-.82,1.79,1.79,0,0,0,.34-1.06c-.11-.08-.17,0-.26,0-.06-.18.13-.39-.07-.55a.88.88,0,0,0,.52-.9c-.12-.06-.2.06-.32,0A1.61,1.61,0,0,0,12.73,12.21Zm4.61,3.09a.47.47,0,0,1-.21-.26C17.25,15.12,17.36,15.2,17.34,15.3ZM16.43,14a1.81,1.81,0,0,1,.4.43C16.69,14.31,16.48,14.18,16.43,14Zm.79-2.6a3.08,3.08,0,0,0-1.39-.08c.09,0,.3,0,.31.06a23.85,23.85,0,0,1-2.37.32c-.14,0-.08.1-.2.15a6.73,6.73,0,0,1-1.12-.19c.38-.25,1.11-.07,1.53-.56a4.47,4.47,0,0,1,1.21-.3c-.09.17-.34.17-.33.34.09-.12.17.14.24.15s.47-.23.74-.28A2.37,2.37,0,0,1,17.22,11.42Zm-.15-.22c-.16-.1-.44,0-.52-.18C16.69,11.06,17.13,11.13,17.07,11.2Zm.47.56c-.37-.07-.74-.11-1.12-.19A.84.84,0,0,1,17.54,11.76Zm.19-.21c-.05,0-.1,0-.16-.06l.06-.09C17.72,11.45,17.76,11.49,17.73,11.55Zm.15-.5c-.05.05-.09.22-.18.12S17.74,11,17.87,11.05Zm1.24.8c-.43-.22-.8-.16-1.23-.38A2.78,2.78,0,0,1,19.12,11.85Zm.58-6.13c.12.33.41.45.34.8-.15-.11-.19-.39-.37-.41.17.29.44.56.34.89-.1,0-.09-.24-.22-.19a1.75,1.75,0,0,1,.3.73C20,7.42,20,7.13,19.8,7.1c.08.28.3.54.21.86-.16-.54-.61-1-.77-1.56a1,1,0,0,1-.2.88,20.2,20.2,0,0,0-1.74-2.47c.37.92,1.23,1.75,1.44,2.7C18.39,7.3,18,7,17.71,7c1.2.58,1.86,1.55,1.71,2.37-.07-.22,0-.47-.19-.67-.06.26.19.47,0,.75-.3-.18,0-.62-.26-.71,0,.26.13.66-.05.87-.1-.18,0-.54-.18-.61,0,.11.06.2,0,.3a8.47,8.47,0,0,1-.51,1.55c0,.07,0,.34-.25.21.06-.29.52-.65.38-.9-.06.14-.1.42-.3.5A1.5,1.5,0,0,0,18.3,9.5c0,.2,0,.55-.13.69a2.68,2.68,0,0,0-.41-1.07c.12,0,.26.1.37,0-.11-.56-.85-1-1-1.55.2.08.45.37.6.28s-.05-.34-.27-.48C17.4,7,17,6.69,17,6.27a2.56,2.56,0,0,0,.73.31c-.27-.48-.7-.67-.74-1.18,0,0,.1,0,.1-.07,0-.31-.18-.7-.17-1.06a1,1,0,0,1,.58.4.24.24,0,0,0,.14-.14c.07,0,.12.19.21.13s-.08-.28.08-.18c.55.11.63.67.9,1,.1-.12,0-.21.13-.33.41.2.37.47.56.71C19.66,5.8,19.56,5.62,19.7,5.72Zm-.87,3.87c0,.14-.12.71-.15.59S18.71,9.69,18.83,9.59Zm.8-2.1c0,.38.17.88,0,1.2,0-.65-.81-1-.32-1.79a1.19,1.19,0,0,1,.43,1C19.74,7.81,19.72,7.52,19.62,7.5ZM19,7.55A1.53,1.53,0,0,1,18.76,7,1.31,1.31,0,0,1,19,7.55Zm1-1.33C20,6.12,20,6,20,5.95,20.08,6,20.15,6.21,20.06,6.21ZM21.55,9a6.1,6.1,0,0,0-.21-1.72c-.06.61.18,1.16.08,1.77-.09,0-.05-.17-.14-.08s.18.14.17.33c-.88.92-1.76,1.83-2.87,1.78a5.69,5.69,0,0,0,.67-1.41c.28.15.18.36.22.55.87-.25.21-1.35.64-1.87.16.14.06.41.35.44,0-.14,0-.17.14-.28-.1-.27-.29-.64-.1-.87a1.25,1.25,0,0,1-.07-1.14c.14.1.13.22.29.31.05-.15.17,0,.23-.18s0-.45,0-.67c.19-.05.16-.2.3-.36-.14-.24.1-.45-.06-.64.06-.06.14-.08.19-.2-.23-.31-.14-.68-.37-1C22.79,5.18,22.69,7.15,21.55,9ZM23,4.9c.29.39.17,1,.41,1.29,0-.2-.11-.37-.05-.58.23.7.64,1.37,0,2.24-.07,0-.16,0-.23,0,.1.12-.17.3-.13.42s.14-.08.23,0A4.06,4.06,0,0,1,21.4,9.85s0,.07.08.1c-.1.11-.24.07-.34.2.49-.21,1.31-.28,1.51-.89.53-.42,1-1.06,1.6-1.24-.23.23-.64.41-.75.72a3.48,3.48,0,0,1,.75-.58c-.22.27-.6.53-.71.88a9.24,9.24,0,0,1,.95-1c.23.33-.61.62-.66,1,.28-.27.57-.52.85-.8.11,0,.44-.15.39,0s-.51.43-.59.64c.4-.25.7-.89,1.21-.67-.2.19-.57.34-.67.54.29-.15.54-.45.87-.46-.15.22-.47.36-.51.59.1-.17.24-.18.34-.34.12.07.35,0,.38.1-.17.1-.48.25-.52.46A1.49,1.49,0,0,1,27.68,9c.06.14-.21.17-.08.27a2.47,2.47,0,0,1,1.37.7,4.81,4.81,0,0,0-1.8.44s0,0,0,.08l.32.19c-.45.65-1.24.37-1.89.57-.07.08.22.09.07.18-.63.53-1.52,0-2.28.06a2.52,2.52,0,0,0,.25.29c-.87.24-2-.47-2.81-.13,0,.09-.08.18,0,.24s.15-.1.26,0c.85.39,2.08.29,2.68,1.19-.24-.11-.1.13-.1.21-.16-.12-.53-.49-.71-.35.37.2.68.42.73.67-.21.2-.06.53-.05.88-.13-.08-.25-.13-.34,0s0,.23-.07.32c.36.33.07.77.22,1.13a2.73,2.73,0,0,1-1.68-1c0,.09.21.39,0,.33a2.45,2.45,0,0,0-.89-.73c-.07.07,0,.26-.12.25-.23-.52-1-1.07-.75-1.6-.26-.08-.29-.2-.54-.38,0,.13.18.21.17.33s-.14,0-.2.06c.17.11.13.26.13.4-.74-.31-.86-1.2-1.18-1.76.81.17,2.16.73,2.46,1.5,0,.24,0,.49.11.71a6.21,6.21,0,0,0,0-.64c0-.24-.28-.42-.24-.6.77.3,1.23,1.28,1.69,1.9a4.32,4.32,0,0,0-1.28-1.78c.39-.09.92.41,1.29.24a25.34,25.34,0,0,1-3.93-1.68c.79-.33,1.67-.23,2.45-.58a2.8,2.8,0,0,0,.74.22c-.07-.15-.49-.18-.55-.29a4.25,4.25,0,0,1,3.22.34c-.59-.66-1.63-.5-2.19-.66a3.9,3.9,0,0,1,2.74-.36c.21.05.28.26.42.12-.22-.24-.81-.34-1-.43.89-.29,2.17.32,2.95,0a1,1,0,0,0-.43,0,7.09,7.09,0,0,0-4.14.28c-.13-.25.35-.62.32-.89-.22.34-.55.7-.42,1a13.84,13.84,0,0,1-3,.82,6.49,6.49,0,0,0,1.93-1.72c.38-.48,1.08-.78,1.23-1.42a3,3,0,0,1-1,1c.14-.42.39-.87.49-1.29.33-.2.66-.78.48-1.07,0,.26-.13.7-.42.83.15-.53-.07-1,0-1.52-.19-.51-.46-1-.61-1.51.35.28.26.78.69,1,.05.2,0,.4.2.58a2.08,2.08,0,0,0-.38-1c-.06.09.18.28,0,.3,0-.3-.53-.61-.3-.87.36.33.36.86.69,1.1.07.21,0,.45.1.65C23.19,5.66,22.61,5.17,23,4.9Zm-3.14,7.24c-.06-.07-.17-.06-.27-.12C19.24,11.85,19.72,12,19.82,12.15Zm3.48-6.72C23.23,5.21,23,5,23,4.79,23.19,5,23.38,5.29,23.29,5.43Z"/><path class="cls-2" d="M11.47,12.56a2.14,2.14,0,0,0,1,.62s0,0,0,0a4.17,4.17,0,0,0-.49-.24,2.32,2.32,0,0,1-.53-.38s0,0,0,0Z"/><path class="cls-2" d="M11.84,12.56a3.67,3.67,0,0,0,.87.46,0,0,0,0,0,0,0c-.29-.15-.58-.3-.86-.46a0,0,0,1,0,0,0Z"/><path class="cls-2" d="M12.8,13.44a1.22,1.22,0,0,0-.12-1c-.13-.26-.41-.64-.72-.68,0,0-.07,0,0,.07a4.33,4.33,0,0,1,.61.6,1.83,1.83,0,0,1,.26,1Z"/></svg>