<svg id="Слой_1" data-name="Слой 1" xmlns="http://www.w3.org/2000/svg" viewBox="0 0 663.8 671.8"><defs><style>.cls-1{fill:#ebe117;}.cls-2{fill:none;stroke:#324c5e;stroke-linecap:round;stroke-linejoin:round;stroke-width:10px;}</style></defs><title>icon2</title><path class="cls-1" d="M624.35,359.23a14.05,14.05,0,0,1-.8-2.13,9.3,9.3,0,0,0,0-1.64.62.62,0,0,0-.06-.37,3.56,3.56,0,0,1,.42-1.08c-1.18-5-.21-10.35-1-15.36.85-.59,1.75-1,1.86-2.31.25-1-.88-1.1-.45-2,.32-.42-.3-.7.13-.94.53-1.11.34-2.34.73-3.39.08-.87.78-.09,1.21-.79-.27-.57-.83-2.33-1.66-1.48-.29-.71.32-.87.41-1.5-.27-.13-.88.27-1.14-.08-.86-1.1-1.69,2-2.07-.33a5.39,5.39,0,0,0-.72-.64,5.8,5.8,0,0,0-.32-3.07.44.44,0,0,1,.37.12c.59-.68-.08-.82-.6-.86l-.09-.28c.25-.3.58-.37.86-.61-.46,0-.84-.68-1.17-.51a11.5,11.5,0,0,0-1.13-2.49c.51-.44.35-.52.26-1-.28-.61-.65-.63-1-.45a6.46,6.46,0,0,1-.45-1.33c.71-.77,0-1.54.37-2.25l-.17-.07c.74-5.33-1.87-10.86-3.5-15.82a2.12,2.12,0,0,1-.47-.35,8.51,8.51,0,0,1-.12-3.45c-.45-.92-1.2-1.73-1.59-2.63.47.15.87.22.92-.4-.26-.13-.83-1.21-.47-1.72a.3.3,0,0,1,0-.08l.11-.06,0-.09c.23-.31.91-.54,1.18-1-.43,0-.6-.31-.86-.42.18.09.25-.32.56-.5-1.05-1.57-1.24-.45-1.61.08-.5-1.37-.93-2.77-1.33-4.19,0-.18.06-.3-.06-.23l-.15-.52a2.4,2.4,0,0,0-.32-1.15l-.07-.26c.62-.67-.1-1.63-.64-2.23a37.45,37.45,0,0,0-1.7-4.66c.54.08,1.07-.61.76-.95,0-.23-.36-.4.08-.64a2.41,2.41,0,0,0-1.4-.23,1.44,1.44,0,0,0-.15.36c-.09-.17-.2-.34-.3-.51.23,0,.4-.19.36-.57.35.39.61.07.92-.36-.43-.66-1.88-.1-1.67-1.46.89.86,1.75-.31,1-.87,0,0-.52-.23-.7-.33a20.57,20.57,0,0,1-.82,2.21l-.17-.25c-.78-1.11-1.71-2.33-1.26-3.8a13.1,13.1,0,0,0-2.24-6.27c.1-1.41.4-3.09-.64-4.22-.76-.8-1.48-1.54-2.24-2.3a10.63,10.63,0,0,1-3.08-4.31c.15-2.05-.05-4.15-1.72-5.81-2.52-2.53-3.66-5.69-5.17-8.64-.16-.18-.29-.39-.48-.57-.82-1.3-2.22-2.53-1.64-4.24.41-1.78-1.42-3.15-2.24-4.66-2-3-5.08-5.6-5.54-9.25a3.3,3.3,0,0,0-.25-.54,7.7,7.7,0,0,1-3.25-4c-.86-3.9-4.1-6.92-6.16-10.34.19-.18.41-.36.6-.53-2.7-2.75-4.31-6.28-7.51-8.68a8,8,0,0,0-2.5-2.38c-.59-2.44-2.72-4.21-4.44-6.13.55-1.52-1.39-2.45-2.82-2.61-1.54-1.65-3.2-3.41-4.9-5-1.45-1.45-3-2.84-4.55-4.24a1.59,1.59,0,0,0-.38-.4,48.56,48.56,0,0,0-6.17-6.14,57.89,57.89,0,0,0-4.1-4.22c-1.45-1.45-1.66-.8-3.15-2.24-.16.23-1.59-1.62-1.76-1.33-2.2-2.23-3.34-3.08-5.77-5.2-.12.15-1.43-1-1.55-.88-.9-1-2.83-2.81-3.74-3.72-3.19-2-4.85-4.28-8.6-5.57-.18.18-1.11-.33-1.29-.2-5.07-1.86-8.82-5.33-13.22-8a44.81,44.81,0,0,1-4.63-1.93,11.92,11.92,0,0,1-4.62-3.16c-3.76-1.65-6.13-5.58-10.36-6.39-6.73-3.82-16.19-3.63-21.89-8.86-7.52-1.89-13.51-6.44-21.33-8-1.24-1.31-3.58-3.81-5.48-1.5-2.9-.33-6.34-1.5-8.81-1.4-1.18-1-2.77.14-3.85.72-5.86-3.12-13.1-3.77-19.88-4.82-2.53,0-5.45-1.46-8-.29a72.18,72.18,0,0,0-12.64-1.79c-1.69-1.56-4.17-2-6.66-2.52l.24-.35c.3-.92.5-2.53-.56-2.74-1-.05-1.72.84-3,1.31.34.24.89.66.85,1.24a14,14,0,0,1-1.87-.61,7.8,7.8,0,0,1-.93-.25c.79-.17.68-1.38,1.22-1.75.55-1.14,1.84-3.67.25-3.69-1.08-.93-2.06.48-2.77-.3-.85-.49-.67,1.08-.28.74,0,1.53-.45,3.92.53,4.73a2.72,2.72,0,0,0-.6,0c0-.3-.29-.71-.66-.32-.46-.17-.23.36,0,.51a1.08,1.08,0,0,0-.37.4,8.49,8.49,0,0,1-2-.77c.42-.26,1.1-.28,1.67-1a2.93,2.93,0,0,1-.16-2.5c.08.29.64.48.45-.17-.3-.3-1.06-.83-.94.14-.77-.51-1-1.47-1.92-1.33,0,.83.16,1.18.73.77-.66,1.06-1.36,2-.74,3a3.1,3.1,0,0,1,.5.86,10.57,10.57,0,0,0-3-1.19,4.21,4.21,0,0,0-.64-1.46c-.51.6-2,.73-1.32,1.51a1.08,1.08,0,0,1,.59.06,2.45,2.45,0,0,0-.37.16,17.53,17.53,0,0,0-5.8-2.54c.1-.29,0-.66-.41-.64a.58.58,0,0,0-.4.43l-.7-.14a3.85,3.85,0,0,0-1.55-1.85c-.33-.08-.62.23-1,0-.59,0-1.07,1-2.26,1a1.18,1.18,0,0,0-.06.11l-2-.21-1.33-.49a1.1,1.1,0,0,0,0-.7c-.52-.14-.66.12-.76.42l-.25-.09c.28-.57-1.08-1.36-.94-.35-.66-.23-1.33-.44-2-.66a3,3,0,0,1,0-1.43A1,1,0,0,0,331,83a2.29,2.29,0,0,1,0,.85l-1.16-.38c.09-.7.75,0,1.07-.64-.13-.47-.9-1-.85-.21s-.32-.07-.59,0c0,.34,0,.57,0,.73l-.62-.18a2.46,2.46,0,0,0-.18-.25c.49,0,.28-.7.13-.85-.34-.5-.62.23-.86.74-.56-.81.06-1.06.64-1.47.94.45.77-.71.3-.94,0-.51-.1-.68,0-1.1a1.28,1.28,0,0,0-1.21.85,1.51,1.51,0,0,0,.48.93c-.21.3-.71.28-1,.6a1.83,1.83,0,0,0-.31.89c-1.65-.46-3.32-.89-5-1.29a2.39,2.39,0,0,1,.55-.58c.2-.28,1.06-.4.82-.52-.9-.07-1.05-.21-.72-1.06-.58,0-.51.6-.45,1.09a6,6,0,0,1-1.11.87c-1-.24-2.1-.47-3.15-.68,0-.4.45-.38.44-.7-.46-.23-.82-.7-1.09-.61a2.45,2.45,0,0,0-.55,1.09c-3.39-.64-6.82-1.17-10.24-1.56-2.85.87-5.87-.08-8.6.5a24,24,0,0,0-14.2-1.71l-1.15.06c-6.85-.09-14.23-.2-20.91.73-1.13-1.4-3.22-.28-4.92-.13-3.26.07-6.83-.19-9.81,1.42l-.65,0c0-1.6-1.16-3.52-2-5.37-2.15-.85-4.12-3.14-7-2.3-2.66.2-4.12,3.34-4.81,6-1,.67.44,1.57.83,2.15a3,3,0,0,1,1.07,1.14c-3,.75-6,1.58-9,2.1-1.21-.43-2.88-.09-3.19-.8-3.33-1.35-6.37.3-8.84,2.09-.62.23-1,1-1.24,2.28a5.42,5.42,0,0,0-.93.7,17.23,17.23,0,0,1-5.51,3.38c-2.08,4.36-9.8,2.3-11.89,7.16-.5,0-1.52-.13-2-.18-.57-2.3-3.27,2.69-5,3a5.13,5.13,0,0,0-3,.6,3.76,3.76,0,0,0-3.47,0c-1.9.54-1.09,2.7-3,2.87-1-.14-.89,1.28-1.7.72-2.3.16-4.19,1.73-6.31,2.09-1.52.71-.83-1.35-2.36-1.44-.72,1.07-3.19,3.88-1,4.52-.94,1.27-1.75.32-2.88.8,0,.62,1.22,1.33.86,2.17-.51,1.25.49,1.57,1.36,1.86l-.35.24c-3.42,1-5.85,3.61-9.49,4.09-.46.26-.91.53-1.36.8a1,1,0,0,1,.33-1.44c1.75.67,1.71-.74.92-1.47-1.69,1.32-3.28,0-4.81-.25-.78.85-1.71,1.53-1.72,2.15.06,1.38.08,2.36,1.76,3.21l-.36.22c-.21.22-.44.44-.69.65a11.12,11.12,0,0,0-1.37-1.2c-.75.65-.32,2.85-1.92,1.56.74-1.9-1.15-.54-1.53-.11-.38.66.06,1.83.08,2.44a2,2,0,0,0,.88-.07l-.59.37a3.7,3.7,0,0,0-.29-.3,3.3,3.3,0,0,0-2.09.54c-.43-.58-.06-1.6-.48-2.38a2.49,2.49,0,0,0-3.5-.74c1.1-1.89-.46-2.81-1.85-3.1,1.78-.32.36-1.45-.06-2.61a5.32,5.32,0,0,0-2.75-2c0,1.19-.76.46-1.53.72-2.07,1.18.45,2.6,1.27,3.55a6.93,6.93,0,0,0,2,2.87c.39.36,0,1.4-.36,1.45l.41.36c-.77-.17-1.12,1.9.07,2.62a2.67,2.67,0,0,1,1.1-2.49c0,.39.81,2.14,2.16,1.45l-.37.6c-.36,1,1.18.95,1.55.69,1.13-.48,0-1.41-.83-2.14,1.92-.76,2,.67,2.36,2-.74.88-.5,1.37,0,1.53a4.3,4.3,0,0,0-.89,2.26.67.67,0,0,0-.87.59,7.26,7.26,0,0,0-.57.9,2.19,2.19,0,0,0-.5,2.32c-.8,1-2.32,3.06-3,4.09l-.67.67a1.68,1.68,0,0,0,.15-.79c-.75.67-1.55.31-2.34-.62,0,1.42.48,3.18-1.66,2.36,0,1,1.64.28,2.11.8-1.06,1.05-2.11,2.12-3.07,3.21a7.88,7.88,0,0,0-.61.58c-.85.8-1.7,1.62-2.51,2.44l-1,1.09a4.75,4.75,0,0,1,.06-2.33,11.32,11.32,0,0,0-1.58-1.28c-1.92,0-2.7-.19-4.85-.22-1.11,1.49-3,1.64-3.36,4.07-2,3.57,2.51,6.26,4.87,7.09l.28-.05a12.44,12.44,0,0,0-.55,1.6c-.41-.43-1.11-.37-1.6.63a1.06,1.06,0,0,0,1.18,1,16.35,16.35,0,0,1-2,5.64c0,.15-.17.34-.2.48.09.83-1.39.5-1.35,1.32-.26.27-.67.83-.93,1.1l-3,2.37c-.18-.66-.51-1-1.34-.61,0,.61-1.3,2.74-2.47,2.59-.76.48-1.94-1-3.1-1.14.38.77,0,1.41,0,2,0-.43-.76-.14-1.33-.51-1.85,3.77.64,2.57,1.78,2.9.06,1.19.83.75,1.61.88.33-.84-.81-.72-.83-1.14l1.14-.48c.8.14,1.18-.29,1.16-.91l1.55-.13a2.12,2.12,0,0,0-.25,1.64c-.34.41-1,1.24-1.25,1.72s-.31,1-.5,1.55a3.13,3.13,0,0,0-1,.17c-1.16.48-1.89,1-3.25.47,1,.65.58,1.81.82,3.19q-.87,1-1.63,2.09c-.4,0-1,.37-1,.69-.29.44-.29.74-.16.94-.6.92-1.17,1.84-1.73,2.77-1.16,1.87-1.32,4-1.67,6a1.82,1.82,0,0,1-1.74,0c-1.59-1.31-3.09-.36-4.42.94-.73,1.26,1.44,2.89,2.65,4.66l.38.24a9.39,9.39,0,0,1-.82.56,3.19,3.19,0,0,0,.48.41c-.17.33-.47,1-.68,1.34-.8.17-1.6.3-2.39.4a5.35,5.35,0,0,0,.21-.74,8.58,8.58,0,0,0-3.31,1c-2.73.14-5.45.06-8.16,0,.93-.15,1.88-.28,2.8-.35,1.55-.12,1.43-4.38-.48-3,.36-1-.42-1.18-1.4-1.31-.74,1.45,1.46,3.53-1,4.54.7-2.5-2-2.89-2.35-1.06,0,0,0,.61,0,1.11l-.82,0A34.73,34.73,0,0,1,72.61,205c.2-.44.3-1,.13-1.16-1-1.75-2.55-1-3.31-.15.4,1.1,1.41.93,2.19,1.5a19.43,19.43,0,0,0-3.41.95c-2,1.58-3.9,3.34-6,4.87-.13.13-.25.22-.35.31-1.19,1.82-2.66,3.63-4,5.4-.67.41-1.33.79-2.08,1.17a55.31,55.31,0,0,1-4.92,6.45,44.15,44.15,0,0,0-2.24,3.87A30.29,30.29,0,0,1,44.48,235c-1.08,1.59-2.22,3.19-3.43,4.7-1,1.15-1.95,2.31-2.88,3.47-1.46,3.56-2.1,7.28-3.68,10.74a2,2,0,0,0,.07.51,16,16,0,0,1-.59,2.1c-.2.85-.44,1.69-.68,2.51.2-.83.48-1.67.68-2.51-.8,1-1.65,2-2.45,3a24.44,24.44,0,0,1-3.94,8.85c-2,1.64-2.77,3.93-4.09,5.89l.71.23a10.58,10.58,0,0,0,.13,2c.11.37.3,1.14.46,1.51a51.71,51.71,0,0,1-2.68,5.55c0,.31.08.82.11,1.13a4.78,4.78,0,0,1-.83,3.9c-1.27,3-.43,6-1.15,8.87a19.72,19.72,0,0,1,.17,2.1c0,1.11.14,2.19.25,3.26l-.45.36a8.3,8.3,0,0,0-.94,5.55c.19.78.28,1.61.42,2.38a11.92,11.92,0,0,1-.82,4.86c-.32.92-.64,1.9-1,2.82-1,2.36-1.79,4.75-2.74,7.16a6.37,6.37,0,0,1-1.28,3.44c-.3,2.4.17,5-2.08,7.14-.21.89-1.22,2.35-.19,3a3.5,3.5,0,0,1,.56.42,37.23,37.23,0,0,1-1.46,5.33,62,62,0,0,1-2.42,6C8,353.18,7.13,355,7.2,356.93a10.87,10.87,0,0,1-1.73,5.51A68.09,68.09,0,0,0,3,368.88a4.47,4.47,0,0,1-.17,4.68c-.92,2.07-2,4.78-1.3,6.7,2.62,1.1.75,3.76-.12,5.68A15.38,15.38,0,0,0,.76,393c.47,1.67,1.25,3.53-.19,5.24-1.43,2.66.9,5,1.07,7.41.41,1-.09,2.17-.41,3.3a12.77,12.77,0,0,1,4.92,6.29,5.13,5.13,0,0,0,1,1.64c.15-1.6,1.63-1.32,2.84-1.43-1.21.11-2.64-.16-2.84,1.43a2,2,0,0,0,.34,2.17c1.35.66,3.05,1.47,2.52,3.29.84,1.26,1.6,2.45,2.32,3.76-.16.24-.28.37-.43.62,1.45,1.23,2.8,2.5,4.13,3.82a3.91,3.91,0,0,1,2.48,3.28c1.13,2.76.81,6.31,2.6,8.71,1.36.85,1,2.61.61,4a33.1,33.1,0,0,1,.08,5c.4,2.11.08,4.66,1.17,6.4a2.58,2.58,0,0,1,1.13,3.57c-.79,2.95,1.54,5.08,2,7.73,2,2.16.83,5.66,2.94,7.69-.58,3.26-2.12,7.19,2.37,8.12a2.2,2.2,0,0,1-.49.49c.75.76,2.2,2.24,3,3,2.78,1.18,3,3.85,3.57,6.45.58,1.92.6,4.22,2.75,5.07a6.3,6.3,0,0,0-.55.54c.85.6,2.49,1.86,3.33,2.47a4,4,0,0,0-.52.6l1,.77c1.91,1.33,3.64,2.75,5.57,4,.19.32.59,1.08.77,1.47a27.49,27.49,0,0,0,3,3.47l1.35.91a2.81,2.81,0,0,0,.48.33,19.93,19.93,0,0,1,5.21,5c1.67,1.31,3.53,2.39,4.59,4.34,1.78,1.58,3.71,3,5.3,4.63.72,1.75,2,3.21,2.26,5.16,1.73,1.47,3.54,3.36,3.38,6a2.93,2.93,0,0,1,.31.9c.9,1.22,2.18,2.53,1.42,4.36-.43,1.21,1.61,1,2.16,1.62a5.12,5.12,0,0,1,0,1c1,.66,2.89,2.16,3.83,2.93a13.69,13.69,0,0,1,.65,2.4,9.54,9.54,0,0,0,1.72,2.73c.78.85,1.46,1.78,2.19,2.68.6,1.09,1.15,2.11,1.7,3.18A49.85,49.85,0,0,1,93.75,567c1.41,1.23,3.87,1.57,3.68,4,.29.71.33,2.58,1.65,1.72.21-.07.75-.16,1-.28a25.65,25.65,0,0,0,6.12,4.41,18.85,18.85,0,0,1,4.3,2,3,3,0,0,0-.24.8c-.14,1.35,1.62.64,2.33.63a12.71,12.71,0,0,0,3.61,3.38c.17-.17.35-.34.54-.51,3,1.28,5.9,2.75,9.4,2.63,2.07.42,4.16.78,6.21,1.28.1.16.26.28.39.51,1.49,1.48,4.15,1.8,6.36,1.64a3.3,3.3,0,0,0,3,1.37c5.17-1.36,9.41,1.81,13.86,3.14,3.55,1.29,6.58,3.67,10.24,4.51a4.49,4.49,0,0,1,2.41.52.81.81,0,0,0,.9.63,1.37,1.37,0,0,1-.21,1,2.93,2.93,0,0,0,1.09-.31l.34.33.59.66-.06,0c-1.15.27-2,2.09-1.2,2.89.64-.1,2-1.38,1.82-2.24l.57.61,0,.09.08,0a1.39,1.39,0,0,0,1.84-.34,20,20,0,0,0,3.16,1.39,3,3,0,0,1,.89.29,6.33,6.33,0,0,0,2.3,3c.59.54,1.14,1.11,1.69,1.68,0,.12,0,.24,0,.36a1.18,1.18,0,0,1,.24-.13l.43.45a2.07,2.07,0,0,0,.23.78c.38.39.68.44.94.29a51.73,51.73,0,0,0,3.91,3.42,2.33,2.33,0,0,0,.27-.34c.87.72,2.47,2.27,3.26,3,.21.07.39.14.61.2,3.22.33,4.29,4,6.61,5.7a1.76,1.76,0,0,0,1.92.88c1.78-.59,2.82,1.4,4.32,1.83,1.89,1,3.79,1.71,5.22,3.25a3.67,3.67,0,0,0,3.79,1.5,9.91,9.91,0,0,1,3.31,1.15c2.36,1.74,4.7,3.43,7.1,5,.9.57,2.21.21,3.3.35,2.4.15,4.34,1.59,6.1,3.11,0,.77.37,1.58.91,1.7.17-.11.22-.37.23-.7l.31.27a2.61,2.61,0,0,0,1,.66,2.44,2.44,0,0,1,.32,1.56c.32-.62.55-1,.72-1.31a13.29,13.29,0,0,1,2.7.45c1.66.3,2.9,1.85,4.71,1.76,1.45-.13,3.33-.51,4.13.88.88.87,2.48-.55,3.52-.14,1.53.28,3.39,1.17,4.89-.37a2.52,2.52,0,0,0,.7.62c-.52.35-1,.55-1.43.34.35,1-.5,2.88.58,3.45.15,2.23.75,4,2.33,3.37,2.69.2,4.12-2.94,4.8-5.85a17.29,17.29,0,0,1,2.07.63,3.61,3.61,0,0,0,2,1.59c.74.61.11-1.35-.31-1.51-.38-.63,1.94.46,1-.65,0,0,0,0,0-.07h.05c.67.18,1.34.32,2,.45,3-.45,5.65,1.82,8.54.76a4.65,4.65,0,0,1,5-.42c.84.43,1.89-.4,2.84-.23.94-.24,1.4,1.23,2.34.63a8.39,8.39,0,0,1,6-.67c4.84.11,9.84-.22,14.6-2.23,1.92-1.38,3.16.63,4.79.52,2-.37,2.92,1.56,4.62,1.91a14,14,0,0,1,5.59.5,1.66,1.66,0,0,1,.21.53,2.36,2.36,0,0,0,.31.44c2.63-.19,5.23-.4,7.86-.34,1.49-.38,2.38.88,3.72,1,1.49-.76,3-1.53,4.45-2.28l-.07.08.16.85a1.6,1.6,0,0,0,1-1.49l1.15-.55a1.1,1.1,0,0,0,.2.16c1,.78,1.21-.67,1.8-.62.35-.21.8.06.86.54.5-1,1.28-1.36,1.71-2.2.21-.12.42-.26.63-.4.22.33.48.62,1,.3.9.06.47,1,.07,1.58-.07.48.56.28,1,.56.12-1.1,0-2.32,1-3-1.34.65-2.13-.62-.59-1,1.09-.52.59,1,.66,1.51-.83.16-.53,1.77-.37,2.49a5,5,0,0,0,.88-2c.79.27,1.85,1.08,2.34-.33a1.66,1.66,0,0,1-2.05-.39c1.23-.62-.3-.26.12-1,1.85,1.1,3.43-.85,5.28-1,.52-.43,1.21-.63,1.61-1.33-.07-.26-.22-1-.31-1.26a3,3,0,0,1-1.51-.09,4.86,4.86,0,0,1-.54-.93c.48-.32,1-.65,1.42-1-.19.48-.88,1.31.14,1.15.4.51.38-.43.67-.92s.18-.74,0-.86l.27-.23a5.7,5.7,0,0,0,1-.15l2.49-.58a5,5,0,0,0-.33,1.36,4,4,0,0,1,1.44.57c.07-.71.35-2.26,1.58-1.95,0,1.19.2.09.3-.68l1.34-.32a.63.63,0,0,1-.34.62c-1.79,2.88.65.53.88,1.63,0,.48,0,.48.49.76.42-.69,0-2.06,1-2.71a1.72,1.72,0,0,1-.06-.78l.53-.13a2.15,2.15,0,0,1-.06.23c-.11.54.17.09.55-.35l1.14-.29a1.82,1.82,0,0,1,.18.53c-.12,1-.43.7-1,.67a8.35,8.35,0,0,0,.66,1.27c-.92.16-2-.42-2.14.92.79,0,.77,1.25,1.91,1.35-.62.45-2,2.38-1.2,2.67.75-.42,1.27-2.19,2.35-1.4.16-.47-.19-1.69-.83-1-.43,1,0-.22-.18-.48.41-.46.63-.45,1.24-.87a7.74,7.74,0,0,0,0-1.33c-.35-1,1.07-.19.86-.43.62-.48.69-1.16,1-1.41s1.32.59.65.54c-.33-.25-.82,1.16-.47,1.19l.18.5a2.69,2.69,0,0,0-1.28,3.41c.76-.65,1.69-.61,2.15-1.8.68.06.61.77-.29,1.69-.16.48-.9,2-.12,2.27.69.07,1.36-.85,1.15-1.1-.7-.05-.54-.29-.21-1.33.64.5.73-.44.64-.71.78.31.5-.21.51-.43.81-.19,1,.31,1.16,1,.42.28,1.28.11,1.58-.86-.17-.5-.44-1.25-1.45-.57-.56-.06.9-1.75-.28-1.61-.08-.24.8-.89.1-1l0-.73c.83.8,1.35-.86,2-1.19l.43-.7c.6.77.95,1.9,1.45,2.64l.17-.46c.27.74.53,1.5,1.31,1.78.79.06,1.21,1.65,2.49.41.85.67,1-.64.12-1.18a1.49,1.49,0,0,1-.44.69c.09-.71-.48-.76,0-1.22,1.21-.63,2.82-2.8,2-4.08,1-.41-.12,1.21,1.48,1.56,0-1.45,0-3-1.47-3.84.16.73.61,2.1-.18,1.8a3.21,3.21,0,0,0-1.1-1.39l.3-.15c.53-1.44,1.63-2.93,3.14-2.1a1.13,1.13,0,0,0,1.58.81c.25.45.57.85.89.87a3.42,3.42,0,0,0,.29-1.39c.9-.47,1.85-1,2.62-.76,4.27,1.47,8.64-1.26,12.69-3.26a59.71,59.71,0,0,0,6.61-5,10.63,10.63,0,0,1,2.71-1.7,7.19,7.19,0,0,0,2.26-1.56c2.93-.62,5.81-3.67,8.76-2.56.23,0,.76,0,.94,0a5.56,5.56,0,0,0,4.54-2.5c.89-1.92,2.91-2.68,4.73-3a3.78,3.78,0,0,1,1-.18,29.48,29.48,0,0,1,8.77-5.65.9.9,0,0,1,.28.39,2.39,2.39,0,0,1,.59-.09c2.92-1.17,6.19-4.07,9.07-6.11a3.69,3.69,0,0,0,.34.59c.23-.17.88-.7,1.16-.91a1.85,1.85,0,0,1,.39.5c2.44-1.73,4.55-4.27,7.3-5.51a3.49,3.49,0,0,1-.25-.54c.93-.75,1.9-1.5,2.8-2.27.75-.61,1.41-1.19,2.13-1.82,2.6-2.25,6.57-4.28,5.57-8,1.08-1.79,2-3.71,3.64-5,1.92-.53,3.9-1,5.88-1.34a1.73,1.73,0,0,0,.51-.13c1.57-.26,3.16-.44,4.7-.56,3.07-1,6.39-.1,9.16-1.85.33,2,3.77-4,5.79-2.56,1.7.2,3.24-.71,4.81-1.48.27.42.62.84.91,1.26,1.09.22,2.21,1.09,3.52.45,1.25-.33,1.68-1.92,1.79-3.23a.31.31,0,0,0,.1-.21A8.42,8.42,0,0,0,521,561c.28.67,1.15.15,1.28-.51a.66.66,0,0,0-.11-.23,12.26,12.26,0,0,0,1.08-.9c.09.22.28.39.34.54l1.41-1.1a5.08,5.08,0,0,0,3-1.8c.24-.14.34-.47.38-.95a16.88,16.88,0,0,0,2.67-3,13.89,13.89,0,0,1,3.35,2.77c-1.26.12-1.89-1.31-2.64-1.09-3.07-.45-3,1.8-2.35,2.65,1.87.31,3.06.66,4.88.08a2,2,0,0,0,1.87.68c-.6-.83-.9-1.23-1.43-1.34.22-.29,1.86-1.42,2.49-.57,2.47-.4,5,.54,6.82-1.6,1.39-1.15-.34-2.32,1.21-3.21a3.91,3.91,0,0,0,.33.42,1.68,1.68,0,0,0,2.56-1,1.4,1.4,0,0,0-.65-1.41c1.25-1,2.08-2.41,3.42-3.27,1-1.13,1.39.59,2.78,0a7.71,7.71,0,0,0,.09-2.89.46.46,0,0,0,.15-.08c-.1-.58-.23-1.21-.71-.8a1,1,0,0,0-.27.17,1.77,1.77,0,0,0-.6,0c.2-1.25,1.37-.93,2.13-1.72-.32-.43-1.72-.44-1.83-1.16a1.21,1.21,0,0,0-.07-.26,1.34,1.34,0,0,0,.79.06,1.54,1.54,0,0,0,0-1c-.34,0-1.11,0-1.21.44-1.19-.57-4,1.34-2.63-1.63a8.85,8.85,0,0,0-.66-1.77l1.39-1.06a.51.51,0,0,1,0,.12c.53,0,.59-.23.49-.52l.63-.48.18.07a.55.55,0,0,1-.07-.15l.53-.41a5.56,5.56,0,0,1,.56-.44,1.86,1.86,0,0,0-.34-.53c.6-.58,1.16-1.2,1.73-1.81a.69.69,0,0,0,1,.4c-.9.72,1.29,1.71,1,1a1.55,1.55,0,0,0-.79-1.08,1.43,1.43,0,0,0,.19-.22,2.18,2.18,0,0,0,.54.46,2.32,2.32,0,0,1,.53-.21,1.31,1.31,0,0,0,.63.85,1.77,1.77,0,0,0,.95-.43c.18.19.18.52.28.82h0a1.85,1.85,0,0,0-1,.34c-.06-.27-.19-.55-.22-.74-.76,0-1.32,1-1.8,1.37a3.23,3.23,0,0,0-2.19-1c-.42.69,1,1,1.08,1.57l-.61-.12c-.06.6-.15,1.12-.55,1-.28-.51-1.33-.53-.76.4.81-.21,1.35.63.86,1-.89-.16-.74.5-.31.76.7-.77,1.54-.31,2.29-.31.29-.46.69-.86.63-1.15-.14-.65-.23-1.11-1.15-1.35-.05-1.16.85-.14,1.24,0,.29-.38-.1-1.35.76-.9-.16.83.41.32.65,0a1.51,1.51,0,0,0,1,.57,2.29,2.29,0,0,1,.77-.85,1.14,1.14,0,0,0,1.16-.29c-.37,1,.44,1.26,1.11,1.29-.79.29,0,.68.26,1.19a3.84,3.84,0,0,0,.44.33,3,3,0,0,1-.32.16c1.28.47,3.84,1.41,2.68-.69-.29-.39-.83-.5-1.67-1.6,0,.17.08.34.11.51h0a3.32,3.32,0,0,0-1.19-1.15.45.45,0,0,1-.11-.45,8.66,8.66,0,0,0,1.11-.22c.26-.91.75-1.77.45-2.2a5.52,5.52,0,0,0-.91-1c-.17-.33-.74-.18-.51-.67a2.58,2.58,0,0,1-1.72,0,1.41,1.41,0,0,0,.06.17h-.15c-1-1.86,1.55-.69,2.39-.76.16-.37-.11-.89-.19-1.29a1.39,1.39,0,0,0,.41-.06c-.17,0,.74.79.64.32s0-.5.1-.55c.11.36.28.44.45.38a.61.61,0,0,1,0,.2c.33-.19.4-.88,1.27-.81.53-.15-.84-.86,0-.7l-.13-.65c-.22.13-.37.19-.49.25a2.56,2.56,0,0,0-.25-.31c.24,0,.65-.36.69-.22a1,1,0,0,0,1.57.27c-.13-.55-.53-.76-.6-1-.32.29-.51,1.1-.69.29-.33.28-1.49-.39-1.13.48a.3.3,0,0,0,0,.06,9.24,9.24,0,0,1-.69-.69,3,3,0,0,0-1.69,1.63c-.14-.64-.39-1.29.62-1.11-.1-.46-.84,0-1.08-.2a1.41,1.41,0,0,1-.17.28,3.45,3.45,0,0,0-.4-.32c0-.17-.06-.32-.09-.48a2.86,2.86,0,0,1-.29.25l-.13-.07.43-.57c.26-.23.53-.46.8-.69a2.8,2.8,0,0,0,2,1.29,3.26,3.26,0,0,0,1.57-1.25,1,1,0,0,1,.26.14c-.62.14-.25,1.39.66,1a2.4,2.4,0,0,1-.28-.6,3,3,0,0,0,.94,1l.34.08a1.14,1.14,0,0,0-.26.34c-.05.69.89.26,1.39-.07a1.25,1.25,0,0,0-.15-.17,2.46,2.46,0,0,0,2.11-1.11c0,1.77,1.79,1.78,3.14,1.41-1.39.93.4,1.15,1.34,1.78a6.52,6.52,0,0,0,3.4.3c-.62-.81.45-.64,1-1.12,1.23-1.66-1.66-1.62-2.84-2a8,8,0,0,0-3.19-1.18c-.51-.08-.72-.94-.39-1.14l-.54-.09c.76-.2.05-1.78-1.34-1.8.74,1,.52,1.27.25,2.18a2.21,2.21,0,0,0-1.18-.58.71.71,0,0,1,.22-.25c-.16.14-.44-.28-.86-.07.08.06.1.17.09.3a1.28,1.28,0,0,0-.87.45l0-.56a.53.53,0,0,0-.17-.29,1.8,1.8,0,0,0,.6-1.28.52.52,0,0,0,.42-.65l.31-.2a4.44,4.44,0,0,1-.61.15,2.07,2.07,0,0,0-1.37-1.77,8.9,8.9,0,0,1,3.38-.47c.3.78,1.17.86,1.68,1-.07-.38-.88-1.55,1.38-.66-.32-.61-1-.32-1.41-.42-.14-.66-1-.41-1.75-.71,0,.06,0,.1,0,.15-.54-.08-1.11.09-1-.58a6.59,6.59,0,0,1-3.42.94,2.7,2.7,0,0,0,.36.38,5.93,5.93,0,0,0-.65-.16l.23-.3c.26-.11.49-.23.74-.35a.9.9,0,0,0,.33.24c.54.14.5-.33.75-.84l.22-.13c1.29.24,1.9-.31,1.88-1.24a.41.41,0,0,0-.07-.16,21.55,21.55,0,0,0,2.31-2.47,1,1,0,0,1,.23.39c.33-.29.34-.8.63-1.26a.8.8,0,0,0,1.16-.68s0,0,0-.05l.14,0c.5-.27-.14-.51-.6-.7a7.12,7.12,0,0,1,1.29-1.45,1.69,1.69,0,0,0,1.2-.82l-.16-.17c.1-.11.19-.21.27-.31l0,.05c.39,1.13,2-.11,2.74-.93-.57-.28-1.68-.6-2.31,0a1,1,0,0,0-.11-.59c-.2-.18-.35-.36-.54-.53l.16-.24c.33-.19.61-.25.57.14.4.09.35-.19.33-.27-.51-.66.91-.25.81-1.59l-.59.23.22-.25a4.78,4.78,0,0,0,1.21-.4c.45,0,.33-.51.06-.91l.84-.79a2.61,2.61,0,0,0,.54-.19,8.53,8.53,0,0,1-.61,1.3,1.56,1.56,0,0,1,1,1.39c1.06-1.34,1-2.07,1.6-3-.45.63-.76.21-1-.19.79-.27.16-.21-.59-.13.64-.57,1.29-1.14,1.91-1.74.3-.27.88-.77,1.14-1,1.14-1.23,2-2.85,3.65-3.47,1-1.91,2-3.75,2.9-5.67,2.57-4.26,3.41-9,5.08-13.47.77-3.51,2.88-6.95,2.83-10.54-.26-3.07,1.06-6.09,1.77-9.16.16-.23.63-.78.82-1,.26-1.5.77-3.05.45-4.51-.25-1.1-.49-2.13-.65-3.22a6.26,6.26,0,0,1,1-2.56c1-4.78,2.5-9.77,2.91-14.68a10.09,10.09,0,0,1,1.37-4.59c1-1.4.36-3.09,1.31-4.5,2.13-1.26,2.35-4.38,3.4-6.43,3.56-10.86,6.05-22.16,11.44-32.56.76-2,2.3-4.52,1.49-6.69a2.8,2.8,0,0,1,.62-3.83C625.37,365.76,622.61,362.27,624.35,359.23ZM276.89,639.76a16.76,16.76,0,0,1,1.85,1.89A21.19,21.19,0,0,0,276.89,639.76ZM13.3,384.31c1.43-1.66-.82-3.29.59-4.89C12.48,381,14.77,382.66,13.3,384.31ZM304,626.23c.49-1-.33-2.42.22-3.53C303.73,623.79,304.54,625.19,304,626.23Zm-80.22-17.47c.74-.72,1.42-1.44,2.07-2.17A26.85,26.85,0,0,1,223.83,608.76Zm17.92-522.9a2,2,0,0,1,1,.49A2.08,2.08,0,0,0,241.74,85.86Zm69.53,494.66c.84-1.3.07-2.32-.64-3.22C311.35,578.19,312.15,579.2,311.27,580.52ZM592.65,381.29c-.54-.21-.7-.38-.64-.55C592,380.91,592.12,381.09,592.65,381.29ZM455.94,544.68c2-1,1.2-2.29.36-3.5C457.19,542.39,458,543.71,455.94,544.68ZM32.19,365.39c-1.42.84-2.75,1.7-4.11,2.64C29.44,367.09,30.79,366.18,32.19,365.39ZM417.36,171.61a1.26,1.26,0,0,1,.67-2.25A1.26,1.26,0,0,0,417.36,171.61Zm39.78,24.06c-2.57-1.08-4.46.84-5,2.91C452.67,196.5,454.56,194.59,457.14,195.67Zm74.06,67.1c.2-2.46,1.55-5.34-.27-7.62C532.79,257.44,531.4,260.32,531.2,262.77ZM225.34,164.28c-2.2-.25-4.31-.66-6.5-1C221,163.62,223.18,164,225.34,164.28ZM160.15,496.61c1.79,1,1.75,3.34,3.48,4.2C161.86,499.95,161.94,497.61,160.15,496.61ZM175,207.47c-2.29,3.11-6.21,4.33-9.71,6C168.75,211.8,172.62,210.58,175,207.47Zm75.48,338.26c-2.18-.15-1.1-2.14,0-3.28C249.39,543.58,248.27,545.57,250.45,545.73ZM287.53,140.6c-.48,1.55,1.35,3.12,3,3.88C288.87,143.76,287,142.16,287.53,140.6ZM263.87,538.33c.75.16,1.31.78,1.41,2.22C265.16,539.12,264.61,538.49,263.87,538.33ZM380.5,509.5c.41-1.32-1.46-2.61-1.27-4.19C379,506.89,380.92,508.13,380.5,509.5ZM296.7,189.68a9.14,9.14,0,0,1,.93,2.85A11,11,0,0,0,296.7,189.68Zm-106,58.2a41.62,41.62,0,0,1-4.91,4.63A46.28,46.28,0,0,0,190.7,247.87Zm46.54,272.38a2.14,2.14,0,0,1,1.52-.41A2.2,2.2,0,0,0,237.24,520.25ZM200,489.77a8.12,8.12,0,0,1-2-1.06A8.18,8.18,0,0,0,200,489.77Zm-3-237.68c.31,1.12,2.36,2.57.3,3.33C199.31,254.65,197.31,253.21,197,252.09ZM463.93,332a2.35,2.35,0,0,1,1.8-2.35A2.37,2.37,0,0,0,463.93,332Zm-34.33,55.8a5.29,5.29,0,0,1,3.37-2.51A5.33,5.33,0,0,0,429.6,387.75ZM422,393.13c-1.53-.13-1.37-1.38-1-2.5C420.64,391.75,420.52,393,422,393.13ZM395.8,439.51c-.8-.6-1.65-1.15-2.45-1.74C394.14,438.36,395,438.87,395.8,439.51Zm56.63-84.09c-2.52-1.14-.7-3.82-.6-5.88C451.74,351.55,449.91,354.28,452.43,355.42Zm-303.1,10.34c.22.24.46.5.71.81C149.79,366.27,149.55,366,149.33,365.77Zm-.61-.59c.16.15.34.31.52.5C149.06,365.48,148.89,365.32,148.72,365.17Zm-.56-.43a4,4,0,0,1,.39.28A3.87,3.87,0,0,0,148.17,364.74Zm-.51-.23a1.4,1.4,0,0,1,.37.15A1.36,1.36,0,0,0,147.66,364.51Zm-.82,1.53c0-1.13.24-1.64.79-1.54C147.1,364.42,146.84,364.93,146.83,366ZM214,301.61c0-2.63-4.83-1.43-4.89-4.17C209.22,300.18,214,299,214,301.61Zm155.72,67.61c.07-1-.77-.55-2,.58C369,368.66,369.82,368.19,369.74,369.22Zm-12.24,10c3.54-2,4.2,2.58,5.63,4.26C361.7,381.78,361,377.24,357.5,379.2Zm-119.2-4.27c1.16.85,2.9,1.35,3,2.93C241.17,376.34,239.46,375.78,238.3,374.94Zm16.16-14.29c3.1,1.47,1.87-3.32,2.84-5C256.33,357.33,257.59,362.13,254.46,360.65Zm-38.14,14.89c-.69.19-1.43-.22-2.2-1.93C214.9,375.3,215.63,375.72,216.32,375.54Zm5.6-12.19c.14,1.39-2.39,1.75-2.18,3.24C219.49,365.08,222.06,364.73,221.92,363.35Zm.52,5.37c0,.42-.09.83-.15,1.24C222.34,369.54,222.4,369.13,222.44,368.71Zm-12.6-9.32.72.3Zm-.74-.39a6.23,6.23,0,0,0,.71.38A6.19,6.19,0,0,1,209.1,359Zm39-20.58a2.34,2.34,0,0,0,1.44.1A2.27,2.27,0,0,1,248.13,338.42Zm42.16,23.09c0-.22,0-.44,0-.66C290.28,361.06,290.28,361.29,290.29,361.51Zm0-1c0-.34,0-.69,0-1C290.24,359.79,290.25,360.14,290.26,360.48Zm10.84,17.15c-.42-1.12-.2-2.6-1.44-3.19C300.91,375,300.7,376.52,301.09,377.63Zm-86.22-56c-.48,2.68,3,3.45,3.82,5.61C217.88,325.08,214.35,324.31,214.87,321.63Zm2.54,1.35a2.43,2.43,0,0,0,2.21-.68A2.37,2.37,0,0,1,217.41,323Zm47.16,74.12c.62-.83,1.11-1.69,1.75-2.42C265.69,395.41,265.19,396.31,264.58,397.1Zm67.26-18.34a6.83,6.83,0,0,1-7.64-1.2A7,7,0,0,0,331.84,378.76Zm-5.63-37.54c2.9.09,6.15-1.71,8.82-.38C332.35,339.57,329.11,341.31,326.21,341.22Zm-148.88-10a39.69,39.69,0,0,1-4.88.14C174.08,331.26,175.71,331.39,177.33,331.18Zm67.43,95.28a2.25,2.25,0,0,1-.15.4A2.35,2.35,0,0,0,244.76,426.47ZM322.5,406.6a2.62,2.62,0,0,0-1.28-.35A2.61,2.61,0,0,1,322.5,406.6Zm-48.22,24.12c1.13,1.2,1.56,3,3.32,3.48C275.85,433.69,275.37,431.92,274.29,430.72Zm6.47.51a1.86,1.86,0,0,1-.64.74A1.87,1.87,0,0,0,280.75,431.23ZM293,414.41c.36.34,1.07,1.09,1.46,1.44A19.89,19.89,0,0,1,293,414.41ZM275.26,268a17.22,17.22,0,0,1,.94-2.25C275.84,266.45,275.55,267.22,275.26,268Zm-129,85.76c.59-.68,1-.91,1.32-.87C147.3,352.84,146.89,353.07,146.3,353.74ZM98.45,361a10.33,10.33,0,0,1-2.81-.49A13,13,0,0,0,98.45,361Zm6.85,20a12.38,12.38,0,0,0,3.55,1.33A10.93,10.93,0,0,1,105.3,381Zm351.33-22.68c.69.65,1.47,1.35,2.15,2a2.93,2.93,0,0,0,.65-1.43,2.9,2.9,0,0,1-.65,1.43C458.11,359.69,457.31,359.09,456.64,358.34Zm-349.08,26.1a1.09,1.09,0,0,1,.81.34A1.09,1.09,0,0,0,107.56,384.44Zm243.89,85.72c1.07-1.33,2.17-2.74,4-2.77C353.6,467.47,352.52,468.82,351.45,470.16Zm-230-150.31c-.94-.21-2.47-.13-2-1.49C119,319.71,120.59,319.64,121.49,319.85ZM70.17,345.93c1.13-1.58,3.56-2.71,4.81-1C73.71,343.31,71.3,344.35,70.17,345.93Zm23.46,30.4a3.44,3.44,0,0,0-.69,0A3.43,3.43,0,0,1,93.63,376.33Zm239,65.11a18.38,18.38,0,0,1-1.84.07C331.39,441.51,332,441.49,332.63,441.44Zm116.84-1.92a6.33,6.33,0,0,0,1.61,1A6.27,6.27,0,0,1,449.47,439.51ZM139.11,322.35a7.28,7.28,0,0,1,5.29,4.6A7.31,7.31,0,0,0,139.11,322.35ZM119.23,406a2,2,0,0,0-2.36.93A1.94,1.94,0,0,1,119.23,406Zm43.1,36.26a1.55,1.55,0,0,1-.74.91A1.56,1.56,0,0,0,162.33,442.3ZM433.7,419.78a36.32,36.32,0,0,1-.86,4A37.57,37.57,0,0,0,433.7,419.78ZM327.1,261.45a55,55,0,0,1,6.54,7.4A59,59,0,0,0,327.1,261.45Zm-44-34c.79,1.67,3.56-.08,4.18,1.65C286.64,227.35,283.86,229.15,283.08,227.43ZM76.83,327c2.29-.54,2.22-2.62,2.81-4.12C79,324.37,79.1,326.54,76.83,327ZM184.95,465.73c.21,2.11-2.52,1.48-3.85,2.14C182.43,467.21,185.1,467.83,184.95,465.73ZM440.85,431a5,5,0,0,0-4.95.18A4.85,4.85,0,0,1,440.85,431Zm89.63-19.55c0,1,1.78,1.5,3,.15C532.25,413,530.4,412.45,530.48,411.41ZM551,407.3c-.64.89-2,1.75-.51,2.36C549,409,550.37,408.19,551,407.3ZM514.15,318a1.61,1.61,0,0,0-1.28-1.42A1.61,1.61,0,0,1,514.15,318Zm-4.25-1.66a2,2,0,0,1-1.34-1A2,2,0,0,0,509.9,316.37ZM361.29,240.92a6.38,6.38,0,0,0-3,.13A6.16,6.16,0,0,1,361.29,240.92Zm-80.47-22.15c.67.18,1.35.35,2,.58C282.16,219.15,281.48,219,280.81,218.77Zm-72.34,18.5c-1.12-4.22-6.48-5.06-10.12-7.21C202,232.2,207.37,233,208.48,237.26ZM146.9,296.9c-.72-.34-1.55-.64-2.21-1C145.35,296.26,146.19,296.51,146.9,296.9ZM266.77,520.51c.39.05.62.34.5,1.11C267.37,520.86,267.15,520.57,266.77,520.51Zm2.82-10.76a1.94,1.94,0,0,1-.41,0A2.12,2.12,0,0,0,269.58,509.74Zm75.64-8.5c-.93.79-2,1.42-2.36,2.58C343.19,502.65,344.31,502,345.23,501.24Zm89.68-271.61c-.86-.89-3.58-1.51-3.11-2.87C431.33,228.11,434.06,228.69,434.91,229.63ZM348,235.49c2.19-1.67-.05-3.75-1.49-5C348,231.74,350.26,233.83,348,235.49ZM182.24,214.95a1.27,1.27,0,0,1,.05.69A1.33,1.33,0,0,0,182.24,214.95Zm-74.78,77.54a7.24,7.24,0,0,1,5,1.67A7.29,7.29,0,0,0,107.46,292.49Zm-44.66,90c-.52.44-1,.88-1.6,1.32C61.73,383.33,62.28,382.9,62.8,382.46ZM142.22,451a2.57,2.57,0,0,0-.8-.08A2.54,2.54,0,0,1,142.22,451Zm59.06,92.14a10.62,10.62,0,0,0,.23,2.68A10.31,10.31,0,0,1,201.28,543.16ZM430.63,221.44c-4.14,1.13-8.36-2.7-12.06.55C422.29,218.64,426.49,222.57,430.63,221.44Zm-183-47.24c2.43.28,3.35,4.95,6,2C251,179.19,250.11,174.48,247.68,174.2Zm-91.85,89.17c-.65,0-1.17,1.65-1.81,2.29C154.67,265,155.16,263.32,155.83,263.37Zm57.91,277.94c2.86.84,2.8,3.67,3.27,6C216.5,545,216.6,542.15,213.74,541.31ZM305.83,479c0-.19-.1-.54-.14-.88C305.74,478.46,305.81,478.82,305.83,479ZM384,538.36a3.41,3.41,0,0,1-1.92,2.28A3.49,3.49,0,0,0,384,538.36Zm84.25-280.17c-2.6-1,2.47-2.29.89-3.38C470.72,255.9,465.7,257.19,468.25,258.19Zm-402.9,55c-1.33-1.93,1-3.57,1.88-5.35C66.34,309.57,64.06,311.22,65.35,313.14Zm75.91,204.48a1.33,1.33,0,0,1,.11-.36A1.33,1.33,0,0,0,141.26,517.62Zm106.59,42.67a51.36,51.36,0,0,0-2.33,7.23A46,46,0,0,1,247.84,560.29Zm52.33-28.39c.75.65,1.5,1.24,2.22,1.94C301.67,533.14,300.86,532.55,300.18,531.9Zm134.61-13.23c1.49-1.54-.3-3.18-.85-4.65C434.49,515.49,436.32,517.13,434.78,518.67Zm66.38-98.06c1.2-.72.34-2.4,1.47-3C501.5,418.21,502.36,419.93,501.16,420.61Zm10.92-2.35c-6.64.79,4.78,7.69-3.15,9.73C516.86,425.95,505.4,419,512.09,418.26Zm-9.46-132.95c-1.91-.63-4.65.15-6.49-.59C498,285.45,500.71,284.67,502.62,285.31ZM365.58,211c-2.23-.31-4.91,2.2-6.36.37C360.68,213.19,363.36,210.64,365.58,211ZM55.26,352.41a1.89,1.89,0,0,0-.61-.07A1.88,1.88,0,0,1,55.26,352.41Zm65.5,139.23c.23-1.42-.85-3,.81-4.23C120,488.63,121,490.22,120.76,491.65Zm22.71,28.29c0,.19-.28.42-.79.71C143.18,520.36,143.41,520.13,143.47,519.94Zm77.64,34.63c-.15,1.44,1.09,2.15,2.05,2.92C222.2,556.72,220.93,556.11,221.1,554.57Zm185.18-32.31a.54.54,0,0,0-.65.27C405.84,522.24,406.06,522.18,406.28,522.26Zm71.26-72.78a2.1,2.1,0,0,1,1.51.85A2.14,2.14,0,0,0,477.54,449.48Zm47.17-150.54c1.75-1.46,4.3-1.51,6.43-2.08C529,297.42,526.46,297.52,524.71,298.94ZM282.59,142.75a2.12,2.12,0,0,0-1.15.33A2.11,2.11,0,0,1,282.59,142.75Zm-85.85,30.67a3.8,3.8,0,0,1-2.88-4.1A3.82,3.82,0,0,0,196.74,173.41Zm-140.25,241c-2.95-3.85-.34-10.32-4.57-13.54C56.17,404,53.55,410.54,56.49,414.39Zm286.07,162a24.87,24.87,0,0,1-5-1.79A28.28,28.28,0,0,0,342.56,576.36Zm61.52-43.09c-.58.49-2.14,1.67-1.1,2.24C401.89,534.94,403.5,533.75,404.08,533.27Zm5-7.61c.22,0,.42-.17.58-.73C409.47,525.5,409.28,525.69,409.05,525.65Zm56.3,3.92a2.86,2.86,0,0,0,.08.89A2.75,2.75,0,0,1,465.35,529.58Zm24.88-290.19a2.88,2.88,0,0,0,2.88,2.09A2.87,2.87,0,0,1,490.23,239.38Zm1.92-3.16a2.25,2.25,0,0,1,2.27,1.22A2.29,2.29,0,0,0,492.15,236.22Zm-4.69-7.64a6,6,0,0,0-5.33-6.74A5.91,5.91,0,0,1,487.46,228.58ZM373,188.8a1.6,1.6,0,0,1,.13-.7A1.67,1.67,0,0,0,373,188.8ZM49.68,305.12c.89-2.38.85-4.81,1.29-7.24C50.57,300.32,50.57,302.74,49.68,305.12ZM73,428.43c0,.33,0,.67,0,1C73,429.1,73,428.76,73,428.43Zm27.68,60.13c-1.52.14-2.86,1-2.44,2.93C97.81,489.54,99.17,488.69,100.71,488.56ZM252.1,593.73c.26-1.34-.36-3-.34-4.28C251.74,590.77,252.37,592.38,252.1,593.73Zm245.65-353.1a3.07,3.07,0,0,1,2.17.76A3.12,3.12,0,0,0,497.75,240.63ZM429.7,171a12.76,12.76,0,0,0,4.75-1.15A12.34,12.34,0,0,1,429.7,171ZM409.15,158.1c2.54.45,5.08.09,7.64,0A32.34,32.34,0,0,1,409.15,158.1ZM205.8,131a3.28,3.28,0,0,0,.42-1.22A3.28,3.28,0,0,1,205.8,131ZM46.59,318.17a30.26,30.26,0,0,1-1.82-3.1C45.38,316.1,45.88,317.17,46.59,318.17ZM88.2,475.74a1.68,1.68,0,0,0-1-.85A1.67,1.67,0,0,1,88.2,475.74Zm229,54.68c-.55-.12-1.14-.18-1.69-.29C316.08,530.24,316.66,530.3,317.22,530.42Zm266.24-184.1c.71-1,2.64-2.16,1.71-3.43C586.14,344.16,584.17,345.29,583.45,346.32Zm-32-81.83c1.44.73-.19,3.42,1.93,3.37C551.22,268,552.86,265.22,551.42,264.49ZM321.14,96.7c-.22,0-.43,0-.65.07.22,0,.43,0,.65-.07Zm-64.51,11.47c1-1.12,2.07-1.59,3.09-1.37A3.37,3.37,0,0,0,256.62,108.17Zm-22.43,1.41a6.64,6.64,0,0,0,2.81,1.1A6.62,6.62,0,0,1,234.2,109.58ZM116.09,220c.28-.15.55-.3.8-.46C116.65,219.66,116.37,219.81,116.09,220ZM81.9,476.31a1.89,1.89,0,0,1-.44-.21A2,2,0,0,0,81.9,476.31ZM558.13,240.57c-.5,2.23,2.06,3.92,2.75,5.82C560.18,244.54,557.63,242.81,558.13,240.57Zm-8.64,5.23a5.11,5.11,0,0,0,2,3.62A5,5,0,0,1,549.49,245.8ZM325.61,96.74h0ZM73.85,241.24ZM32.73,362.73c-.76-2-1.74-3.81-2.62-5.63A58.21,58.21,0,0,1,32.73,362.73Zm89.82,178.22c1.23,1.36,2.74,1.38,4.34,1.78C125.25,542.33,123.78,542.31,122.55,540.95ZM227,604.34a.84.84,0,0,0,.36-.52A.7.7,0,0,1,227,604.34ZM559.56,220.58c.81-2.79.46-6.07-1.83-8.15C560.06,214.53,560.37,217.79,559.56,220.58ZM430.9,131.72c1-1.6-1.51-1.34-2.65-1.73C429.39,130.39,431.95,130.13,430.9,131.72ZM203.2,598.79c1.86-1.14,3.27,1.24,5.25.26C206.51,600.06,205.06,597.65,203.2,598.79ZM455.56,136.37l.57-.05ZM14.16,353.21a.67.67,0,0,1,.34.13A.67.67,0,0,0,14.16,353.21ZM434.23,121.28c2.86,1.67,6.34,2.53,9.4,3.89C440.55,123.86,437.09,122.95,434.23,121.28ZM234.93,83.22h0c-1.91,1.46-5-.39-6.72,1.71C229.9,82.83,233,84.63,234.93,83.22ZM133.68,141.08l-.15.15ZM16.76,417.84a1.58,1.58,0,0,0,1.1.7A1.54,1.54,0,0,1,16.76,417.84Zm5.1.08c.53.15,1,.58,1.3,1.54C22.84,418.51,22.39,418.07,21.86,417.92ZM347.24,644l.55-.25C347.61,644.06,347.46,644.24,347.24,644ZM555.89,529.64a2.39,2.39,0,0,1,.14-.2,2.66,2.66,0,0,1-1.08-.08q1-1.12,1.89-2.27a11.27,11.27,0,0,1,1.44.4,1.06,1.06,0,0,0-.25.4l-.55.05c.31,1,.5,1.89-.37,1.95A1.77,1.77,0,0,0,555.89,529.64Zm4.46-4.87c.29-.37.66-.3,1.09,0a8.21,8.21,0,0,1-.89,1.49,17.35,17.35,0,0,0-2.39-.56l-.11-.17,1-1.32a4.17,4.17,0,0,0,1.29.27A.93.93,0,0,0,560.35,524.77Zm1.53-3.62a3.87,3.87,0,0,0,1.36-2.32l.2-.28a4.4,4.4,0,0,1,.56,1.37,1.5,1.5,0,0,0-1,.9A5.39,5.39,0,0,0,561.88,521.15Zm3.13-.23v0c.43-.07.76-.11,1.1-.16.2.37,1.18.5,1.95.63C566.76,522.69,566,521.69,565,520.91ZM596.76,496c-.45.62-1.14,0-1.67.16.44-.61-.39-1.87-.3-2.38-1.19-.77-.62-2.11-.2-2.79a6.73,6.73,0,0,1-.39-1c.72-.18,1,.24,1.18,1.17,1.29.26,4.08,1.38,3.31,3.64C598.7,495.82,597.8,496.07,596.76,496Zm-2.13,9.5c-.9.24-1.22,0-1-.5C594.27,504.76,594.66,504.74,594.63,505.55ZM587,503.14c-.43.71-1,1.55-2.22.69-.32-.61.89-.73,1.16-1.31C586.08,502.12,586.94,502.68,587,503.14ZM535.77,575c-.27.58-.71.21-.86.44-.26-.43-.11-.59-.15-.75C535.08,574.45,535.84,574.44,535.77,575Zm57.65-86.93a3,3,0,0,1,.72-1.07c-.06-.28-.58-1,.21-.85.66-.47-.21.85.13.66.14-.24,1.14-.5.74-.1A2.74,2.74,0,0,1,593.42,488.1Zm-34.8,93.15c-.9.24-2.3-.67-1.69-1.81.08-.51.65-.47.7-.27C558.28,579.57,558.46,580.53,558.62,581.26Zm.08-38.8c-.49.43-1.19-.17-1.14-.86C558.12,540.65,558.8,542,558.7,542.46Zm-27.49,32c.54-.14,1.26-.25,1.09.69C531.89,576,531.18,575.29,531.21,574.5Zm55.12-68.32c-.25.56-1.46.69-1.43-.12C585.09,506.12,586.27,505.8,586.34,506.18Zm-21.21,20.65c-.22-.14.1-.33.5-.32,0,0,.37-1,.51-.35.32.71-.17-.73-.39-1-.12-.47.46-.42.82-.6-.06.7-.43,1.68.26,2.29-.06-.29.51-.33.82-.22,0,0,.16-.15.14-.23-.05.69-.62,2-1.55,1.18-.19,0-.77-.08-.83-.35.07.36.15.73.2,1l.49.46c-.67.48-1.54.31-1.82-1-.27.55-.6.76-1,.74-.64-.32.4-.79.36-1C564.12,527,564.44,526.71,565.13,526.83Zm21-28.95c-.51.33-1.06,1.26-1.58.62C583.93,497.19,586.5,496.31,586.15,497.88Zm3.66,7.28c-.11.31-.48.41-1,.39-.08-.4-.14-.67-.25-1.23-.14.24-.74.59-1,.08-.49-.56.85-.93,1-.25C589,503.71,589.67,504.42,589.81,505.16Zm-2.34,0c-.79-.17-1,.47-1.44.38-.29-.51.38-.89.52-1.12C587,504.55,587,504.74,587.47,505.19ZM596,489.08c.48-.42-.16-.73.29-1.36a20.22,20.22,0,0,1,2.18-.85c.17.83-1.23.92-1.34,1.32a16.29,16.29,0,0,1-.83,2.39C595.31,490.85,595.39,489.45,596,489.08Zm-2.57,7.75a1.23,1.23,0,0,1,1.2-1.1c-.22.35.08.46-.34.68C594.57,496.93,594,496.79,593.41,496.83ZM554.6,542.37c-.07-.27.45-.6.73-1.07.38,0,.14.74,1,.4.64-.07.72.29.58,1-.23-.24-.41-.19-.41-.19C556.34,543.48,555.11,543,554.6,542.37Zm44.89-39.89c-.34.19-1.44.78-1,.08C598.73,502.4,599.89,501.6,599.49,502.48Zm-12-5.74c-.06.69-.85.5-1.15,0C586.89,496.4,587.92,495.85,587.54,496.74Zm3.29-8.85c-.36-.78,1-1.54.9-1.11C591.4,487.07,591.41,488,590.83,487.9ZM532.44,596.56c-.25.15-1,.34-1,.17A.52.52,0,0,1,532.44,596.56ZM593.33,501c0,.79-1.11.69-1,.08C592.11,500.22,593.55,500.24,593.33,501Zm-6-7c-.09.51,0,1-.18,1,.68.61,1.5-.56,1.65.16-.4.4-1.5,1.49-1.72.46-.15.14-.78-.1-.78-.1C586.21,494.92,586.74,494.78,587.34,493.94Zm1.66,12.7c-.16.16-.89-.15-.45-.37S589.5,506.32,589,506.64Zm3,.48c-.3.37-.65.56-.94.44C590.75,506.87,592.21,506.2,592,507.12Zm-38.1,31c.73-.09.82-.6.9-1.12a8,8,0,0,0,.42,1.17C555.35,539.51,554.41,538.59,553.93,538.14ZM596.27,485c-.45-.37,1.08-1.16,1-.74C597.05,485.08,596.88,485.22,596.27,485Zm-55.76,88.23a10.08,10.08,0,0,1-2.18,1.94c-.1.42-.07,1.49-.66,1.35-.81-.27-.59-1-.7-1.58l-1.17-.58c-.43-1.16,0-2.25-.18-3.17a2.43,2.43,0,0,1,3.43-.33C539.91,571.22,540.15,572.41,540.51,573.21Zm18-34.42c-.1-.46-.17-.75-.22-1,.59-.36.29.5.79.58C559.13,538.62,558.65,538.65,558.51,538.79Zm23.12-36.17c0,.07-.3.37-.3.37a1.06,1.06,0,0,0-.6-.14C581,502,581.92,501.75,581.63,502.63Zm16.72-12.11c-.33.2,0,1-.67.48C596.56,491,598.4,489.83,598.35,490.52Zm-5.46-.8c-.17,0-.1.4.12.55a4.18,4.18,0,0,1-1.54.81C590.8,490.57,592.33,489.76,592.89,489.72Zm-23.06,28.7c.1-.42-.18-.95-.28-1.4a.94.94,0,0,1,1.29.73C571,518.6,570.29,518.77,569.83,518.42Zm-11.32,20.37-.34.19c.31.5.18.93.28,1.38-.15.14-.14.24-.07.63a2.31,2.31,0,0,0-1.39-.33c-.07-.28-.33-.69-.36-.88.47-.44.24.32.48.54.58.05,0-.79.41-.79-.51-.65-.68-1.49-1.2-2.13-.48,0-1,.07-1-.53.76.39.91.23,1.08-.68.14-.24.13.64.38.87C557.17,537.78,558,538.13,558.51,538.79ZM617.95,256c1.11-.95,3.92-2.69,5.18-.61.78.6.37,1.54-.39,2.42.18.77-.78,1-1,1.56-.18-.77-1.74-.83-2.09-1.23-1.44.57-2.09-.76-2.36-1.56a8.15,8.15,0,0,1-1-.27C616.57,255.54,617.09,255.55,617.95,256Zm21.22,101.48c-.79-.59-2.13-.44-3.09-.66-.87,0-.87-.88-1.1-1.54.35-.75,1.29-1.21,1.56-1.08,1.13.78,2.16.36,3.05.55C640,355.6,640.3,356.64,639.17,357.45Zm-11.5-91.3c.26-.79.52-1.12,1.13-.6C628.37,266.48,628,266.63,627.67,266.15Zm-7.23,5.05c-.25-.37.79-.77,1.21-.55.27.8.53,1.83-1,2.34C620,272.9,620.7,271.77,620.44,271.2ZM642.95,361c-.53,0-.53-.25-.69-.33,0-.46.51-1.13,1-.69C643.45,360.55,642.86,360.7,642.95,361Zm-24.23-47.67c0-.46.25-1,.09-1.57.13-.73.65,0,.9.12C620.1,312.84,619.33,313.13,618.72,313.31Zm-7.15-37.83c-.19-.33-.52.41-.69.1.24-.54.55-1.43.81-.84.27.35.87.41.49,1.24C611.49,276.55,611.21,275.74,611.57,275.48Zm11.92,39c.26.12.87.17,1,.49s.19,1.44-.43.69c-1,.45.09.74.17,1.23-.34.27-1.77.39-.8,1.08a1.42,1.42,0,0,1,1.85-.13c.26.13.31.72.47,1.26-.51.65-1.45,1.11-1.33,2.18-.5.21-1.12-.08-.39-.75.08-.63-1-.68-1.34.15-1.14-.07-.38-1,.19-.92.37-.27,0-.68-.43-1.11l.53-.44c-.53-.24-1.75.77-2,0a3.81,3.81,0,0,1,2.3-1.29C623.41,316.2,623,315.1,623.49,314.44Zm-10.21-60.72c.08-.85.52.72.61.3-.09-.27.39-1.3.43-.7a3,3,0,0,1-.17,2.42,3.07,3.07,0,0,1-.35-1.29C613.53,254.31,612.58,254.31,613.28,253.72Zm-3.9,6.32c.36.38.61.51.88.42.26.56.09.7-.39,1.05A1.7,1.7,0,0,1,609.38,260Zm2.92,2.63c.44.21.44.65.09.71-.34-.16-.87-.64-.26-1C612,262.55,612.39,262.5,612.3,262.68ZM611,264.09c.18.54-.48.8-.57,1.44C610,264.87,610.06,263.62,611,264.09Zm4.57,32.41c-.44-.42.17-1,.6-.84C616.62,296.32,616.09,296.76,615.59,296.5ZM663.9,344c-.44.93-2.13,1.6-2.6.34-.35-.38.09-.86.26-.78A3.18,3.18,0,0,1,663.9,344Zm-30.67-24.23c0,.7-.95.92-1.46.43C631.41,319.11,632.89,319.37,633.23,319.75Zm7.7,43.3c.33.84-.7,1-1.3.51C639.89,363,640.31,362.33,640.93,363.05Zm-17.35-89.91c.27.57-.47,1.69-1.09,1.19C622.66,274.18,623.23,273,623.58,273.14Zm-9.06,6c.09.05.33.16,0,.46-.52-.49-.56.73-.64,1.39-.89-1.09-.49-2.4-.07-3.54C615,278.2,613.65,279.16,614.53,279.13Zm9.91,30.76-.08.18c.28.34,0,.45-.48,1-.26-.13,0-1-.43-.44s-.7-.34-.49-.8C623.73,309.58,623.6,311,624.43,309.9Zm2,12.07a1.38,1.38,0,0,1,.77.61c-.25.55-.94.89-1.12.82C625.59,323.15,626.21,322.32,626.47,322Zm-12.39-45.54c-.19.36-.34,1.87-1.2,1.48a2,2,0,0,0-.2-1.46C612.17,275.52,614.73,275.71,614.08,276.43Zm8.5,25.12c.25.12.69-.12,1.22.11a1.21,1.21,0,0,1-1.31,1.22c-.16-.1,0,1-.56.75-1-.24.4-.85.39-1.31C623.11,302.71,622.58,302,622.59,301.55ZM629,328.08c-.26.09-1.66.34-.69.57,1.21.35-.46,1.47-1,1,.08-.41.47-.78.46-1a.7.7,0,0,1-1.13-.77c.32-.51,1.3-.75,1.47-.43,0-.46.38-2.21,1.51-1.66C628.27,326.33,630.16,327.24,629,328.08Zm-12.18-60c-.09.64.28,1.73-.61,1.77C614.79,269.63,615.88,266.87,616.87,268.12Zm7.75,32c-.09.63-.39,1.73-.91,1.27C623.32,300.42,624.19,300.17,624.62,300.15Zm1.87,2.81c-.26-.11.09-.65.38-.83a.56.56,0,0,0,0-.21c.52.52,1.07,1.75-.17,2-.17.13-.61.61-.85.49.34.15.68.34.93.46l.7-.12c-.07.86-.81,1.54-2,.94a1.17,1.17,0,0,1-.07,1.32c-.71.35-.36-.83-.54-.92a1.65,1.65,0,0,1,.5-1.71c-.27.11-.2-.3.07-.64,0,0-.52-.92.09-.64.77.16-.7-.31-1-.24-.44-.23,0-.7.08-1.11C625,302.24,625.53,303.18,626.49,303ZM624.17,347c-.18-.79-.54-1.61.42-2.31.86.19,1.42-.1,1.81.42A1.9,1.9,0,0,1,624.17,347Zm1-77.57c.17.31,0,.68-.44,1.16l-1.14-.54c.1.26,0,1-.65.94-.77.08-.14-1.32.49-1C623.43,269.34,624.47,269.15,625.18,269.48Zm-16.44,2.26c.34-.3.42-.71.73-1.13.27.12.39.53.4,1C609.87,271.8,609.16,271.47,608.74,271.74Zm20.4,62.73c-.95.23-1.45,1.11-1.64.36-1.51.29-1.82-1.34-1.13-2.36.35-.3,0-.45,0-.71,1.34-.13,2.46-1.87,3.24-.15A2.29,2.29,0,0,1,629.14,334.46Zm3.46-.3a1.91,1.91,0,0,1-1,2.81c-1.35.15-2.31-.29-1.92-1.59C629.5,333.94,632.07,333.25,632.6,334.17Zm-10.24-62.3c.35-.28.54-.18,1.22-.33-.7.58-.35,1.19-.71,1.49C622.27,273,622.44,272.14,622.36,271.87ZM615.83,253a23.76,23.76,0,0,1,.82-2.45c.78.38-.12,1.64.14,2,.53.46.79,1.48,1.31,2.19-.48,1-1.52.08-1.4-.65S616,253.79,615.83,253Zm5.5,7.14c.59.08.07.51-.27,1a1.27,1.27,0,0,1,0-1.72C621.15,259.85,621.44,259.67,621.33,260.16Zm1.17,30.13c-2.26,1.42-.78,1.44-.42,1.61-.62.4-1.52,1.43-2.66.45.73-.44,1.18-1.38,1.79-1.11C621.55,291,621.81,290.19,622.5,290.3Zm-4.1,18c-.18-.07-.13-1.44.42-1.27l0,0a3,3,0,0,0,.08-.89c.25.14.51.26.87.44-.34,0-.43.47-.69.79C620,307.57,618.69,308.07,618.4,308.27Zm13.4,13.41c.6.75-.6,1.52-1.47,1.57-.25-.12-.16-.78-.33-1.31.25-.34.67.34,1-.64.38-.6.73-.43,1.2.13A.54.54,0,0,0,631.8,321.68Zm-8-25.24c.24.13.5.26.51-.21a14.08,14.08,0,0,1,.21,2c-.26-.33-.6-.51-.85-.41a6.13,6.13,0,0,0-.14-.86c-.55,1-.85-.17-1.27,0,.15-.5.67-.48.66-.7a.55.55,0,0,0,.25.57C623.52,296.55,624.14,295.94,623.79,296.45Zm-6.65-11.07c.81.81-.46,2.15-1,1.09C615.76,286.07,616.72,284.94,617.14,285.37Zm-1.69-3.67c.26.14,1,.69.26,1.28C615.36,282.58,615,282.19,615.45,281.71Zm13.63-21.34c0-.33.22-1.83.65-.93C629.65,259.84,629.36,261.17,629.07,260.36Zm-12.15,5.86c.52.48-.18,1.06-.79,1C616.23,266.57,616.48,265.34,616.92,266.22Zm5.63,40c-.73,1.56-1.32-.62-.52-.71.33-.06.51-.21.52-.43-.53-.24-1,.87-1.57-.06.45-.94,1.22-.55,1.74-1-.26-.12-.08-.27,0-1,.35.17.61.29.61.29-.73.68.77-.07.51.48-.64.7-.12,1.18-.21,1.61-.45-.45-1.3.05-.44.48C623.68,306,622.46,306.37,622.55,306.19Zm6.87,18.33c0-.68.61-.4,1.13-.15C630.56,325.05,629.07,325.72,629.43,324.52Zm-17.49-68.14c0,.46.78,1,.27,1.48C611.32,257.68,611.66,256,611.94,256.38Zm46,119.88c-.06.33-.38,1.05-.57,1C656.83,376.77,657.49,376.06,657.93,376.26ZM624.29,263.84c.6.51-.22,1.38-.65.94C622.85,264.41,623.84,263.18,624.29,263.84Zm-9.72.81c.35.39.78.6.7.78,1-.21.55-1.64,1.25-1.32.05.6.13,2.22-.82,1.77,0,.23-.6.62-.6.62C614.57,266.25,614.83,265.7,614.57,264.66Zm-6.17-1.35c.53-.2.69-.8,1.31-.76a1.07,1.07,0,0,1-.91,1.52C608.55,264.15,607.88,263.29,608.39,263.31Zm16.77,8c0-.45.7-.79.61-.16C625.79,271.36,625,271.82,625.17,271.29Zm-14.61,1.55c.45-.94.72-2,1.78-1.54a2.46,2.46,0,0,1,0,1.89C612.11,272.89,611.51,272.61,610.56,272.84Zm17.7-4c.07.51,0,.91-.31,1.11C627.16,269.74,627.64,268,628.25,268.79Zm-11.84,30.95a4.52,4.52,0,0,1,.22-2.72c1-.91,3.25-2.42,4.24-.71.95.69.53,1.61.87,2.46-.56,1-.82,1.31-1.33,2.2a7.77,7.77,0,0,1-.95.46c-.88-.87-1.91-.48-2.36-.89C617,300,616.59,300,616.41,299.74Zm-.45-6.55c.59-.62,1-1.83,1.56-1.52.78.59.79,1.5-.43,2.52.21.66.74.91.23,1.34-1.14.6-.62-.75-1-1.35-.13-.65-1.31-.39-1.43-1.27C615.27,292.17,615.79,292.87,616,293.19Zm2.71,17.24c-.28-.78,1.2-.76,1.37-.47.27.13.44,1.12-.09.65C619.88,310.12,619.18,310.91,618.67,310.43ZM607,262.64l.86.41c-.13.51-.45,1-.47,1.24C607,264.1,607,263.19,607,262.64Zm19.49,58.55c.44-.71.09-1.1-.26-1.48a6.55,6.55,0,0,0,1.2.36C628.6,320.82,627.2,321.08,626.51,321.19Zm.61-10.23a3.53,3.53,0,0,1,1.73-.32c.62-.16,1.87-1,1.83.19-.08.42-.6.62-.08.87a3,3,0,0,1-1.56.83c-.6-.05-1.44.36-1.12-.54-.49.59-1.27,1.11-1.78.18a1.44,1.44,0,0,1-1.21,1.47c-.44,0-.78-.37-1.13-.31a1.88,1.88,0,0,1-.3,1.1,1.3,1.3,0,0,1-1.47-.24c.36-.29.35-.53.74-.89-.19-.57.51-1.57.87-.52.68.12,1.29.41,1.47-.65-.52.21-1.21.55-1.12-.08,0-.22.33-1,.68-.57l.16.3c.06-.77,1-.78,1.17-.68-.16-.55-.15-.77-.77-1.07.61-.39,1.4.22,1.13.55l.25-.12C626.52,310.67,626.86,311.07,627.12,311Zm-13.38-61c.52.68.5.93-.1,1.3C613.05,251.48,613.48,249.64,613.75,250Zm10.94,58.22A4.62,4.62,0,0,0,623,309.7a1,1,0,0,1-.68-.1,3.27,3.27,0,0,0,1.19-1.47C623.82,308.71,624.16,307.75,624.69,308.22Zm-5,7.67c0-.81,1.08-1.18,1.43-1.94a14.65,14.65,0,0,1,.44,1.58,1.6,1.6,0,0,1,1.39,0c.78.14-1.52,1.43-1.49.19C621.1,316.6,620.25,316.4,619.64,315.89Zm25.43,41.9c.25.36,1.13,1,.6,1.42-.77.53-1.2-.12-1.74-.36-.25.09-.67.36-1.25.64-1.21-.34-1.78-1.4-2.65-1.84-.35-1.29.72-2.69,2.12-3.18.86-.49,2,.06,2.86.25A10.28,10.28,0,0,1,645.07,357.79Zm-25.83-71c.52-.2.44-.46,1.12-.58a6.82,6.82,0,0,1,.62.28c0,.22.24.34.42.66l-.86-.42c0,1.14-.27.34-.44,0C619.75,286.84,619.5,286.94,619.24,286.8Zm10.95,30.81-1-.42c.14-.74.62.05,1-.33C630.49,317,630.17,317.39,630.19,317.61ZM617.6,275.5a1.26,1.26,0,0,0-.53.44c-.52-.71-.05-1.73.43-.93C617.59,275,617.6,275.5,617.6,275.5Zm3,29.54c-.9.82,0,1,.57,1.29-.6.16-.95.45-.86.94-.61-.3-.34-.85-.61-1.42C620.09,305.78,620.22,304.83,620.63,305Zm.93-3.77a2.39,2.39,0,0,0,1,.28C622.24,302.75,620.68,302,621.56,301.27ZM619.47,253c-.09.39.8.59-.07.86C618.62,254.81,619,252.48,619.47,253Zm-4.4,4.24c-.09.19.26.35.52.23a5.15,5.15,0,0,1-.43,1.84C614.3,259.54,614.71,257.7,615.07,257.2Zm6.79,37.89c-.25-.36-.85-.41-1.29-.63a1,1,0,0,1,1.45-.65C622.82,294.18,622.47,294.92,621.86,295.09Zm-.25,16.52c-1.13-.54-.3-2.76.6-.6C622.84,311.52,621.2,312.31,621.61,311.61Zm27.55,22.52c-1,.43-2.35-.22-2-1.4.61.29.34-.53.78-.55C647.85,333.06,648.63,333.66,649.16,334.13Zm-22.38-32.29a.11.11,0,0,1,.06.06ZM630.11,318c.6.06.86.41,1.29.63,0,.23.1.27.43.44a2.94,2.94,0,0,0-1.2,1c-.27-.12-.79-.12-1-.22,0-.67.44,0,.78-.06.42-.48-.61-.53-.35-.88-.88.07-1.66-.32-2.52-.27-.31.42-.65.93-1.08.51.83-.41.82-.64.21-1.39-.09-.28.62.3,1,.23.8.15,1.65-.33,2.52-.39ZM288.88,62.53c1-.15,1.82-1.19,2.66-1.71.6-.65,1.18,0,1.76.26a1.86,1.86,0,0,1-.44,1.78c-1.31.29-1.77,1.29-2.53,1.77C289.44,64.37,288.61,63.87,288.88,62.53ZM404.16,81.1c-.39-1.29-1.74-2.11-1.46-3.46.19-.68-.3-1.63.34-2.48a2.15,2.15,0,0,1,1.8-.28c1,1,1,3,.5,4.54a22,22,0,0,1,.2,2.89C405.28,84,403.18,82.09,404.16,81.1Zm2.68,12.82c.57-.41,1,1.28.12,1C406.43,94.89,406,94.44,406.84,93.92Zm-54.5-18.36c.22-.28.46-.79.67-1.06.5,0,.43.45.52,1A4.58,4.58,0,0,1,352.34,75.56Zm-67.71-13c.29.31.35,1.12-.25,1.12-.56-.2-.22-.72-.47-.85C284.32,62.51,284.46,62.65,284.63,62.58ZM378.22,80.3A.65.65,0,0,1,378,81.6C377.34,81.65,377.58,80.13,378.22,80.3Zm-10.5-1.19c.14-.25.43-.58.19-.68.62-.24,1.24.15.8.31C368.26,79.52,367.88,79.26,367.72,79.11Zm-9,2.14c2.09-1.92,2.36,2.49.42,1.67C358.54,82.78,358.53,81.76,358.77,81.25Zm-59.3-32.33c.38-.37-.43-1.69.26-2.36.92-.86,1.47-1.67,2.33-2.41.69-.05,1.88.32,2.86-.05,2.5,1,3.34,5.41.93,7.55-.8.91-1.82,2.42-2.82,1.48-.86.1-1.44.13-1.64-.21A4.44,4.44,0,0,1,299.47,48.92ZM332,79.19c-.91-.36-.55-1.11-.23-1.63.31.28.48.83.94,1.08C333.12,79.21,332.3,79.11,332,79.19Zm-4.37.94c-.26.09-.75.5-1.08.41s-1.05-.82-.14-.76c.4-1-.52-.42-.89-.71,0-.41,1-1.5-.12-1.28a1.53,1.53,0,0,1-1.24,1.39c-.27.11-.69-.25-1.16-.48,0-.8.35-1.77-.44-2.4.25-.49.87-.73.78.22.34.5,1.12-.2.86-1,.86-.75.92.34.45.73-.08.45.42.46,1,.45,0,.22-.1.65-.1.65.54-.2.76-1.73,1.47-1.36a4,4,0,0,1-.84,2.46C326.58,78.89,327.61,79.34,327.67,80.13Zm65.78,1c-.8-1,1-1.39.82-.3C394,81.12,393.64,81.06,393.45,81.13Zm-20.07,6.93c.59-.62,1.44-.14,1.87-.09.6-.22.35.9-.12.66S373,89.21,373.37,88.06ZM337.59,57.34A1.33,1.33,0,0,1,339,57c.42-.56.78-1.31,1-.18a3.57,3.57,0,0,1-2.49,1.55C336.94,58.41,337.17,57.9,337.59,57.34Zm51.58,31.14c-.22-.75.63-.86,1.1-1.26.52,1,2.3.37,2.59,1.29a.52.52,0,0,0-.53.21C391,88.39,389.78,89.47,389.18,88.48Zm-63.89-13.8c.06-.44.36-.76.2-1.3-.39.35-1.18,1.06-1.19,0,.86-.11.07-1.35,1-1.07a1.13,1.13,0,0,1-.51-1c.53.4,1.3.33,1.1,1,.8,0,1.67,1.51.64,1.72C326.54,74.61,325.66,74.32,325.29,74.68Zm-40.63-15.9c.16.56.3,1.33-.61,1.28C283.26,59.73,283.89,58.87,284.66,58.78Zm62.27,4.36c.69,1.29-.36,3.33-1.71,2.81-.29-.32-.56-.21-.53-.73C343.52,64,345.82,61.83,346.93,63.14Zm-3.8-40.59.42-.54c.84-1.15,2.37-.7,3.14-.16.25.83,0,1.54.33,2.64-.42.57-1.09,1-1.5,1.59a3,3,0,0,0-1.6,0C342.93,25.43,342,23.4,343.13,22.56Zm55.05,60.37c-.24.51,0,1.54-.79,1.34-.7.25-.43-.46-.34-1.52C397.43,82.41,398,82.78,398.18,82.93Zm-77.46-5.72a1.47,1.47,0,0,1-1,.15A1.4,1.4,0,0,1,320,76C320.58,75.83,320.68,76.82,320.72,77.21Zm8.46-5c.2.95-.51,1.2-.17,1.69-.26.1-.26.1-.3-.08C327.63,73.58,328.32,72.3,329.18,72.19Zm13.3-11.56c.72-.27.67,1.18.16,1.16C342.17,61.57,342,60.61,342.48,60.63Zm.05-1.76c-.11-1,1.52-1.2,1.81-.9C345.17,58.7,342.89,58.11,342.53,58.87ZM297.7,47.33c-.71,0-1.32-1-.43-1.38C298.23,45.18,298.58,47,297.7,47.33Zm43.44,20.56c.11-.65,1.41-.94,1.61,0a2.2,2.2,0,0,1-1.22.85C341.36,68.63,340.91,68.4,341.13,67.89ZM316,76.94c.66-1.37-1.31-.64-1-2,.13-.28,1-1.4.12-.88-1.08.6-.6-1.31.09-1.36.21.33.16.85.31,1,.15-.76,1.1-.92,1.3-.27s-.46,1.41-.79,1.31C316.28,75.08,317.12,76.51,316,76.94Zm91.14-4.33c-1-1.57.26-2,.9-1.27a1.36,1.36,0,0,1-.61,1.57A.58.58,0,0,1,407.11,72.61Zm7.12,12.8c-.78-1.25,0-2.76.43-3.75,1.49-1,1.95.51,2.38.94.07,1.52-.33,3.1-1.45,3.32C415,86,414.79,85.6,414.23,85.42Zm-29.45,2c.58,0,.62.78.92,1.06-.54.2-.71.27-1.16.45C383.93,88.49,384.32,87.54,384.78,87.38ZM307.5,60.78c-.73.47-1,1.07-1.58,1a1.87,1.87,0,0,1,.42-2.82C307,59.34,307.75,59.64,307.5,60.78Zm3.3,10c.54-.8.34-1.76.94-1.38.91-1.25,2.17-.39,2.33.78-.06.42.28.28.43.46-.86,1-.58,3-2.23,2.37A2,2,0,0,1,310.8,70.78Zm-3.38.06c.86-1.06,1.85-1.43,2.4-.3,1,.83-.35,3.11-1.31,2.87A1.73,1.73,0,0,1,307.42,70.84Zm23.36,3.31c-.84-1.43.85-2.06,1.64-1.76A2,2,0,0,1,330.78,74.15ZM365,80.77c1.39.6.73,3.33-.84,3.69C362.59,84,363.35,80.34,365,80.77Zm44.65-14.82c1.21-.26,1.33,2,.15,1.77C409.2,67.53,409.12,66.31,409.61,65.95Zm-72.73-1c-.15-.14-.16-.54-.31-.7C337.27,63.42,337.83,64.84,336.88,65Zm79.55,4.12c0,.83,0,1.85-.69,1.9C414.94,70.69,415.41,69.28,416.43,69.1Zm-104.63-7a.92.92,0,0,1,.61-.83,4,4,0,0,1,.66-2.41c.53-.21,1.79,0,1.16,1.51,0,.4-.83.51-.93,1.17,1.23-.46,1.81-1.51,3.15-2,.85-.75,2.08,0,3-.32.36-.74.92-.54,1.47-.34-.05.73,0,1.14,0,1.76.91.07,1.4,1.62,2.66.95.78-.09,1.39.29,1.21,1,.07.58.81,1,1.17.58.45-.16.28.61.19,1.26,0-.19-.31-.1-.64-.16.89.68,1.27,1.55,1.57,3.18A5.56,5.56,0,0,1,324.44,71a13.57,13.57,0,0,1-2.91.48c-1.79-1.27-.38,1.37-1.71,1.26-.41,0-.59.63-.87.73-.35-.46,0-1-.68-1.29-.07,1.17-1.57.38-2.13.2-.13-.76.86-.74.37-1.37-.4-1-1.31-1.65-1.64-2.74.16-.49-.48-.24-.52-.73-.29-.93-1.16-.2-1.62-1-.95-1.2-.11-2.33,0-3.61.55-.19.14-1.16,0-1.33C312.58,61.81,312.32,61.91,311.79,62.12Zm55.1,10.13c0-.53-.24-.82-.16-1.47C367.79,70.58,368,72.66,366.9,72.25Zm-50.66,6.23c-.43-.45.22-1.92.72-.88C317.39,78.05,316.78,78.28,316.23,78.48ZM442.51,93.42c.34-.12.89-.31,1.14-.43a1.63,1.63,0,0,1-1,1.69C442.72,94.17,442.8,93.74,442.51,93.42ZM332.71,74.66a10.47,10.47,0,0,1,2.47-2c1-.15,2.4-.3,2.79,1.31.55.82,2.13-.19,2.65.85a3.32,3.32,0,0,1-.27,3.69c-1.06,1.31-2.24,1-3.5,1.51.67-1.05-.79-2-1.59-1-1.16.44-1.48-1.8-2.56-1.19-.23-.73-1.31-.73-1.18-1.92C332,75.53,333.09,75.53,332.71,74.66Zm-.84-.51a2.45,2.45,0,0,1,.84.51C332.36,74.77,331.69,74.82,331.87,74.15Zm68.42,19.48c.27-.1.62-.84.92-.55.92.06.73,1.36.39,2.2.44-.17.92.68.37.89C401.33,95.38,400,95.18,400.29,93.63Zm-4-17.86a1.31,1.31,0,0,1-.11-1c.48-.8,1.63-.21,1.66.19C397.4,74.93,397.16,75.74,396.27,75.77ZM350.9,67c-.26.09-.49-.65-.18-.55C351.29,65.71,351.66,67.51,350.9,67Zm-1.76-15.94a2.46,2.46,0,0,1,1.14-.21c-.22.59-.32,1.21-.46,1.09C349.31,51.91,349.08,51.79,349.14,51.06ZM263.39,63.19c-.17-.24-.4-1-.22-1C263.85,62.1,263.82,63,263.39,63.19ZM371.74,88.26c1.14,1.4.05,1.41-.63,1.46C369.81,89.39,370.89,88.07,371.74,88.26Zm9.54-12.5c0,.39.07,1.2-.52,1.21C380.16,76.59,380.8,75.44,381.29,75.76Zm-53.64-8.53c-.37-.89.84-1.14,1-.59A3,3,0,0,1,327.65,67.23Zm2.91,7.19c-.07.64-.11,1.89-1.23,1.51-.39-.28-.55-.22-.46-.87C329.15,74.35,329.91,74.87,330.56,74.43Zm24-22.63c.94-.17,1.49,2.21-.18,2.62C353,54.92,352.94,51.78,354.53,51.8ZM293,43.15c-.7-1.27.09-2.6.23-3.78,1.06-1,2.13-2.43,3.17-1.6.71-.26,1.13,1.12,1.56,1.57,1,.64-.29,2.27.63,2.93-.66.46-1.32.9-1.5,1.6-.21.27-.47,1.11-.86.73C295,44.66,293.42,44.43,293,43.15ZM382.89,85.5c.19.55.71,1.27.08,1.52C382.3,86.75,382.31,85.51,382.89,85.5Zm-50.24-5.3c.38.27.36-.75,1-.82.71.36-.37,1.38-.69,1.31C332.73,80.81,332,80.25,332.65,80.2Zm15-18.73a2.54,2.54,0,0,0-.52-2c.48-.38.48-.38.57.21,1.11-.62,1.35-2,1.92-2.46.93-.55,1.88-.71,2.25-.11.51,1-.17,2.29.42,3.61-.4,1-1.22,3.44-2.93,2.75A1.59,1.59,0,0,1,347.6,61.47Zm38.27,7.24c-.5-1,.14-2,.92-1.46C387.12,68,386.39,68.52,385.87,68.71Zm-57.52,9.11c-.36-.78.39-1.26,1.16-1.34.54.51,0,1.54.21,2.27a14.25,14.25,0,0,1-1.32-.72,1.75,1.75,0,0,1-1,1C326.76,79.46,327.58,77,328.35,77.82Zm-7.17-.07c.13.76.62.78,1.13.8a6,6,0,0,0-1.08.62C319.91,79.48,320.75,78.32,321.18,77.75ZM384,96.56c0-.23-.37-1.2.31-1C384.87,95.41,384.43,96.61,384,96.56Zm23.24-15.71a.79.79,0,0,1-.2-1.24C408.21,78.76,408.47,81.22,407.27,80.85Zm-38.22-5.21c.28-.92.6-2.17,1.74-2.4a3.24,3.24,0,0,1-1.07,4.92C368.84,78.49,369.26,76.39,369.05,75.64Zm-86-9.7c.23-.9,1-.76,1.49-1,.11-.25.27-.71.5-1.3,1.08-.62,2.17-.32,3.06-.63,1.08.61,1.23,2.3.52,3.58-.32.95-1.48,1.36-2.22,1.87a9.08,9.08,0,0,1-2-2C284,66.39,283,66.6,283.09,65.94Zm52.62,18.45c.14-1.18-.59-.7-1.23-.47.34-.52.4-1,0-1.23.62-.23.8.32,1.36.51C335.64,83.5,336.15,84.22,335.71,84.39ZM370.06,88c.18.53-.54,1.12-.89.94C367.91,88.37,369.64,87.51,370.06,88ZM330.8,80.71c1.17-.46,2,1.59,0,.82C330,81.6,330.68,79.91,330.8,80.71Zm5.51,1.71c-.28.09-.54.2-.9.34.22-.3,0-.64,0-1-.85.53-.23-.73-.14-1.06.17-.07,1,.88.49,1.14l.06,0A2.25,2.25,0,0,0,336.31,82.42Zm34.44,572.67c-.27.24-1.62-.12-2-.15l0-.23,1.94.13a6.22,6.22,0,0,1-.45-1.24C371.35,653.68,371.26,654.62,370.76,655.09ZM394,656.94c-.86,1.52-3.35,4.62-5.59,2.89-1.12-.34-1-1.52-.52-2.82-.51-.75.48-1.43.54-2.15.51.79,2.29.18,2.84.45,1.39-1.23,2.66-.05,3.26.7a6.78,6.78,0,0,1,1.28-.12C395.78,656.84,395.18,657,394,656.94Zm4.79-28.9c.52-.7,0-1.59-.24-2.1,1.59.13,2.81-.52,3.91,0,1.08.8.08,2.56-.7,3.46-1.11.64-2.28,1.9-2.91,1.37C398.29,629.93,397.94,628.92,398.82,628Zm52.35,6.9a30,30,0,0,1-1.16,3.43c-1.11,1.87-2.5-1.51-.91-2.12.16-1.68-.94-3.33,0-4.73.54-.69.44-2,1.55-2.67a2.57,2.57,0,0,1,2.12.64C453.41,631.12,452.46,633.47,451.17,634.95Zm-72.08,15c0,1-.14,1.43-1,1.13C378.18,649.92,378.56,649.6,379.09,650Zm6.19-8.65c.43.27-.59,1.16-1.15,1.12-.63-.76-1.33-1.78.17-3C385.14,639.29,384.74,640.83,385.28,641.35Zm60.33,12.18c-.57-.27-.84-1,.33-1.19C446.77,652.19,446.43,654.32,445.61,653.53Zm-77.49-7.59a8.21,8.21,0,0,1-1.77.39c-.5-.77.55-2,.28-2.76.86-.68.61-2.5-.26-2.1-.09-.23.12-1.2,0-1.68-1.4.15-.5,3.72-2.2,2.39-.47,1.15.44,1.23,1,1.75.16.75-.23,2.29-1.37,2.2-.75-.53-.4-1.61-.22-2.31a.85.85,0,0,1-1-.08c.29.52.41,1.62-.52,1.53.59.06,1,.33.3.51a3.45,3.45,0,0,0,0,2.19c-.66.82,0,1.31-.57,2.26,0,.7-.8,1.16-1.41,2.42-.45,0-.42-.25-.76-.28.18.5-.87-.42-1.27.14-.08.73,1.45.35.9,1.29-.86-.56-1.16.17-1.81.83-.83.19-.18-.73.2-.94-1.24-.11.37-1.21.49-1.43-.74-.65-1.46-2.64-.67-3.54a9.62,9.62,0,0,1-1-.92,3.55,3.55,0,0,1,1.18-1.38c.06-.7-.24-2.07.34-2.27.09.24,1-.42,1.08-.18a.79.79,0,0,1,.47-.2c-.15.23.29.51.27.75.19-.7,0-1.23.81-1.15l-.09-.25c-.95.4-1-1-1-1.89.27.87.9.09,1-.42a1.11,1.11,0,0,0,1,.54c1.07-1.35.18.62-.18,1.83h.34c.61-.44,1.2-.63,1.64-.37-.27-.77.87-.66.95-1.5,1.4-.14,0-2.19,1.37-2.08.57,0,1-.15,1-.66s-1.07-.71-1.26-1.19a4.9,4.9,0,0,1,1.72-.11c-.18.69,0,1.31.89,1.38-.66.91-.2,1,.75.78a1.46,1.46,0,0,1-1.42,1.36c-.19.71,1.84.12,1.52,1.06s.07,1.58.09,2.56c.73-.44.81-.18.5.74-.41-.51-.44-.25-.76.58l.58,0c-.73,1.39,1,1.52.17,2.67-.5-.75-.64-1.5-1.59-1.32C368,646.93,368.8,646,368.12,645.94Zm52.63-24.12c.75.54.26,2-.82,1.39C419.15,622.91,420.12,621.3,420.75,621.82ZM372,640.9c.19-.71-.17-1.69.75-1.88C373.39,639.31,372.93,640.5,372,640.9Zm42.16,10c-.5.22-.82-.06-1.14-.31s0-1,.23-1.21C413.54,649.62,414.2,649.9,414.12,650.85Zm23.22,15.9-.09-.24c-1.24-.34-2.36-1.62-3.92-1-1.07-.8-.68-3.55,1.13-3.42.69,0,.59,1.23.84,2C436.28,664.75,437.33,665.79,437.34,666.75ZM393.6,632.88c.34.24.42-.7.74-.43-.07.7-.06,1.78-.58,1.26-.44-.28-1.15-.09-1-1.15C393.26,631.64,393.88,632.4,393.6,632.88Zm6.6,24.51c.24,1-.87-.55-.79-.06.21.26.06,1.6-.21,1a3.34,3.34,0,0,1-.77-2.72,3.26,3.26,0,0,1,.9,1.27C399.68,656.86,400.76,656.46,400.2,657.38Zm1.92-8.57c-.55-.27-.89-.3-1.15-.07-.52-.52-.38-.74,0-1.34A1.92,1.92,0,0,1,402.12,648.81Zm-4-1.36c0-.26-.33,0-.33-.28-.56,0-.73-.54-.37-.73C397.86,646.47,398.62,646.75,398.11,647.45Zm40.15-16.66c-.38.2-.81,0-1-.09C436.8,629.12,438.94,629.63,438.25,630.79Zm-83.88,25.69c.53-.67.52-1.74.78-2C356.65,653.39,355.49,657.05,354.38,656.48Zm44.39-13.21c.74.53,1.18,1.89-.08,1.8C398.28,644.56,398.92,644,398.77,643.27Zm14.61-13.49c-.53-.53-2.6-.41-1.68-1.56,1-.43,1.67.58,2.11.87C414.58,629.11,413.78,630.28,413.37,629.77Zm-47.11,18.48a4,4,0,0,1-1.23,2C365,649,365.46,648.19,366.26,648.26ZM433,638.88a.59.59,0,0,0-.67,0c-1.27-1.06-3.16-.46-3.37-1.94.1-.94,1.1-.64,1.8-.83C430.89,637.5,433.18,637.68,433,638.88Zm-82.29,13.83c1,.8-.43.71-.66.69-.5.46-.55.94-1.12.88.28-.46.19-1.9,1.19-1.58.1-.75.46-2.06,1.06-1.25a4,4,0,0,1,.66-1C352.28,651,351.36,652.29,350.74,652.71Zm31-13.91c-.15.25-.31,1.81-.76,1.75C380.45,640,380.83,638.52,381.74,638.8Zm59.85-3.55c-.52.46-.75,1.76-1.5,1.09-.91,0-.27-.74.31-1.9C441,634.25,441.5,635,441.59,635.25Zm-48.12-7.6c.31.28.55,1.24,1.12,1.31.61-.21,1,0,.58,1.11C394.29,629.65,392.76,628.81,393.46,627.65Zm-3.08,5.23c.06-.47-.34-2.2.78-2.1a2.32,2.32,0,0,0,.77,1.49C392.9,633,389.93,633.95,390.39,632.87Zm36.24,15.83c.53.52-1.06,1.5-1.47,1C425.42,649.36,425.84,648.66,426.63,648.71ZM458,627.07c0,.62-.74,1.54-1.42,1.47a.73.73,0,0,1-.18-.5C456,625.74,457.62,625.86,458,627.07ZM390.48,641c1.77-.37,1.64,3.13,0,2.16C390.34,642.44,389.51,641.4,390.48,641Zm72.13,3.7c-.66,1.76-1.84,3.35-3.18,3-.68-.28-.73-.77-1.27-1.27-.26-1.85,1.26-3.19,2.27-4.1C462.52,642,462.33,644,462.61,644.7Zm-37.47-9.63c-.67,0-.9-.06-1.47-.11-.49-.76.39-1.65,1-1.6C425.29,633.61,425,634.56,425.14,635.07Zm-42.79,8.85c.29.76-.83,1.4-1.74,1.33-.3-.26-.27-.73,0-1.44l1.5.1c-.22-.27-.36-1.12.35-1.31C383.34,642.19,383.15,644,382.35,643.92Zm15.91-8.18a6.44,6.44,0,0,0-.38,1.53c-.35,0-.64-.42-.83-.9C397,636.12,397.87,636.2,398.26,635.74Zm-16.66,6.56c.55-.92-.08-1.44.19-1.9.71-.2.84.77,1.05,1C382.55,641.89,382.33,641.86,381.61,642.3Zm80-18.48a1.53,1.53,0,0,1,.68-2.12C463.75,622,462.8,624.75,461.63,623.82Zm-64,38.46c-1-.07-.48-1.86-.93-2.12-.77-.29-1.48-1.33-2.34-1.85.12-1.31,1.7-.75,1.82.14.28.73.92,0,1.43.8C397.49,660.22,397.86,661.22,397.62,662.28Zm-9.13-9.7a1.44,1.44,0,0,1,.72,1.87c-.29-.41-.56,0-.61-.66C387.89,654,388.31,653.29,388.49,652.59Zm15.64-19c-.36,0-.93-.06-1.15-.08a5.69,5.69,0,0,1-.23-2.19A1.87,1.87,0,0,1,404.13,633.6Zm64.23-4.72c-.45.95-.91,2.14-1.69,1.84C465.94,629.94,467.12,628.55,468.37,628.88Zm-117,16.87c.33,0,.5-.46.85-.44.6-.4,1-1.22,1.38-1.22.16.62.69,1.14.55,1.39-.69-.06-.65.66-.78.89-.27-.73-1-.53-1.83.1s-.34,2,.3,2.58c-1.37.88-1.66,2.68-3.34,3.28-.71.18-.6,1.4-1.2.42-.08-.26-.71,1.39-.91.14-.08-.46-.55.94-1.37.9,1.11-1.86-1.13-3.36-.39-5.24s2.94-2.8,4.5-3.44c.06.5.4.51.57,0,.51-.42-.82,1.17.15.74C350,645.89,350.88,645.72,351.33,645.75Zm27.76-4.82c-.67.92-.56,2.27-1.14,3.41-.33.95-1.32,1.6-1.77,2.67.07,1.46-1.09,2.72-2,4.08a18.53,18.53,0,0,0-3.28.5c.19.47-.67,2.4-1.15,1.54a5.79,5.79,0,0,1-.76.38l-.36,0,0,.05c-.12-.15-.31-.29-.49-.08-.72,1.43-.85-1.65.28-1.55-.23,0,.08-.71.36-1.18a1.56,1.56,0,0,1,1,.32c.75-.68-.25-1-.94-1,.18-.72.33-1.06,1.16-1.25,0-1,1-1.62,1.74-2.32.27-.42.09-1,.36-1.52.33.28.58,0,1.05.07a13.57,13.57,0,0,1,0-2.18c.58-.2,1.11.1,1.48.12,1.12-1,2.14.13,3.29.22.48-1.3-1.37-1.19-.69-2.11.91-1.14.2-3.25,1.78-2.9C378.61,638.83,377.89,640.34,379.09,640.93Zm.68,16c.07.36.46,2.08-.37,1.31C379.34,657.75,379.15,656.17,379.77,656.92Zm-17.51-9c0-1,.49-1.41,1.38-1.1-.17.46-.35,1.15-.69,1.14C362.71,648.23,362.61,648,362.27,648Zm29.43-4.12c.15.73.34,2.21-.5,1.42C390.41,645,391,644,391.7,643.86Zm6.57-8.11c-.54-.28-.07-1.46.73-1.41.6-.21,1.3.8,1.09,1.76a2.88,2.88,0,0,1-1.67.37C398.81,636,398.34,636,398.26,635.74Zm87.38,34.6c.43.06,1.14.1,1.5.14a1.94,1.94,0,0,1-1.87,1.41C485.55,671.32,485.84,670.87,485.64,670.34ZM365.05,636.43c.5-.44.85-.43.9.09-.07.71-.64.67-1.51,1.33C365,637.39,364.68,636.64,365.05,636.43Zm35.62,17.48c-.18-.5-1.29-.81-.87-1.5C400.86,652.24,401.12,654.2,400.67,653.91Zm38.83-2.71c.56,0,.67,1.26,0,1.2-.35-1.24-1.73-2.18-.66-3.81.34,0,1.1-.63,1.29-.14C441.11,649,440.3,650.39,439.5,651.2Zm-75.89-15.34c-.41.67-.46,1.18-1,2.47-.17-.63-.22-1.34-.85-.9.15.82-1.34.74-.79-.06,0-1.46,1-1.63,1.71-2.07C362.14,636.7,363,634.85,363.61,635.85ZM445,625.94c-.45-.27-1.1.52-2.09.09a1.69,1.69,0,0,1,.34-1.2C444.1,624.17,445.11,625.45,445,625.94Zm-80.08,22.45c-.89-.53-.43-1.49.54-2.12C366.09,646.55,365.19,648.65,364.89,648.39ZM383.82,651c-.88-.32-.31-1.59.36-1.31C385.21,649.8,384.57,651.57,383.82,651Zm26-23.46c.6,2.21-.61,1.63-1.4,1.36C407.13,627.89,408.94,626.92,409.79,627.58Zm15.34-8.25c-.49-.76.76-1.74,1.17-1.12C426.11,618.68,425.8,619.63,425.14,619.34Zm-24.37,26.85a1.23,1.23,0,0,1,.44-2c.25-.24,1.33.45.73.65C401.43,645.28,401.48,646,400.77,646.19Zm-51.9-1.1c-.5-.75.49-1.28.64-1.74C349.73,643.34,349.8,644.92,348.86,645.08Zm30.41-1.37c-.09-.24.57-1.05.63-.42S379.43,644.45,379.27,643.71Zm14.41-8.08c.32.28,1.11.33,2.11-.33-.13,1.19,0,2.53-1.41,2.45A2.69,2.69,0,0,1,393.68,635.63Zm-11.83,1c-.46-.23-1.34-.56-.91-1.37a6.5,6.5,0,0,0,2.05-.82c.74.54.67,1.26.47,2.09C382.88,636.71,382.15,636.89,381.85,636.61Zm41.61-6.39c-.08.73.16,1.84-.65,1.79C422.2,631.35,422.79,629.94,423.46,630.22Zm-46.05,17.1a1.14,1.14,0,0,1-.09-1.32C378.27,645.82,378.37,647.86,377.4,647.32Zm-10,1.86c-.15-.88.31-2,.82-1.3C368.21,648.37,368.44,649.46,367.45,649.18Zm15.69-11.72c-.74.43-.43.93-1.14.9-.56-.32-1.36-.1-.63-.55C381.47,636.86,382.34,637.4,383.14,637.46Zm51.57-24.94c-.11-1.33,1.13-2.21,1.71-1.2C436.43,612.4,435.39,612.58,434.71,612.51Zm-30.94,32.42c-.34,0-.68,0-1.14-.08-.06-.61.14-1.32,0-1.57C403.26,643.33,403.59,644.32,403.77,644.94ZM429,654.67a1.82,1.82,0,0,0-1-.31C426.78,652.94,429.65,652.9,429,654.67Zm-9.56-11.19c.15-.22.16-1.55.77-.91C420.94,642.63,419.87,643.77,419.46,643.49Zm33.18-5.91a1,1,0,0,1,.36-1.53C454.66,635.68,453.78,638.64,452.64,637.58Zm-98.41,17.08c-.35,0-.79-.31-1.34-.34-.18-.73.5-1.66.94-1.37C354.83,653.26,354.14,654.41,354.22,654.66Zm17.89-9.76c-1.1-.32-1.83-1.09-1.48-2.28C371.67,642.7,372.13,643.94,372.11,644.91Zm30.08-8.18a28.18,28.18,0,0,0-.09,3.27c-.23,0-.92-.06-.92-.06-1-.33-.48-2,.85-1.41-.31-1.6-1.71-.36-2.46-.87.19-.61.35-1.1.88-.79C399.87,635.6,402.28,635.75,402.19,636.72Zm-49.31,17.6c.27.53.45,1.13-.26,1.32C351.31,656,352.39,654.51,352.88,654.32Zm48.26,7.35c-.86-.54-.94-.8-.41-1.48C401.35,659.77,401.57,662,401.14,661.68Zm-8.45-16.54c-.08-.25.45-1,.45-1,.69,0,.61.78,1.31,1.81-.55-.27-1.11-.33-1.08-.58-1,.68,0,2.08-.92,2C392.19,646.79,391.45,645.05,392.7,645.14Zm-45.43,10.13a1.94,1.94,0,0,0-1.76.33c-.79-.27.44-2.22,1.51-1.44C346.48,655,347.3,654.65,347.26,655.27Zm46.26,5.65c-.08-.51-1.13-.34-.25-1C393.76,658.51,394.28,661.21,393.52,660.92Zm2.64-6.59a5.36,5.36,0,0,1-.24-2.21c.87-.67,1.09,1.52.93,2.23C396.83,654.14,396.4,654.1,396.16,654.34Zm-27.52-.81c.13.16.17.32,0,0Zm56.68-5.39c-1.36-.1.54-1.91,1-.42C426.48,648,425.58,648.88,425.31,648.14Zm-61.26-8.76a2,2,0,0,1,0,1.21c-.8-.06-.27-.74-.45-1.24l-1-.08c.18-.45.19-1.79.79-.9C364,638.42,365.36,639,364.05,639.38Zm44-13c-.07.69-1.13,1-1.44.62C405.5,625.71,407.81,625.64,408.08,626.39ZM368.52,640.9c.5-.44.55-.92,1.18-1.6C370.22,639.82,369.28,641.2,368.52,640.9Zm5.94.41a4.5,4.5,0,0,1,.71-1.38c.8.06.28.73,0,1.44C375.14,641.37,374.93,641.11,374.46,641.31Zm-7.43-4a2.66,2.66,0,0,0,1-1.13C369.3,636.48,367.6,637.34,367,637.3Zm-321.31-451c.33-2,2.26-2.22,4.39-1.76,1.12-1.09,2.33.44,3.49.33-1.14,1.1.12,4-.23,5.08,2.19,2.08.51,4.63-.6,5.91a15.43,15.43,0,0,1,.45,2.19c-1.54.1-2-.86-2-2.87C48.67,194.11,43.32,190.67,45.72,186.28ZM199.64,61.88c.35-2.88-1.25-4.35-1.71-6.15,1.09-1.69,2.6-3.21,5-2-.31,2.06,1.11,4.39,1.55,6.37.8,1.55-.7,2.45-1.61,3.54C201.26,63.77,199.68,62.48,199.64,61.88ZM57.85,165.57c1.94-.15,2.53.43,2,1.48C58.3,167.37,57.52,167.22,57.85,165.57ZM77.37,173c.46,1.4-2.06,1.17-2.79,2.24-.38.83-2-.67-2-1.68C73.73,172.25,75.22,170.72,77.37,173ZM203.57,43.81c.76-1.06,1.55-.12,1.93-.54.4,1,0,1.2,0,1.6C204.76,45.31,203.2,45.07,203.57,43.81ZM88.1,187.73c.35-.84-.06-2,1.66-2.13,1.55.67.44,2-.32,1.61-.38.68,1.15.53.76,1.16C89.07,188.46,87.33,188.81,88.1,187.73ZM52.27,204.35c0,.6.83,2.35-.76,1.67-1.5.71.76-1.67,0-1.39-.38.43-2.52.59-1.55-.11a5.54,5.54,0,0,1,4.18-2.13A6.35,6.35,0,0,1,52.27,204.35Zm13.2,2.46c.33-1,.33-1.64-.06-2,.73-1.05,1.11-.88,2.11-.33A3.58,3.58,0,0,1,65.47,206.81ZM67,199.4c.38,0,0-.59.37-.62,0-1,.72-1.48,1.11-.88C68.5,198.69,68.16,200.13,67,199.4Zm6.76-.07c-.72,1.45-2.85,2.62-2.9.38C71.6,198.86,72.61,199.8,73.75,199.33ZM160.14,26.65c-1.16-1.08-1.21-3.11-1.29-4.71,1.94-.15,4.52,2.28,2.83,4.41C161.35,27.4,160.18,27.06,160.14,26.65Zm-15.3,76.08c1.16-.69,2.37.82,2,2.25C145.36,106.72,144.49,103.74,144.84,102.73Zm65.89-57.85c1.11-1.48,2.35.23,2,1.87C211.59,46.83,210.06,46.77,210.74,44.88ZM75.11,167.51c.73-1.08,3.25-.86,2.93.79C77.65,168.14,75.14,168.32,75.11,167.51Zm15.67,13.57c.31-2.86,3-1.43,2.24-3,0-.2,0-.78.76-.45-.37,1.44,1.72.28,2.87-.24C95.59,180.12,93.09,180.7,90.78,181.08Zm47.37-51.21c1.53.3,0,1.63-.91,1.69-1.2-1.12,1.28-2.32-1.26-2.72l.38-.05c.36-.84.77-.45,2.16-.14C138.52,129.24,136.78,129.76,138.15,129.87Zm-42.34,57.9c.41,1,.08,1.81-1.7,1.34.53-1.67,1.64-4.56,3.57-3.7C97.31,186.05,95.78,186.75,95.81,187.77Zm61.31-75.68c0,1.23-1.89.95-2.67.83a3.24,3.24,0,0,1,.33-2.07C155.92,110.77,157.11,111.69,157.12,112.09ZM88.87,181.62c.76,0,3.42-1.26,3.51.73a4.06,4.06,0,0,0-2.27,1.81C89,186.06,87.1,181.15,88.87,181.62Zm34.72-41c0-.59-.81-1.15-.87-2.35,1.15-.9,2.71,0,3.15,1.18,0,.4,1.71-.94,1.74.26.44,2-1.74.14-2.51.6C125.06,138.53,124.34,140.21,123.59,140.65Zm102.5-61.19c.54-1.44,2.81-2.21,2.89-.21C229.84,81.63,226.15,81.49,226.09,79.47ZM158,103.15c2.18,2,2.06-2.36,4.41-1.15.4.39,2,2.7,1.59.7-.48-2.56,2.85-.62,2.5.84-.77.26-1.72-.08-2.11.15,1.37.7,1.06,2.76-.3,2.85-1.15-.11-2.35-1.63-2-2.27C161.32,104.74,158.08,105.78,158,103.15ZM72.52,184.88c1.17-.49,2.66-2.24,3.47-.68C76.84,187.17,71.28,188,72.52,184.88Zm46.94-46.54c1.14-.5,3.26-1.06,2.92.38C121.06,140.45,119.89,139.12,119.46,138.34Zm74.75-45c-.41-1.77-1.4-2.5-.86-3.75a3.4,3.4,0,0,1,5.1,2.21C197.3,93,196.21,94.44,194.21,93.37ZM67.6,168.28c.35-.63,1.12-.69,2.31-.37,0,.83,0,1.42.09,2.63.34-.45,1.71-1,2.12.22.79,1.36-2.09,1.6-2.11.15C68.86,171.61,67.64,169.89,67.6,168.28Zm18,27.91a9,9,0,0,0-2.52-.2,2.22,2.22,0,0,1,1.29-1.72C84.78,194,84.83,195.68,85.64,196.2Zm82.22-98.81a4.18,4.18,0,0,1,5.2-2c1.21,1.52,3.1,1.53,2,2.68,1.79,2.47-.66,4.67-3,4.44-.79-.34-.75.45-1.18.69C169.51,100.89,165.66,100.57,167.86,97.39Zm1.71-8c1.29-2.3,4-2.68,5.57-1,1.41,2.3,1.52,4.53-1,5.14C171.86,95.25,168.48,91.24,169.56,89.34ZM72.44,169.13c1.57.69,2.31-.57,3.09-.23.44,1.17-1.1,1.69-1.48,2.14C73.27,170.68,73.26,170.25,72.44,169.13Zm44.18-9.59c-1,.9.48,2.81-.86,3.93-1.52.09-.81-1.56-.45-2.21-1.53-.46-3.87.09-3.89-1.33.33-2,1.83-2.95,4.57-1.75.94-1.06.92-2.28,2.06-1.76C120,157.89,117.33,158.3,116.61,159.54ZM48.13,202c-1.56.11-3.06,1-4.81,1,0-1.82,2.86-1.42,3.24-2.27.32-1.45,1.81-3,2.54-4.63,2.14-.17,1.44,2.74.12,3.22C48.07,200,49.26,200.95,48.13,202Zm6.27-16c.54-.62,0-1,.94-1.27-.41-1.16.76-.65,1.91-.53A2.48,2.48,0,0,1,54.4,186Zm50.38-33.84c4.33,2.72,3.1,0,3.1-.84,1.18.74,3.7,1.33,3,4.42-1.38-.88-3.33-.77-3.39-2.17C106.76,153.22,105.23,153.55,104.78,152.17Zm43.75-49.3c.37.57.78.53.78.53.75-1.86,3.09-.42,3.93,1.13,0,.58-1.17,1.09-1.92,2-.78-.14,0-1.6-2-1.27C148,105.11,148,104.32,148.53,102.87ZM101.19,167c.68-2.3,4-1.33,2.72.78C103.56,168.82,100.83,168.2,101.19,167Zm-4.65,6.8c0-.6.3-2.45,1.89-1.75C98.07,173.08,97.71,174.1,96.55,173.78ZM46.79,170c.75-.26,3.25-1.07,2.13.25C48.33,170.54,45.68,171.73,46.79,170Zm24.84,17.11c-1.15.51-3.43,1.25-2.33-.44C69.64,185.27,71.22,186,71.63,187.15ZM88,197c.42,1-1,2.49-2.62,2.43a5.4,5.4,0,0,1-.84-2.79c.76.58.75-.23,1.14-.47C86,195.17,87.94,195.62,88,197Zm43.42-61c3.25-.24.09,3-.74,1.67-.4-.57-.79-.74-1.18-.53,0,1.23,2.36,1.06,1.26,2.94-2,.15-2-1.67-3.18-2.18,0,.6-.38.42-1.7.94,0-.8,0-1.4,0-1.4,1.75.67-.8-1.36.34-1.44,1.75.47,2.1-1,2.87-1.22-.34,1.25,1.23,2.33,1.18.3C130.15,134.11,131.76,136,131.38,136Zm24.74-31.12c-1.13.68-1.18-.72-1.21-1.95C156,102.29,158.46,104.36,156.12,104.91Zm-96.76,98.9c.46,1.79-2.59,2.83-2.24,2C57.9,205.33,58.2,203.32,59.36,203.82ZM218.11.31c.57-.22,2.1-.37,2.14.06A1.08,1.08,0,0,1,218.11.31ZM61.05,175.83c.06,1.82-2.87,1.22-2.14-.25C59.25,174,61.43,174.6,61.05,175.83Zm8.77-10.34c.38-.25,1.78.65.81,1C69.87,166.9,68.68,166,69.82,165.49Zm12,24.53c.73-.86,2.06-1.95,3.21-1.85-.35.65-.31,2,.9,3.56C83.94,191.88,81.84,192.45,81.79,190Zm-18-26.71c.77-.63,1.5-.91,2.12-.57C66.31,164.35,63.06,165.17,63.78,163.32Zm89.34-49.7c-1.58-.09-1.93.93-2.26,2a16.41,16.41,0,0,0-.46-2.57C150.67,110.16,152.31,112.47,153.12,113.62Zm-106,94.17c.8.92-2.64,2-2.29,1.15C45.56,207.28,46,207.05,47.15,207.79Zm85.78-77.71c1.19.72,2.72,1.58,3.92,1.52a2.11,2.11,0,0,1,.42,1.36,5.72,5.72,0,0,0-3.51-.71C134.51,131.15,132.59,131.5,132.93,130.07ZM66.1,189.58c1-.68,3.61-2.48,3.68-.28.4-.22,1.57.5,1.57.5,0,1.22-1.13,1.28-2.64,2.82.35-1,.32-2,.7-2.07C68.22,189,66.16,191.19,66.1,189.58ZM193.2,45.8a19.49,19.49,0,0,1,5.1-3.22c.4-.82.7-3.09,1.87-2.53,1.56.88.85,2.34.87,3.56.4.36,1.21.89,2.19,1.65.47,2.57-.8,4.68-.77,6.72-1.86,1.93-5.16,1.41-7.16-.68C193.72,50.2,193.66,47.58,193.2,45.8ZM99.82,160.21c0-.21,0-1.41,0-1.41.38-.22.36-.82.73-1.46,0,.39,0,1,.06,2,1.9-1.15.78.15.41.77a2.74,2.74,0,0,1,.81,1.56C101,160.94,100.63,161.34,99.82,160.21Zm42.78-49.05c0-.6,1-.44,1.32-.69,0,1,.08,1.61.12,2.21C142.66,113.18,143.58,111.49,142.6,111.16ZM83.5,176.78c0-.2.76-.68.76-.68a2.17,2.17,0,0,0,1.17.52C84.69,178.3,82.6,178.47,83.5,176.78Zm14.17,8.63c0-1,1.89-2.4,2.83-2.84-1.37-.5,1.13-.47,1.11-1.1,1.52-.88,1.61,1.48.44,1.39-.75,1.26-1.49,1.72-1.85,2.54C99.62,185.86,98.44,185.54,97.67,185.41ZM124,142.84a5.25,5.25,0,0,0-.42-2.19C125.88,140.08,126,143.69,124,142.84ZM44.85,195.42c.74-.25.3-2,1.51-.71C48.71,195.12,44.51,196.85,44.85,195.42Zm10.92,3.82c.4,0,.37-.83,0-1.2A8.84,8.84,0,0,1,59.16,197C60.38,198.28,56.95,199.36,55.77,199.24Zm55.33-49.77c-.07-1.8,1.46-1.93,2.28-1-.37.83.06,2,.08,3A2,2,0,0,1,111.1,149.48Zm2.1-6.61c1.14-.71,1.5-1.55,3.22-2.46a2,2,0,0,0,0,2,12.82,12.82,0,0,0-1.3,1.1c2.12,0,.44,1.75,1,2.36-1,.24-1.36-.71-1.74-.49a1.16,1.16,0,0,0,.72-1.05c-.78-.36-2.33-.87-1.18-.75C114,143,114,142.4,113.2,142.87Zm39.74-79.7c1.53-.72,1.85-2.77,2.17-4.21,1.63,1.49,1.68,4.5-.58,5.09C154.48,62.63,153.35,64,152.94,63.17Zm-32.5,69.46c.34-1.45,2-4,3.63-1.88.35.16,1.54.49,1.55,1.07,0-.77,0-1.61,0-2.18l-.82-1.16c1.51-.74,3.28-.06,3.35,2.78a2.23,2.23,0,0,1,2.28-1.2c1.18.94-1.1,1.5-1.08,1.9-1.15.91-1.91,1.37-3.3.85.42.36-.32.66-1.12.5,0,0-1.11,1.88-1.15.5-.4-1.6.07,1.6.48,2.16,0,1-1.16.72-1.92,1,.34-1.43,1.46-3.35.24-4.88,0,.62-1.17.49-1.74.15C120.81,132.19,120.43,132.42,120.44,132.62Zm26.31-17.91c-.44-1.62-2-2.71-2.83-4.24l.77-.26c-.42-1.19-.05-2,0-3,.35-.23.34-.43.33-1.23a5.23,5.23,0,0,0,2.71,1.21c.06.62.47,1.57.48,2-1.14.69-.41-.78-.79-1.36-1.18-.29-.35,1.64-1.17,1.52.86,1.54.9,3.37,1.73,4.9,1,.15,2.12.25,1.79,1.48-1.39-1.12-1.77-.87-2.48,1C146.81,117.16,147.17,115.26,146.75,114.71ZM620,440.88c.71,1.56-.89,2.47-3,3-.43,1.23-2.26.65-3.22,1.2.45-1.21-2.09-2.75-2.28-3.63-2.93-.56-2.72-3-2.38-4.36a14,14,0,0,1-1.48-1.34c1.29-.7,2.13-.2,3.15,1.19C613.54,436.62,619.91,436.84,620,440.88ZM547.42,597.23c-.73-1.55-3.11-2.6-4.49-3.79-1.45-.76-.58-2-.33-3.12,1.32-.74,3.35-.47,3.65-.07,1.13,2.14,3.25,2.52,4.54,3.61C550.66,595.46,550.08,597.15,547.42,597.23Zm72.09-137c-1.63.88-2.42.73-2.47-.23C618.23,459.19,619,459,619.51,460.26Zm-16.85.43c-.34,1.36-.9,3-3.9,2.33-1.09-.78,1.23-1.65,1.35-2.7C600,459.59,602.16,460,602.67,460.7Zm-51,143.75c-.16,1-1.31.71-1.44,1.16-.82-.52-.61-.82-.81-1.11C549.92,603.88,551.4,603.43,551.71,604.45Zm54.19-174c.12-.45,1.92-1.44,1.4-.57a4.6,4.6,0,0,1-2.61,3.2,4.44,4.44,0,0,1,.66-2.13c-.3-.43-1.87-1.31-.16-1.48C606.16,428.38,605.35,430.95,605.9,430.44Zm-4.3,171.06c-1.62.89-5.09.25-4.66-1.93-.21-.86,1-1.1,1.2-.82C599.7,599,600.74,600.42,601.6,601.51Zm-27.41-62c-.68,1-2.48.4-2.85-.76C571.78,536.91,574,538.62,574.19,539.47ZM544.9,606.61c-.26,1.49-2.17.8-2.66-.5C543.2,605.6,544.56,605,544.9,606.61Zm58.55-140.68c-.11,1.05-2.42,1.93-2.95.65C600.92,466.53,603,465.37,603.44,465.93Zm-44.59,72c-.64-.85,1.19-1.43,1.94-1.67a2.38,2.38,0,0,1,.72,1.58A3.11,3.11,0,0,1,558.85,537.94Zm-44.36,50.8c.22,1.24-1.4,2.7-2.44,1.32C510.12,588.76,513.42,587.37,514.49,588.75Zm48-44.21c-2.9-.53-.65,2.49-3.3,2.6-.53-.11-3.08-1.06-1.73.16,1.68,1.59-2.2,1.6-2.61.44.55-.48,1.56-.64,1.78-1-1.56.06-2.3-1.5-1.14-2.12,1.06-.39,2.87.17,2.87.78C558.77,544.78,561.11,542.72,562.46,544.53Zm-24.29,23.83a4.12,4.12,0,0,1-.7.64v0c-.4.89-1,1.71-2.2,1.34a2.09,2.09,0,0,0-.11-.59,4.28,4.28,0,0,1-2.58-.9,4,4,0,0,1,1.46-2.41c.14-.23.33-.46.47-.7a1.53,1.53,0,0,1,1.62.55c0,.08,0,.15,0,.22C537.18,567.21,538,567.45,538.17,568.36Zm71.48-106c0,.58-.66.93-1.84,1.21-.43-.58-.74-1-1.37-1.81a1.34,1.34,0,0,1-2,.71c-1.36-.62,1.05-2,1.79-1C606.9,460.53,608.81,461.23,609.65,462.34Zm-58.52,87.41c2.37,1.05,5.9-.3,5.54,2.81.17,1.48-1.42,3.32-3.57,3.51-1.8-.56-3.47.19-3.07-1-2.8-1-1.72-3.53.42-4.31C551.29,550.63,550.88,550.09,551.13,549.75Zm8,9.11a3,3,0,0,1-1.75,2.68c.19.16.49-.22.69,0-.64.46-.63,1.45-.68,2.14a1.58,1.58,0,0,1-.66-1.93,4,4,0,0,1-2,0c-2.39-1-3.56-2.54-1.66-4C554.2,555.68,559.14,557.1,559.13,558.86ZM605,463.72c-1.69.16-1.73,1.33-2.59,1.41-.95-.63.14-1.62.25-2.08C603.5,463,603.72,463.26,605,463.72Zm7.15-32.57c.43,1.13-.13,2.79,0,4.25-1.78,1-2.6-1.31-1.69-2.19.66-1-.8-1.11-.37-2.33,1.32-.71,2.19-2,3.74-2.63C614.77,429.48,612,430.4,612.13,431.15ZM610.89,447c-.34-.39,0-1.91,1.6-2.43-.17.66.48.68-.2,1.27C613.24,446.53,611.95,446.64,610.89,447Zm-40,93.86a1.12,1.12,0,0,0-.94,0c.26,1.59-2.5,1.55-4,.8-.29-.39.5-1.23.73-2.13.74-.23.78,1.09,2.33.08C570.23,539.11,570.64,539.65,570.89,540.88ZM627,452.65c-.54.48-2.33,2.06-2,.69C625.41,452.94,627.13,451,627,452.65ZM565.25,543.4c-.65.93-3.78.47-2-.86C563.9,541.61,564.63,542.56,565.25,543.4Zm-4.93,97.29c-.39.4-1.65,1.11-1.9.83C558,640.39,559.78,640,560.32,640.69Zm51.35-186.28c-.95-1.24,1.9-2,2-.7C614.17,455,611.94,455.41,611.67,454.41Zm-2.61,10.77c-.21.33-1.88.27-1.18-.34C608.35,464.23,609.83,464.38,609.06,465.18ZM509.91,592.39c.72,2.17,1,4.94-1.25,6.17-2.13,1.78-5,1-7.29,1.26-2.44-1.4-5.59-2.58-4.52-4.74-.85-1.11,1.59-2.43,2.25-3.39.78-2,4.43-.49,5.3-2.33,1.18.92,2.32,1.88,3.72,1.89C508.75,591.48,510.44,591.54,509.91,592.39ZM615.44,464.24a1.89,1.89,0,0,1-1.59,1.27C612.7,464.57,615.14,462.66,615.44,464.24ZM523,577c.62,1.41.93,2.4.36,2.92-1.26,2.26-3.12,4.64-6.7,5-.86-.51-3,1.44-4.59.55-2.09-1.2-3.88-1.78-5.69-2.93-.37-1.17-.23-3.37-1.37-4.9.78-4.71,8.74-8.1,13.9-4.86C521,573.83,524.38,574.93,523,577Zm85.15-150.58c-1.15-.32,1.34-2.46,1.44-1.73C609.79,426.16,609.54,426.51,608.16,426.47ZM556.9,603.17c.06.72.92,2.43-.37,2.53-1.81,0-1.9-1.29-2.52-2.14-.52-.09-1.49-.14-2.73-.27-1.68-1.6-1.6-3.59-2.64-5,.68-2.1,3.84-3.08,6.62-2.44,1.91.12,3.25,1.93,4.52,3A15.18,15.18,0,0,1,556.9,603.17Zm14.31-69.47L570,532.2c.95-.91,1,.66,2,.47C572.33,533.08,571.4,533.38,571.21,533.7Zm45-99.55c-.53.48.73,1.56-1,1.13C613,435.93,615.83,433,616.24,434.15ZM569.79,535.44c-1.49-.72-2.43-2-3.91-2.72-.93.29-2,.7-2.3-.3,1.76.21,2-.12,1.69-1.72.12-.48.73,1,1.37,1.2,1.18.95,3.06,1.08,4.57,1.8l-.54.5c.95.65,1,1.37,1.53,2.08-.19.31-.09.43.32,1a6.55,6.55,0,0,0-3,.25c-.34-.41-1.17-.91-1.37-1.19.63-.94.73.38,1.36.62C570.69,536.7,569,535.66,569.79,535.44Zm35-99.49c-.33.18.08.72.61.81a8.06,8.06,0,0,1-2.47,2.14C601.23,438.47,603.71,436.33,604.81,435.94ZM586.69,574.17c-2.15-.36-3.7-2.45-2-3.79.74,1,1.09-.4,1.82,0C585.54,571.48,586.27,573,586.69,574.17Zm-5.81-65.47c.41,1.14.19,3.57-2.25,2.78-.4,0-1.6.29-1.89-.11.4.53.81,1.1,1.09,1.51l1.29.48c-1,1.13-2.84,1.39-4.29-.57a1.92,1.92,0,0,1-1.42,1.76c-1.5-.19.24-1.5,0-1.78a4.14,4.14,0,0,1,.9-1.3.6.6,0,0,1-.09-.21,1.15,1.15,0,0,0,.24.11,3,3,0,0,1,1.44-.51c-.54-.1,0-.59.74-.82,0,0,0-1.76.77-.82,1.13,1-.86-1.08-1.49-1.3-.52-.72.66-1,1.21-1.46.4,1.14.36,2.93,2.18,3.51-.34-.42.77-.81,1.44-.81C580.76,509.15,581,508.84,580.89,508.7ZM238.1,655.56c.58,1.32.68,2.13-.64,2.54C236.89,656.34,237.18,655.53,238.1,655.56Zm-128.29-32c-.53,1.58-2,2.54-3.2,3.34-.58-1.77.62-5.3,2.61-4.66C110.08,622.11,110.12,623.37,109.82,623.58Zm128.72,20.64c.8.76-.19,2.68-1.38,3.45-.55-.06-.77-.75-.83-2l1.95-1.26a1.39,1.39,0,0,1-.34-2.12C238.76,640.92,239.63,643.54,238.54,644.23ZM266.92,651c.44,1.43,1.48,2.45,1.86,4.12-1.35.85-1.75-2.07-2.47-2-1.15.34-2.62-.38-4-.33a1.43,1.43,0,0,1,2.37-1.56C265.44,651.91,265.83,650.39,266.92,651Zm-13.42,1.25c-.61-.23-.73.44-1.17-.32-.77.91-.67-.43-.84-1.56C251.9,650,253.28,650.46,253.5,652.21Zm-10.39,12.22c.32.47,1.84,2.42.31,2.14C243.05,666,241.85,664,243.11,664.43ZM76.45,580.56c-.3-.46-.76-1.83-.46-2C77.14,578.16,77.19,580,76.45,580.56Zm168.22,72.07c-1.28.4-1.32-2-.33-2.14C245.67,649.61,245.93,652.64,244.66,652.62Zm-9.58-7c.52.52.11,2.05-.52,1.2C234.3,646.56,234.62,644.84,235.09,645.62Zm-.7,7.89a1.73,1.73,0,0,1-.93-1.74C234.55,650.64,235.94,653.35,234.38,653.51ZM272.81,651c-1.39.09-1.66-.22-1.4-1.64C271.93,648.14,273.53,650.91,272.81,651Zm-10,6.06c-.37-.59-1.59.63-.9-1.11C261.63,653.52,263.91,656.72,262.77,657ZM138.7,614c-.9-1.12-2.51-.5-3.66-.17.71-2.2,3-3.61,3.94-1.73C137.93,612.81,139.18,613.3,138.7,614Z" transform="translate(-0.1 -0.1)"/><path class="cls-2" d="M394.88,319.68v-84.4a10.69,10.69,0,0,0-10.53-10.53H337.27m-101.8,0H187.52A10.66,10.66,0,0,0,177,235.28V489.47A10.63,10.63,0,0,0,187.52,500H384.35a10.66,10.66,0,0,0,10.53-10.52v-115m49.32-103L470.77,298,332.89,435.85c-27.49,27.49-54.06.92-26.57-26.57L444.2,271.4ZM414.84,388.48l51.6-51.41-44.12-44.12M283.7,457.57l14.85-14.85" transform="translate(-0.1 -0.1)"/><path class="cls-2" d="M215.55,284.19l12.38,16.15,14.18-18.53m-26.56,43.68,12.38,16.15,14.18-18.53m-26.56,43.67,12.38,16.15,14.18-18.53" transform="translate(-0.1 -0.1)"/><path class="cls-2" d="M265,290.08h81.19M265,331.37h81.19" transform="translate(-0.1 -0.1)"/><line class="cls-2" x1="264.89" y1="372.57" x2="304.78" y2="372.57"/><polygon class="cls-2" points="237.9 242.23 333.77 242.23 333.77 203.9 237.9 203.9 237.9 242.23 237.9 242.23"/></svg>