<svg id="Layer_1" data-name="Layer 1" xmlns="http://www.w3.org/2000/svg" viewBox="0 0 15.19 10.69"><defs><style>.cls-1{fill:#302929;}</style></defs><title>leaf</title><path class="cls-1" d="M15.19,4.73a5.27,5.27,0,0,0-1.28.07c-.08,0-.07.15,0,.14a8.17,8.17,0,0,0,1.26-.21Z"/><path class="cls-1" d="M14,4.85a1.79,1.79,0,0,0-.41.43,1.21,1.21,0,0,1-.63.39.06.06,0,0,0,0,.12.77.77,0,0,0,.61-.32A2,2,0,0,0,14,4.85Z"/><path class="cls-1" d="M13.73,4.8c-.36.12-.82.44-.83.86,0,.12.19.11.17,0-.05-.33.43-.62.69-.72.08,0,0-.15,0-.12Z"/><path class="cls-1" d="M14.75,4.53a6.72,6.72,0,0,0-1.32.11,2.46,2.46,0,0,0-1.15.42s0,.13.06.1a8.65,8.65,0,0,1,1.12-.4c.42-.1.86-.15,1.29-.22,0,0,0,0,0,0Z"/><path class="cls-1" d="M13.16,5A2.15,2.15,0,0,0,12,5.34c-.08.06,0,.18.11.11.26-.27.69-.28,1-.45,0,0,0,0,0,0Z"/><path class="cls-1" d="M12,5.38a1.5,1.5,0,0,1-.51.64c-.2.11-.26.31-.39.49s0,.12.1.08a1.07,1.07,0,0,0,.18-.28.83.83,0,0,1,.29-.24,1.74,1.74,0,0,0,.45-.61c0-.08-.08-.15-.12-.07Z"/><path class="cls-1" d="M11.21,6.56a.17.17,0,0,0,0-.11.05.05,0,0,0-.08,0,1.1,1.1,0,0,0-.19.25s-.12.33-.2.24a.05.05,0,0,0-.08,0,2.92,2.92,0,0,0-.21.41,1,1,0,0,1-.14.22c-.1.12-.07,0-.08-.08a.06.06,0,0,0-.1,0c-.25.27-.38.63-.68.86-.08.06,0,.18.12.12.29-.24.39-.62.65-.89l-.1,0c0,.07,0,.13,0,.2a.06.06,0,0,0,.08,0,.77.77,0,0,0,.3-.35c.06-.13.08-.41.23-.32a.05.05,0,0,0,.07,0l.32-.49a0,0,0,0,0,.07,0Z"/><path class="cls-1" d="M9.49,8.42a.32.32,0,0,0-.08-.16,0,0,0,0,0-.08,0c-.16.17-.4.75-.64.7a.45.45,0,0,0-.25,0s-.32.35-.36.25a0,0,0,0,0-.06,0c-.15.08-.71.74-.78.54a0,0,0,0,0-.06,0,2.27,2.27,0,0,1-.55.35c-.06,0,0,.11,0,.09A.85.85,0,0,0,6.93,10c.08-.05.23-.28.28-.13a0,0,0,0,0,0,0,1,1,0,0,0,.38-.26c.08-.09.32-.47.43-.3a0,0,0,0,0,0,0c.16-.1.4-.47.61-.31h0a1,1,0,0,0,.3-.27c.1-.14.21-.46.41-.36Z"/><path class="cls-1" d="M6.66,10.13c-.14-.09-.24,0-.35.1s-.34.1-.54.11-.47.23-.51.13c-.11-.25-.77,0-.94.08s-.05.12,0,.11.86-.31.87-.14a0,0,0,0,0,0,0,.28.28,0,0,0,.22,0,1,1,0,0,1,.58-.1c.28,0,.38-.33.62-.33a0,0,0,0,0,0,0Z"/><path class="cls-1" d="M4.34,10.6c-.05-.2-.29-.09-.43-.05s-.09-.07-.19-.12a.56.56,0,0,0-.27-.06c-.14,0-.28,0-.42,0s0-.13,0-.15c-.17-.14-.42-.06-.62-.11a.06.06,0,0,0,0,.11c.11,0,.66,0,.61.18a0,0,0,0,0,0,0c.17.05.69-.05.73.19a.06.06,0,0,0,.06,0c.16,0,.39-.14.54-.05a0,0,0,0,0,0,0Z"/><path class="cls-1" d="M2.38,10.19C2.36,10,2.21,10,2,10s-.28,0-.28,0a.28.28,0,0,0-.09-.15,1.8,1.8,0,0,0-.6-.34C1,9.42.39,9.22.42,9.14a.05.05,0,0,0-.05-.07A.75.75,0,0,1,.1,9C0,8.93,0,9,0,9.08a.61.61,0,0,0,.33.1l0-.08a.25.25,0,0,0,0,.12.06.06,0,0,0,0,.05c.2.1,1.37.47,1.32.72a.07.07,0,0,0,0,.08c.17,0,.52-.06.6.14a.05.05,0,0,0,.1,0Z"/><path class="cls-1" d="M12.3,5.09c-.51.24-.89-.45-1.26-.69a.1.1,0,0,0-.12,0c-.1.08,0,0-.08,0a3.29,3.29,0,0,1-.43-.19C10.23,4.13,10,4,9.84,4a3.83,3.83,0,0,0-1.05-.42.08.08,0,0,0-.07.12l.06.14.08-.08a4.37,4.37,0,0,0-.94-.26c-.09,0-.09.13,0,.14a6.2,6.2,0,0,1,.91.25.07.07,0,0,0,.08-.08.67.67,0,0,0,0-.16l-.1.1a3.67,3.67,0,0,1,1,.41,9.52,9.52,0,0,0,1.15.51.09.09,0,0,0,.1,0s.15.16.23.22.3.23.46.33a.45.45,0,0,0,.6,0Z"/><path class="cls-1" d="M7.85,3.48c-.14.12-.66-.15-.86-.12a.07.07,0,0,0-.05.08.58.58,0,0,0,0,.12L7,3.48c-.38-.05-.72-.27-1.1-.11-.06,0,0,.12,0,.1A2.27,2.27,0,0,1,7,3.6a.06.06,0,0,0,.08-.06c0-.12,0-.06.17,0l.38.11a.32.32,0,0,0,.31,0c.06-.06,0-.15-.09-.09Z"/><path class="cls-1" d="M6.07,3.54s-.15,0-.18,0H5.56c-.14,0-.38,0-.49.06s0,.1,0,.12a.48.48,0,0,0,.22,0l.38-.05c.09,0,.34,0,.37-.14Z"/><path class="cls-1" d="M5.13,3.63a.71.71,0,0,0-.46-.06.05.05,0,0,0,0,.09l.1.11,0-.09a2.29,2.29,0,0,0-1,.25.06.06,0,0,0,0,.09L4,4.19V4.1a5.31,5.31,0,0,0-1,.55.05.05,0,0,0,0,.1l.16,0V4.71c-.24.15-.51.25-.76.38-.08,0,0,.14.06.11a3.2,3.2,0,0,0,.75-.42,0,0,0,0,0,0-.08l-.15-.06s0,.06,0,.09a8,8,0,0,1,1-.55.06.06,0,0,0,0-.09L3.9,3.93V4a2.27,2.27,0,0,1,.92-.25.05.05,0,0,0,0-.09l-.11-.11,0,.09a.57.57,0,0,1,.4.05c.06,0,.08-.07,0-.09Z"/><path class="cls-1" d="M2.54,5.15a1,1,0,0,0-.43.31.06.06,0,0,0,.05.1,1.09,1.09,0,0,1,.32,0l0-.1a5,5,0,0,0-1,.76s0,.08,0,.08c.22,0-.05.16-.13.22a1.75,1.75,0,0,0-.3.31.07.07,0,0,0,0,.1c.21.08-.05.23-.15.32a2.42,2.42,0,0,0-.36.39.09.09,0,0,0,0,.12c.16.1-.25.47-.29.58s.08.12.13.08.61-.6.26-.8l0,.12a3.76,3.76,0,0,0,.57-.78,0,0,0,0,0,0-.06c-.15-.09.06-.22.15-.3a2.83,2.83,0,0,0,.27-.28,0,0,0,0,0,0-.07l-.19-.06,0,.09a8.83,8.83,0,0,1,1-.74.06.06,0,0,0,0-.1,1.32,1.32,0,0,0-.35,0l.06.08a2.19,2.19,0,0,1,.35-.36s0,0,0,0Z"/><path class="cls-1" d="M.47,8.38s0,.05,0,.08,0,.05.06.06,0-.05,0-.08A1.45,1.45,0,0,0,0,9c0,.08.1.12.13,0s.3-.34.44-.54a0,0,0,0,0,0-.07s0,0-.05-.07a0,0,0,0,0,0,0Z"/><path class="cls-1" d="M11.92,5.3a3.48,3.48,0,0,0-1.48.76A7.89,7.89,0,0,0,9.36,7.74s0,0,0,0A18,18,0,0,1,10.5,6.13c.39-.42,1-.45,1.42-.82Z"/><path class="cls-1" d="M9.25,8l0,0a0,0,0,1,0,0,0l0,0s0,0,0,0Z"/><path class="cls-1" d="M9.13,8.05a3.65,3.65,0,0,1-.59.64s0,0,0,0a2.4,2.4,0,0,0,.61-.64s0-.05,0,0Z"/><path class="cls-1" d="M10.46,5.93A3.49,3.49,0,0,0,8.7,7.14a17.48,17.48,0,0,1-2,2.57s0,.07,0,0A3.79,3.79,0,0,0,7.55,9c.33-.42.64-.87.93-1.32a3.66,3.66,0,0,1,1-1.1c.33-.23.71-.36,1-.6Z"/><path class="cls-1" d="M9.3,6.31a3.52,3.52,0,0,0-1.09.5,4.47,4.47,0,0,0-.9,1,6.13,6.13,0,0,1-2.13,2.3c-.06,0,0,.14,0,.12A4.52,4.52,0,0,0,7,8.35,8.73,8.73,0,0,1,8,7.11a2.75,2.75,0,0,1,.67-.48,4.4,4.4,0,0,0,.63-.31Z"/><path class="cls-1" d="M7.61,7a5.06,5.06,0,0,0-2,1.28c-.32.35-.6.71-.94,1a4.69,4.69,0,0,1-1.34.82s0,.07,0,.07a3.8,3.8,0,0,0,2-1.47,7.63,7.63,0,0,1,1.05-1c.38-.28.83-.46,1.23-.7Z"/><path class="cls-1" d="M6.52,7.24A8,8,0,0,0,4.64,8.54a4.82,4.82,0,0,1-1.26.74,9.43,9.43,0,0,0-1.21.54c-.06,0,0,.12.05.09A9.5,9.5,0,0,0,4.46,8.83,17.23,17.23,0,0,1,6.52,7.24Z"/><path class="cls-1" d="M5.48,7.54a12.33,12.33,0,0,0-2,1,21.4,21.4,0,0,1-1.94,1s0,.1,0,.07a19.48,19.48,0,0,0,1.92-1c.64-.42,1.39-.64,2-1.06Z"/><path class="cls-1" d="M3.65,8.08c-.65.24-1.27.57-1.92.8a0,0,0,0,0,0,0,7,7,0,0,0,1.93-.8s0,0,0,0Z"/><path class="cls-1" d="M1.23,8.91l-.42,0s0,0,0,0l.42,0Z"/><path class="cls-1" d="M11.61,5.28a1.87,1.87,0,0,1-1.72-.41,8,8,0,0,0-1.4-1c-.05,0-.08.06,0,.09a18,18,0,0,0,1.62,1.12,1.53,1.53,0,0,0,1.54.19Z"/><path class="cls-1" d="M10.76,5.57a1.57,1.57,0,0,1-1.06.24,2.88,2.88,0,0,1-1.07-.65A4.57,4.57,0,0,0,6.51,4S6.46,4,6.5,4a4.88,4.88,0,0,1,1.33.65c.43.3.83.64,1.26.93a1.42,1.42,0,0,0,1.67-.05Z"/><path class="cls-1" d="M9.82,6c-.5.08-1.1.54-1.6.3a3.17,3.17,0,0,1-.58-.47l-.55-.44A5.85,5.85,0,0,0,4.29,4.2a.08.08,0,0,0,0,.15,10,10,0,0,1,1.78.53,7.84,7.84,0,0,1,1.34.88,2.75,2.75,0,0,0,1,.63c.47.09,1-.28,1.41-.4Z"/><path class="cls-1" d="M8.29,6.47a2.76,2.76,0,0,1-1.23.46,2.78,2.78,0,0,1-1.4-.74c-.36-.27-.73-.53-1.1-.79a1.86,1.86,0,0,0-1-.41c-.06,0-.08.09,0,.1a3.12,3.12,0,0,1,1.32.66c.41.29.82.59,1.24.87A1.86,1.86,0,0,0,7.26,7a2.45,2.45,0,0,0,1-.54Z"/><path class="cls-1" d="M6.44,7.09a1.51,1.51,0,0,0-.35.1.9.9,0,0,1-.85,0,10,10,0,0,1-.87-.57,3.9,3.9,0,0,0-1.87-.76c-.1,0-.1.15,0,.16A5.85,5.85,0,0,1,4.8,7a2,2,0,0,0,.77.36,1.62,1.62,0,0,0,.88-.28Z"/><path class="cls-1" d="M5.36,7.4c-.39.06-.65.39-1.07.31a3.11,3.11,0,0,1-.9-.46,3.87,3.87,0,0,0-1.61-.73c-.08,0-.1.12,0,.13a7.28,7.28,0,0,1,1.92.88,1.7,1.7,0,0,0,.81.27,2.22,2.22,0,0,0,.87-.38,0,0,0,0,0,0,0Z"/><path class="cls-1" d="M3.84,7.78A3.4,3.4,0,0,1,2.3,8a10.76,10.76,0,0,0-1.15-.3c-.09,0-.1.14,0,.14.48,0,.91.27,1.38.3A2.64,2.64,0,0,0,3.84,7.8s0,0,0,0Z"/><path class="cls-1" d="M2.78,8.27c-.66.33-1.23-.1-1.9-.07-.07,0-.07.11,0,.1.67,0,1.28.36,1.91,0Z"/><path class="cls-1" d="M10.79,5.18a4.43,4.43,0,0,1-.48-.25l-.46-.28s0,0,0,0a2.09,2.09,0,0,0,1,.51Z"/><path class="cls-1" d="M9.49,5.6c-.2-.19-.42-.35-.63-.52a4.82,4.82,0,0,0-.58-.46s0,0,0,0a5.14,5.14,0,0,0,.62.53,2.87,2.87,0,0,0,.62.41Z"/><path class="cls-1" d="M7.62,5.66a4,4,0,0,0-1-.82,3.25,3.25,0,0,0-1.2-.58.08.08,0,0,0,0,.15A5.85,5.85,0,0,1,6.58,5c.37.21.68.48,1,.7Z"/><path class="cls-1" d="M6.84,6.68c-.2-.12-.42-.19-.62-.32a5.3,5.3,0,0,1-.65-.5A4.91,4.91,0,0,0,4.33,5c-.06,0-.1.07,0,.1.25.16.51.28.76.45s.47.38.71.57a1.91,1.91,0,0,0,1.09.55Z"/><path class="cls-1" d="M5.53,7.08a1.2,1.2,0,0,0-.35-.23,3.89,3.89,0,0,1-.55-.38,4.55,4.55,0,0,0-1.2-.64s-.07.05,0,.07a7,7,0,0,1,1.19.64,2.85,2.85,0,0,0,1,.54Z"/><path class="cls-1" d="M9.16,6.93a1.73,1.73,0,0,0-.41.54c-.11.22-.26.43-.38.64,0,0,0,0,0,0A2.89,2.89,0,0,0,8.7,7.6a3.53,3.53,0,0,1,.47-.66s0,0,0,0Z"/><path class="cls-1" d="M8.25,8.32a4.89,4.89,0,0,1-.69.92,0,0,0,0,0,0,0,2.56,2.56,0,0,0,.68-.94s0,0,0,0Z"/><path class="cls-1" d="M8.13,7.13A14.87,14.87,0,0,0,6.48,9.31s0,0,0,0a5.19,5.19,0,0,0,.74-1,7.3,7.3,0,0,1,.89-1.18Z"/><path class="cls-1" d="M10.83,6A3.68,3.68,0,0,0,9.67,7.48a0,0,0,0,0,.07,0A9.27,9.27,0,0,1,10.83,6Z"/><path class="cls-1" d="M6.64,7.64a1.41,1.41,0,0,0-.3.23,2.2,2.2,0,0,0-.28.26s0,0,0,0a1.23,1.23,0,0,0,.25-.22c.1-.1.21-.19.31-.3Z"/><path class="cls-1" d="M6,8.23a7.67,7.67,0,0,1-1.7,1.69,0,0,0,0,0,0,.08,2.74,2.74,0,0,0,.8-.68c.32-.33.6-.71.88-1.07,0,0,0,0,0,0Z"/><path class="cls-1" d="M5.12,8.43a1.33,1.33,0,0,0-.22.21l-.28.28s0,0,0,0a1.65,1.65,0,0,0,.5-.51Z"/><path class="cls-1" d="M4.27,9.16c-.45.22-.91.42-1.34.66A.06.06,0,0,0,3,9.93c.45-.22.87-.49,1.3-.74,0,0,0,0,0,0Z"/><path class="cls-1" d="M3.35,7.77a1.75,1.75,0,0,1-.93.07c-.29-.05-.55-.19-.83-.25a0,0,0,0,0,0,0,1.76,1.76,0,0,0,1.78.14Z"/><path class="cls-1" d="M4.34,7.57a5.22,5.22,0,0,1-1-.57,3.3,3.3,0,0,0-1-.52c-.06,0-.1.07,0,.1a9.28,9.28,0,0,1,1.08.57,2.16,2.16,0,0,0,.94.43Z"/><path class="cls-1" d="M2.24,9a3.67,3.67,0,0,0-.46.16,5,5,0,0,1-.53.14c-.09,0,0,.16,0,.12s.34-.1.51-.19L2.24,9Z"/><path class="cls-1" d="M1.67,8.69c-.48.06-1,0-1.45.12-.09,0-.05.15,0,.13.25-.05.51-.07.76-.12a2.15,2.15,0,0,0,.66-.14Z"/><path class="cls-1" d="M6.91,6.31a2.35,2.35,0,0,1-.5,0,0,0,0,0,0,0,0,.57.57,0,0,0,.52,0Z"/><path class="cls-1" d="M6.57,6.08A1.35,1.35,0,0,0,6.26,6a.71.71,0,0,0-.31,0,0,0,0,0,0,0,.07,1,1,0,0,0,.3.08.49.49,0,0,0,.33,0Z"/><path class="cls-1" d="M6.12,5.74l-.3,0c-.09,0-.17-.07-.26-.08s-.05,0,0,0a.76.76,0,0,0,.59.08Z"/><path class="cls-1" d="M5.54,5.42l-.28-.1c-.08,0-.11.11,0,.12l.29,0s0,0,0,0Z"/><path class="cls-1" d="M6.32,8.19l-.11.05-.12.07s0,.08,0,0a1.82,1.82,0,0,1,.19-.17Z"/><path class="cls-1" d="M6.21,8.52A.59.59,0,0,0,6,8.61l-.24.12s0,.1,0,.09A.53.53,0,0,0,6,8.7a.83.83,0,0,0,.19-.17Z"/><path class="cls-1" d="M5.88,9l-.25.13a1.45,1.45,0,0,0-.3.12.06.06,0,0,0,0,.11c.21,0,.43-.18.57-.31a0,0,0,0,0,0-.06Z"/><path class="cls-1" d="M5.53,9.48a3.59,3.59,0,0,0-.61.18.05.05,0,0,0,0,.1.89.89,0,0,0,.61-.23,0,0,0,0,0,0,0Z"/><path class="cls-1" d="M5,10l-.18,0a.94.94,0,0,0-.19,0s0,.05,0,.07A.4.4,0,0,0,5,10Z"/><path class="cls-1" d="M9,5.95c-.18,0-.36,0-.54,0a0,0,0,0,0,0,.06A.78.78,0,0,0,9,6Z"/><path class="cls-1" d="M8.56,5.73a1.55,1.55,0,0,0-.67-.08s0,0,0,.05a1.45,1.45,0,0,0,.68,0Z"/><path class="cls-1" d="M8,5.4l-.26-.05c-.1,0-.19-.07-.28-.1a.06.06,0,0,0,0,.11.73.73,0,0,0,.59,0Z"/><path class="cls-1" d="M7.62,5.07,7.38,5,7.15,5a0,0,0,0,0,0,.07.65.65,0,0,0,.5.05,0,0,0,0,0,0,0Z"/><path class="cls-1" d="M7.08,4.83l-.1,0a.2.2,0,0,0-.11,0,0,0,0,0,0,0,.08.21.21,0,0,0,.23,0,0,0,0,0,0,0,0Z"/><path class="cls-1" d="M9.67,6.57c-.06,0-.1.07-.12.12a1.32,1.32,0,0,0-.1.22s0,.05.05,0l.09-.19c0-.05.08-.11.08-.17Z"/><path class="cls-1" d="M9.37,6.84a.47.47,0,0,0-.14.37,0,0,0,0,0,.09,0c0-.12,0-.25.08-.37a0,0,0,0,0,0,0Z"/><path class="cls-1" d="M9.08,7.56c0-.05,0-.1,0-.15a.57.57,0,0,0,0-.16,0,0,0,0,0-.06,0,.49.49,0,0,0,0,.31Z"/><path class="cls-1" d="M8.93,7.8a2.11,2.11,0,0,1,0-.28c0-.05-.07-.06-.08,0a.43.43,0,0,0,0,.3,0,0,0,0,0,0,0Z"/><path class="cls-1" d="M8.78,8s0-.07,0-.11a0,0,0,0,0-.06,0,.25.25,0,0,0,0,.12s.07,0,.07,0Z"/><path class="cls-1" d="M11.3,5.09a.19.19,0,0,0-.11,0L11,5a.05.05,0,0,0,0,.1.33.33,0,0,0,.32,0Z"/><path class="cls-1" d="M11,4.87a.94.94,0,0,0-.26,0,2.69,2.69,0,0,0-.34,0s0,.05,0,.06a1,1,0,0,0,.61,0Z"/><path class="cls-1" d="M10.38,4.58l-.17,0c-.07,0-.13,0-.2,0s-.05,0,0,.06a.49.49,0,0,0,.4,0s0,0,0,0Z"/><path class="cls-1" d="M3.07,7.53c-.1,0-.23.05-.31.1a0,0,0,0,0,0,0c.09,0,.25,0,.3-.13Z"/><path class="cls-1" d="M2.76,7.4l-.3.1a1.83,1.83,0,0,0-.32.09s0,.07,0,.07a1,1,0,0,0,.62-.25s0,0,0,0Z"/><path class="cls-1" d="M2.32,7.27,2,7.4c-.09,0-.18,0-.26.06a0,0,0,0,0,0,.06c.18.1.45-.13.59-.21s0-.05,0,0Z"/><path class="cls-1" d="M1.85,7.16a2.15,2.15,0,0,1-.52.11c-.07,0-.05.12,0,.12a1.18,1.18,0,0,0,.52-.2s0,0,0,0Z"/><path class="cls-1" d="M4.38,6a.29.29,0,0,0-.26,0,0,0,0,0,0,0,.07h.13l.13,0Z"/><path class="cls-1" d="M4.17,5.74a.89.89,0,0,0-.45,0,0,0,0,0,0,0,.08,2.38,2.38,0,0,0,.44,0s0,0,0-.06Z"/><path class="cls-1" d="M3.76,5.54a2,2,0,0,0-.39,0,0,0,0,0,0,0,.06,1.31,1.31,0,0,0,.39-.07s0,0,0,0Z"/><path class="cls-1" d="M3.4,5.36a.76.76,0,0,0-.62.1,0,0,0,0,0,0,.07.65.65,0,0,0,.29-.07l.31-.1Z"/><path class="cls-1" d="M4.62,6.13a.08.08,0,0,0-.1,0,0,0,0,0,0,0,.06.08.08,0,0,0,.1,0s0,0,0,0Z"/><path class="cls-1" d="M6.09,3.55A.34.34,0,0,0,6,3.45,0,0,0,1,0,6,3.51a.26.26,0,0,0,.1.08,0,0,0,0,0,0,0Z"/><path class="cls-1" d="M13.53,4.73l.37-.09.2,0a1.51,1.51,0,0,0-.57,0A.05.05,0,0,0,13.53,4.73Z"/><path class="cls-1" d="M13.53,4.73a1.17,1.17,0,0,0-.29,0,.06.06,0,0,0,0,.06Z"/><path class="cls-1" d="M3.19,3.25c.07.1.55.43.39.55s0,0,0,0a1.44,1.44,0,0,0,.21.2l.07,0c-.1-.07-.22-.16-.19-.19a.13.13,0,0,0,0-.11c-.06-.21-.31-.33-.44-.5A0,0,0,1,0,3.19,3.25Z"/><path class="cls-1" d="M3.26,3.26c.08-.15,0-.28-.17-.41s-.21-.14-.18-.19a.25.25,0,0,0,0-.15,3,3,0,0,0-.26-.65c-.05-.1-.36-.65-.29-.67a.05.05,0,0,0,0-.08A.8.8,0,0,1,2.22.84c0-.07-.13,0-.11,0a1,1,0,0,0,.11.23s.07,0,0,0a.05.05,0,0,0,0,.07c.08.22.75,1.28.56,1.41,0,0,0,.06,0,.08s.42.33.38.52.07.1.1,0Z"/><path class="cls-1" d="M13.52,4.66c-.5,0-.58-.65-.78-1a.08.08,0,0,0-.09,0c-.09,0-.13-.09-.21-.18s-.27-.33-.4-.5a4.06,4.06,0,0,0-.69-.81.07.07,0,0,0-.11.05.36.36,0,0,1,0,.14l.1,0a4.44,4.44,0,0,0-.58-.59.06.06,0,0,0-.07.1,6.37,6.37,0,0,1,.57.57.06.06,0,0,0,.1,0,.69.69,0,0,0,0-.14l-.11,0a3.66,3.66,0,0,1,.59.72,6.31,6.31,0,0,0,.69.81.09.09,0,0,0,.1,0s0,0,0,.07.08.15.12.23a2.63,2.63,0,0,0,.23.37c.13.15.3.26.49.17Z"/><path class="cls-1" d="M10.69,1.72c-.15,0-.41-.4-.57-.47a.06.06,0,0,0-.08,0l0,.11.08,0c-.25-.21-.39-.52-.73-.6a0,0,0,0,0,0,.09,2.12,2.12,0,0,1,.69.58s.06,0,.08,0,0,0,.1,0a3.75,3.75,0,0,1,.26.28.27.27,0,0,0,.24.11c.07,0,.05-.12,0-.11Z"/><path class="cls-1" d="M9.39.95S9.28.88,9.25.87L9,.72C8.93.66,8.77.5,8.65.5a.06.06,0,0,0,0,.09c0,.06.12.09.18.12l.29.15c.07,0,.24.14.32.08Z"/><path class="cls-1" d="M8.69.54A.64.64,0,0,0,8.41.26a0,0,0,0,0-.06,0,.69.69,0,0,0,0,.13l.07,0A2.2,2.2,0,0,0,7.64,0a0,0,0,0,0-.06.06c0,.07,0,.14,0,.21L7.68.26a5.76,5.76,0,0,0-1-.19,0,0,0,0,0,0,.07.71.71,0,0,0,.09.14l0-.07c-.25,0-.48-.13-.73-.2A.06.06,0,1,0,6,.11a2.53,2.53,0,0,0,.75.17s0,0,0-.07L6.74.1,6.69.16c.33.06.65.11,1,.2A.05.05,0,0,0,7.71.29c0-.07,0-.14,0-.21l0,.06a2.14,2.14,0,0,1,.75.33s.07,0,.07,0a.71.71,0,0,1,0-.13l-.06,0a.48.48,0,0,1,.25.24s.09,0,.07,0Z"/><path class="cls-1" d="M6.1.1A1,1,0,0,0,5.63,0s0,.07,0,.09a1.12,1.12,0,0,1,.23.18l0-.08A5.39,5.39,0,0,0,4.78.09a0,0,0,0,0,0,.07c.14.17-.1.07-.21.06a1.59,1.59,0,0,0-.39,0,.05.05,0,0,0,0,.08c.1.19-.26.11-.37.1a2.17,2.17,0,0,0-.38,0,.07.07,0,0,0-.06.09c.07.19-.45.12-.54.15s0,.13,0,.14c.24,0,.79.07.65-.3L3.42.55A2.83,2.83,0,0,0,4.26.46a0,0,0,0,0,0,0c-.06-.18.47-.08.63-.09a0,0,0,0,0,0-.05L4.83.12l0,.07c.37,0,.72.12,1.09.15a0,0,0,0,0,0-.08A1.32,1.32,0,0,0,5.66,0V.14a2.08,2.08,0,0,1,.44,0s0,0,0,0Z"/><path class="cls-1" d="M2.83.75c0,.05-.09,0-.06.12l0,0a1.35,1.35,0,0,0-.68,0c-.07,0,0,.15.06.12a3,3,0,0,1,.63,0s0,0,0-.07,0-.05,0-.08,0,0,0,0Z"/><path class="cls-1" d="M11.59,4.84l.18-.06c.45-.14,1,.07,1.38-.08h0a3.93,3.93,0,0,0-1.32,0,1.41,1.41,0,0,0-.33.11Z"/><path class="cls-1" d="M11.26,4.67a2.55,2.55,0,0,0,.47,0h0a4.1,4.1,0,0,0-.65-.06Z"/><path class="cls-1" d="M3.28,3a9,9,0,0,0,2.06.7l.22,0,.09,0a3.92,3.92,0,0,1-.91-.19C4.26,3.25,3.79,3,3.3,2.88,3.23,2.86,3.22,2.95,3.28,3Z"/><path class="cls-1" d="M7,3.42c-.61-.17-1.24-.38-1.87-.5a14.39,14.39,0,0,1-2.26-.7c-.05,0-.07.06,0,.07a12,12,0,0,0,2,.63c.71.12,1.4.43,2.11.5Z"/><path class="cls-1" d="M5.34,2.71C4.72,2.45,4.08,2.27,3.46,2c0,0,0,0,0,0a6,6,0,0,0,1.89.75s0,0,0,0Z"/><path class="cls-1" d="M3.08,1.63l-.32-.29s0,0,0,0l.33.28Z"/><path class="cls-1" d="M12.9,4.57C11.66,4.44,11.58,3,11,2.29a0,0,0,0,0-.07,0,10,10,0,0,0,.81,1.52,1.36,1.36,0,0,0,1.17.72Z"/><path class="cls-1" d="M12.1,4.48a1.4,1.4,0,0,1-1-.29,2.75,2.75,0,0,1-.58-1,4.67,4.67,0,0,0-1-1.73s-.07,0,0,0a11,11,0,0,1,1.24,2.25,1.32,1.32,0,0,0,1.41.73Z"/><path class="cls-1" d="M10.43,4.3c.25,0,.51.06.76.11h0c-.29-.1-.66-.09-1-.19Z"/><path class="cls-1" d="M7.72.57c.3.38.63.75.91,1.14a8,8,0,0,1,.71,1.42,2.3,2.3,0,0,0,.51.93h0l.17.07A.78.78,0,0,1,9.82,4a1.76,1.76,0,0,1-.27-.58c-.09-.23-.18-.47-.27-.7A6.73,6.73,0,0,0,7.82.49C7.77.44,7.67.51,7.72.57Z"/><path class="cls-1" d="M6.82.66a4.38,4.38,0,0,1,.65,1.27c.2.44.33.91.56,1.35a2.28,2.28,0,0,0,.21.33h.09a3.43,3.43,0,0,1-.5-1c-.14-.37-.29-.75-.42-1.12A2.06,2.06,0,0,0,6.88.6,0,0,0,1,0,6.82.66Z"/><path class="cls-1" d="M5.61.59A7.7,7.7,0,0,1,6.77,2.67a2.08,2.08,0,0,0,.47.73.71.71,0,0,0,.19.12l.2,0,.25,0c-.29-.12-.57-.14-.79-.45a4.83,4.83,0,0,1-.44-1A4.66,4.66,0,0,0,5.71.5.07.07,0,1,0,5.61.59Z"/><path class="cls-1" d="M7,3.25c-.25-.13-.52-.12-.78-.24s-.47-.63-.61-.93A5.35,5.35,0,0,0,4.83.5c-.06-.06-.14,0-.09.08a11.71,11.71,0,0,1,1,1.88,1.38,1.38,0,0,0,.51.61,2.52,2.52,0,0,0,.8.2s0,0,0,0Z"/><path class="cls-1" d="M5.65,2.62A4.48,4.48,0,0,1,4.52,2C4.19,1.63,4,1.17,3.71.82A.06.06,0,1,0,3.62.9c.35.37.56.84.92,1.2a2.55,2.55,0,0,0,1.1.53s0,0,0,0Z"/><path class="cls-1" d="M4.58,2.27C3.91,2,3.72,1.39,3.23.94,3.17.88,3.12,1,3.17,1c.49.45.73,1.12,1.41,1.28Z"/><path class="cls-1" d="M12.26,4.19a6.67,6.67,0,0,1-.55-.77,0,0,0,0,0,0,0,1.77,1.77,0,0,0,.57.76Z"/><path class="cls-1" d="M11.07,4c-.07-.19-.16-.37-.25-.55a7.34,7.34,0,0,0-.31-.7s0,0,0,0a4,4,0,0,0,.25.64,2.49,2.49,0,0,0,.34.6Z"/><polygon class="cls-1" points="10.38 2.49 10.38 2.49 10.38 2.49 10.38 2.49"/><path class="cls-1" d="M9.57,3.19A3.88,3.88,0,0,0,9.15,2a3.58,3.58,0,0,0-.56-.92.06.06,0,0,0-.1.08,6.75,6.75,0,0,1,.59,1c.18.33.29.68.48,1Z"/><path class="cls-1" d="M8.51,3.54c-.1-.18-.23-.33-.32-.51a4,4,0,0,1-.25-.67A5.9,5.9,0,0,0,7.43,1s-.11,0-.09,0c.1.25.23.48.32.73s.15.45.22.67a1.93,1.93,0,0,0,.63,1.06Z"/><path class="cls-1" d="M7.29,3.13a1.17,1.17,0,0,0-.14-.32,4.42,4.42,0,0,1-.29-.71,5.29,5.29,0,0,0-.52-1,0,0,0,1,0-.06,0,9.41,9.41,0,0,1,.54,1.11,2.78,2.78,0,0,0,.47.91Z"/><path class="cls-1" d="M11.74,4.93,12,4.84h0l-.31.06Z"/><path class="cls-1" d="M3.87,3.5a9.55,9.55,0,0,0,1,.25l.15,0-1.1-.34C3.81,3.37,3.79,3.48,3.87,3.5Z"/><path class="cls-1" d="M5.28,2.31C4.66,2,4.45,1.54,4.08,1a0,0,0,0,0,0,0A1.89,1.89,0,0,0,5.28,2.31Z"/><path class="cls-1" d="M6.14,2.78c-.37-.63-.5-1.32-.89-1.93,0-.06-.11,0-.08,0,.17.36.34.7.49,1.07a2.13,2.13,0,0,0,.48.83Z"/><path class="cls-1" d="M3.78,2.39a3.49,3.49,0,0,0-.39-.19,4.72,4.72,0,0,1-.52-.3c-.08-.05-.13.07,0,.11s.29.16.43.22.35.11.52.17Z"/><path class="cls-1" d="M3.53,1.8c-.39-.3-.74-.65-1.12-1-.07-.05-.13,0-.06.1s.41.33.62.48a2.4,2.4,0,0,0,.56.38Z"/><path class="cls-1" d="M8.73,3.31A2.18,2.18,0,0,1,8.35,3s0,0,0,0a.57.57,0,0,0,.4.27Z"/><path class="cls-1" d="M8.57,3a1.55,1.55,0,0,0-.21-.24.71.71,0,0,0-.2-.17s-.05,0,0,0a1.12,1.12,0,0,0,.2.22A.47.47,0,0,0,8.57,3Z"/><path class="cls-1" d="M8.38,2.51l-.19-.17c-.07-.07-.11-.15-.18-.22a0,0,0,0,0,0,0,.76.76,0,0,0,.4.36Z"/><path class="cls-1" d="M8.1,2l-.15-.22c0-.07-.14,0-.08.07l.2.17a0,0,0,1,0,0,0Z"/><path class="cls-1" d="M10.55,4c-.14-.09-.29-.15-.44-.24s-.06,0,0,0a.74.74,0,0,0,.47.21Z"/><path class="cls-1" d="M10.27,3.68a1.66,1.66,0,0,0-.5-.37,0,0,0,0,0,0,0,1.37,1.37,0,0,0,.52.34Z"/><path class="cls-1" d="M10,3.21,9.82,3c-.06-.06-.11-.13-.16-.19s-.11,0-.09,0a.69.69,0,0,0,.44.31h0Z"/><path class="cls-1" d="M9.82,2.76l-.16-.12L9.5,2.48a0,0,0,0,0-.05,0,.61.61,0,0,0,.36.28,0,0,0,0,0,0,0Z"/><path class="cls-1" d="M9.52,2.34a.3.3,0,0,0-.16-.12,0,0,0,0,0,0,.05.17.17,0,0,0,.08.07.15.15,0,0,0,.1,0,0,0,0,0,0,0,0Z"/><path class="cls-1" d="M12.71,4.31a.17.17,0,0,0-.07-.07l-.15-.09a0,0,0,0,0-.05.07.35.35,0,0,0,.14.08.21.21,0,0,0,.14,0Z"/><path class="cls-1" d="M12.56,4a1.1,1.1,0,0,0-.22-.14l-.24-.12a0,0,0,0,0,0,0,.93.93,0,0,0,.49.23Z"/><path class="cls-1" d="M12.16,3.58,12,3.5s-.09-.08-.14-.1a0,0,0,0,0,0,0,.45.45,0,0,0,.3.18,0,0,0,0,0,0,0Z"/><path class="cls-1" d="M5.2,2c0-.09-.2-.11-.29-.13a0,0,0,0,0,0,0c.08,0,.21.14.29.1Z"/><path class="cls-1" d="M5,1.69l-.31-.14a1.6,1.6,0,0,0-.25-.13s-.06,0,0,.06a.56.56,0,0,0,.25.15A1.56,1.56,0,0,0,5,1.71s0,0,0,0Z"/><path class="cls-1" d="M4.78,1.32l-.26-.1c-.09,0-.16-.12-.25-.15a0,0,0,0,0,0,0c.06.18.4.22.54.26s0,0,0,0Z"/><path class="cls-1" d="M4.51.95A2.07,2.07,0,0,1,4.08.67C4,.63,4,.71,4,.76A1.14,1.14,0,0,0,4.51,1s0,0,0,0Z"/><path class="cls-1" d="M7,1.72a.31.31,0,0,0-.18-.18s0,0,0,.05l.1.07.1.06Z"/><path class="cls-1" d="M6.94,1.45a.93.93,0,0,0-.32-.27s-.07,0,0,.05a2.09,2.09,0,0,0,.33.25,0,0,0,0,0,0,0Z"/><path class="cls-1" d="M6.75,1.07a2.11,2.11,0,0,0-.3-.19s-.05,0,0,0a1.23,1.23,0,0,0,.32.18s0,0,0,0Z"/><path class="cls-1" d="M6.59.75A.75.75,0,0,0,6.1.44a0,0,0,0,0,0,.06.53.53,0,0,0,.21.12l.29.12Z"/><path class="cls-1" d="M7.07,2A.07.07,0,0,0,7,1.89s0,0,0,0a.07.07,0,0,0,.08,0s0,0,0,0Z"/><path class="cls-1" d="M9.39,1a.27.27,0,0,0,0-.11c0-.05-.09,0-.08,0a.21.21,0,0,0,0,.1,0,0,0,0,0,0,0Z"/><path class="cls-1" d="M10.81,4.28c-.33-.22-.7-.38-1.05-.57a4.7,4.7,0,0,0-1.12-.48,0,0,0,0,0,0,.06,9.56,9.56,0,0,1,1.21.53,4.13,4.13,0,0,0,1,.46Z"/><path class="cls-1" d="M10.59,3.89c-.6-.24-1.15-.6-1.75-.82-.06,0-.1.07,0,.09.58.28,1.17.57,1.78.79,0,0,.06,0,0-.07Z"/><path class="cls-1" d="M10.37,3.51a3.06,3.06,0,0,0-1.49-.59,0,0,0,0,0,0,.09,7.75,7.75,0,0,1,1.48.55,0,0,0,0,0,0,0Z"/><path class="cls-1" d="M10.06,3a3.58,3.58,0,0,0-.93-.43s-.08.05,0,.08c.3.15.63.25.93.4a0,0,0,0,0,0,0Z"/><path class="cls-1" d="M8,3.41a1.86,1.86,0,0,0-.83-.16,0,0,0,0,0,0,0c.28,0,.55.07.83.12Z"/><path class="cls-1" d="M7.86,3.1a15.3,15.3,0,0,0-1.52-.22,0,0,0,0,0,0,.08c.5.12,1,.19,1.53.27.08,0,.08-.12,0-.13Z"/><path class="cls-1" d="M7.62,2.92a9.58,9.58,0,0,0-1.33-.38,0,0,0,0,0,0,.09c.43.17.9.21,1.33.35a0,0,0,0,0,0-.06Z"/><path class="cls-1" d="M7.29,2.57l-1-.38a0,0,0,0,0,0,.08,6.19,6.19,0,0,0,1,.39c.06,0,.08-.07,0-.09Z"/><path class="cls-1" d="M6.84,2.11a4.94,4.94,0,0,0-.69-.23,0,0,0,0,0,0,.08,2.56,2.56,0,0,0,.69.28.07.07,0,0,0,0-.13Z"/><path class="cls-1" d="M6.58,1.7a1.78,1.78,0,0,0-.45-.13s-.06.07,0,.08a3.12,3.12,0,0,1,.41.15.06.06,0,1,0,0-.1Z"/><path class="cls-1" d="M6.31,1.42a.43.43,0,0,0-.26-.1S6,1.39,6,1.39a1,1,0,0,1,.24.08,0,0,0,0,0,0,0Z"/><path class="cls-1" d="M5.76,3.4c-.28,0-.56,0-.84,0,0,0-.05.08,0,.08a7.83,7.83,0,0,0,.85-.12Z"/><path class="cls-1" d="M5.52,3.19a7.07,7.07,0,0,0-1.13.17s0,.07,0,.07a7,7,0,0,0,1.13-.19s0-.06,0-.06Z"/><path class="cls-1" d="M5.11,3.08A4,4,0,0,0,4,3.33s0,.09,0,.07c.36-.1.75-.16,1.09-.29a0,0,0,1,0,0,0Z"/><path class="cls-1" d="M4.29,2.94C4.2,3,4.1,3,4,3.07a.05.05,0,0,0,.05.09c.1,0,.2-.06.3-.11s0-.15-.06-.11Z"/><path class="cls-1" d="M3.74,3.86a7,7,0,0,0,.72-.29s0,0,0,0a1.72,1.72,0,0,0-.72.32Z"/><path class="cls-1" d="M3.79,3.65l.57-.2a0,0,0,0,0,0,0,1.29,1.29,0,0,0-.57.23s0,0,0,0Z"/><path class="cls-1" d="M12.9,4.58a8.65,8.65,0,0,0-1.54,0s0,.07,0,.07a4.73,4.73,0,0,0,1.53-.07Z"/><path class="cls-1" d="M12.47,4.32l-.67,0a4.23,4.23,0,0,1-.75-.1s-.08.05,0,.08a2.7,2.7,0,0,0,1.45.08c.06,0,.07-.1,0-.1Z"/><path class="cls-1" d="M11.66,4.15A3,3,0,0,1,10.93,4s0,0,0,0a1.42,1.42,0,0,0,.75.16,0,0,0,0,0,0,0Z"/><path class="cls-1" d="M11.52,3.93a1.38,1.38,0,0,0-.35-.15,3.29,3.29,0,0,1-.4-.19,0,0,0,0,0-.05.06,1,1,0,0,0,.8.28Z"/><path class="cls-1" d="M11.29,3.53l-.37-.19a1.71,1.71,0,0,0-.33-.18c-.05,0-.08,0,0,.08a.92.92,0,0,0,.31.21l.4.18c.05,0,.09-.07,0-.1Z"/><path class="cls-1" d="M11.11,3.11A1.51,1.51,0,0,0,10.85,3a1.78,1.78,0,0,1-.27-.2,0,0,0,0,0-.08.06.84.84,0,0,0,.59.32s0,0,0,0Z"/><path class="cls-1" d="M10.77,2.59a.83.83,0,0,1-.27-.15c-.05,0-.12,0-.07.09a.67.67,0,0,0,.31.16.05.05,0,0,0,0-.1Z"/><path class="cls-1" d="M10.59,2.26h-.05a0,0,0,0,0,0,.05h.05a0,0,0,1,0,0-.06Z"/><path class="cls-1" d="M10.64,4.27a11.12,11.12,0,0,1-1.07-.61,1.43,1.43,0,0,0-1-.27s0,.08,0,.08a1.89,1.89,0,0,1,1.19.41,1.81,1.81,0,0,0,.88.4Z"/><path class="cls-1" d="M8.58,3.54a2.43,2.43,0,0,0-1.3-.2s0,.08,0,.08a4.08,4.08,0,0,1,1.28.15s0,0,0,0Z"/></svg>