<svg id="Layer_1" data-name="Layer 1" xmlns="http://www.w3.org/2000/svg" viewBox="0 0 12.03 12.29"><defs><style>.cls-1{fill:#302929;}</style></defs><title>mashroom</title><path class="cls-1" d="M6.67,9.79c-.7,1.1-1.46,2.63-3,2.14A4.85,4.85,0,0,1,1,9.54,3.62,3.62,0,0,1,1,6.18c.54-1,1.65-1.24,2.34-2.11.12-.16-.11-.39-.23-.23A6.23,6.23,0,0,1,1.62,5,3.33,3.33,0,0,0,.49,6.54,4.14,4.14,0,0,0,1,10a4.88,4.88,0,0,0,3,2.25c1.5.31,2.52-1.15,2.81-2.41,0,0-.06-.09-.09,0Z"/><path class="cls-1" d="M8.9,6.67a2.43,2.43,0,0,0,1.37-.93A3,3,0,0,0,11,4.18a3.33,3.33,0,0,0-1.5-3A4,4,0,0,0,6,.56C4.41,1,3.63,2.5,3.05,3.91c-.07.18.21.31.28.13C3.84,2.77,4.46,1.42,5.81.87a3.77,3.77,0,0,1,3.38.39,3.15,3.15,0,0,1,1.55,2.89,2.9,2.9,0,0,1-.63,1.47c-.34.44-.87.65-1.21,1.06Z"/><path class="cls-1" d="M8.61,12c-.26-.39-.62-.7-.92-1.07s-.64-.88-.95-1.33C6.3,8.94,5.86,8.14,5,8c-.1,0-.14.12-.05.17A2.85,2.85,0,0,1,6.05,9c.28.38.55.78.82,1.17a5.15,5.15,0,0,0,1.71,1.87s0,0,0,0Z"/><path class="cls-1" d="M12,8c-.45-.57-1.2-.58-1.85-.8A9.05,9.05,0,0,1,7.8,5.91a1.1,1.1,0,0,1-.57-1,1.6,1.6,0,0,1,.61-1,1.75,1.75,0,0,1,2.45.43c.08.11.27,0,.21-.11A1.9,1.9,0,0,0,7,5c-.07.9,1,1.34,1.63,1.75a6,6,0,0,0,1.62.72A5.53,5.53,0,0,1,12,8.07s0,0,0,0Z"/><path class="cls-1" d="M5.33,11.19A2.09,2.09,0,0,1,4.09,11,1.43,1.43,0,0,1,3.52,10a1.63,1.63,0,0,1,.26-1.16,2.17,2.17,0,0,1,.49-.51A1,1,0,0,1,5,8.21.11.11,0,0,0,5.08,8c-.47-.3-.94,0-1.27.39a2,2,0,0,0-.55,1.53A1.44,1.44,0,0,0,5.33,11.2Z"/><path class="cls-1" d="M5,10.67c-.29-.46-.67-.75-.46-1.35a1.57,1.57,0,0,1,.81-1c.15,0,.07-.27-.08-.23a1.81,1.81,0,0,0-1,1.26,1.1,1.1,0,0,0,.69,1.35,0,0,0,0,0,0,0Z"/><path class="cls-1" d="M4.79,10a1.89,1.89,0,0,1,1.56-.59.11.11,0,0,0,.06-.21A1.39,1.39,0,0,0,4.78,10Z"/><path class="cls-1" d="M8.13,6.31a2.31,2.31,0,0,1-.18-.59,1.49,1.49,0,0,1,.32-.86,1.58,1.58,0,0,1,.59-.5,1,1,0,0,1,.81.05.09.09,0,0,0,.11-.13c-.48-.65-1.35,0-1.67.44-.22.3-.66,1.47,0,1.58Z"/><path class="cls-1" d="M8.61,6.61c.06-.29.08-.58.15-.87a5.66,5.66,0,0,1,.46-1,.06.06,0,0,0-.09-.08,1.87,1.87,0,0,0-.53,1.9Z"/><path class="cls-1" d="M8.66,12c.75-.56,1.67-.78,2.19-1.61a11.24,11.24,0,0,0,.57-1.19c.2-.41.59-.72.61-1.19,0-.12-.18-.21-.22-.07a5.81,5.81,0,0,1-.57,1c-.21.37-.34.78-.53,1.16-.47.95-1.51,1-2.14,1.79-.05.06,0,.15.09.1Z"/><path class="cls-1" d="M4.12,8.44a.88.88,0,0,0,.33,0l.37.07c.08,0,.09-.1,0-.12a3.33,3.33,0,0,0-.4-.06.41.41,0,0,0-.31.05Z"/><path class="cls-1" d="M3.73,8.77a2.51,2.51,0,0,1,.85,0c.06,0,.08-.08,0-.1a1.12,1.12,0,0,0-.9,0s0,.06,0,.06Z"/><path class="cls-1" d="M3.48,9.3a2.22,2.22,0,0,1,1-.18A.05.05,0,0,0,4.5,9a1.23,1.23,0,0,0-1,.25s0,.05,0,0Z"/><path class="cls-1" d="M3.46,9.74l.44-.17a2.73,2.73,0,0,0,.46-.14.07.07,0,0,0,0-.12.78.78,0,0,0-.44.13,1.82,1.82,0,0,0-.43.3Z"/><path class="cls-1" d="M3.5,10.3A2.88,2.88,0,0,1,4,10a3.22,3.22,0,0,0,.43-.18.07.07,0,0,0,0-.12,1.31,1.31,0,0,0-.5.22,1,1,0,0,0-.37.36s0,0,0,0Z"/><path class="cls-1" d="M3.73,10.78c.1-.14.2-.29.31-.43s.26-.24.39-.36,0-.13-.07-.11a1.3,1.3,0,0,0-.66.89,0,0,0,0,0,0,0Z"/><path class="cls-1" d="M4.13,11.11a.56.56,0,0,1,.1-.35,1.28,1.28,0,0,0,.18-.3c0-.06-.06-.1-.1-.07a.76.76,0,0,0-.22.34.51.51,0,0,0,0,.39,0,0,0,0,0,.06,0Z"/><path class="cls-1" d="M4.43,11.22A1.1,1.1,0,0,1,4.54,11a1.12,1.12,0,0,0,.13-.19.06.06,0,0,0-.1-.06.76.76,0,0,0-.15.48Z"/><path class="cls-1" d="M4.78,11.22l.13-.28s0-.11-.08-.07a.57.57,0,0,0-.14.32c0,.06.07.08.09,0Z"/><path class="cls-1" d="M7.83,5.73c-.09-.13-.24-.22-.34-.34a1.08,1.08,0,0,1-.25-.55,0,0,0,0,0-.1,0,.7.7,0,0,0,.19.53c.11.14.29.37.49.37Z"/><path class="cls-1" d="M7.89,5.4a1.56,1.56,0,0,1-.52-1.1s-.07-.08-.09,0c-.14.42.25.94.6,1.14Z"/><path class="cls-1" d="M8,5.05a1.08,1.08,0,0,1-.29-1.18c0-.08-.08-.16-.14-.09-.29.38.09,1.06.39,1.32,0,0,.07,0,0-.05Z"/><path class="cls-1" d="M8.21,4.82A1.61,1.61,0,0,1,8,4.27,1.19,1.19,0,0,1,8,4c0-.08,0-.15,0-.23A.07.07,0,0,0,8,3.69c-.2.08-.13.37-.09.53a1.59,1.59,0,0,0,.31.62,0,0,0,0,0,0,0Z"/><path class="cls-1" d="M8.47,4.48c0-.15,0-.3,0-.45a1.45,1.45,0,0,1,.11-.5.09.09,0,0,0-.16-.1c-.28.26-.11.76,0,1.07,0,0,.08,0,.08,0Z"/><path class="cls-1" d="M8.84,4.27a1.13,1.13,0,0,1,.11-.48c.06-.14.19-.25.25-.4a.08.08,0,0,0-.09-.1.88.88,0,0,0-.39,1c0,.08.12,0,.12,0Z"/><path class="cls-1" d="M9.68,3.55a.3.3,0,0,1-.14-.11,1.11,1.11,0,0,0-.21.23.6.6,0,0,0-.15.44,0,0,0,0,0,0,0c.1-.1.17-.22.27-.33s.19-.14.27-.22Z"/><path class="cls-1" d="M9.77,4.11A.6.6,0,0,0,9.94,4a1.08,1.08,0,0,1,.22-.1c.1,0,.07-.21,0-.19s-.4.17-.39.36a0,0,0,0,0,0,0Z"/><path class="cls-1" d="M10.11,4.37s.08,0,.11,0l.16-.11s0-.09,0-.09a.3.3,0,0,0-.2.12s-.07.1,0,.11Z"/><path class="cls-1" d="M4.78,9.59a2.31,2.31,0,0,1,.62-.4A4.55,4.55,0,0,1,6.14,9c.07,0,.05-.13,0-.14a1.52,1.52,0,0,0-1.36.67s0,0,0,0Z"/><path class="cls-1" d="M4.94,9.1c.15,0,.27-.17.42-.22A.75.75,0,0,1,6,8.94c.15.06.25-.17.1-.22a1.06,1.06,0,0,0-.64,0c-.18.05-.43.18-.48.37Z"/><path class="cls-1" d="M5.24,8.66a.56.56,0,0,1,.24-.09c.09,0,.18,0,.26,0a0,0,0,0,0,0-.08.53.53,0,0,0-.6.06.06.06,0,0,0,.07.1Z"/><path class="cls-1" d="M8.76,4.84a1.8,1.8,0,0,0-.44.78,1.14,1.14,0,0,0,.11.91c0,.06.16,0,.15-.05a2.38,2.38,0,0,1-.1-.83,2.32,2.32,0,0,1,.28-.8Z"/><path class="cls-1" d="M8.35,5.1a1.3,1.3,0,0,0-.3.68.73.73,0,0,0,.24.74.12.12,0,0,0,.16-.15c0-.09-.11-.16-.15-.26a1,1,0,0,1-.06-.32,1.74,1.74,0,0,1,0-.35c0-.12.08-.22.09-.33Z"/><path class="cls-1" d="M8.7,11.61c.27-.22.44-.51.73-.71a3.47,3.47,0,0,0,.84-.7,2.81,2.81,0,0,0,.35-.82,4.32,4.32,0,0,1,.76-1.15s0,0,0,0a3.23,3.23,0,0,0-1.12,1.56c-.19.52-.66.76-1.06,1.09a1.76,1.76,0,0,0-.48.75Z"/><path class="cls-1" d="M3.65,11.65A5.3,5.3,0,0,1,1.14,8.84,3.32,3.32,0,0,1,1,7.14,2.86,2.86,0,0,1,2.18,5.52c.09-.07,0-.21-.1-.14A3.3,3.3,0,0,0,.9,6.8,3.25,3.25,0,0,0,.84,8.43a4.64,4.64,0,0,0,2.8,3.22Z"/><path class="cls-1" d="M10.44,3.37a3,3,0,0,0-.79-1.43,2.34,2.34,0,0,0-1.37-.85c-.06,0-.07.08,0,.11a4.36,4.36,0,0,1,2.18,2.18Z"/><path class="cls-1" d="M3,4.79A6.23,6.23,0,0,0,4.15,3.21a10.59,10.59,0,0,1,.63-1c.25-.34.6-.57.86-.9a0,0,0,0,0,0,0C4.23,2.07,3.85,3.54,3,4.79Z"/><path class="cls-1" d="M3.45,8.53a3.38,3.38,0,0,1,.65-.7,1.33,1.33,0,0,1,1.1-.23s0,0,0,0a.94.94,0,0,0-1.08,0,1.27,1.27,0,0,0-.7,1Z"/><path class="cls-1" d="M7.42,6.25a1.44,1.44,0,0,1-.57-1.63,3.79,3.79,0,0,1,.83-1.2.06.06,0,0,0-.05-.1c-.5.1-.86.94-1,1.37a1.55,1.55,0,0,0,.77,1.57Z"/><path class="cls-1" d="M8.11,11.09A7.49,7.49,0,0,1,7,9.27,3.69,3.69,0,0,0,5.8,7.9c-.06,0-.14,0-.1.09a9.36,9.36,0,0,0,.75.78A4.51,4.51,0,0,1,7,9.63a4.89,4.89,0,0,0,1.12,1.46Z"/><path class="cls-1" d="M8.57,6.93a6.87,6.87,0,0,0,2.51,1.21c.08,0,.1-.09,0-.13A9.43,9.43,0,0,0,9.93,7.5C9.47,7.32,9,7.1,8.58,6.93Z"/><path class="cls-1" d="M10,3A2.27,2.27,0,0,0,9,1.91s-.05,0,0,0,.35.26.51.41A7,7,0,0,1,10,3Z"/><path class="cls-1" d="M2.05,9.84c-.15-.54-.48-1-.6-1.53a3,3,0,0,1,.11-1.43c0-.13-.16-.18-.22-.07a3.07,3.07,0,0,0,.7,3Z"/><path class="cls-1" d="M2,8.92c-.05-.28-.15-.54-.18-.82a2.4,2.4,0,0,1,0-.49c0-.12.05-.21,0-.31a.08.08,0,0,0-.12,0c-.19.17-.1.56-.05.78A2,2,0,0,0,2,8.93s0,0,0,0Z"/><path class="cls-1" d="M5,2.39A4.7,4.7,0,0,1,7.07,1.28c.1,0,.12-.18,0-.18A2.81,2.81,0,0,0,5,2.39Z"/><path class="cls-1" d="M9.19,9.25A3.58,3.58,0,0,0,8.86,9s0,0,0,0a3.47,3.47,0,0,0,.34.27Z"/><path class="cls-1" d="M8.57,8.78C7.46,8,6.37,6.12,4.79,6.23c-.09,0-.1.15,0,.16C6.37,6.49,7.3,8,8.55,8.81c0,0,0,0,0,0Z"/><path class="cls-1" d="M7.62,7.62c-.08-.06-.13-.16-.21-.23s0,0,0,0a1.56,1.56,0,0,0,.23.22Z"/><path class="cls-1" d="M7.24,7.22c-.91-.84-2.09-1.62-2.13-3,0-.09-.16-.1-.16,0-.11,1.5,1.35,2.14,2.27,3,0,0,0,0,0,0Z"/><path class="cls-1" d="M5.35,6.71A7.84,7.84,0,0,1,6.83,7.78c.05,0,.13,0,.09-.08a3,3,0,0,0-1.56-1Z"/><path class="cls-1" d="M7.39,7A2.12,2.12,0,0,0,7,6.72a0,0,0,1,0,0,0,2,2,0,0,0,.38.3Z"/><path class="cls-1" d="M6.65,6.39A4.17,4.17,0,0,1,5.58,4.95a0,0,0,0,0-.07,0,2.8,2.8,0,0,0,1.1,1.46s.07,0,0,0Z"/><path class="cls-1" d="M8.43,11c-.61-.62-.79-1.47-1.34-2.12A.07.07,0,0,0,7,9a6.36,6.36,0,0,0,1.44,2Z"/><path class="cls-1" d="M8.06,10a3.85,3.85,0,0,0-.44-.89s-.06,0,0,0c.13.3.32.58.48.87Z"/><path class="cls-1" d="M10.59,8.23c-.49-.23-1-.5-1.44-.72-.05,0-.11.05-.06.09a4,4,0,0,0,1.5.65,0,0,0,0,0,0,0Z"/><path class="cls-1" d="M10.1,8.31c0-.05-.13-.06-.19-.09l-.29-.15c-.05,0-.08.05,0,.08a1.47,1.47,0,0,0,.29.14c.07,0,.16.07.22,0Z"/><path class="cls-1" d="M8.33,3.09a2.32,2.32,0,0,1,.74,0c.23,0,.43.15.66.18.06,0,.1-.07,0-.11a1.56,1.56,0,0,0-1.45-.07s0,0,0,0Z"/><path class="cls-1" d="M3.49,11a2.1,2.1,0,0,1-.35-.65,3.7,3.7,0,0,1-.07-.79.06.06,0,0,0-.13,0A1.48,1.48,0,0,0,3.48,11Z"/><path class="cls-1" d="M8.75,6.46a.88.88,0,0,0,.3.09.38.38,0,0,0,.29-.05s0-.06,0-.06a1,1,0,0,0-.26,0,1.48,1.48,0,0,1-.31,0Z"/><path class="cls-1" d="M8.87,6.24c.06.11.31.08.41.08s.37,0,.45-.13a.05.05,0,0,0,0-.08l-.16,0a1.27,1.27,0,0,1-.26,0H9a.3.3,0,0,0-.15,0,0,0,0,0,0,0,0Z"/><path class="cls-1" d="M9.06,6a1.58,1.58,0,0,0,1-.19.06.06,0,0,0-.06-.11,4.89,4.89,0,0,1-.53.18L9.06,6s0,0,0,0Z"/><path class="cls-1" d="M9.36,5.61a2,2,0,0,0,1.21-.36c.06-.06,0-.14-.09-.13a3.6,3.6,0,0,0-.52.25,3.87,3.87,0,0,1-.61.21,0,0,0,0,0,0,0Z"/><path class="cls-1" d="M10.76,4.63a1.55,1.55,0,0,1,0-.21c-.14.11-.26.24-.41.35a3.35,3.35,0,0,1-.63.34s0,.08,0,.07a2,2,0,0,0,1-.5A.4.4,0,0,1,10.76,4.63Z"/><path class="cls-1" d="M10.16,4.67a1.08,1.08,0,0,0,.68-.95c0-.08-.14-.09-.14,0a1.28,1.28,0,0,1-.54.95Z"/><path class="cls-1" d="M4.72,12a1.37,1.37,0,0,0,1-1.3,0,0,0,0,0-.08,0A1.85,1.85,0,0,1,4.72,12Z"/><path class="cls-1" d="M5.77,11.37A2.41,2.41,0,0,0,6,10.86a1.85,1.85,0,0,0,0-.57,0,0,0,0,0-.07,0c0,.17,0,.34,0,.5a2.8,2.8,0,0,1-.19.58Z"/><path class="cls-1" d="M6.16,10.76a1.52,1.52,0,0,0,.08-1c0-.1-.17-.08-.15,0a2.31,2.31,0,0,1,0,.95s0,0,0,0Z"/><path class="cls-1" d="M6.46,10.25a.65.65,0,0,0,.07-.42,2,2,0,0,0-.11-.49c0-.07-.15-.07-.15,0,0,.3.17.58.14.88a0,0,0,0,0,0,0Z"/><path class="cls-1" d="M2.37,11.83A5.08,5.08,0,0,1,.11,8.38a.05.05,0,0,0-.11,0,4.57,4.57,0,0,0,2.36,3.46s0,0,0,0Z"/><path class="cls-1" d="M8,.24A3.51,3.51,0,0,0,3.67,2.09c0,.06.06.1.1,0A3.63,3.63,0,0,1,8,.26a0,0,0,0,0,0,0Z"/><path class="cls-1" d="M9.51,11.77a2.69,2.69,0,0,0,1.91-1.89c0-.07-.1-.11-.12,0a2.62,2.62,0,0,1-.8,1.24c-.31.26-.67.43-1,.68Z"/></svg>