<svg id="Layer_1" data-name="Layer 1" xmlns="http://www.w3.org/2000/svg" viewBox="0 0 20.3 12.4"><defs><style>.cls-1{fill:#302929;}</style></defs><title>pepperoni</title><path class="cls-1" d="M19.24.06c.14-.25.92.39.85.63a0,0,0,0,1-.07,0A.47.47,0,0,1,19.9.56a1.43,1.43,0,0,0-.25-.24c-.13-.1-.28-.17-.4-.27s0,.17,0,.09Z"/><path class="cls-1" d="M20.08.57c.7,1.22-.34,3.51-1.37,4.24,0,0-.08,0-.06,0a11,11,0,0,1,.93-1.5A3.32,3.32,0,0,0,20,.65s.14,0,.12.15Z"/><path class="cls-1" d="M18.77,4.68a10.05,10.05,0,0,1-2.14,3c-1.1,1.06-2.7,1.62-4,2.45-1.77,1.15-4.71,2.8-6.66,1.16-.14-.12-.1-.45,0-.33,2.16,1.82,5.5-.47,7.35-1.65.92-.58,1.93-1,2.84-1.56a9.53,9.53,0,0,0,2.51-3.05s0,0,0,0Z"/><path class="cls-1" d="M19.35.18c-1.08,2.43-2,4.32-4.79,5-1.41.35-2.72,1-4.13,1.29-1.61.38-3.6.15-4.8,1.51-.13.15-.19-.11-.06-.26A3.65,3.65,0,0,1,8,6.51a16.52,16.52,0,0,0,4-.81c1.29-.53,2.69-.67,4-1.22,1.84-.78,2.48-2.7,3.3-4.35,0-.08.16,0,.13,0Z"/><path class="cls-1" d="M6,8.12a.38.38,0,0,1,0,.25.74.74,0,0,0,0,.68c.14.23.52.38.51.81,0,0,0-.13-.07-.15s-.25-.26-.4-.37A.75.75,0,0,1,5.7,9a1,1,0,0,1,.22-.87s0,0,0,0Z"/><path class="cls-1" d="M6,9.27a1.13,1.13,0,0,0,.06.49c0,.05.09.09.09.16s0,0,0,0S6,9.83,6,9.76a.47.47,0,0,1,0-.29S6,9.22,6,9.25Z"/><path class="cls-1" d="M6.24,9.44c.15,0,.25.52.21.61s-.19.36-.34.3a0,0,0,0,1,0,0,.19.19,0,0,1,.08-.1A.59.59,0,0,0,6.31,10a.42.42,0,0,0,.06-.19c0-.05,0-.26-.1-.29s0,0,0,0Z"/><path class="cls-1" d="M5.95,10.14a1.25,1.25,0,0,0,.07.39,1.19,1.19,0,0,1,0,.46.32.32,0,0,1-.61,0s0,0,0,0,.26.1.34,0,0-.23,0-.3-.06-.41.07-.57Z"/><path class="cls-1" d="M5.76,10.43c0,.21.05.56-.23.62a.07.07,0,0,1-.08,0c0-.07.08-.1.12-.14a.38.38,0,0,0,.06-.18.5.5,0,0,1,.11-.26,0,0,0,0,1,0,0Z"/><path class="cls-1" d="M5.3,10.25a1.79,1.79,0,0,1,.38.48s0,0,0,0,0,.13,0,.13a1.78,1.78,0,0,1-.23-.3,1.38,1.38,0,0,0-.2-.32s.07,0,.1.06Z"/><path class="cls-1" d="M5.67,8.74s-.08-.45-.06-.49a.15.15,0,0,0,0-.1A.24.24,0,0,0,5.45,8a.28.28,0,0,0-.18,0s0,.07,0,.14-.1.06-.14,0a.22.22,0,0,1,.05-.32.42.42,0,0,1,.36,0,.47.47,0,0,1,.28.23.81.81,0,0,1,.08.3c0,.09,0,.15-.08.17s-.09.28-.09.27Z"/><path class="cls-1" d="M5.25,7.94l.14.41a.72.72,0,0,1,0,.19c0,.1,0,.3-.14.31a0,0,0,0,1,0,0s0-.08.07-.13a.41.41,0,0,0,0-.18,1.15,1.15,0,0,0,0-.13s-.15-.29-.16-.32S5.22,8,5.23,8Z"/><path class="cls-1" d="M5,8.73c.17-.08.39.13.46.26s.14.44,0,.53a0,0,0,0,1,0,0,.21.21,0,0,1,0-.16.49.49,0,0,0,0-.26.39.39,0,0,0-.18-.18c-.06,0-.12,0-.17-.1a.05.05,0,0,1,0-.08Z"/><path class="cls-1" d="M5.53,9.72a.87.87,0,0,1,0,.23,1.06,1.06,0,0,1-.1.23.33.33,0,0,1-.43.13.09.09,0,0,1,.07-.18c.15,0,.21,0,.28-.16a.75.75,0,0,1,.19-.26s0,0,0,0Z"/><path class="cls-1" d="M4.6,9.89c.09,0,.37.16.43.23s0,.28-.07.18a.87.87,0,0,0-.42-.17s0-.15,0-.15Z"/><path class="cls-1" d="M5.06,8.84a3.08,3.08,0,0,1-2.6.82c-.86,0-2.06-.31-2-1.39a.07.07,0,0,1,.12,0c.35,1,1.16,1.21,2.14,1.24A3,3,0,0,0,5,8.76s.13,0,.1,0Z"/><path class="cls-1" d="M.4,7.3c.17-.15.32.07.36.24.14.58.68.24,1,.59,0,0,.08.09.05.09A2.56,2.56,0,0,1,.89,8C.61,7.82.67,7.49.4,7.31a0,0,0,0,1,0,0Z"/><path class="cls-1" d="M1.3,8.1c-.18.11-.32.19-.36.41a.51.51,0,0,0,0,.26A.55.55,0,0,0,1.08,9s-.09,0-.1,0c-.23,0-.22-.49-.18-.63s.26-.46.5-.37a0,0,0,0,1,0,0Z"/><path class="cls-1" d="M.34,7.58C-.39,9,.87,9.91,2.19,10,3,10,3.79,9.81,4.6,9.89c.13,0,.14.22,0,.23-1.15.06-2.7.42-3.74-.31C.08,9.25-.33,8.43.33,7.58Z"/><path class="cls-1" d="M.94,7.28a.43.43,0,0,1,.33.21l-.13,0c.12-.48.75.43.78.62a.08.08,0,0,1-.13.08c-.1-.06-.16-.22-.22-.32s-.27-.37-.29-.32a.08.08,0,0,1-.14,0,.73.73,0,0,0-.21-.26,0,0,0,0,1,0,0Z"/><path class="cls-1" d="M18.42,4.48a6.5,6.5,0,0,1-2.14,2.79c-1.15.82-2.55,1.31-3.74,2.09-1.67,1.1-3.81,2.24-5.82,1.53-.11,0,0-.21.07-.17,2.2.74,4.55-.62,6.31-1.87a13.55,13.55,0,0,1,2.23-1.25,6.77,6.77,0,0,0,3.09-3.13Z"/><path class="cls-1" d="M13.8,8C12,9.56,9.31,11.12,6.86,10.38c-.05,0,0-.1,0-.09a7.52,7.52,0,0,0,3.9-.46,20.28,20.28,0,0,0,3-1.86s0,0,0,0Z"/><path class="cls-1" d="M14.47,5.53c-1.48,0-2.57,1.11-4,1.42S7.25,7,6,8.05c-.09.07-.17,0-.1-.09,1-1,2.94-1,4.26-1.16,1.57-.15,2.71-1.42,4.34-1.28Z"/><path class="cls-1" d="M11.26,7.1a5,5,0,0,1-2.09.44C8.41,7.6,7.7,7.84,7,8a.05.05,0,0,1,0-.1c1.35-.63,2.91-.4,4.32-.79,0,0,0,0,0,0Z"/><path class="cls-1" d="M19.65.67c.58.81-.18,2.69-1,3.14,0,0-.07,0,0-.06a13.15,13.15,0,0,0,.83-1.3A2.77,2.77,0,0,0,19.64.67Z"/><path class="cls-1" d="M18.07,4.31a4.79,4.79,0,0,1-3.37,3,0,0,0,0,1,0-.07,6.84,6.84,0,0,0,2-1.1,7.19,7.19,0,0,0,1.36-1.85Z"/><path class="cls-1" d="M8.15,8.38a6.17,6.17,0,0,0-.88.08,3.7,3.7,0,0,0-.53.14,2.6,2.6,0,0,1-.39.15,0,0,0,0,1,0-.05c.16-.2.54-.25.77-.3A3.12,3.12,0,0,1,8.15,8.3s0,.07,0,.07Z"/><path class="cls-1" d="M8,8.69c-.06,0-.22,0-.29,0s-.31.08-.46.13A3.09,3.09,0,0,0,6.84,9c-.07,0-.16.12-.23.11s0,0,0,0c0-.19.53-.3.65-.33s.59-.18.8-.07a0,0,0,1,1,0,0Z"/><path class="cls-1" d="M7.82,9.06a2.3,2.3,0,0,0-.52.16,1.35,1.35,0,0,0-.25.15c-.07.05-.1.11-.19.13a0,0,0,0,1-.06,0c0-.19.25-.29.4-.34a2.09,2.09,0,0,1,.62-.06Z"/><path class="cls-1" d="M7.72,9.56l-.39.15A.74.74,0,0,1,7,9.8s-.06,0,0-.08a.56.56,0,0,1,.33-.13,3.4,3.4,0,0,1,.47,0s0,0,0,0Z"/><path class="cls-1" d="M6.75,8.2A1.56,1.56,0,0,1,6,8.55a0,0,0,0,1,0-.08,1.57,1.57,0,0,1,.74-.33,0,0,0,0,1,0,.06Z"/><path class="cls-1" d="M8.74,11.33a2.89,2.89,0,0,1-2.2-.24s0-.07,0-.07a8.57,8.57,0,0,1,.89.26,2.19,2.19,0,0,0,1.28,0,0,0,0,0,1,0,0Z"/><path class="cls-1" d="M5.14,9.09a.73.73,0,0,1-.23.27.77.77,0,0,1-.35.21,0,0,0,0,1,0-.06,1.53,1.53,0,0,1,.27-.22A1.61,1.61,0,0,1,5.09,9a0,0,0,0,1,0,0Z"/><path class="cls-1" d="M5.23,9.34c0,.18-.21.43-.41.38,0,0,0-.06,0-.08L5,9.5c.07-.06.11-.14.18-.2a0,0,0,0,1,.06,0Z"/><path class="cls-1" d="M19.39.54a2.36,2.36,0,0,1-.31,1.36,4.09,4.09,0,0,1-.77,1.26s-.07,0-.06,0c.17-.39.47-.74.66-1.12A5.43,5.43,0,0,0,19.37.54a0,0,0,0,1,0,0Z"/><path class="cls-1" d="M17.52,3.89a3.69,3.69,0,0,1-1.31,1s0,0,0,0c.35-.43,1-.54,1.31-1a0,0,0,0,1,0,0Z"/><path class="cls-1" d="M17.54,4.26a3.82,3.82,0,0,1-.92.66s-.07,0,0-.06a3.85,3.85,0,0,1,1-.6Z"/><path class="cls-1" d="M17.52,4.58a1.11,1.11,0,0,1-.65.61s-.05,0,0,0a1.79,1.79,0,0,1,.29-.26,2.7,2.7,0,0,0,.34-.34,0,0,0,0,1,.06,0Z"/><path class="cls-1" d="M14.8,6a12.26,12.26,0,0,0-1.59.48,0,0,0,0,1,0-.05A2.87,2.87,0,0,1,14.8,6a0,0,0,0,1,0,0Z"/><path class="cls-1" d="M14.71,6.33a6,6,0,0,1-1.28.58,0,0,0,0,1,0-.06,2.82,2.82,0,0,1,1.29-.56,0,0,0,0,1,0,0Z"/><path class="cls-1" d="M14.31,6.85A1.65,1.65,0,0,1,14,7.1a1.68,1.68,0,0,1-.34.2s-.06,0,0,0c.12-.24.46-.31.68-.44a0,0,0,0,1,0,0Z"/><path class="cls-1" d="M11.52,7.21a3.68,3.68,0,0,1-2.07.63,0,0,0,0,1,0-.06c.37-.09.74-.12,1.11-.23s.63-.26,1-.35c0,0,0,0,0,0Z"/><path class="cls-1" d="M11.55,7.47a1.94,1.94,0,0,1-1,.52,0,0,0,0,1,0-.07,8,8,0,0,1,1-.48s0,0,0,0Z"/><path class="cls-1" d="M11.37,7.91A1.63,1.63,0,0,1,11,8.1s0,0,0,0a1.53,1.53,0,0,1,.36-.19s0,0,0,0Z"/><path class="cls-1" d="M13.36,10c-2,1.45-4.83,3-7.33,1.79,0,0-.1,0,0,.07,2.31,1.42,5.6-.23,7.38-1.86Z"/><path class="cls-1" d="M18.46,1.12A14.48,14.48,0,0,1,17.15,3a7.3,7.3,0,0,1-3.7,1.82,0,0,0,0,0,0,.09,6.26,6.26,0,0,0,5-3.78Z"/></svg>