<svg id="Layer_1" data-name="Layer 1" xmlns="http://www.w3.org/2000/svg" viewBox="0 0 18.64 20.82"><defs><style>.cls-1{fill:#302929;}</style></defs><title>sweet_pepper</title><path class="cls-1" d="M6.39,7A6.22,6.22,0,0,0,1.58,9.05a4.72,4.72,0,0,0-.15,5.53,5.53,5.53,0,0,0,2.36,2,22,22,0,0,0,3.49.8c2,.55,3,2.73,5.29,2.46.16,0,.19-.25,0-.23-1.95.22-2.94-1.39-4.5-2.19a7.81,7.81,0,0,0-2.25-.59,6.27,6.27,0,0,1-3.07-1.22A4.71,4.71,0,0,1,1.51,9.57c1-1.7,3-2.34,4.89-2.54,0,0,0-.07,0-.07Z"/><path class="cls-1" d="M12.33,19.86c.27.09.74-.27,1-.41.55-.35.74-1.07,1.31-1.42.13-.08,0-.26-.15-.18a4.29,4.29,0,0,0-1.08,1.25,2.22,2.22,0,0,1-.9.57c-.12.06-.15.06-.17.18Z"/><path class="cls-1" d="M15.57,17.57a3.06,3.06,0,0,0,2.9-4.08,20.27,20.27,0,0,0-.86-1.9A5.34,5.34,0,0,1,17.36,9a12.91,12.91,0,0,0,0-3.61c-.42-2.18-2.69-3.47-4.78-3.5-2.72,0-3.23,2.86-4.47,4.67-.09.14.1.26.2.14,1.49-1.57,1.41-4.24,4-4.52a4.49,4.49,0,0,1,4.86,4c.19,1.86-.5,3.67.15,5.49.45,1.27,1.31,2.25,1,3.69a3.12,3.12,0,0,1-2.77,2.06.06.06,0,0,0,0,.13Z"/><path class="cls-1" d="M6.68,6.28C6.82,5.33,6,5,5.19,4.68,4,4.16.24,2.36,2,.61,2.16.5,2,.31,1.9.42c-.89.86-.43,1.93.31,2.72A6.73,6.73,0,0,0,4.1,4.41c1,.5,2.22.55,2.44,1.84,0,0,.08.06.08,0Z"/><path class="cls-1" d="M3.81,2.31c-.11-.09-.95-.45-.81-.59a1,1,0,0,0,.29-.51A1.08,1.08,0,0,0,2.72,0a.06.06,0,0,0-.08.08c.11.23.29.4.39.64a.82.82,0,0,1-.24.87.11.11,0,0,0,0,.15,1.6,1.6,0,0,0,1,.63s.06,0,0-.06Z"/><path class="cls-1" d="M3.64,2.32c1.65,1,3.54,1,4.45,2.94,0,.09.21.06.18-.05-.48-2-3-2.35-4.6-2.94,0,0-.06,0,0,.06Z"/><path class="cls-1" d="M2.49,2.48A4.53,4.53,0,0,0,5.06,3.86c1.24.32,2.28.31,3.12,1.39a.08.08,0,0,0,.14-.09,2.46,2.46,0,0,0-1.92-1.3C5,3.56,3.66,3.5,2.5,2.47c0,0,0,0,0,0Z"/><path class="cls-1" d="M4.83,6.4A2.34,2.34,0,0,1,6.47,6.3a2.83,2.83,0,0,0,1.23.28,0,0,0,0,0,0-.09,4.48,4.48,0,0,0-.8-.22c-.23-.07-.46-.14-.69-.19a1.68,1.68,0,0,0-1.47.32s.06,0,.08,0Z"/><path class="cls-1" d="M4.73,6.51a2.16,2.16,0,0,0,1.7.6c.09,0,.09-.17,0-.17a2.65,2.65,0,0,1-1.59-.53.07.07,0,0,0-.1.1Z"/><path class="cls-1" d="M5.37,6.53a5.62,5.62,0,0,1,1,.29,1,1,0,0,0,.78,0s0-.07,0-.07-.25,0-.38,0a2.82,2.82,0,0,1-.54-.13,2.08,2.08,0,0,0-.85-.12s0,0,0,0Z"/><path class="cls-1" d="M7.92,6.33c.49-.68.39-1.6,1.24-2,.14-.07,0-.29-.1-.22-.91.47-.79,1.38-1.18,2.2,0,0,0,0,0,0Z"/><path class="cls-1" d="M9.16,4.92c.05-.23.2-.55.06-.77,0-.07-.18,0-.17.06s.05.21.06.32,0,.25,0,.38a0,0,0,0,0,0,0Z"/><path class="cls-1" d="M7.74,6.19c0-.17,0-.35.08-.52S8,5.32,8,5.13A.05.05,0,0,0,8,5.08c-.17.07-.23.3-.27.47a1.72,1.72,0,0,0,0,.64s.06,0,.07,0Z"/><path class="cls-1" d="M7.15,7.13a.24.24,0,0,1,.07.28.06.06,0,0,0,0,.06c.27,0,.39-.15.47-.4l-.12,0c.2.33.48.27.7,0s.5-.78.28-1a.07.07,0,0,0-.08,0c-.12.09-.11.38-.16.52S8,7.4,7.72,7A.07.07,0,0,0,7.6,7a.39.39,0,0,1-.26.32,1.56,1.56,0,0,0,0-.17,0,0,0,0,0,0,0,.35.35,0,0,0-.18-.06,0,0,0,0,0,0,.06Z"/><path class="cls-1" d="M2.47,12.78A2.68,2.68,0,0,0,4.28,15c1.24.6,2.67.79,3.94,1.33a12.37,12.37,0,0,1,2,1.14,5.34,5.34,0,0,0,1.44.83,1.17,1.17,0,0,0,1.56-1.05.1.1,0,0,0-.18,0c-.66,1.87-2.29.34-3.2-.24a12.82,12.82,0,0,0-2.12-1.05c-1.91-.77-4.57-.79-5.27-3.11a0,0,0,0,0,0,0Z"/><path class="cls-1" d="M2.37,12.37A12.53,12.53,0,0,1,3,10.19C3.56,9,5.48,7.57,6.48,9.29a.11.11,0,0,0,.2-.09c-.45-1.17-2-1.08-2.88-.46a4.79,4.79,0,0,0-1.49,3.6s.06.06.07,0Z"/><path class="cls-1" d="M10.35,6.88a3.48,3.48,0,0,1,1.21-2.61,2.23,2.23,0,0,1,1.6-.61c.8,0,1.26.63,1.79,1.11,0,0,.11,0,.09-.07a2.24,2.24,0,0,0-3.27-.92c-.81.56-2,2.08-1.46,3.11,0,0,.05,0,0,0Z"/><path class="cls-1" d="M15.35,15.72c2.11.32,1.72-1.92,1.25-3.28a14.49,14.49,0,0,1-.91-4.52,5.19,5.19,0,0,0-.77-3.43c-.1-.12-.25,0-.15.12.82,1,.66,2.36.68,3.57a11.68,11.68,0,0,0,.42,2.71c.33,1.25,2.21,5.09-.51,4.82,0,0,0,0,0,0Z"/><path class="cls-1" d="M13,16.84c0-.44-.53-.74-.83-1-1-.79-1.5-2-2.38-2.89,0,0-.12,0-.09.05a17.81,17.81,0,0,0,3.26,3.84s.05,0,.05,0Z"/><path class="cls-1" d="M14.28,16.69c-.09-.27-.36-.31-.57-.47a9.18,9.18,0,0,1-1-.87s-.28-.11-.26-.06c.09.24.72.74.91.9a3.34,3.34,0,0,0,.44.3,1,1,0,0,1,.4.27c0,.05.11,0,.09-.06Z"/><path class="cls-1" d="M13,15.61c-.67-.64-1-1.66-1.67-2.38a10.89,10.89,0,0,0-.94-.91c-.52-.46-.94-1-1.44-1.47a0,0,0,0,0-.07.06,19.18,19.18,0,0,0,2.51,2.67c.53.59.83,1.73,1.57,2.08,0,0,.05,0,0-.06Z"/><path class="cls-1" d="M14.54,16.54c0-1.32-1.12-2.48-1.64-3.66a14.08,14.08,0,0,0-2.33-3.94.06.06,0,0,0-.1.06,6.63,6.63,0,0,0,1,1.35,10.46,10.46,0,0,1,1.16,2.32,12,12,0,0,0,.84,1.68,5.36,5.36,0,0,1,1,2.21c0,.06.09,0,.09,0Z"/><path class="cls-1" d="M15.18,15.55c-1.13-1.42-.76-3.5-2-4.94a.09.09,0,0,0-.15.12,8.76,8.76,0,0,1,1.28,3.21,2.58,2.58,0,0,0,.85,1.62s0,0,0,0Z"/><path class="cls-1" d="M7.54,12.9c.42-.18.87-.5.79-1a.16.16,0,0,0-.31,0c.06.36-.31.56-.6.68a.16.16,0,0,0,.12.29Z"/><path class="cls-1" d="M7.43,12.72c-.13-.26-.21-.44-.05-.69s.37-.3.47-.51c0,0,0-.08-.06-.07-.27,0-.51.37-.62.59a.78.78,0,0,0,.18.8c0,.06.12,0,.09-.07Z"/><path class="cls-1" d="M6,11.51a.75.75,0,0,0,.77-.05c.2-.1.46-.34.39-.58a0,0,0,0,0-.07,0,1.73,1.73,0,0,1-.35.44.74.74,0,0,1-.68.14s0,0,0,0Z"/><path class="cls-1" d="M6,11.51a3.48,3.48,0,0,1,.43-.45,1,1,0,0,1,.39-.18c.1,0,.2,0,.3,0s0-.06,0-.08c-.33-.3-1.25.31-1.15.73a0,0,0,0,0,0,0Z"/><path class="cls-1" d="M11.26,7.29a.57.57,0,0,1,.22-.54.61.61,0,0,1,.25-.12c.08,0,.14,0,.2-.05s0-.05,0-.07-.46,0-.58.17a.58.58,0,0,0-.14.63,0,0,0,0,0,0,0Z"/><path class="cls-1" d="M11.23,7.41a.85.85,0,0,0,.7-.3c.13-.15.18-.54,0-.64a0,0,0,0,0-.05,0,.43.43,0,0,0,0,.25.36.36,0,0,1-.11.32c-.15.16-.38.17-.54.29a0,0,0,0,0,0,.06Z"/><path class="cls-1" d="M12,7.68a3.63,3.63,0,0,1,.45-.43,1,1,0,0,1,.38-.16c.11,0,.21,0,.31,0s.08-.12.07-.14c-.22-.44-1.3.34-1.25.75,0,0,0,0,0,0Z"/><path class="cls-1" d="M11.95,7.71c.23.22.6.07.83-.08s.57-.48.46-.73a.05.05,0,0,0-.08,0,.69.69,0,0,0-.14.23,1.11,1.11,0,0,1-.26.3.73.73,0,0,1-.74.17.07.07,0,0,0-.07.13Z"/><path class="cls-1" d="M13,9.31c.09.19.39.16.56.13s.49-.13.5-.36A0,0,0,0,0,14,9a.87.87,0,0,1-.9.18c-.06,0-.13,0-.1.08Z"/><path class="cls-1" d="M13,9.18a1.43,1.43,0,0,1,.54-.32.62.62,0,0,1,.32,0c.09,0,.15.1.25.11a0,0,0,0,0,.05-.06c0-.26-.46-.25-.64-.21s-.5.22-.54.45c0,0,0,0,0,0Z"/><path class="cls-1" d="M12.66,8.39a1,1,0,0,0,.84,0c.21-.09.58-.29.42-.52,0,0-.17-.12-.18-.1a1,1,0,0,0-.08.24.5.5,0,0,1-.27.26,1.34,1.34,0,0,1-.72.1,0,0,0,0,0,0,0Z"/><path class="cls-1" d="M12.67,8.44a.82.82,0,0,1,.6-.51,1.06,1.06,0,0,1,.37,0c.11,0,.17.07.28,0a0,0,0,0,0,0-.05c-.08-.25-.59-.21-.79-.15a.64.64,0,0,0-.52.67,0,0,0,0,0,0,0Z"/><path class="cls-1" d="M13.24,10.17a.83.83,0,0,0,.49.43c.17.07.5.1.62-.07s0-.08,0-.08a1.33,1.33,0,0,0-.23,0,.58.58,0,0,1-.29,0c-.2-.07-.3-.23-.46-.35a.06.06,0,0,0-.09.07Z"/><path class="cls-1" d="M13.29,10.18a.5.5,0,0,1,.51-.06l.28.12c.08,0,.13.12.2.16s0,0,0,0c0-.21-.36-.38-.54-.43s-.42-.06-.53.15c0,0,0,.1,0,.08Z"/><path class="cls-1" d="M5.24,10.6c.1.16.6.05.74,0s.64-.26.49-.51a.06.06,0,0,0-.08,0c-.07.07-.08.17-.16.24a.9.9,0,0,1-.39.17,1.68,1.68,0,0,1-.38,0c-.07,0-.13,0-.19,0a0,0,0,0,0,0,.07Z"/><path class="cls-1" d="M5.2,10.65a1.7,1.7,0,0,1,.54-.54.58.58,0,0,1,.42,0c.1,0,.16.08.27.07a.06.06,0,0,0,0-.08c-.09-.29-.54-.23-.75-.15a1.06,1.06,0,0,0-.61.71c0,.05.07.07.09,0Z"/><path class="cls-1" d="M6.18,12.85c.29-.06.79-.46.67-.8a0,0,0,0,0-.06,0,3.75,3.75,0,0,1-.26.41,2.39,2.39,0,0,1-.38.26.06.06,0,0,0,0,.1Z"/><path class="cls-1" d="M6.21,12.75c-.23-.37.28-.6.54-.73.07,0,.07-.17,0-.17-.41,0-1,.63-.6,1,.06,0,.11,0,.08-.09Z"/><path class="cls-1" d="M8,13.89c0-.25-.11-.4,0-.62s.31-.3.34-.48a0,0,0,0,0-.05-.05c-.21.06-.37.36-.47.55a.6.6,0,0,0,.07.66s.09,0,.09-.06Z"/><path class="cls-1" d="M7.91,14a1.36,1.36,0,0,0,.62-.63c.09-.21.08-.66-.19-.74a.05.05,0,0,0-.07.06c0,.13.1.23.14.35a.52.52,0,0,1-.05.36,2.83,2.83,0,0,1-.46.57,0,0,0,0,0,0,0Z"/><path class="cls-1" d="M13.77,9.69a.75.75,0,0,0,.63.11c.16,0,.57-.15.57-.35a0,0,0,0,0-.05,0c-.07,0-.09,0-.14.08a1,1,0,0,1-.31.16,1.05,1.05,0,0,1-.66,0s-.07,0,0,.06Z"/><path class="cls-1" d="M14.09,9.38a1.75,1.75,0,0,1,.35,0,.52.52,0,0,1,.38.14s.17,0,.16,0-.37-.23-.52-.26-.34,0-.39.15a0,0,0,0,0,0,0Z"/><path class="cls-1" d="M11.08,6.48a.63.63,0,0,1,.38-.57c.22-.11.41,0,.63-.07a0,0,0,0,0,0-.07c-.15-.25-.6-.09-.79,0s-.49.44-.3.69a0,0,0,0,0,.05,0Z"/><path class="cls-1" d="M11.84,6.26A.68.68,0,0,0,12,5.75.1.1,0,0,0,12,5.68h0a.1.1,0,0,0-.08.08,1.93,1.93,0,0,0,0,.26,1.58,1.58,0,0,0,0,.23s0,0,0,0Z"/><path class="cls-1" d="M12.55,6.54a1,1,0,0,1,.49,0,.84.84,0,0,0,.41,0,0,0,0,0,0,0-.05A.48.48,0,0,0,13,6.38a1.06,1.06,0,0,0-.51.11s0,.06,0,.05Z"/><path class="cls-1" d="M13.47,6.79c.06-.07.07-.25,0-.28a0,0,0,0,0,0,0,.12.12,0,0,0,0,.12,1,1,0,0,0,.06.15s0,0,0,0Z"/><path class="cls-1" d="M5.16,12l0,0s.07,0,0-.05a.36.36,0,0,0-.12,0c-.08,0-.19.1-.1.12a1.79,1.79,0,0,0,.6,0c.12,0,.33-.07.37-.2a.05.05,0,0,0,0-.07c-.12,0-.23.09-.34.12a3,3,0,0,1-.57,0s.09.07.09.11l.13,0,0,0,0,0Z"/><path class="cls-1" d="M5,12a.94.94,0,0,1,.2-.61c.11-.14.3-.24.38-.4a0,0,0,0,0,0-.06c-.21,0-.4.3-.51.47A.63.63,0,0,0,5,12s.05,0,.06,0Z"/><path class="cls-1" d="M8.79,14c.37.11.58-.66.5-.91,0,0,0,0-.07,0a1.13,1.13,0,0,0-.16.47,1.05,1.05,0,0,1-.28.4,0,0,0,0,0,0,0Z"/><path class="cls-1" d="M8.86,13.92a.48.48,0,0,1-.07-.26c0-.09,0-.18,0-.27a0,0,0,0,0-.08,0,.41.41,0,0,0,0,.62s.09,0,.07-.06Z"/><path class="cls-1" d="M9.77,14.42a1.3,1.3,0,0,1-.19-.34c0-.1,0-.23-.07-.31a0,0,0,0,0-.06,0,.47.47,0,0,0,0,.33.9.9,0,0,0,.26.41s.1,0,.07-.09Z"/><path class="cls-1" d="M9.74,14.52a.52.52,0,0,0,.11-.8s-.06,0-.06,0,0,.24,0,.36a1,1,0,0,1-.12.36s0,.06.05.05Z"/><path class="cls-1" d="M6.83,13.69c.32,0,1-.34.91-.75a0,0,0,0,0-.08,0,2,2,0,0,0-.14.23.79.79,0,0,1-.27.23c-.14.09-.31.13-.44.22a0,0,0,0,0,0,.08Z"/><path class="cls-1" d="M6.9,13.62a.6.6,0,0,1-.11-.6,1.48,1.48,0,0,1,.36-.53c.08-.09-.05-.18-.13-.13-.32.2-.8,1.19-.21,1.31,0,0,.1,0,.09-.05Z"/><path class="cls-1" d="M13.42,7.44a1.15,1.15,0,0,1,.48.16c.13.06.25.24.39.23l0,0c0-.17-.19-.3-.31-.36a.77.77,0,0,0-.6,0s0,0,0,0Z"/><path class="cls-1" d="M13.84,8.43c.2-.15.58-.46.41-.76a.08.08,0,0,0-.16,0,1.12,1.12,0,0,1-.29.68,0,0,0,0,0,0,0Z"/><path class="cls-1" d="M6.18,10.89a3.9,3.9,0,0,0,.5-.26.65.65,0,0,1,.3-.06c.11,0,.21.07.32.07a0,0,0,0,0,0-.07.54.54,0,0,0-.57-.13,1,1,0,0,0-.59.44Z"/><path class="cls-1" d="M5.73,9.7c.16-.1.35,0,.52,0a0,0,0,0,0,0-.06A.43.43,0,0,0,6,9.51a.28.28,0,0,0-.3.14s0,.08.06.06Z"/><path class="cls-1" d="M8.59,12.42a1.32,1.32,0,0,0,.1-.35.58.58,0,0,0,0-.39,0,0,0,0,0-.07,0,.61.61,0,0,0,0,.32,1.73,1.73,0,0,1,0,.4s0,0,.06,0Z"/><path class="cls-1" d="M9,12.45a1.44,1.44,0,0,0,0-.3.38.38,0,0,0-.09-.29s-.05,0-.06,0a.63.63,0,0,0,0,.24,1.42,1.42,0,0,1,0,.32s0,0,0,0Z"/><path class="cls-1" d="M5.08,12.4l.13,0,.18,0c.11,0,.26,0,.32-.14a0,0,0,0,0,0,0,1.36,1.36,0,0,0-.31.09l-.17,0-.13,0s0,0,0,0Z"/><path class="cls-1" d="M4.83,11.44a1.19,1.19,0,0,1,.11-.21c0-.07.13-.14.11-.22a0,0,0,0,0,0,0c-.1,0-.16.11-.2.19a.34.34,0,0,0,0,.28,0,0,0,0,0,0,0Z"/><path class="cls-1" d="M11.3,5.59a2.06,2.06,0,0,1,.42-.14,3,3,0,0,0,.39-.05,0,0,0,0,0,0-.06.73.73,0,0,0-.82.24,0,0,0,0,0,0,0Z"/><path class="cls-1" d="M14.31,10.07a.83.83,0,0,0,.82-.35,0,0,0,0,0-.05,0c-.13,0-.23.14-.36.2a1.78,1.78,0,0,1-.42.11,0,0,0,0,0,0,.09Z"/><path class="cls-1" d="M14.63,10.27a.81.81,0,0,0,.39-.14s0,0,0,0-.25.12-.38.16Z"/><path class="cls-1" d="M13.65,10.79a1.34,1.34,0,0,0,.77.29,0,0,0,0,0,0,0,5.2,5.2,0,0,1-.77-.26Z"/><path class="cls-1" d="M6.12,11.75a.92.92,0,0,0,.83-.1c.19-.11.47-.4.36-.64a0,0,0,0,0-.07,0,1.27,1.27,0,0,0-.09.25.68.68,0,0,1-.31.32,1.55,1.55,0,0,1-.71.14s0,0,0,0Z"/><path class="cls-1" d="M7.59,12.17c.07-.09.23-.21.21-.33a0,0,0,0,0,0,0c-.14,0-.15.24-.19.35a0,0,0,0,0,0,0Z"/><path class="cls-1" d="M7,13.13a1.35,1.35,0,0,0,.09-.2c0-.07.08-.13.07-.2s0,0,0,0c-.19,0-.17.31-.14.43Z"/><path class="cls-1" d="M8.15,14.12c.16-.07.39-.23.36-.43,0,0,0,0-.05,0s-.11.15-.18.22a1.72,1.72,0,0,0-.17.18s0,.05,0,0Z"/><path class="cls-1" d="M5.26,11.82a1.14,1.14,0,0,0,.31-.09.37.37,0,0,0,.21-.17s0-.06,0-.05a1,1,0,0,0-.26.12,1.06,1.06,0,0,0-.25.15,0,0,0,0,0,0,0Z"/><path class="cls-1" d="M11.37,6.36a1.5,1.5,0,0,0,.2-.16c.06-.05.13-.11.12-.19a0,0,0,0,0,0,0c-.08,0-.12.05-.17.11a.74.74,0,0,0-.17.21s0,.09.07.07Z"/><path class="cls-1" d="M12.74,8.91a1.59,1.59,0,0,0,.44-.25,0,0,0,0,0,0,0,1.56,1.56,0,0,0-.45.24s0,0,0,0Z"/><path class="cls-1" d="M11.85,13.65a5,5,0,0,0-1.26-1.6c-.42-.39-.88-.74-1.28-1.17a8.2,8.2,0,0,1-.86-1.28c0-.05-.11,0-.09.05.68,1.76,2.61,2.39,3.46,4a0,0,0,1,0,0,0Z"/><path class="cls-1" d="M11.65,11.25a5.1,5.1,0,0,0-1.1-1.44C10,9.16,10,8.24,9.48,7.57a.05.05,0,0,0-.09.05c.34.66.54,1.37.91,2s1,1,1.3,1.63a0,0,0,0,0,.05,0Z"/><path class="cls-1" d="M2.75,15.2c.76,1,2.3,1.26,3.45,1.45a5.64,5.64,0,0,1,2.49.71c.55.38.88,1,1.55,1.23,0,0,0,0,0,0-1-.67-1.62-1.6-2.86-1.87-1.65-.35-3.27-.36-4.63-1.52,0,0,0,0,0,0Z"/><path class="cls-1" d="M11.16,2.94a3.28,3.28,0,0,1,3.66.22,5,5,0,0,1,2.09,3.07c0,.06.11,0,.11,0A4,4,0,0,0,14.58,3c-1.07-.54-2.44-.95-3.43,0Z"/><path class="cls-1" d="M14.45,18v0a0,0,0,0,0,.05,0,.45.45,0,0,0,.12-.18h-.12c.14.31-.18.41-.24.67,0,.1,0,.22.11.26.44.12.43-.22.49-.58a0,0,0,0,0-.07,0c-.11.11.16.15.25.17a.06.06,0,0,0,.06-.07,1.47,1.47,0,0,0-.16-.46l-.09.07c.12.07.44.46.59.23s-.13-.41-.3-.47c0,0,0,0,0,0a1,1,0,0,0,.78.07.2.2,0,0,0,0-.37s0,0,0,0c.16.4-.53.37-.74.29.23.08.26.49,0,.29a2.13,2.13,0,0,0-.26-.2s-.12,0-.09.07a1.26,1.26,0,0,1,.16.44l.08-.06a.55.55,0,0,1-.29-.16.06.06,0,0,0-.1,0,.22.22,0,0,0,0,.21,0,0,0,0,0,.07,0c0-.06,0,0,0,.07s-.1.23-.35.18a2,2,0,0,1,.21-.35.37.37,0,0,0,0-.4.07.07,0,0,0-.12,0c0,.09-.06.11,0,.16s0,0,0,0Z"/><path class="cls-1" d="M14.32,18.59a.44.44,0,0,0,.06-.31.09.09,0,0,0-.18,0c0,.07,0,.24,0,.29s.08,0,.11,0Z"/><path class="cls-1" d="M14.35,18.12a3.9,3.9,0,0,1,.43-.38c.21-.15.61-.1.85-.17,0,0,0-.12-.07-.12a1.54,1.54,0,0,0-1.37.64s.15,0,.17,0Z"/><path class="cls-1" d="M15,17.27c1.25-.44,2.33-.31,3-1.68.53-1.12-.24-2.49-.69-3.49,0,0-.07,0-.06,0,.24,1,.9,1.92.75,3-.21,1.56-1.83,1.66-3,2.12,0,0,0,0,0,0Z"/><path class="cls-1" d="M12.41,18.53c.77,0,1.69-1.28,1-1.91,0,0-.07,0-.07,0,.05.35.26.57.1.94a1.81,1.81,0,0,1-1,.91s0,0,0,0Z"/><path class="cls-1" d="M1.81,9.73A4.67,4.67,0,0,1,6.6,7.62a.08.08,0,0,0,0-.16c-1.76-.64-4.11.64-4.86,2.25,0,0,0,0,0,0Z"/><path class="cls-1" d="M9,6.38a28.64,28.64,0,0,0,1.86-3.11.08.08,0,0,0-.12-.09c-.8.94-1,2.2-1.75,3.2,0,0,0,0,0,0Z"/><path class="cls-1" d="M12.71,10.51h0l0,0h.25c.06,0,.23,0,.22-.07s-.18-.08-.24-.08a.39.39,0,0,0-.26.06s0,.11,0,.08Z"/><path class="cls-1" d="M12.39,10.23a1.09,1.09,0,0,0,.37-.07c.05,0,.3,0,.22-.15s-.28,0-.37,0-.22.06-.24.17a0,0,0,0,0,0,0Z"/><path class="cls-1" d="M12.11,10c.15-.05.3-.11.46-.15a1.08,1.08,0,0,0,.35-.09,0,0,0,0,0,0-.06.63.63,0,0,0-.37,0,1.06,1.06,0,0,0-.45.23s0,0,0,0Z"/><path class="cls-1" d="M11.8,9.62a3.15,3.15,0,0,1,.54-.15,1.08,1.08,0,0,0,.46-.14,0,0,0,0,0,0-.08,1.45,1.45,0,0,0-.47.11,1.22,1.22,0,0,0-.51.25s0,0,0,0Z"/><path class="cls-1" d="M11.75,9.24a1.61,1.61,0,0,0,.36-.16c.1-.06.24-.11.29-.22a0,0,0,0,0,0-.06,1,1,0,0,0-.31.18,1.38,1.38,0,0,0-.31.23,0,0,0,0,0,0,0Z"/><path class="cls-1" d="M11.67,8.9a1,1,0,0,0,.21-.14c.06,0,.16-.12.18-.19a0,0,0,0,0,0-.06c-.09,0-.15.09-.21.15a1.85,1.85,0,0,0-.16.21,0,0,0,0,0,0,0Z"/><path class="cls-1" d="M10.41,7.65a1.71,1.71,0,0,1,0-.66,1.47,1.47,0,0,1,.13-.36,1.13,1.13,0,0,0,.13-.27s0,0,0,0c-.21.07-.27.41-.3.6a1.06,1.06,0,0,0,.08.73Z"/><path class="cls-1" d="M10.55,7.47a1.46,1.46,0,0,1,.14-.52c.06-.12.22-.28.18-.42a0,0,0,0,0,0,0c-.16,0-.24.3-.29.44a.85.85,0,0,0,0,.54s0,0,0,0Z"/><path class="cls-1" d="M10.84,7.49A2.12,2.12,0,0,1,11,7.21.6.6,0,0,0,11.08,7a0,0,0,0,0-.06,0c-.18.09-.22.39-.25.57a0,0,0,0,0,.07,0Z"/><path class="cls-1" d="M6.88,10.14l.25,0c.08,0,.17,0,.23-.07a0,0,0,0,0,0-.05.25.25,0,0,0-.21,0,.84.84,0,0,0-.28.07.05.05,0,0,0,0,.1Z"/><path class="cls-1" d="M6.72,9.92a1.74,1.74,0,0,0,.36-.08c.11,0,.28,0,.36-.1a0,0,0,0,0,0-.05c-.08-.09-.23,0-.34,0a.86.86,0,0,0-.41.17s0,.08,0,.08Z"/><path class="cls-1" d="M6.48,9.58a3,3,0,0,1,.41-.1,1.29,1.29,0,0,0,.39-.05s0,0,0-.06a.66.66,0,0,0-.42,0,.73.73,0,0,0-.4.2s0,0,0,0Z"/><path class="cls-1" d="M6.41,9.22c.17,0,.33,0,.5,0s.27,0,.37,0a0,0,0,0,0,0-.07C7.18,9,7,9,6.86,9a.7.7,0,0,0-.47.16s0,.05,0,0Z"/><path class="cls-1" d="M6.56,8.89h.19a.31.31,0,0,0,.18,0A0,0,0,0,0,7,8.8c-.09-.13-.33-.06-.42,0a0,0,0,0,0,0,.07Z"/><path class="cls-1" d="M9.52,13.12a1.68,1.68,0,0,0,.17-.35,1.31,1.31,0,0,1,.13-.22c0-.06.09-.09.11-.16a0,0,0,0,0,0-.05c-.14,0-.22.19-.26.3a1.47,1.47,0,0,0-.12.46,0,0,0,0,0,0,0Z"/><path class="cls-1" d="M9.27,13.07a1.59,1.59,0,0,0,.11-.47c0-.16.13-.36.09-.52a0,0,0,0,0-.06,0c-.15.08-.16.29-.19.44a2,2,0,0,0,0,.57,0,0,0,0,0,.07,0Z"/><path class="cls-1" d="M9,13.07a1.46,1.46,0,0,1,.09-.25c0-.08.1-.15.09-.23a0,0,0,0,0-.06,0c-.09,0-.13.16-.16.24a.49.49,0,0,0,0,.27,0,0,0,0,0,.05,0Z"/><path class="cls-1" d="M8.79,13a1.07,1.07,0,0,0,.1-.32,0,0,0,0,0-.06,0c-.11.05-.13.2-.16.31s.09.13.12,0Z"/><path class="cls-1" d="M9.62,13.46a.66.66,0,0,1,.09-.24s0-.06,0,0a.24.24,0,0,0-.16.29c0,.07.12.07.12,0Z"/><path class="cls-1" d="M3.9,14.22A3.12,3.12,0,0,1,3.15,11c.39-1.51,1.71-2.63,3.18-1.65a.07.07,0,0,0,.08-.12c-2.67-2.07-4.93,3.33-2.53,5,0,0,0,0,0,0Z"/><path class="cls-1" d="M4,13.78c-1-.87-.74-2.64,0-3.57.05-.07,0-.15-.1-.1-1,.75-1,3,.1,3.68,0,0,0,0,0,0Z"/><path class="cls-1" d="M6.93,15.33A10,10,0,0,1,9.8,16.56a8.83,8.83,0,0,0,2,1.2c.58.18,1.62-.54,1.19-1.14-.05-.07-.23,0-.19,0,.24.45-.22.76-.53.91A1.35,1.35,0,0,1,11,17.32c-.4-.24-.75-.57-1.13-.84a5.9,5.9,0,0,0-2.92-1.16s0,0,0,0Z"/><path class="cls-1" d="M8.42,15.41a11.54,11.54,0,0,0,1.47.74,16,16,0,0,1,1.38.91,1,1,0,0,0,1.41-.13.07.07,0,0,0-.11-.08c-.68.86-1.68-.13-2.25-.52a12.85,12.85,0,0,0-1.9-.94,0,0,0,0,0,0,0Z"/><path class="cls-1" d="M11.2,16.57a1.62,1.62,0,0,0,.48.22.8.8,0,0,0,.53,0s0-.06,0-.08-.33,0-.47,0a1.28,1.28,0,0,1-.53-.12Z"/><path class="cls-1" d="M10.88,5.63A2.09,2.09,0,0,1,14,4.4c1,.8.91,2.38,1.17,3.52,0,0,.07,0,.07,0,0-1.48-.13-3.42-1.74-4a2.17,2.17,0,0,0-2.66,1.7s0,0,0,0Z"/><path class="cls-1" d="M14.51,12.91c.37.77.25,1.82,1,2.32a.68.68,0,0,0,1.07-.53s-.06-.07-.08,0c-.15.26-.27.54-.64.52a1,1,0,0,1-.63-.45,3.06,3.06,0,0,1-.32-.81,6.42,6.42,0,0,0-.42-1Z"/><path class="cls-1" d="M16,14.83c.93-1.18-.16-3.17-.66-4.32a.06.06,0,0,0-.11,0c.29,1.56,1.31,2.62.75,4.28Z"/><path class="cls-1" d="M12.9,4.23c1.2.24,1.29,1.28,1.85,2.17,0,0,.08,0,.07,0-.1-.82-.88-2.43-1.92-2.16,0,0,0,0,0,0Z"/><path class="cls-1" d="M5.2,14.74a1,1,0,0,0,.33-.11c.1,0,.23-.08.26-.19a0,0,0,0,0,0-.05.62.62,0,0,0-.3.08.64.64,0,0,0-.31.19.05.05,0,0,0,.05.08Z"/><path class="cls-1" d="M4.8,14.5a1.22,1.22,0,0,0,.41-.14c.11-.06.24-.13.27-.26s0,0,0,0-.2.13-.3.19a4,4,0,0,0-.34.24s0,0,0,0Z"/><path class="cls-1" d="M4.54,14.19A1.62,1.62,0,0,0,4.93,14c.11-.06.25-.12.28-.25a0,0,0,0,0,0,0c-.13,0-.22.11-.32.17a1.29,1.29,0,0,0-.34.25,0,0,0,0,0,0,0Z"/><path class="cls-1" d="M4.31,13.81a1.61,1.61,0,0,0,.41-.14c.1,0,.26-.09.29-.21a.05.05,0,0,0,0-.07c-.12,0-.23.05-.34.11a.9.9,0,0,0-.37.25,0,0,0,0,0,0,.05Z"/><path class="cls-1" d="M4,13.33c.16,0,.32,0,.48-.08s.26,0,.29-.16a0,0,0,0,0,0,0c-.11-.06-.27,0-.38,0a.9.9,0,0,0-.41.15.05.05,0,0,0,0,.09Z"/><path class="cls-1" d="M3.76,12.77a1.51,1.51,0,0,0,.37,0,.66.66,0,0,0,.37,0s0-.06,0-.07a.81.81,0,0,0-.37,0,.74.74,0,0,0-.38.07,0,0,0,0,0,0,.06Z"/><path class="cls-1" d="M3.73,12.28a1.64,1.64,0,0,0,.35,0,.7.7,0,0,0,.36,0,0,0,0,0,0,0-.06.63.63,0,0,0-.35-.07.74.74,0,0,0-.36.05,0,0,0,0,0,0,0Z"/><path class="cls-1" d="M3.92,11.87a.64.64,0,0,0,.23,0,.52.52,0,0,0,.25,0,0,0,0,0,0,0-.06.37.37,0,0,0-.26-.05.37.37,0,0,0-.24.07,0,0,0,0,0,0,.07Z"/><path class="cls-1" d="M4,11.47h.14a.31.31,0,0,0,.18,0,0,0,0,0,0,0-.05.21.21,0,0,0-.38,0,0,0,0,0,0,0,0Z"/><path class="cls-1" d="M4.24,11.16c.05,0,.09-.05.1-.11a0,0,0,0,0,0,0c-.06,0-.09,0-.13.07a.06.06,0,0,0,.07.09Z"/><path class="cls-1" d="M5.66,14.87a.5.5,0,0,0,.21,0c.07,0,.16-.07.18-.15s0,0,0,0-.12,0-.18.08l-.2.11s0,0,0,0Z"/><path class="cls-1" d="M6.21,14.92c.07,0,.15-.08.18-.16a0,0,0,0,0,0-.05c-.08,0-.14.08-.19.14s0,.09.05.07Z"/><path class="cls-1" d="M15.49,14.57a.84.84,0,0,0,.43-.13,1.15,1.15,0,0,0,.41-.35s0-.06,0-.05a1,1,0,0,0-.34.24,1.87,1.87,0,0,1-.46.28s0,0,0,0Z"/><path class="cls-1" d="M15.37,14.32c.31-.12.88-.46.91-.83a0,0,0,0,0-.06,0c-.17.13-.29.32-.45.46a2.33,2.33,0,0,0-.42.38s0,0,0,0Z"/><path class="cls-1" d="M15.46,13.76c.27-.14.83-.52.73-.9a0,0,0,0,0-.08,0c-.13.11-.17.29-.27.42s-.28.31-.41.47,0,.05,0,0Z"/><path class="cls-1" d="M15.35,13.28a1.27,1.27,0,0,0,.47-.53.85.85,0,0,0,.12-.65.06.06,0,0,0-.11,0,1.7,1.7,0,0,0-.17.52,2,2,0,0,1-.35.64s0,0,0,0Z"/><path class="cls-1" d="M15.27,12.55c.09-.17.19-.32.27-.49s.18-.33.08-.45a0,0,0,0,0-.06,0c-.13.07-.14.28-.18.4a2,2,0,0,0-.12.55Z"/><path class="cls-1" d="M15.07,11.76c.06-.1.11-.21.16-.31s.13-.21.11-.32a.06.06,0,0,0-.06,0c-.11,0-.15.13-.19.22s-.07.27-.11.4.06.1.09,0Z"/><path class="cls-1" d="M12.18,4.86a1.83,1.83,0,0,1,.22-.17c.06,0,.15-.09.16-.17a0,0,0,0,0,0,0c-.08,0-.14.07-.2.12a1.48,1.48,0,0,0-.18.23s0,0,0,0Z"/><path class="cls-1" d="M12.41,5.11a2.08,2.08,0,0,0,.34-.23c.12-.08.29-.12.39-.22a0,0,0,0,0,0-.08c-.28-.12-.61.29-.75.49,0,0,0,.05,0,0Z"/><path class="cls-1" d="M12.71,5.34l.43-.24c.12-.06.27-.05.36-.15a0,0,0,0,0,0-.05c-.12-.1-.3,0-.42.05a1.29,1.29,0,0,0-.4.34,0,0,0,0,0,0,0Z"/><path class="cls-1" d="M13.14,5.5a2.07,2.07,0,0,1,.3-.1c.08,0,.18,0,.25,0a0,0,0,0,0,0,0c-.05-.09-.19-.06-.28,0a1,1,0,0,0-.32.16s0,.08,0,.06Z"/><path class="cls-1" d="M13.41,5.84a.68.68,0,0,1,.23-.06,1.16,1.16,0,0,0,.21,0,0,0,0,0,0,0,0c-.13-.12-.35,0-.49,0s0,.13,0,.1Z"/><path class="cls-1" d="M13.88,6.15l.22,0a0,0,0,0,0,0,0,.22.22,0,0,0-.27-.08c-.06,0,0,.1,0,.1Z"/><path class="cls-1" d="M8.1,15.08l.29,0a.61.61,0,0,0,.26,0,0,0,0,0,0,0,0,1,1,0,0,0-.26,0l-.28,0a0,0,0,0,0,0,.06Z"/><path class="cls-1" d="M8.59,15.25a1.4,1.4,0,0,0,.53,0c.14,0,.33-.08.39-.22a0,0,0,0,0,0-.06.92.92,0,0,0-.35.12,1.52,1.52,0,0,1-.53.11s0,0,0,0Z"/><path class="cls-1" d="M9.29,15.54a4.14,4.14,0,0,0,.49-.12.74.74,0,0,0,.4-.19,0,0,0,0,0,0-.06,1.44,1.44,0,0,0-.43.14,2,2,0,0,0-.45.2s0,0,0,0Z"/><path class="cls-1" d="M9.88,15.73a1.1,1.1,0,0,0,.47-.1c.13,0,.33-.14.37-.28a.06.06,0,0,0-.06-.07c-.14,0-.26.13-.38.19s-.28.12-.41.19,0,.06,0,.06Z"/><path class="cls-1" d="M10.35,16.06a1.57,1.57,0,0,0,.48-.15.73.73,0,0,0,.38-.33s0-.08-.05-.06a1.24,1.24,0,0,0-.35.23,3,3,0,0,1-.47.26,0,0,0,0,0,0,.06Z"/><path class="cls-1" d="M10.78,16.3a3.26,3.26,0,0,0,.45-.18.65.65,0,0,0,.33-.25s0,0,0,0a.59.59,0,0,0-.3.15,3.17,3.17,0,0,1-.46.26s0,.08,0,.06Z"/><path class="cls-1" d="M11.42,16.41l.37-.16c.08,0,.19-.09.19-.19a0,0,0,0,0,0,0c-.1,0-.17.11-.24.17a3.29,3.29,0,0,1-.29.21,0,0,0,0,0,0,0Z"/><path class="cls-1" d="M12,16.44c.08,0,.17-.08.21-.16a0,0,0,0,0,0,0c-.09,0-.14.1-.21.17s0,.05,0,0Z"/><path class="cls-1" d="M2,1.2c.09-.06.16-.14.25-.21l-.11,0a1.06,1.06,0,0,0,.24.64c.22.19.46-.08.49-.3a0,0,0,0,0-.07,0c-.08.06-.14.17-.24.22s-.09,0-.12-.06A1.32,1.32,0,0,1,2.27.92a.07.07,0,0,0-.12,0A.47.47,0,0,0,2,1.18a0,0,0,0,0,0,0Z"/><path class="cls-1" d="M2.54,1.14A.67.67,0,0,0,3,1c.12-.09.21-.31.09-.44A.05.05,0,0,0,3,.58C3,.69,3,.8,2.87.9a1.52,1.52,0,0,1-.34.2s0,0,0,0Z"/><path class="cls-1" d="M2.29.69A.5.5,0,0,1,2.81.31.11.11,0,0,0,2.93.24v0a.11.11,0,0,0-.1-.13.5.5,0,0,0-.58.6s0,0,0,0Z"/><path class="cls-1" d="M2.08.59c.06-.14,0-.19.17-.28s.26-.08.37-.16.14-.09.1-.11c-.32-.18-.91.26-.79.6A0,0,0,0,0,2,.64Z"/><path class="cls-1" d="M4.39,4A6.06,6.06,0,0,1,7.74,5.32c.08.08.21,0,.13-.1A5.39,5.39,0,0,0,4.39,4s0,0,0,0Z"/><path class="cls-1" d="M7,7.93c.19.07.42-.06.57.13s.15.22.29.22A.33.33,0,0,0,8.15,8c0-.11.11-.36,0-.46a.07.07,0,0,0-.06,0C8,7.55,8,7.7,8,7.81s0,.26-.13.29S7.72,8,7.7,8A.54.54,0,0,0,7,7.9a0,0,0,0,0,0,0Z"/><path class="cls-1" d="M7.87,7.7c.42,0,1.19-.25,1.07-.8a.06.06,0,0,0-.1,0c-.13.2-.14.4-.38.52s-.42.11-.62.2a.06.06,0,0,0,0,.11Z"/><polygon class="cls-1" points="3.25 12.14 3.25 12.13 3.25 12.14 3.25 12.14"/><path class="cls-1" d="M3.32,12.17a2.63,2.63,0,0,1,1-.15c.15,0,.18-.23,0-.24a2,2,0,0,0-1.11.29.05.05,0,0,0,0,.09Z"/><path class="cls-1" d="M3.5,11.67a1.78,1.78,0,0,1,1.1-.1c.13,0,.16-.17,0-.22a1.55,1.55,0,0,0-1.23.15.09.09,0,0,0,.07.17Z"/><path class="cls-1" d="M3.47,11.16c.2,0,.41,0,.62-.05a4.73,4.73,0,0,0,.67,0,.07.07,0,0,0,0-.13,1.26,1.26,0,0,0-.61-.06,1.85,1.85,0,0,0-.7.14s0,.1,0,.1Z"/><path class="cls-1" d="M3.49,10.71a4.66,4.66,0,0,1,.64,0c.2,0,.4,0,.6.05s.11-.08,0-.12a2.18,2.18,0,0,0-1.33-.11c-.14,0-.11.23,0,.22Z"/><path class="cls-1" d="M3.59,10.15a3.93,3.93,0,0,1,1.63.29c.14,0,.27-.16.13-.24a3.14,3.14,0,0,0-1.79-.28c-.15,0-.12.25,0,.24Z"/><path class="cls-1" d="M3.94,9.46a4.53,4.53,0,0,1,.76.19c.26.09.49.25.74.35.08,0,.17-.08.11-.15a1.91,1.91,0,0,0-1.62-.49,0,0,0,0,0,0,.09Z"/><path class="cls-1" d="M4.5,9.2a4.24,4.24,0,0,1,.71.11,4.43,4.43,0,0,1,.64.38A.13.13,0,0,0,6,9.52,1.52,1.52,0,0,0,4.47,9c-.1,0-.06.18,0,.19Z"/><path class="cls-1" d="M5.66,9.11A2.11,2.11,0,0,0,6,9.29c.08,0,.2-.08.11-.16l-.08-.07A.35.35,0,0,0,6,9l-.23-.08a.09.09,0,0,0-.07.17Z"/><path class="cls-1" d="M10.55,6.56a.41.41,0,0,0,0-.2,1.06,1.06,0,0,1,0-.32,3.23,3.23,0,0,0,.08-.61c0-.06-.08-.06-.1,0a2.16,2.16,0,0,0-.13.65c0,.15,0,.41.15.49Z"/><path class="cls-1" d="M10.92,6.33a3.34,3.34,0,0,0,0-.73,5,5,0,0,1,.15-.78c0-.08-.1-.12-.14-.05a1.5,1.5,0,0,0-.21.81,1.3,1.3,0,0,0,.15.75Z"/><path class="cls-1" d="M11.37,5.59a2.35,2.35,0,0,1,.74-1.78c.1-.07,0-.23-.12-.15a2.3,2.3,0,0,0-.67,1.94,0,0,0,0,0,0,0Z"/><path class="cls-1" d="M12,5.3c.1-.27.15-.54.26-.81a3.59,3.59,0,0,1,.61-.83.08.08,0,0,0-.1-.12A1.69,1.69,0,0,0,12,5.3a0,0,0,0,0,0,0Z"/><path class="cls-1" d="M12.42,5.32a3,3,0,0,1,1.36-1.66s0-.09,0-.08a2,2,0,0,0-1.34,1.73Z"/><path class="cls-1" d="M12.81,5.73c.48-.6.74-1.42,1.59-1.57a.11.11,0,0,0,0-.22,2.16,2.16,0,0,0-1.58,1.78Z"/><path class="cls-1" d="M13.21,6a5.59,5.59,0,0,1,.65-.8,2.18,2.18,0,0,1,.46-.31c.18-.09.38-.09.56-.17a.11.11,0,0,0,0-.2c-.77-.31-1.58.84-1.71,1.47,0,0,0,0,.05,0Z"/><path class="cls-1" d="M13.73,6.13c.4-.4.8-.9,1.4-.94.15,0,.13-.23,0-.25-.65-.09-1.24.62-1.47,1.14,0,0,0,.09.08.06Z"/><path class="cls-1" d="M14.21,6.29a1.42,1.42,0,0,1,1.09-.51.13.13,0,0,0,0-.26,1.56,1.56,0,0,0-1.21.69c0,.05,0,.13.09.09Z"/><path class="cls-1" d="M14.58,6.6a.82.82,0,0,0,.35-.25,1.78,1.78,0,0,1,.56-.29.09.09,0,0,0,0-.16.59.59,0,0,0-.55.16.83.83,0,0,0-.36.54Z"/><path class="cls-1" d="M14.86,6.87a3.81,3.81,0,0,1,.35-.22,2.43,2.43,0,0,1,.36-.1c.09,0,0-.15,0-.16-.28-.06-.55.27-.72.44a0,0,0,0,0,0,0Z"/><path class="cls-1" d="M15.14,7.17c.1-.08.21-.12.32-.19a.12.12,0,0,0,0-.15.13.13,0,0,0-.13-.07.76.76,0,0,0-.4.19c-.15.11,0,.34.18.22Z"/><path class="cls-1" d="M4.77,14.62l.12,0s0,0,0,0l-.12,0Z"/><path class="cls-1" d="M4.52,14.69a.55.55,0,0,0,0-.21c0-.08,0-.16,0-.24s-.06-.09-.1-.05a.37.37,0,0,0-.1.28.28.28,0,0,0,.09.24,0,0,0,0,0,0,0Z"/><path class="cls-1" d="M5.16,15.06A1.21,1.21,0,0,1,5,14.62c0-.15,0-.31,0-.45a.09.09,0,0,0-.15-.06c-.14.12-.12.39-.09.55a1.1,1.1,0,0,0,.24.54.12.12,0,0,0,.18-.15Z"/><path class="cls-1" d="M5.88,15.44a1.53,1.53,0,0,1-.24-.89c0-.13-.2-.2-.24-.05a.78.78,0,0,0,.44,1,0,0,0,0,0,0,0Z"/><path class="cls-1" d="M6.45,15.58a2,2,0,0,0-.1-.21A1,1,0,0,1,6.28,15c0-.21,0-.42,0-.62s-.15-.08-.17,0a1.85,1.85,0,0,0,0,.82c0,.16.14.4.34.38,0,0,0,0,0,0Z"/><path class="cls-1" d="M7,15.71c-.28-.39-.17-.81-.29-1.24,0-.08-.14-.11-.17,0-.13.43-.07,1.14.41,1.33,0,0,.08,0,.05-.07Z"/><path class="cls-1" d="M7.52,15.82a2.61,2.61,0,0,1-.29-1c0-.07-.14-.1-.16,0a1.25,1.25,0,0,0,.4,1.09s.07,0,0,0Z"/><path class="cls-1" d="M8.2,16.05a1.82,1.82,0,0,1-.27-.61,6,6,0,0,0-.12-.61.09.09,0,0,0-.17,0A1.47,1.47,0,0,0,8,16.18a.1.1,0,0,0,.16-.13Z"/><path class="cls-1" d="M8.9,16.45a3.43,3.43,0,0,1-.45-1.14c0-.1-.17-.1-.18,0a1.56,1.56,0,0,0,.6,1.16,0,0,0,1,0,0,0Z"/><path class="cls-1" d="M9.55,16.8a2.56,2.56,0,0,1-.32-.94c0-.09-.16-.09-.16,0a1.23,1.23,0,0,0,.43,1s.09,0,.06-.06Z"/><path class="cls-1" d="M10.36,17.4a3.07,3.07,0,0,0-.35-.69,2.36,2.36,0,0,1-.21-.91.08.08,0,0,0-.16,0,1.32,1.32,0,0,0,.14.92c.12.24.3.6.57.69Z"/><path class="cls-1" d="M11.08,17.75a2.21,2.21,0,0,1-.37-.59,5.5,5.5,0,0,0-.26-.72.09.09,0,0,0-.16,0A1.46,1.46,0,0,0,11,17.85a.06.06,0,0,0,.07-.1Z"/><path class="cls-1" d="M11.94,18.11a2.63,2.63,0,0,1-.78-1.42.1.1,0,0,0-.19,0,1.75,1.75,0,0,0,.88,1.56.1.1,0,0,0,.09-.17Z"/><path class="cls-1" d="M12.56,18a2.4,2.4,0,0,1-.69-.86.11.11,0,0,0-.21.06,1.38,1.38,0,0,0,.76,1,.12.12,0,0,0,.14-.2Z"/><path class="cls-1" d="M12.93,17.63c-.26-.23-.48-.52-.76-.73a.07.07,0,0,0-.1.08,2.31,2.31,0,0,0,.77.77c.08.06.15-.06.08-.12Z"/><path class="cls-1" d="M13,17.3a4.5,4.5,0,0,1-.43-.45.09.09,0,0,0-.14.11,1.26,1.26,0,0,0,.53.41s.07,0,0-.07Z"/><path class="cls-1" d="M15.82,14.79a.88.88,0,0,0,1.13-.37c.06-.15-.18-.25-.24-.09-.12.32-.61.34-.89.46Z"/><path class="cls-1" d="M15.86,14.32c.29-.06,1-.24,1-.64a.05.05,0,0,0-.08,0,3,3,0,0,1-.41.35,2.26,2.26,0,0,1-.54.2c-.08,0-.06.14,0,.13Z"/><path class="cls-1" d="M15.49,13.57a2,2,0,0,0,1.24-.14c.1-.07,0-.2-.11-.17s-.37.15-.58.2a4.55,4.55,0,0,1-.56.08,0,0,0,0,0,0,0Z"/><path class="cls-1" d="M15.53,13a1.55,1.55,0,0,0,1.08-.15c.14-.11,0-.32-.18-.22a1.28,1.28,0,0,1-.89.21c-.1,0-.12.15,0,.16Z"/><path class="cls-1" d="M15.07,12.13a1.18,1.18,0,0,0,1.16-.25c.09-.09-.05-.21-.12-.12-.28.39-.63.27-1,.34a0,0,0,0,0,0,0Z"/><path class="cls-1" d="M15.37,11.4c.25-.09.76-.26.73-.59a.11.11,0,0,0-.18-.07,1.63,1.63,0,0,0-.18.3,1.07,1.07,0,0,1-.38.35s0,0,0,0Z"/><path class="cls-1" d="M15.19,10.88a1.79,1.79,0,0,0,.65-1.17c0-.15-.2-.16-.23,0a2.19,2.19,0,0,1-.48,1.13s0,.1.05.07Z"/><path class="cls-1" d="M15.32,9.5c.11,0,.18-.16.24-.25a1,1,0,0,0,.18-.4.11.11,0,0,0-.2-.07.94.94,0,0,0-.15.38.92.92,0,0,0-.07.34Z"/><path class="cls-1" d="M15,8.79a1.66,1.66,0,0,0,.69-1.18c0-.13-.19-.1-.21,0a2.2,2.2,0,0,1-.22.63,2.42,2.42,0,0,0-.26.55Z"/><path class="cls-1" d="M14.19,14.14a7.55,7.55,0,0,0-1.2-3s-.08,0-.06,0c.45,1,.75,2.06,1.26,3Z"/><path class="cls-1" d="M13.88,15.59c-.28-.74-.82-1.33-1.12-2.07a7.39,7.39,0,0,0-1-2,.08.08,0,0,0-.12.1,9.94,9.94,0,0,1,1.06,2.18,15.46,15.46,0,0,0,1.19,1.77Z"/><path class="cls-1" d="M7.73,11.14a1.15,1.15,0,0,0,.4.07,4.18,4.18,0,0,1,.54.14.07.07,0,0,0,0-.13,1.73,1.73,0,0,0-.53-.15.65.65,0,0,0-.46.06Z"/><path class="cls-1" d="M7.63,10.79a3.94,3.94,0,0,1,.53,0,3,3,0,0,1,.52.11s.06-.05,0-.07a1.76,1.76,0,0,0-1.09-.14c-.08,0-.06.13,0,.12Z"/><path class="cls-1" d="M7.83,10.38a.65.65,0,0,1,.34,0,.63.63,0,0,0,.33.08.07.07,0,0,0,0-.11.76.76,0,0,0-.74-.13c-.07,0,0,.13,0,.12Z"/><path class="cls-1" d="M7.67,9.93,8,10a1.6,1.6,0,0,0,.33.09.1.1,0,0,0,.07-.18,1,1,0,0,0-.69-.08s-.05.07,0,.08Z"/><path class="cls-1" d="M7.69,9.5A1.23,1.23,0,0,1,8,9.6a.09.09,0,0,0,.08-.15.64.64,0,0,0-.43-.12c-.1,0-.09.17,0,.17Z"/><path class="cls-1" d="M7.67,9.09a.14.14,0,0,0,.15,0,.06.06,0,0,0,0-.12L7.76,9c-.06,0-.14,0-.09.09Z"/><path class="cls-1" d="M9.87,6.43a7.16,7.16,0,0,1,.51-1.26,13.25,13.25,0,0,1,.85-1.09c.1-.14-.09-.33-.22-.21A3.7,3.7,0,0,0,9.86,6.42Z"/><path class="cls-1" d="M13.26,3.1c.33.15.68.3,1,.48a6.38,6.38,0,0,1,.82.66.06.06,0,0,0,.1-.08,2.18,2.18,0,0,0-1.91-1.06s0,0,0,0Z"/><path class="cls-1" d="M16.39,10.88c0-.86-.16-1.71-.17-2.57A5.17,5.17,0,0,0,16,6.19a.12.12,0,0,0-.22.07,18.09,18.09,0,0,0,.61,4.62Z"/><path class="cls-1" d="M3.67,15a5.13,5.13,0,0,1-1.55-2c-.4-1.11.21-2.06.58-3.07a.07.07,0,0,0-.12-.06A3.28,3.28,0,0,0,3.67,15Z"/><path class="cls-1" d="M1.56,13.21c0-.38-.06-.74-.05-1.12s.19-.7.18-1.06A.14.14,0,0,0,1.42,11a2.87,2.87,0,0,0,.13,2.24Z"/><path class="cls-1" d="M11.1,11.64c-.31-.12-.68-.15-.52-.51a.38.38,0,0,0,0-.31c-.12-.27-.58-.22-.81-.25s-.34-.31-.07-.45A2,2,0,0,0,10,10c.07,0,.15-.1.15-.19s-.11-.21-.23-.3a.83.83,0,0,0-.31-.12c-.43-.11-.48-.64-.67-1a.09.09,0,0,0-.16.07c.16.45.26.91.76,1.06.66.19-.06.46-.18.73-.28.68,1.5,0,.93,1a.06.06,0,0,0,0,.08,1.69,1.69,0,0,0,.81.27s0,0,0,0Z"/><path class="cls-1" d="M9.26,8.71c-.07-.28-.12-.57-.18-.85,0-.13-.23-.1-.21,0a2,2,0,0,0,.38.83Z"/><path class="cls-1" d="M12,19.38a.14.14,0,0,0,0-.06l-.07-.08a1,1,0,0,0-.16-.16.06.06,0,0,0-.08.07.54.54,0,0,0,.13.17.2.2,0,0,0,.19.06Z"/><path class="cls-1" d="M12.6,19.35a1.27,1.27,0,0,0-.24-.22c-.09-.08-.17-.17-.26-.24A.09.09,0,0,0,12,19a.91.91,0,0,0,.24.27.69.69,0,0,0,.34.19.06.06,0,0,0,.05-.1Z"/><path class="cls-1" d="M13,19.14a3.69,3.69,0,0,0-.35-.38c-.07-.07-.21,0-.15.13a1.19,1.19,0,0,0,.39.37c.08.05.18,0,.11-.12Z"/><path class="cls-1" d="M13,18.72l.17.08a.58.58,0,0,0,.18,0,.1.1,0,1,0,0-.2l-.16,0-.19.05Z"/><path class="cls-1" d="M13.41,18.42a1,1,0,0,0,.35-.08c.07,0,0-.14,0-.15a.52.52,0,0,0-.35.13.06.06,0,0,0,0,.1Z"/><path class="cls-1" d="M15.67,16.61a.19.19,0,0,0,.15-.23c0-.08-.13,0-.14,0a.28.28,0,0,0,0,.1.19.19,0,0,1,0,.1Z"/><path class="cls-1" d="M16,16.61a.79.79,0,0,0,.2-.29.42.42,0,0,0,0-.36.07.07,0,0,0-.14,0c0,.11,0,.23,0,.34a.9.9,0,0,0-.07.31Z"/><path class="cls-1" d="M16.55,16.47a1.44,1.44,0,0,0,.3-.8c0-.18-.24-.2-.28,0s0,.53-.1.79a0,0,0,0,0,.08,0Z"/><path class="cls-1" d="M17.16,16a1.41,1.41,0,0,0,0-.94c0-.08-.19,0-.16,0a2.4,2.4,0,0,1,.1.45c0,.15,0,.3,0,.44s0,0,0,0Z"/><path class="cls-1" d="M17.62,15.35a.91.91,0,0,0-.17-.8.1.1,0,0,0-.17.1c0,.11.11.21.16.32a1.78,1.78,0,0,1,.12.37,0,0,0,0,0,.07,0Z"/><path class="cls-1" d="M11.4,19.21a.49.49,0,0,0-.25-.25.07.07,0,0,0-.08.12.34.34,0,0,0,.33.14Z"/><path class="cls-1" d="M17.7,14.29a2.34,2.34,0,0,0-.2-.31,0,0,0,0,0,0,0,1.79,1.79,0,0,1,.22.29Z"/><path class="cls-1" d="M3.57,2.82A28.6,28.6,0,0,0,7.36,4.26.13.13,0,0,0,7.46,4c-1.19-.63-2.64-.68-3.88-1.2,0,0,0,0,0,0Z"/><path class="cls-1" d="M0,11.07A11.4,11.4,0,0,1,1,8.93a4.75,4.75,0,0,1,2.44-1.8.1.1,0,0,0,0-.2C1.69,7.1.11,9.42,0,11.07Z"/><path class="cls-1" d="M18.29,11.48c-.6-1.14-.22-2.49,0-3.68.17-.88.37-2.37-.41-3a.13.13,0,0,0-.2.12,6.67,6.67,0,0,1,.42,1.78,11.29,11.29,0,0,1-.22,1.75,4,4,0,0,0,.38,3.07Z"/><path class="cls-1" d="M8,18.35c1.55,1.12,3.52,3.71,5.53,1.76a.1.1,0,0,0-.1-.16,2.84,2.84,0,0,1-3-.12A12,12,0,0,0,8,18.35Z"/></svg>