<svg id="Layer_1" data-name="Layer 1" xmlns="http://www.w3.org/2000/svg" viewBox="0 0 13.34 13.63"><defs><style>.cls-1{fill:#302929;}</style></defs><title>tomato_slice</title><path class="cls-1" d="M11.41,1.79a6.36,6.36,0,0,0-7.58-1A7.18,7.18,0,0,0,.09,7.44a6.46,6.46,0,0,0,1.66,3.47A8,8,0,0,0,5,13.34c2.57,1,5-.73,6.62-2.62a6.1,6.1,0,0,0,1.64-4.85,9.87,9.87,0,0,0-.76-2.51A4.32,4.32,0,0,0,11,1.43a.07.07,0,0,0-.08.12c1.25.87,1.81,2.59,2.12,4a5.72,5.72,0,0,1-1.19,4.6,9,9,0,0,1-3.52,2.94,4.75,4.75,0,0,1-4.47-.56,7.54,7.54,0,0,1-3-3.42A6,6,0,0,1,.85,4.52,6.75,6.75,0,0,1,8.42.4a12.91,12.91,0,0,1,2.94,1.45s.09,0,.05-.06Z"/><path class="cls-1" d="M11.1,2A6.5,6.5,0,0,0,7.05.32,6.26,6.26,0,0,0,3.51,1.37c-2.23,1.51-3.73,4.29-3,7a7.45,7.45,0,0,0,2.16,3.18,6.31,6.31,0,0,0,3.46,1.73,4.81,4.81,0,0,0,3.23-1,9.43,9.43,0,0,0,2.89-3.18,5.35,5.35,0,0,0,.39-4,9,9,0,0,0-.75-1.95,3.67,3.67,0,0,0-1.26-1.43,0,0,0,0,0,0,.06,6.23,6.23,0,0,1,2.08,4,5.65,5.65,0,0,1-1.41,4.59,7.82,7.82,0,0,1-3.76,2.73,5.05,5.05,0,0,1-4.37-1.23A7.06,7.06,0,0,1,.6,8a6,6,0,0,1,1-4.64A6.61,6.61,0,0,1,5.39.68a5.91,5.91,0,0,1,4.85.83l.84.54s0,0,0,0Z"/><path class="cls-1" d="M3.53,2.38c.41-.12.55,0,.71.39s.19.65.29,1a1.83,1.83,0,0,0,.54.71,2.64,2.64,0,0,1,.56.68c.06.13.36.69-.06.66-.12,0-.17.18,0,.22.51.13.58-.27.45-.67a2.14,2.14,0,0,0-.37-.69c-.27-.35-.71-.6-.85-1a3.64,3.64,0,0,0-.56-1.34.39.39,0,0,0-.68.09s0,0,0,0Z"/><path class="cls-1" d="M5.17,7.31c.38.34-.22.51-.48.64a3,3,0,0,0-.82.6A3,3,0,0,1,3,9.2a1,1,0,0,1-1.29-.27A.08.08,0,0,0,1.59,9c.43,1.09,1.79.34,2.34-.19a3.81,3.81,0,0,1,.85-.67,2,2,0,0,0,.67-.41c.18-.25,0-.4-.26-.47,0,0,0,0,0,0Z"/><path class="cls-1" d="M3.44,2.44A3.37,3.37,0,0,0,2,3.75c-.19.33-.28.7-.49,1a2.53,2.53,0,0,0-.43.82,2.39,2.39,0,0,0,.06.89,4.07,4.07,0,0,1,0,1.21A1.3,1.3,0,0,0,1.55,9c.09.07.21-.07.13-.15a1.61,1.61,0,0,1-.31-1.52c.08-.67-.28-1.41.07-2,.12-.22.3-.41.41-.63S2,4.2,2.12,4C2.4,3.3,3,3,3.44,2.45Z"/><path class="cls-1" d="M2.9,5.6a1.49,1.49,0,0,0,.23,0,1.14,1.14,0,0,1,.52.24c.26.17.47.39.72.58.09.07.21-.07.13-.15a4.45,4.45,0,0,0-1-.72c-.08,0-.71-.25-.62.06Z"/><path class="cls-1" d="M4.42,6.25c-.26,0-1.7-.05-1.43-.54.08-.15-.14-.3-.21-.15-.21.4.11.67.48.77s.91.25,1.19,0c0,0,0-.08,0-.08Z"/><path class="cls-1" d="M3.6,7.22c-.24-.25-.84-.14-1.13,0a.09.09,0,1,0,.06.18,1.82,1.82,0,0,1,.61-.13,2.92,2.92,0,0,0,.46,0Z"/><path class="cls-1" d="M3.58,7.19A1.57,1.57,0,0,1,3,7.44a.81.81,0,0,1-.56-.06.07.07,0,0,0-.09.1A.58.58,0,0,0,3,7.69a1,1,0,0,0,.61-.45,0,0,0,0,0,0,0Z"/><path class="cls-1" d="M4.38,7.48c-.23.29-.43.64-.83.69-.09,0-.07.16,0,.14.37-.06.66-.52.8-.83Z"/><path class="cls-1" d="M4.37,7.41a.75.75,0,0,0-.3,0,1.59,1.59,0,0,0-.4.13.45.45,0,0,0-.26.61c.06.1.24.06.21-.07s-.06-.18,0-.28a.66.66,0,0,1,.27-.18c.14-.07.37-.1.47-.21a0,0,0,0,0,0,0Z"/><path class="cls-1" d="M4.23,4.15c.07.17.22.32.31.48a.94.94,0,0,1,.12.65.1.1,0,1,0,.2,0,1.14,1.14,0,0,0-.15-.7c-.09-.18-.25-.45-.47-.47Z"/><path class="cls-1" d="M4.33,4.12a.49.49,0,0,0-.5.65.85.85,0,0,0,.33.45c.13.1.41.28.58.23a.1.1,0,0,0,.05-.16c-.06-.1-.2-.12-.3-.16a1.15,1.15,0,0,1-.36-.25c-.19-.2-.16-.63.19-.6.1,0,.11-.15,0-.16Z"/><path class="cls-1" d="M2.85,4.35a.94.94,0,0,1,.54.72c0,.08.13.09.13,0a.81.81,0,0,0-.67-.73Z"/><path class="cls-1" d="M2.79,4.47a.3.3,0,0,0,.06.44,1.09,1.09,0,0,0,.6.24c.1,0,.11-.14,0-.15A1.19,1.19,0,0,1,3,4.87a.44.44,0,0,1-.23-.39Z"/><path class="cls-1" d="M3.57,5.32c.1.1.34.11.47.16s.47.2.52.44a.09.09,0,0,0,.18,0c0-.25-.25-.4-.45-.49s-.57-.24-.72-.11Z"/><path class="cls-1" d="M4.63,5.81c-.27.08-.5,0-.76,0a.08.08,0,0,0,0,.16,1.21,1.21,0,0,0,.84,0c.09,0,0-.19-.05-.16Z"/><path class="cls-1" d="M1.92,6.34a1.35,1.35,0,0,1,.55.08c.17.07.33.23.51.26s.08-.05.06-.09C3,6.35,2,6,1.92,6.34Z"/><path class="cls-1" d="M2.9,6.53a1.45,1.45,0,0,1-.58.1c-.23,0-.31-.17-.48-.29a.06.06,0,0,0-.09.06c0,.22.27.35.47.39A1.39,1.39,0,0,0,3,6.7c.11,0,0-.21-.08-.17Z"/><path class="cls-1" d="M3.35,3.42a.45.45,0,0,0,.09.14.8.8,0,0,1,.11.2A1.07,1.07,0,0,1,3.61,4a.77.77,0,0,0,0,.21.06.06,0,0,0,.11,0,.68.68,0,0,0-.09-.48c-.06-.11-.17-.28-.31-.29Z"/><path class="cls-1" d="M3.2,3.69a.63.63,0,0,0,.43.54c.07,0,.1-.09,0-.11s-.35-.25-.45-.43Z"/><path class="cls-1" d="M4,3.49c.08.12.2.21.28.33s.09.29.18.4a.06.06,0,0,0,.11,0c.09-.29-.28-.7-.56-.72,0,0,0,0,0,0Z"/><path class="cls-1" d="M4.07,3.91a.35.35,0,0,0,.5.27c.07,0,0-.14-.07-.14a.4.4,0,0,1-.13,0L4.26,4a.44.44,0,0,0-.19-.09Z"/><path class="cls-1" d="M4.91,7.05c-.15,0-.31,0-.46,0S4.11,7,3.94,7a.07.07,0,0,0-.05.1c.1.17.34.17.51.15s.43-.06.51-.23Z"/><path class="cls-1" d="M4.56,6.72a1.1,1.1,0,0,0-.4.09c-.1,0-.26.11-.27.23A.06.06,0,0,0,4,7.11C4,7.1,4.13,7,4.22,7s.24-.07.35-.1.09-.16,0-.16Z"/><path class="cls-1" d="M3.1,8.14c-.07-.11-.28-.06-.37,0a.73.73,0,0,0-.39.31c0,.06.06.11.1.07a1.64,1.64,0,0,1,.32-.25A.73.73,0,0,1,3,8.18a.31.31,0,0,0,.14,0Z"/><path class="cls-1" d="M3,8.1a.74.74,0,0,0-.11.16l-.16.2s0,.12.08.09A.59.59,0,0,0,3,8.35c0-.06.09-.16,0-.23a0,0,0,0,0,0,0Z"/><path class="cls-1" d="M4.91,7.65c-1,.17-1.47,1.29-2.46,1.3,0,0-.06.06,0,.08a1.29,1.29,0,0,0,1.07-.3C4,8.37,4.4,8,4.92,7.65c0,0,0,0,0,0Z"/><path class="cls-1" d="M3.69,2.54A.8.8,0,0,1,4,2.87c.06.13.06.28.11.41a.07.07,0,0,0,.13,0A1.08,1.08,0,0,0,4,2.8a.46.46,0,0,0-.34-.26Z"/><path class="cls-1" d="M4.53,4c0,.62,1.29.84,1,1.56,0,.09.12.15.15.05.11-.31-.1-.55-.3-.76S4.82,4.3,4.53,4Z"/><path class="cls-1" d="M4.56,4.39A2,2,0,0,0,5,5a1,1,0,0,1,.37.59c0,.06.08,0,.09,0A.67.67,0,0,0,5.23,5c-.2-.22-.44-.43-.67-.64Z"/><path class="cls-1" d="M4.79,5c.08.13.2.22.28.35a1.31,1.31,0,0,1,.11.26,1.69,1.69,0,0,0,.05.23.06.06,0,0,0,.11,0,1,1,0,0,0-.18-.56C5.1,5.16,5,5,4.8,5c0,0,0,0,0,0Z"/><path class="cls-1" d="M4.87,5.49a.36.36,0,0,0,.08.2c0,.06.06.13.09.2s.08.05.1,0a.24.24,0,0,0,0-.25c0-.07-.11-.16-.2-.19a0,0,0,0,0,0,0Z"/><path class="cls-1" d="M3.42,3.29a1,1,0,0,1,.2.28.65.65,0,0,0,.16.28,0,0,0,0,0,.08,0,.63.63,0,0,0-.14-.34.35.35,0,0,0-.3-.19Z"/><path class="cls-1" d="M2.83,4.2a1.18,1.18,0,0,0,.23.15l.27.19c.05,0,.13,0,.1-.08s-.39-.36-.6-.26Z"/><path class="cls-1" d="M2.66,6.9a.9.9,0,0,0-.37,0,2.46,2.46,0,0,1-.56-.17.07.07,0,0,0-.06.13,1,1,0,0,0,.5.16c.15,0,.39,0,.5-.08Z"/><path class="cls-1" d="M3.26,7.72a1.09,1.09,0,0,1-.74.07.05.05,0,0,0,0,.1c.18.08.75.13.77-.17Z"/><path class="cls-1" d="M3.21,6.83a.87.87,0,0,1,.64.2.07.07,0,0,0,.08-.11.85.85,0,0,0-.72-.1Z"/><path class="cls-1" d="M3.92,6.94c-.16,0-.3.09-.46.08A2.32,2.32,0,0,1,3,6.89.08.08,0,0,0,2.9,7c.22.09,1,.31,1.06-.06a0,0,0,0,0,0-.05Z"/><path class="cls-1" d="M3.81,6.7c0-.07-.12-.09-.19-.1a.68.68,0,0,0-.31,0,0,0,0,0,0,0,.08h.26a.58.58,0,0,0,.23,0Z"/><path class="cls-1" d="M2.86,8.65c-.15,0-.29,0-.44,0s-.25,0-.37,0a0,0,0,0,0,0,.07,1,1,0,0,0,.82-.12Z"/><path class="cls-1" d="M4.41,11.31c-.1-.1-.25-.19-.25-.35s.2-.39.31-.51.45-.43.67-.65a2,2,0,0,0,.41-.89c0-.14.67-1.58.93-1a.11.11,0,0,0,.21-.07c-.1-.44-.43-.42-.73-.16a1.85,1.85,0,0,0-.45.6c-.19.43-.24,1-.58,1.36a3.54,3.54,0,0,0-.9,1c-.12.31,0,.65.36.63a0,0,0,0,0,0,0Z"/><path class="cls-1" d="M8,7.57c.1-.37.3-.21.53-.06l.54.36a4.71,4.71,0,0,0,.94.37,2.38,2.38,0,0,1,.88.57c.33.34.24.66.13,1.07,0,.07.07.15.13.09.74-.75-.33-1.61-1-1.9-.33-.15-.67-.2-1-.38s-.53-.4-.82-.53-.48.07-.41.4a0,0,0,0,0,0,0Z"/><path class="cls-1" d="M4.51,11.36A3.35,3.35,0,0,0,6.34,12c.38,0,.75-.07,1.13,0a2.48,2.48,0,0,0,.92,0,2.19,2.19,0,0,0,.71-.42,3.83,3.83,0,0,1,1-.54,1.36,1.36,0,0,0,1-1c0-.11-.16-.15-.2,0-.22.66-.76.81-1.35,1s-1,.84-1.68.83c-.25,0-.5-.07-.75-.07s-.54.06-.81.07c-.68,0-1.2-.38-1.85-.46Z"/><path class="cls-1" d="M7.57,10.38c0-.08-.1-.15-.13-.24a1.39,1.39,0,0,1,0-.55c0-.31.13-.6.18-.9,0-.11-.16-.14-.19,0a4,4,0,0,0-.18,1.3c0,.13,0,.34.16.42s.19.08.18,0Z"/><path class="cls-1" d="M7.43,8.73c.13.23.75,1.53.17,1.51-.17,0-.18.26,0,.26.45,0,.53-.42.45-.79s-.21-.92-.56-1a0,0,0,0,0-.05.06Z"/><path class="cls-1" d="M8.66,9c-.07.15,0,.35.1.48a2.05,2.05,0,0,0,.39.54.09.09,0,1,0,.12-.14,1.84,1.84,0,0,1-.39-.46A2,2,0,0,0,8.67,9Z"/><path class="cls-1" d="M8.66,9a1.51,1.51,0,0,1,.46.36.91.91,0,0,1,.16.24,1,1,0,0,1,.05.31.07.07,0,0,0,.13,0c.15-.2,0-.48-.1-.65A1,1,0,0,0,8.67,9s0,0,0,.06Z"/><path class="cls-1" d="M8.54,8.19c.35.07.77.08,1,.4.06.09.19,0,.12-.08a1.39,1.39,0,0,0-1.11-.33Z"/><path class="cls-1" d="M8.48,8.24A1.28,1.28,0,0,0,9,8.8a.44.44,0,0,0,.64-.07.11.11,0,0,0-.17-.15c-.09.08-.15.14-.27.11a.74.74,0,0,1-.26-.15c-.13-.1-.26-.28-.41-.33s0,0,0,0Z"/><path class="cls-1" d="M5.66,9.87c.11-.14.16-.31.26-.46A1,1,0,0,1,6.47,9a.1.1,0,1,0-.06-.19,1.2,1.2,0,0,0-.57.49.75.75,0,0,0-.17.6Z"/><path class="cls-1" d="M5.59,9.8a.49.49,0,0,0,.78.17.8.8,0,0,0,.28-.53.93.93,0,0,0-.07-.63.09.09,0,0,0-.16,0,.49.49,0,0,0,0,.25,1.28,1.28,0,0,1,0,.5c-.08.28-.48.46-.63.13,0-.1-.18,0-.15.07Z"/><path class="cls-1" d="M6.47,11a1,1,0,0,1,.39-.81c.07,0,0-.16-.06-.12a.81.81,0,0,0-.34.93Z"/><path class="cls-1" d="M6.61,11c.18.06.31-.08.36-.25a1.06,1.06,0,0,0-.07-.66c0-.09-.17,0-.14.07a1.26,1.26,0,0,1,.09.44.46.46,0,0,1-.25.39Z"/><path class="cls-1" d="M7,9.91c0-.13-.05-.33-.07-.46a.75.75,0,0,1,.15-.7A.09.09,0,0,0,7,8.6c-.24.11-.24.43-.22.65s.06.59.23.66Z"/><path class="cls-1" d="M6.94,8.74a.88.88,0,0,1,.19.32c0,.12.06.26.12.37s.16.05.16,0A1.31,1.31,0,0,0,7.31,9a1,1,0,0,0-.24-.38c-.08-.07-.2,0-.13.11Z"/><path class="cls-1" d="M8.67,10.9a1.35,1.35,0,0,1-.19-.53,3.14,3.14,0,0,0,0-.56.07.07,0,0,0-.12,0c-.13.15-.05.52,0,.7s.12.46.33.42Z"/><path class="cls-1" d="M8.37,9.93a1.54,1.54,0,0,1,.35.44.64.64,0,0,1,.06.32c0,.1-.07.18-.08.28A.06.06,0,0,0,8.8,11c.19-.1.19-.39.15-.58a1.36,1.36,0,0,0-.43-.64c-.09-.08-.23,0-.14.12Z"/><path class="cls-1" d="M5.42,11c.09-.11.12-.25.22-.35s.22-.15.32-.25a.06.06,0,0,0-.05-.11c-.25.06-.57.43-.5.71Z"/><path class="cls-1" d="M5.73,11A.63.63,0,0,0,6,10.36c0-.07-.13,0-.11,0a.74.74,0,0,1-.17.61Z"/><path class="cls-1" d="M5.17,10.35c.07-.12.09-.26.16-.39s.2-.22.27-.35,0-.11-.06-.09a.68.68,0,0,0-.37.83Z"/><path class="cls-1" d="M5.52,10.12c.16-.12.24-.47,0-.57a.08.08,0,0,0-.1.11.75.75,0,0,1,.07.11.37.37,0,0,1,0,.13.55.55,0,0,0,0,.22Z"/><path class="cls-1" d="M7.92,7.92A.29.29,0,0,0,8,8.06a1.08,1.08,0,0,1,.18.27c.06.14.06.37.18.47a.07.07,0,0,0,.09,0c.13-.15,0-.39-.09-.53s-.26-.38-.44-.35h0Z"/><path class="cls-1" d="M7.79,8.38A1,1,0,0,0,8,8.7c.09.07.21.17.32.13a.06.06,0,0,0,0-.08c0-.08-.15-.12-.22-.17a3.6,3.6,0,0,1-.27-.27.08.08,0,0,0-.13.09Z"/><path class="cls-1" d="M9.71,9c-.07.11.08.26.15.33a.73.73,0,0,0,.45.21.06.06,0,0,0,0-.12A1.72,1.72,0,0,1,10,9.28a.74.74,0,0,1-.16-.14A.47.47,0,0,0,9.72,9Z"/><path class="cls-1" d="M9.72,9.1a.87.87,0,0,0,.21,0l.25,0c.06,0,.09-.08,0-.11s-.41-.15-.5,0a0,0,0,0,0,0,0Z"/><path class="cls-1" d="M8.44,7.64c.6.77,1.86.71,2.29,1.58a0,0,0,0,0,.08,0,1.26,1.26,0,0,0-.69-.77C9.56,8.15,9,8,8.44,7.64Z"/><path class="cls-1" d="M4.48,11.09a.86.86,0,0,1,.17-.4c.08-.11.21-.18.3-.28s0-.13-.09-.1a1.17,1.17,0,0,0-.33.37.45.45,0,0,0-.07.41Z"/><path class="cls-1" d="M5.42,9.66c.55-.31.15-1.51.93-1.6.1,0,.07-.17,0-.15-.32.06-.43.33-.53.61s-.26.77-.37,1.15Z"/><path class="cls-1" d="M5.72,9.47C6,9.07,6,8.5,6.37,8.2c0,0,0-.09-.05-.08A.64.64,0,0,0,6,8.53a7.5,7.5,0,0,0-.27.93Z"/><path class="cls-1" d="M6.17,9c.08-.12.1-.28.18-.41A2.65,2.65,0,0,1,6.7,8.2a.06.06,0,0,0-.06-.09c-.22.09-.68.62-.49.87Z"/><path class="cls-1" d="M6.54,8.68c.07,0,.11-.09.14-.15s.1-.13.14-.19a.06.06,0,0,0,0-.1.25.25,0,0,0-.21.16c0,.07-.1.19-.06.27Z"/><path class="cls-1" d="M5.27,11a1,1,0,0,1,.14-.29.82.82,0,0,0,.18-.28s0-.08-.07-.06c-.19.11-.38.42-.27.63Z"/><path class="cls-1" d="M6.35,11.08a1.18,1.18,0,0,0,0-.28c0-.11,0-.22,0-.33s-.09-.1-.12,0-.13.52.05.65Z"/><path class="cls-1" d="M8.82,10c0,.12.11.27.15.38a3.57,3.57,0,0,1,.1.55c0,.06.13.09.14,0a.9.9,0,0,0-.09-.54c0-.12-.15-.38-.3-.4Z"/><path class="cls-1" d="M9.27,9.07a.75.75,0,0,1,.27.28,3.16,3.16,0,0,1,.13.35s.1,0,.1,0-.23-.74-.5-.62Z"/><path class="cls-1" d="M8.51,9.53a.87.87,0,0,1-.12-.67c0-.09-.12-.09-.13,0a.84.84,0,0,0,.25.68Z"/><path class="cls-1" d="M8.27,8.85c.06.15.23.22.29.38a2.75,2.75,0,0,1,.12.51.08.08,0,0,0,.16,0,1.74,1.74,0,0,0-.16-.58C8.61,9,8.49,8.74,8.3,8.8a0,0,0,0,0,0,.05Z"/><path class="cls-1" d="M8.11,9.06c-.05.05,0,.15,0,.21a.67.67,0,0,0,.16.26,0,0,0,0,0,.07,0l-.11-.24a.46.46,0,0,0-.11-.2Z"/><path class="cls-1" d="M10.28,9c.07.11.16.22.22.33a3.67,3.67,0,0,0,.2.37,0,0,0,0,0,.06,0,1,1,0,0,0-.18-.39A.83.83,0,0,0,10.28,9Z"/><path class="cls-1" d="M6.77,1a.39.39,0,0,0-.62.27,2.91,2.91,0,0,0,.23,1.43,2.48,2.48,0,0,1-.12,1.13,2.38,2.38,0,0,0,0,1c.08.4.38.75.73.36A.11.11,0,0,0,6.86,5c-.31.23-.36-.32-.38-.45a2.67,2.67,0,0,1,.12-1,1.71,1.71,0,0,0,0-.86c-.08-.28-.17-.55-.24-.83a1.8,1.8,0,0,1-.05-.43c0-.28.21-.3.42-.36a0,0,0,0,0,0,0Z"/><path class="cls-1" d="M8,6.09c-.14.16-.28.5.06.54a7.31,7.31,0,0,0,1.05,0,5,5,0,0,1,1,.16c.71.12,2.13-.1,1.87-1.14,0-.07-.13-.09-.16,0-.1.36-.14.63-.51.82a2,2,0,0,1-1.08.12c-.37,0-.71-.17-1.1-.17-.17,0-.34,0-.51,0s-.7.14-.58-.3a0,0,0,0,0,0,0Z"/><path class="cls-1" d="M6.87,1.07a13.25,13.25,0,0,1,1.82.52c.23.14.44.32.67.47s.55.24.82.39c.49.27.56,1,.85,1.38s.89.92.73,1.67c0,.12.15.19.19.07a1.31,1.31,0,0,0-.31-1.31A4.48,4.48,0,0,1,11,3.31a4.11,4.11,0,0,0-.44-.84A1.54,1.54,0,0,0,9.88,2a6.73,6.73,0,0,1-1.07-.64,3.21,3.21,0,0,0-1.94-.35Z"/><path class="cls-1" d="M9,3.44c-.06-.31-.5.19-.55.26A4,4,0,0,0,8,4.84a.1.1,0,0,0,.19.06c.11-.3.18-.61.31-.9a1,1,0,0,1,.34-.48S9,3.47,9,3.44Z"/><path class="cls-1" d="M8.1,4.88c.37.06.8-.4,1-.64s.39-.67,0-.89c-.15-.08-.29.14-.15.22.52.29-.65,1.09-.89,1.23a0,0,0,0,0,0,.08Z"/><path class="cls-1" d="M9.29,5.19a2,2,0,0,0,.39-.26,1.67,1.67,0,0,1,.59-.21c.12,0,.08-.21,0-.18a2.2,2.2,0,0,0-.61.27c-.13.08-.32.21-.34.37Z"/><path class="cls-1" d="M9.28,5.21a1,1,0,0,0,.74.06c.21-.06.47-.28.44-.52a.07.07,0,0,0-.13,0,1.28,1.28,0,0,1-.16.2.89.89,0,0,1-.28.15,1.47,1.47,0,0,1-.6.08s0,0,0,.06Z"/><path class="cls-1" d="M8.77,5.83A1.38,1.38,0,0,0,9.9,6.1c.09,0,0-.17-.07-.13-.35.18-.72,0-1.06-.14Z"/><path class="cls-1" d="M8.75,5.78a1.41,1.41,0,0,0,.45-.07,1.38,1.38,0,0,1,.32,0c.15,0,.18.11.22.23s.23.12.22,0a.43.43,0,0,0-.48-.4,1.28,1.28,0,0,0-.75.24s0,0,0,0Z"/><path class="cls-1" d="M7.12,2.93c-.17.14-.16.43-.15.63a1.17,1.17,0,0,0,.25.7c.09.1.25,0,.15-.13a1,1,0,0,1-.25-.58c0-.21,0-.41,0-.62Z"/><path class="cls-1" d="M7.12,3.09c.29-.21.5.15.48.41a1,1,0,0,1-.18.42c-.06.1-.15.17-.16.29s.05.12.11.1.28-.28.35-.44a.87.87,0,0,0,.07-.66A.49.49,0,0,0,7,3c-.08.07,0,.19.11.12Z"/><path class="cls-1" d="M8.39,2.35a.82.82,0,0,0-.18,1c0,.07.16,0,.12-.06a1,1,0,0,1,.07-.91Z"/><path class="cls-1" d="M8.51,2.43a.46.46,0,0,1,0,.45,1.19,1.19,0,0,1-.31.35c-.08.06,0,.18.1.12s.69-.81.19-.92Z"/><path class="cls-1" d="M8.3,3.56c-.19,0-.42.31-.52.44s-.29.48-.14.7.18,0,.15-.1A.69.69,0,0,1,8,4c.09-.13.3-.27.33-.42Z"/><path class="cls-1" d="M7.71,4.71a1,1,0,0,0,.36-.18,1.2,1.2,0,0,0,.33-.31.08.08,0,0,0-.12-.11c-.21.14-.33.37-.6.44-.1,0-.07.19,0,.16Z"/><path class="cls-1" d="M10.24,3.54c-.28-.25-.87.57-.82.82a.07.07,0,0,0,.11,0,2.28,2.28,0,0,0,.27-.46,1.32,1.32,0,0,1,.45-.39Z"/><path class="cls-1" d="M9.55,4.41a1.53,1.53,0,0,0,.67-.3c.16-.13.31-.4.21-.6a.06.06,0,0,0-.11,0,2.18,2.18,0,0,0-.05.23.54.54,0,0,1-.2.27,1.25,1.25,0,0,1-.54.22.09.09,0,0,0,0,.18Z"/><path class="cls-1" d="M7.47,1.84a.71.71,0,0,0,.07.85s.13,0,.11-.05-.12-.24-.15-.38a3.85,3.85,0,0,1,0-.42Z"/><path class="cls-1" d="M7.74,2a.73.73,0,0,1-.15.61c-.06.06,0,.14.08.07A.63.63,0,0,0,7.74,2Z"/><path class="cls-1" d="M6.93,2.26a.69.69,0,0,0-.1.9.06.06,0,0,0,.11,0c0-.14-.05-.29-.06-.43s.05-.28.06-.42Z"/><path class="cls-1" d="M7.12,2.64A.39.39,0,0,0,7,2.81L7,2.91S6.87,3,6.83,3a.08.08,0,0,0,0,.15c.24,0,.35-.31.27-.5Z"/><path class="cls-1" d="M8.09,5.75c.14.11.39,0,.53-.07S9,5.45,9,5.26a.07.07,0,0,0-.09-.06.27.27,0,0,0-.16.11,1.86,1.86,0,0,1-.23.21c-.12.09-.33.1-.43.22Z"/><path class="cls-1" d="M8.27,5.43c.11,0,.22-.07.33-.1l.18,0a.25.25,0,0,0,.13,0,.07.07,0,0,0,0-.1c-.08-.09-.23-.06-.34,0a1,1,0,0,0-.4.15c-.07,0,0,.16.07.14Z"/><path class="cls-1" d="M10.2,5.7c.1,0,.21-.07.32-.09a1.64,1.64,0,0,1,.44,0,.06.06,0,0,0,0-.12.74.74,0,0,0-.47-.06c-.11,0-.33.08-.33.22Z"/><path class="cls-1" d="M10.21,5.67c0,.17.3.24.43.24a.06.06,0,0,0,0-.12l-.23-.07a.93.93,0,0,0-.2-.08,0,0,0,0,0,0,0Z"/><path class="cls-1" d="M8.41,6.26a12.88,12.88,0,0,1,1.7.15,1.32,1.32,0,0,0,1.13-.3s0-.09,0-.07c-.83.53-1.87-.14-2.78.22Z"/><path class="cls-1" d="M6.71,1.28a.44.44,0,0,0-.15.36,1.05,1.05,0,0,0,.09.51.07.07,0,0,0,.13,0c0-.13-.09-.24-.12-.37a.82.82,0,0,1,0-.45Z"/><path class="cls-1" d="M6.8,3c-.1.38-.16.78-.25,1.16A.75.75,0,0,0,6.71,5c.08.06.17-.07.09-.13-.62-.46.33-1.31,0-1.85Z"/><path class="cls-1" d="M7,3.3c-.08.28-.17.58-.22.87a.7.7,0,0,0,.08.6,0,0,0,0,0,.08-.05C6.71,4.28,7,3.78,7,3.31Z"/><path class="cls-1" d="M7.09,4c-.3.12-.16.81,0,1a.06.06,0,0,0,.1,0c0-.15-.1-.28-.12-.42A4.4,4.4,0,0,1,7.1,4s0,0,0,0Z"/><path class="cls-1" d="M7.26,4.39c-.07,0-.08.16-.09.23a.27.27,0,0,0,.09.27.06.06,0,0,0,.09-.06c0-.1,0-.19,0-.29s0-.17-.07-.15Z"/><path class="cls-1" d="M7.33,1.77a.55.55,0,0,0-.09.67,0,0,0,0,0,.09,0,.62.62,0,0,0,0-.28,1.1,1.1,0,0,1,0-.38Z"/><path class="cls-1" d="M8.32,2.22c-.22,0-.37.33-.37.53a.07.07,0,0,0,.13,0c0-.09.08-.19.12-.29a1.53,1.53,0,0,0,.12-.26Z"/><path class="cls-1" d="M9.92,4.41c.14.05.32-.09.43-.17a1,1,0,0,0,.37-.43c0-.06-.06-.13-.12-.08a4.15,4.15,0,0,1-.35.41c-.1.09-.29.14-.34.27Z"/><path class="cls-1" d="M9.84,5.43c.18.24.63-.11.74-.27a.05.05,0,0,0-.08-.07c-.1.08-.18.16-.29.23a.7.7,0,0,1-.38.11Z"/><path class="cls-1" d="M9.41,4.64a.84.84,0,0,0-.56.47c0,.08.1.12.13,0a.86.86,0,0,1,.43-.51s0,0,0,0Z"/><path class="cls-1" d="M8.86,5.18c.13.13.33,0,.46-.06a2,2,0,0,0,.48-.46c.05-.08-.06-.18-.12-.11a3.93,3.93,0,0,1-.36.39C9.18,5,9,5,8.86,5.12a0,0,0,0,0,0,.05Z"/><path class="cls-1" d="M8.84,4.86c.07,0,.14-.08.2-.12l.22-.15a0,0,0,0,0,0-.07A.78.78,0,0,0,9,4.66c-.05,0-.13.12-.12.2Z"/><path class="cls-1" d="M10.68,6a.83.83,0,0,0,.41-.09.92.92,0,0,0,.34-.25,0,0,0,0,0,0-.05.85.85,0,0,0-.16.1l-.19.11c-.12.07-.25.11-.37.18Z"/><path class="cls-1" d="M7.68,1.46a4.19,4.19,0,0,0,.58.17c.3.09.51.37.75.56.42.32,1.09.32,1.36.82,0,.06.13,0,.09,0-.25-.48-.82-.54-1.26-.78-.29-.16-.49-.42-.77-.58a2,2,0,0,0-.75-.15Z"/><path class="cls-1" d="M8,1.72a2.67,2.67,0,0,1,.76.46,2.5,2.5,0,0,0,.59.42s.09-.06,0-.08C9,2.25,8.53,1.67,8,1.71Z"/><path class="cls-1" d="M8.31,2.05c.21.12.35.31.55.43,0,0,.1,0,.06-.07A1.38,1.38,0,0,0,8.32,2s0,0,0,0Z"/><path class="cls-1" d="M8.51,2.33l.16.14.13.15s.09,0,.08,0a.53.53,0,0,0-.35-.28s0,0,0,0Z"/><path class="cls-1" d="M9.8,2.78c.09.07.19.14.28.22a2.1,2.1,0,0,1,.21.25s0,0,0,0a.75.75,0,0,0-.52-.45Z"/><path class="cls-1" d="M9.66,3a2.68,2.68,0,0,1,.5.55,0,0,0,0,0,.08,0,2,2,0,0,0-.5-.58s-.12,0-.08.07Z"/><path class="cls-1" d="M9.59,3.18a1.54,1.54,0,0,0,.19.23,1.51,1.51,0,0,0,.18.25,0,0,0,0,0,.06,0,.83.83,0,0,0-.17-.27c-.06-.07-.15-.18-.25-.18Z"/><path class="cls-1" d="M9.48,3.4a.88.88,0,0,1,.29.39s.08,0,.07,0a.56.56,0,0,0-.37-.37Z"/><path class="cls-1" d="M9.43,3.65a.33.33,0,0,0,.06.15,1,1,0,0,1,.1.19,0,0,0,1,0,.09,0,.7.7,0,0,0-.1-.17.53.53,0,0,0-.14-.14Z"/><path class="cls-1" d="M9.28,3.88a1,1,0,0,1,.2.37c0,.06.12,0,.1,0a1.29,1.29,0,0,0-.22-.4s-.11,0-.08.05Z"/><path class="cls-1" d="M9.2,4.08a1.79,1.79,0,0,1,.11.2,1.09,1.09,0,0,0,.08.23.05.05,0,0,0,.09,0,.41.41,0,0,0-.06-.24A1.1,1.1,0,0,0,9.26,4s-.09,0-.06,0Z"/><path class="cls-1" d="M9.08,4.33a.55.55,0,0,1,.08.21c0,.08.14,0,.12,0a.32.32,0,0,0-.17-.2s0,0,0,0Z"/><path class="cls-1" d="M8.93,4.55s0,.08.05.11a0,0,0,0,0,.06,0A.14.14,0,0,0,9,4.52a0,0,0,0,0,0,0Z"/><path class="cls-1" d="M11.3,4.54a.71.71,0,0,0,.1.3,1.55,1.55,0,0,1,.18.79.94.94,0,0,1-.5.88c-.08,0,0,.15,0,.13a.85.85,0,0,0,.54-.72,1.75,1.75,0,0,0-.37-1.38Z"/><path class="cls-1" d="M11.17,4.78c.07.2.11.41.16.62,0,0,.1,0,.09,0a1.18,1.18,0,0,0-.25-.62Z"/><path class="cls-1" d="M11,5c0,.12.06.24.09.36s.11,0,.09,0A1.63,1.63,0,0,0,11.06,5s0,0,0,0Z"/><path class="cls-1" d="M7.9,4.76c-.07,0-.13.09-.18.13a.81.81,0,0,0-.19.17,0,0,0,0,0,.05.06.72.72,0,0,0,.22-.18s.11-.11.1-.18Z"/><path class="cls-1" d="M7.94,5.87c-.22.15-.49.56-.28.82,0,0,.08,0,.06,0a.84.84,0,0,1,.21-.77Z"/><path class="cls-1" d="M7.16,5.36A2,2,0,0,0,7,5.51a.91.91,0,0,1-.26.11,0,0,0,0,0,0,.07.43.43,0,0,0,.45-.32Z"/><path class="cls-1" d="M5.87,4.78a2.54,2.54,0,0,1,.24.51,1.61,1.61,0,0,1,0,.63c0,.05.08.07.09,0a1.2,1.2,0,0,0-.36-1.15Z"/><path class="cls-1" d="M5.9,7.32c-.07.09-.13.19-.19.28a1.93,1.93,0,0,1-.23.24s0,0,0,0c.23,0,.3-.41.39-.57Z"/><path class="cls-1" d="M5.25,6a.66.66,0,0,0,.82.16,0,0,0,0,0,0-.06,2.06,2.06,0,0,0-.31,0A.57.57,0,0,1,5.25,6Z"/><path class="cls-1" d="M5.17,7.14a2.6,2.6,0,0,1,.33,0l.27.06a0,0,0,0,0,0-.06.77.77,0,0,0-.62,0Z"/><path class="cls-1" d="M7.91,7a1.26,1.26,0,0,0-.23.42.36.36,0,0,0,.09.38,0,0,0,0,0,.05,0,.58.58,0,0,1-.05-.38A1.42,1.42,0,0,1,7.91,7Z"/><path class="cls-1" d="M6.72,7.44a1.12,1.12,0,0,1,.13.29,1.25,1.25,0,0,1,0,.32s.07.08.1,0a.44.44,0,0,0,0-.36.53.53,0,0,0-.24-.28Z"/><path class="cls-1" d="M4.66,2.7a5.14,5.14,0,0,0,.27,1c.09.3.33.43.53.64a0,0,0,0,0,.07,0A.55.55,0,0,0,5.33,4,1,1,0,0,1,5,3.55a3.07,3.07,0,0,0-.34-.85Z"/><path class="cls-1" d="M6,2a1.07,1.07,0,0,0,.14.59,2.14,2.14,0,0,1,0,1.18,0,0,0,0,0,.07,0A1.46,1.46,0,0,0,6.29,3c0-.33-.25-.6-.3-.93Z"/><path class="cls-1" d="M5.15,8.17a1.42,1.42,0,0,0-.73.45c-.22.22-.47.45-.68.68,0,0,0,.07,0,.05a1.77,1.77,0,0,0,.54-.48,3.09,3.09,0,0,1,.83-.7Z"/><path class="cls-1" d="M8.74,7.15a8.09,8.09,0,0,0,.75.49,14.29,14.29,0,0,1,1.32.56,0,0,0,0,0,0-.07,3.34,3.34,0,0,0-1-.46c-.38-.13-.69-.43-1.08-.53Z"/><path class="cls-1" d="M11.39,6.8a3.35,3.35,0,0,1-1,.14c-.39,0-.71-.26-1.1-.23,0,0,0,.06,0,.07a2.46,2.46,0,0,0,2.12,0h0Z"/><path class="cls-1" d="M3.1,3A3.9,3.9,0,0,0,1.89,4.9s0,.07.07,0c.17-.31.31-.63.47-.93s.45-.65.67-1Z"/><path class="cls-1" d="M2.61,4a2.14,2.14,0,0,0-.47,1,0,0,0,0,0,.06,0,2.61,2.61,0,0,0,.2-.46c.07-.17.16-.34.24-.51,0,0,0,0,0,0Z"/><path class="cls-1" d="M2.61,4.37a1.92,1.92,0,0,0-.27.9,0,0,0,0,0,.07,0c0-.15.05-.3.1-.45s.09-.29.14-.44a0,0,0,1,0,0,0Z"/><path class="cls-1" d="M2.68,4.72a1,1,0,0,0-.17.69,0,0,0,0,0,.07,0,1.87,1.87,0,0,0,0-.31,2.16,2.16,0,0,1,.11-.36,0,0,0,0,0,0,0Z"/><path class="cls-1" d="M2.9,4.86c-.12.07-.13.31-.12.43s.08,0,.08,0,0-.14,0-.22a.59.59,0,0,0,0-.2Z"/><path class="cls-1" d="M3,5s0,.1,0,.15,0,.11,0,.15a.05.05,0,0,0,.08,0,.17.17,0,0,0,0-.13,1.55,1.55,0,0,0,0-.17c0-.09-.13-.1-.14,0Z"/><path class="cls-1" d="M3.27,5a0,0,0,0,0,0,.06,0,0,0,0,0,0,0v0s0,0,0,0Z"/><path class="cls-1" d="M3.65,4.42a.94.94,0,0,0,.21.74.74.74,0,0,0,.78.27.06.06,0,0,0,0-.12A.69.69,0,0,1,3.88,5c-.11-.18-.12-.4-.23-.57Z"/><path class="cls-1" d="M3.55,4.94a1.16,1.16,0,0,0,.2.29.57.57,0,0,0,.29.2.05.05,0,0,0,0-.1.8.8,0,0,1-.32-.23c-.05-.06-.13-.15-.21-.16Z"/><path class="cls-1" d="M1.48,5.78a7.27,7.27,0,0,0,0,1.54c0,.38-.1.75.18,1.05,0,0,.1,0,.08,0A2.58,2.58,0,0,1,1.59,7c0-.42-.13-.82-.11-1.25Z"/><path class="cls-1" d="M1.73,7.67c.05.22.08.52.27.68s.1,0,.06-.07a2.21,2.21,0,0,1-.32-.61Z"/><path class="cls-1" d="M2,7.73c.06.18.11.48.32.54,0,0,.07,0,0-.06A1.38,1.38,0,0,1,2.14,8C2.09,7.9,2,7.81,2,7.73Z"/><path class="cls-1" d="M2.19,7.74a.67.67,0,0,0,.43.44.05.05,0,1,0,0-.1c-.21,0-.28-.24-.42-.37s0,0,0,0Z"/><path class="cls-1" d="M2.38,7.65c.11.19.34.48.59.39C3,8,3,8,3,8a.76.76,0,0,1-.31-.1,1.32,1.32,0,0,1-.23-.22s0,0,0,0Z"/><path class="cls-1" d="M2.63,7.67c.07.09.27.24.39.17a0,0,0,0,0,0-.09,1.2,1.2,0,0,0-.19,0l-.17-.07a0,0,0,0,0,0,0Z"/><path class="cls-1" d="M3.36,8.48a.69.69,0,0,0-.18.1A1,1,0,0,0,3,8.68a0,0,0,0,0,0,0,.31.31,0,0,0,.2-.08.56.56,0,0,0,.16-.17Z"/><path class="cls-1" d="M4.69,7.35a.67.67,0,0,0-.13.2c0,.08-.11.14-.16.21a0,0,0,0,0,0,.05.51.51,0,0,0,.24-.46Z"/><path class="cls-1" d="M4.15,6.64c.16,0,.3,0,.46,0a2.43,2.43,0,0,1,.5.12,0,0,0,0,0,0-.08c-.25-.1-.77-.24-1,0Z"/><path class="cls-1" d="M4.71,6.44a.61.61,0,0,1,.34,0,3.2,3.2,0,0,0,.29.14,0,0,0,0,0,0,0,.54.54,0,0,0-.3-.19.41.41,0,0,0-.37,0s0,0,0,0Z"/><path class="cls-1" d="M5,6.26a.82.82,0,0,1,.46.27,0,0,0,0,0,.07,0A.64.64,0,0,0,5,6.23s0,0,0,0Z"/><path class="cls-1" d="M5.36,6.78a1.22,1.22,0,0,1-.22.09l-.24,0a0,0,0,0,0,0,.07c.14,0,.42,0,.46-.18Z"/><path class="cls-1" d="M1.85,5c-.1,0-.18.1-.25.17a.53.53,0,0,0-.17.29s0,.06.06,0,.11-.17.17-.25.16-.14.18-.23Z"/><path class="cls-1" d="M1.92,5.21a.77.77,0,0,0-.36.38s0,.08.07,0a2.09,2.09,0,0,0,.14-.18A2.24,2.24,0,0,1,2,5.26s0-.06,0,0Z"/><path class="cls-1" d="M2,5.47l-.15.12a.39.39,0,0,0-.11.13,0,0,0,0,0,.06,0,.44.44,0,0,0,.11-.12L2,5.49a0,0,0,0,0,0,0Z"/><path class="cls-1" d="M2,5.67a.55.55,0,0,0-.11.1.24.24,0,0,0-.07.13,0,0,0,0,0,0,0,.34.34,0,0,0,.07-.1L2,5.71s0-.05,0,0Z"/><path class="cls-1" d="M2.08,5.83A.29.29,0,0,0,2,6,0,0,0,0,0,2,6a.79.79,0,0,0,.07-.15s0,0,0,0Z"/><path class="cls-1" d="M2.23,5.93V6s0,0,0,0v0a0,0,0,0,0,0,0Z"/><path class="cls-1" d="M3.48,2.78a.91.91,0,0,0-.3.28l-.36.47s0,.07.05,0a1.45,1.45,0,0,0,.3-.38c.09-.15.2-.28.3-.42Z"/><path class="cls-1" d="M3.33,2.32A1,1,0,0,0,3,2.5a2.32,2.32,0,0,0-.32.24,0,0,0,0,0,0,0L3,2.54a3.31,3.31,0,0,0,.31-.22Z"/><path class="cls-1" d="M7.48,8.33a2.22,2.22,0,0,0,.25.36A1.87,1.87,0,0,1,8,9.13c0,.05.09,0,.09,0,0-.3-.36-.58-.57-.77Z"/><path class="cls-1" d="M7.92,11.63a3.67,3.67,0,0,0-1.4-.1,5.27,5.27,0,0,1-.65,0c-.27,0-.48-.2-.75-.24,0,0-.06.07,0,.08a2.21,2.21,0,0,0,1.09.26c.57-.06,1.15.06,1.72,0Z"/><path class="cls-1" d="M7.82,11.43a2.59,2.59,0,0,0-1.42,0,0,0,0,0,0,0,.08,5.73,5.73,0,0,1,.74-.06c.22,0,.44,0,.66,0a0,0,0,0,0,0,0Z"/><path class="cls-1" d="M7.7,11.21a1.81,1.81,0,0,0-1.08-.06,0,0,0,0,0,0,.07c.16,0,.33,0,.49,0a5.37,5.37,0,0,1,.57,0Z"/><path class="cls-1" d="M7.56,11a.82.82,0,0,0-.62-.1,0,0,0,0,0,0,0h.29l.33,0Z"/><path class="cls-1" d="M7.41,10.67a.57.57,0,0,0-.4,0s0,0,0,0h.16a.85.85,0,0,1,.21,0s0,0,0,0Z"/><path class="cls-1" d="M7.19,10.42a.22.22,0,0,0-.16,0s0,0,0,0l.14,0Z"/><path class="cls-1" d="M10.73,10a3.3,3.3,0,0,1-.74.46,1.42,1.42,0,0,0-.64.27.06.06,0,0,0,.07.09c.42-.28,1-.32,1.32-.81Z"/><path class="cls-1" d="M10.27,10.15a3.54,3.54,0,0,1-.59.21c-.12,0-.39.12-.39.28a0,0,0,0,0,.05,0,1.88,1.88,0,0,1,.2-.15,2.16,2.16,0,0,1,.29-.11,1,1,0,0,0,.44-.24Z"/><path class="cls-1" d="M10,10.08a1.09,1.09,0,0,1-.4.16.45.45,0,0,0-.28.16s0,.07,0,.05.1-.08.16-.11a1,1,0,0,1,.2-.07.91.91,0,0,0,.33-.15s0-.08,0-.05Z"/><path class="cls-1" d="M9.66,10a.53.53,0,0,1-.21.1.4.4,0,0,0-.18.08,0,0,0,0,0,0,.06.78.78,0,0,0,.22-.07.63.63,0,0,0,.2-.12,0,0,0,0,0,0-.05Z"/><path class="cls-1" d="M8.14,10.46a.93.93,0,0,0,.18.41,1,1,0,0,0,.36.37,0,0,0,1,0,0-.08.93.93,0,0,1-.35-.32c-.09-.12-.13-.27-.23-.37Z"/><path class="cls-1" d="M8.16,10.88a2,2,0,0,0,.2.3c.06.08.17.21.28.2a0,0,0,0,0,0-.08.24.24,0,0,0-.09-.06.89.89,0,0,1-.16-.12,1.27,1.27,0,0,1-.2-.27s-.09,0-.07,0Z"/><path class="cls-1" d="M8.19,11.2a.41.41,0,0,0,.26.3s.08-.05,0-.08l-.16-.09a.74.74,0,0,1-.14-.14Z"/><path class="cls-1" d="M8.15,11.46c0,.05.17.14.2.15a0,0,0,0,0,0-.09l-.15,0s-.06,0-.08,0Z"/><path class="cls-1" d="M8.1,11.67l0,0c.06,0,.1-.09,0-.1h0a.05.05,0,0,0,0,.1Z"/><path class="cls-1" d="M4.84,10.72a.4.4,0,0,0-.21.32c0,.11,0,.35.13.36a0,0,0,0,0,0-.05s0-.08-.06-.13a.48.48,0,0,1,0-.17.76.76,0,0,1,.11-.33Z"/><path class="cls-1" d="M4.37,10.78a.38.38,0,0,0-.07.29,0,0,0,1,0,.07,0,.52.52,0,0,1,0-.26Z"/><path class="cls-1" d="M9.77,8.63l.25.13c.07,0,.13.11.2.15s.07,0,0,0-.33-.18-.5-.23Z"/><path class="cls-1" d="M8.65,8.41s-.07.07-.1.1a.48.48,0,0,1-.17.15,0,0,0,0,0,0,.07.25.25,0,0,0,.18-.13s.08-.14.06-.2Z"/><path class="cls-1" d="M8.77,8.54a1.45,1.45,0,0,1-.15.22l-.1.09a.76.76,0,0,0-.12.08,0,0,0,0,0,0,.07c.09,0,.2-.09.25-.15a.33.33,0,0,0,.11-.29Z"/><path class="cls-1" d="M9,8.71A.79.79,0,0,1,8.62,9c-.07,0,0,.12,0,.1A.46.46,0,0,0,9,8.71Z"/><path class="cls-1" d="M9.16,8.78a.36.36,0,0,0-.11.1A.37.37,0,0,1,8.88,9c-.08,0-.05.15,0,.13A.39.39,0,0,0,9.1,9a.23.23,0,0,0,.06-.2Z"/><path class="cls-1" d="M9.33,8.8a0,0,0,0,0,.09,0,0,0,0,0,0-.09,0Z"/><path class="cls-1" d="M8.37,8.05l.12,0,.16,0S8.7,8,8.66,8a.41.41,0,0,0-.29,0h0Z"/><path class="cls-1" d="M7.67,7.94a.3.3,0,0,0-.06.15.36.36,0,0,0,0,.19,0,0,0,0,0,.09,0,.59.59,0,0,0,0-.15.74.74,0,0,0,0-.17,0,0,0,0,0-.05,0Z"/><path class="cls-1" d="M7.56,7.8c-.08,0-.12.13-.16.19a.47.47,0,0,0-.07.25,0,0,0,0,0,.1,0A.88.88,0,0,1,7.5,8c0-.07.08-.13.06-.2Z"/><path class="cls-1" d="M7.35,7.66A.63.63,0,0,0,7.16,8a0,0,0,0,0,.06,0,.61.61,0,0,0,.09-.17c0-.07.07-.13.09-.2s0,0,0,0Z"/><path class="cls-1" d="M7.5,6.19a.72.72,0,0,0-.09.44s.07.05.07,0,0-.15,0-.23,0-.14,0-.21Z"/><path class="cls-1" d="M7.32,12.12a5.59,5.59,0,0,0-.94.06,2.75,2.75,0,0,1-1.1-.27,0,0,0,0,0,0,.06,2.48,2.48,0,0,0,2.07.15Z"/><path class="cls-1" d="M10.75,2.48a6.54,6.54,0,0,0,1.07,1.81s.09,0,.06-.05c-.42-.56-.76-1.16-1.13-1.75Z"/><path class="cls-1" d="M1,6.86a3.65,3.65,0,0,0-.11.82A1.1,1.1,0,0,0,1,8.33a0,0,0,0,0,.08,0A13.39,13.39,0,0,1,1,6.86Z"/><path class="cls-1" d="M5.06,9.2a3.57,3.57,0,0,1-.65.59,1.57,1.57,0,0,0-.49.54s0,.08.08.05a5.59,5.59,0,0,1,.62-.64,1.19,1.19,0,0,0,.45-.55Z"/><path class="cls-1" d="M5.68.84a3.5,3.5,0,0,0-1.1.31,3.38,3.38,0,0,0-1.11.63s0,.08,0,.06c.33-.19.65-.4,1-.57S5.29,1,5.68.84Z"/><path class="cls-1" d="M8.38,12.5a4.53,4.53,0,0,1-2.84.24,7,7,0,0,1-2.73-1.56s-.11,0-.07.08C4,12.6,6.67,13.73,8.38,12.5Z"/><path class="cls-1" d="M8.81,0a6.08,6.08,0,0,1,4.12,3.63s.09,0,.07,0A5.67,5.67,0,0,0,8.81,0s0,0,0,0Z"/><path class="cls-1" d="M4.43,13.46c-1.9-1-3.88-2.65-4.35-4.84a0,0,0,0,0-.08,0c.4,2.18,2.49,4,4.42,4.83Z"/></svg>